<svg width="16" height="16" viewBox="0 0 16 16" fill="none" xmlns="http://www.w3.org/2000/svg">
<rect width="16" height="16" fill="white" fill-opacity="0.01"/>
<path fill-rule="evenodd" clip-rule="evenodd" d="M0 7.99999C0 7.70544 0.238782 7.46666 0.533333 7.46666H3.2C3.49455 7.46666 3.73333 7.70544 3.73333 7.99999C3.73333 8.29454 3.49455 8.53333 3.2 8.53333H0.533333C0.238782 8.53333 0 8.29454 0 7.99999ZM6.13333 7.99999C6.13333 7.70544 6.37212 7.46666 6.66667 7.46666H9.33333C9.62788 7.46666 9.86667 7.70544 9.86667 7.99999C9.86667 8.29454 9.62788 8.53333 9.33333 8.53333H6.66667C6.37212 8.53333 6.13333 8.29454 6.13333 7.99999ZM12.8 7.46666C12.5055 7.46666 12.2667 7.70544 12.2667 7.99999C12.2667 8.29454 12.5055 8.53333 12.8 8.53333H15.4667C15.7612 8.53333 16 8.29454 16 7.99999C16 7.70544 15.7612 7.46666 15.4667 7.46666H12.8Z" fill="#1C2024"/>
</svg>
