<svg width="16" height="16" viewBox="0 0 16 16" fill="none" xmlns="http://www.w3.org/2000/svg">
<rect width="16" height="16" fill="white" fill-opacity="0.01"/>
<path fill-rule="evenodd" clip-rule="evenodd" d="M0.266663 1.06666C0.266663 0.624834 0.624834 0.266663 1.06666 0.266663H14.9333C15.3751 0.266663 15.7333 0.624834 15.7333 1.06666V14.9333C15.7333 15.3751 15.3751 15.7333 14.9333 15.7333H1.06666C0.624834 15.7333 0.266663 15.3751 0.266663 14.9333V1.06666ZM1.86666 1.86666V14.1333H14.1333V1.86666H1.86666Z" fill="#1C2024"/>
<path d="M8.53333 5.86666C8.53333 5.57211 8.29455 5.33333 8 5.33333C7.70544 5.33333 7.46666 5.57211 7.46666 5.86666C7.46666 6.16121 7.70544 6.4 8 6.4C8.29455 6.4 8.53333 6.16121 8.53333 5.86666Z" fill="#1C2024"/>
<path d="M8.53333 3.73333C8.53333 3.43878 8.29455 3.2 8 3.2C7.70544 3.2 7.46666 3.43878 7.46666 3.73333C7.46666 4.02788 7.70544 4.26666 8 4.26666C8.29455 4.26666 8.53333 4.02788 8.53333 3.73333Z" fill="#1C2024"/>
<path d="M8.53333 8C8.53333 7.70544 8.29455 7.46666 8 7.46666C7.70544 7.46666 7.46666 7.70544 7.46666 8C7.46666 8.29455 7.70544 8.53333 8 8.53333C8.29455 8.53333 8.53333 8.29455 8.53333 8Z" fill="#1C2024"/>
<path d="M6.4 8C6.4 7.70544 6.16121 7.46666 5.86666 7.46666C5.57211 7.46666 5.33333 7.70544 5.33333 8C5.33333 8.29455 5.57211 8.53333 5.86666 8.53333C6.16121 8.53333 6.4 8.29455 6.4 8Z" fill="#1C2024"/>
<path d="M4.26666 8C4.26666 7.70544 4.02788 7.46666 3.73333 7.46666C3.43878 7.46666 3.2 7.70544 3.2 8C3.2 8.29455 3.43878 8.53333 3.73333 8.53333C4.02788 8.53333 4.26666 8.29455 4.26666 8Z" fill="#1C2024"/>
<path d="M10.6667 8C10.6667 7.70544 10.4279 7.46666 10.1333 7.46666C9.83878 7.46666 9.6 7.70544 9.6 8C9.6 8.29455 9.83878 8.53333 10.1333 8.53333C10.4279 8.53333 10.6667 8.29455 10.6667 8Z" fill="#1C2024"/>
<path d="M12.8 8C12.8 7.70544 12.5612 7.46666 12.2667 7.46666C11.9721 7.46666 11.7333 7.70544 11.7333 8C11.7333 8.29455 11.9721 8.53333 12.2667 8.53333C12.5612 8.53333 12.8 8.29455 12.8 8Z" fill="#1C2024"/>
<path d="M8.53333 10.1333C8.53333 9.83878 8.29455 9.6 8 9.6C7.70544 9.6 7.46666 9.83878 7.46666 10.1333C7.46666 10.4279 7.70544 10.6667 8 10.6667C8.29455 10.6667 8.53333 10.4279 8.53333 10.1333Z" fill="#1C2024"/>
<path d="M8.53333 12.2667C8.53333 11.9721 8.29455 11.7333 8 11.7333C7.70544 11.7333 7.46666 11.9721 7.46666 12.2667C7.46666 12.5612 7.70544 12.8 8 12.8C8.29455 12.8 8.53333 12.5612 8.53333 12.2667Z" fill="#1C2024"/>
</svg>
