<svg width="16" height="16" viewBox="0 0 16 16" fill="none" xmlns="http://www.w3.org/2000/svg">
<rect width="16" height="16" fill="white" fill-opacity="0.01"/>
<path d="M8.53335 5.89334C8.53335 5.59879 8.29457 5.36 8.00001 5.36C7.70546 5.36 7.46668 5.59879 7.46668 5.89334C7.46668 6.18789 7.70546 6.42667 8.00001 6.42667C8.29457 6.42667 8.53335 6.18789 8.53335 5.89334Z" fill="#1C2024"/>
<path d="M14.9333 5.89334C14.9333 5.59879 14.6946 5.36 14.4 5.36C14.1055 5.36 13.8667 5.59879 13.8667 5.89334C13.8667 6.18789 14.1055 6.42667 14.4 6.42667C14.6946 6.42667 14.9333 6.18789 14.9333 5.89334Z" fill="#1C2024"/>
<path d="M8.53335 3.76C8.53335 3.46545 8.29457 3.22667 8.00001 3.22667C7.70546 3.22667 7.46668 3.46545 7.46668 3.76C7.46668 4.05456 7.70546 4.29334 8.00001 4.29334C8.29457 4.29334 8.53335 4.05456 8.53335 3.76Z" fill="#1C2024"/>
<path d="M14.9333 3.76C14.9333 3.46545 14.6946 3.22667 14.4 3.22667C14.1055 3.22667 13.8667 3.46545 13.8667 3.76C13.8667 4.05456 14.1055 4.29334 14.4 4.29334C14.6946 4.29334 14.9333 4.05456 14.9333 3.76Z" fill="#1C2024"/>
<path d="M8.53335 8.02667C8.53335 7.73212 8.29457 7.49334 8.00001 7.49334C7.70546 7.49334 7.46668 7.73212 7.46668 8.02667C7.46668 8.32122 7.70546 8.56 8.00001 8.56C8.29457 8.56 8.53335 8.32122 8.53335 8.02667Z" fill="#1C2024"/>
<path d="M8.53335 14.4267C8.53335 14.1321 8.29457 13.8933 8.00001 13.8933C7.70546 13.8933 7.46668 14.1321 7.46668 14.4267C7.46668 14.7212 7.70546 14.96 8.00001 14.96C8.29457 14.96 8.53335 14.7212 8.53335 14.4267Z" fill="#1C2024"/>
<path d="M8.53335 1.62667C8.53335 1.33212 8.29457 1.09334 8.00001 1.09334C7.70546 1.09334 7.46668 1.33212 7.46668 1.62667C7.46668 1.92122 7.70546 2.16 8.00001 2.16C8.29457 2.16 8.53335 1.92122 8.53335 1.62667Z" fill="#1C2024"/>
<path d="M14.9333 8.02667C14.9333 7.73212 14.6946 7.49334 14.4 7.49334C14.1055 7.49334 13.8667 7.73212 13.8667 8.02667C13.8667 8.32122 14.1055 8.56 14.4 8.56C14.6946 8.56 14.9333 8.32122 14.9333 8.02667Z" fill="#1C2024"/>
<path d="M14.9333 14.4267C14.9333 14.1321 14.6946 13.8933 14.4 13.8933C14.1055 13.8933 13.8667 14.1321 13.8667 14.4267C13.8667 14.7212 14.1055 14.96 14.4 14.96C14.6946 14.96 14.9333 14.7212 14.9333 14.4267Z" fill="#1C2024"/>
<path d="M14.9333 1.62667C14.9333 1.33212 14.6946 1.09334 14.4 1.09334C14.1055 1.09334 13.8667 1.33212 13.8667 1.62667C13.8667 1.92122 14.1055 2.16 14.4 2.16C14.6946 2.16 14.9333 1.92122 14.9333 1.62667Z" fill="#1C2024"/>
<path d="M6.40001 8.02667C6.40001 7.73212 6.16123 7.49334 5.86668 7.49334C5.57213 7.49334 5.33335 7.73212 5.33335 8.02667C5.33335 8.32122 5.57213 8.56 5.86668 8.56C6.16123 8.56 6.40001 8.32122 6.40001 8.02667Z" fill="#1C2024"/>
<path d="M6.40001 14.4267C6.40001 14.1321 6.16123 13.8933 5.86668 13.8933C5.57213 13.8933 5.33335 14.1321 5.33335 14.4267C5.33335 14.7212 5.57213 14.96 5.86668 14.96C6.16123 14.96 6.40001 14.7212 6.40001 14.4267Z" fill="#1C2024"/>
<path d="M6.40001 1.62667C6.40001 1.33212 6.16123 1.09334 5.86668 1.09334C5.57213 1.09334 5.33335 1.33212 5.33335 1.62667C5.33335 1.92122 5.57213 2.16 5.86668 2.16C6.16123 2.16 6.40001 1.92122 6.40001 1.62667Z" fill="#1C2024"/>
<path d="M4.26668 8.02667C4.26668 7.73212 4.0279 7.49334 3.73335 7.49334C3.4388 7.49334 3.20001 7.73212 3.20001 8.02667C3.20001 8.32122 3.4388 8.56 3.73335 8.56C4.0279 8.56 4.26668 8.32122 4.26668 8.02667Z" fill="#1C2024"/>
<path d="M4.26668 14.4267C4.26668 14.1321 4.0279 13.8933 3.73335 13.8933C3.4388 13.8933 3.20001 14.1321 3.20001 14.4267C3.20001 14.7212 3.4388 14.96 3.73335 14.96C4.0279 14.96 4.26668 14.7212 4.26668 14.4267Z" fill="#1C2024"/>
<path d="M4.26668 1.62667C4.26668 1.33212 4.0279 1.09334 3.73335 1.09334C3.4388 1.09334 3.20001 1.33212 3.20001 1.62667C3.20001 1.92122 3.4388 2.16 3.73335 2.16C4.0279 2.16 4.26668 1.92122 4.26668 1.62667Z" fill="#1C2024"/>
<path d="M10.6667 8.02667C10.6667 7.73212 10.4279 7.49334 10.1333 7.49334C9.8388 7.49334 9.60001 7.73212 9.60001 8.02667C9.60001 8.32122 9.8388 8.56 10.1333 8.56C10.4279 8.56 10.6667 8.32122 10.6667 8.02667Z" fill="#1C2024"/>
<path d="M10.6667 14.4267C10.6667 14.1321 10.4279 13.8933 10.1333 13.8933C9.8388 13.8933 9.60001 14.1321 9.60001 14.4267C9.60001 14.7212 9.8388 14.96 10.1333 14.96C10.4279 14.96 10.6667 14.7212 10.6667 14.4267Z" fill="#1C2024"/>
<path d="M10.6667 1.62667C10.6667 1.33212 10.4279 1.09334 10.1333 1.09334C9.8388 1.09334 9.60001 1.33212 9.60001 1.62667C9.60001 1.92122 9.8388 2.16 10.1333 2.16C10.4279 2.16 10.6667 1.92122 10.6667 1.62667Z" fill="#1C2024"/>
<path d="M12.8 8.02667C12.8 7.73212 12.5612 7.49334 12.2667 7.49334C11.9721 7.49334 11.7333 7.73212 11.7333 8.02667C11.7333 8.32122 11.9721 8.56 12.2667 8.56C12.5612 8.56 12.8 8.32122 12.8 8.02667Z" fill="#1C2024"/>
<path d="M12.8 14.4267C12.8 14.1321 12.5612 13.8933 12.2667 13.8933C11.9721 13.8933 11.7333 14.1321 11.7333 14.4267C11.7333 14.7212 11.9721 14.96 12.2667 14.96C12.5612 14.96 12.8 14.7212 12.8 14.4267Z" fill="#1C2024"/>
<path d="M12.8 1.62667C12.8 1.33212 12.5612 1.09334 12.2667 1.09334C11.9721 1.09334 11.7333 1.33212 11.7333 1.62667C11.7333 1.92122 11.9721 2.16 12.2667 2.16C12.5612 2.16 12.8 1.92122 12.8 1.62667Z" fill="#1C2024"/>
<path d="M8.53335 10.16C8.53335 9.86545 8.29457 9.62667 8.00001 9.62667C7.70546 9.62667 7.46668 9.86545 7.46668 10.16C7.46668 10.4546 7.70546 10.6933 8.00001 10.6933C8.29457 10.6933 8.53335 10.4546 8.53335 10.16Z" fill="#1C2024"/>
<path d="M14.9333 10.16C14.9333 9.86545 14.6946 9.62667 14.4 9.62667C14.1055 9.62667 13.8667 9.86545 13.8667 10.16C13.8667 10.4546 14.1055 10.6933 14.4 10.6933C14.6946 10.6933 14.9333 10.4546 14.9333 10.16Z" fill="#1C2024"/>
<path d="M8.53335 12.2933C8.53335 11.9988 8.29457 11.76 8.00001 11.76C7.70546 11.76 7.46668 11.9988 7.46668 12.2933C7.46668 12.5879 7.70546 12.8267 8.00001 12.8267C8.29457 12.8267 8.53335 12.5879 8.53335 12.2933Z" fill="#1C2024"/>
<path d="M14.9333 12.2933C14.9333 11.9988 14.6946 11.76 14.4 11.76C14.1055 11.76 13.8667 11.9988 13.8667 12.2933C13.8667 12.5879 14.1055 12.8267 14.4 12.8267C14.6946 12.8267 14.9333 12.5879 14.9333 12.2933Z" fill="#1C2024"/>
<path d="M2.13335 5.89334C2.13335 5.59879 1.89457 5.36 1.60001 5.36C1.30546 5.36 1.06668 5.59879 1.06668 5.89334C1.06668 6.18789 1.30546 6.42667 1.60001 6.42667C1.89457 6.42667 2.13335 6.18789 2.13335 5.89334Z" fill="#1C2024"/>
<path d="M2.13335 3.76C2.13335 3.46545 1.89457 3.22667 1.60001 3.22667C1.30546 3.22667 1.06668 3.46545 1.06668 3.76C1.06668 4.05456 1.30546 4.29334 1.60001 4.29334C1.89457 4.29334 2.13335 4.05456 2.13335 3.76Z" fill="#1C2024"/>
<path d="M2.13335 8.02667C2.13335 7.73212 1.89457 7.49334 1.60001 7.49334C1.30546 7.49334 1.06668 7.73212 1.06668 8.02667C1.06668 8.32122 1.30546 8.56 1.60001 8.56C1.89457 8.56 2.13335 8.32122 2.13335 8.02667Z" fill="#1C2024"/>
<path d="M2.13335 14.4267C2.13335 14.1321 1.89457 13.8933 1.60001 13.8933C1.30546 13.8933 1.06668 14.1321 1.06668 14.4267C1.06668 14.7212 1.30546 14.96 1.60001 14.96C1.89457 14.96 2.13335 14.7212 2.13335 14.4267Z" fill="#1C2024"/>
<path d="M2.13335 1.62667C2.13335 1.33212 1.89457 1.09334 1.60001 1.09334C1.30546 1.09334 1.06668 1.33212 1.06668 1.62667C1.06668 1.92122 1.30546 2.16 1.60001 2.16C1.89457 2.16 2.13335 1.92122 2.13335 1.62667Z" fill="#1C2024"/>
<path d="M2.13335 10.16C2.13335 9.86545 1.89457 9.62667 1.60001 9.62667C1.30546 9.62667 1.06668 9.86545 1.06668 10.16C1.06668 10.4546 1.30546 10.6933 1.60001 10.6933C1.89457 10.6933 2.13335 10.4546 2.13335 10.16Z" fill="#1C2024"/>
<path d="M2.13335 12.2933C2.13335 11.9988 1.89457 11.76 1.60001 11.76C1.30546 11.76 1.06668 11.9988 1.06668 12.2933C1.06668 12.5879 1.30546 12.8267 1.60001 12.8267C1.89457 12.8267 2.13335 12.5879 2.13335 12.2933Z" fill="#1C2024"/>
</svg>
