<svg width="16" height="16" viewBox="0 0 16 16" fill="none" xmlns="http://www.w3.org/2000/svg">
<rect width="16" height="16" fill="white" fill-opacity="0.01"/>
<path fill-rule="evenodd" clip-rule="evenodd" d="M1.59999 7.06667C1.08452 7.06667 0.666656 7.48453 0.666656 8C0.666656 8.51547 1.08452 8.93333 1.59999 8.93333C2.11546 8.93333 2.53332 8.51547 2.53332 8C2.53332 7.48453 2.11546 7.06667 1.59999 7.06667ZM5.86666 7.06667C5.35119 7.06667 4.93332 7.48453 4.93332 8C4.93332 8.51547 5.35119 8.93333 5.86666 8.93333C6.38212 8.93333 6.79999 8.51547 6.79999 8C6.79999 7.48453 6.38212 7.06667 5.86666 7.06667ZM10.1333 7.06667C9.61786 7.06667 9.19999 7.48453 9.19999 8C9.19999 8.51547 9.61786 8.93333 10.1333 8.93333C10.6488 8.93333 11.0667 8.51547 11.0667 8C11.0667 7.48453 10.6488 7.06667 10.1333 7.06667ZM13.4667 8C13.4667 7.48453 13.8846 7.06667 14.4 7.06667C14.9154 7.06667 15.3333 7.48453 15.3333 8C15.3333 8.51547 14.9154 8.93333 14.4 8.93333C13.8846 8.93333 13.4667 8.51547 13.4667 8Z" fill="#1C2024"/>
</svg>
