<svg width="16" height="16" viewBox="0 0 16 16" fill="none" xmlns="http://www.w3.org/2000/svg">
<rect width="16" height="16" fill="white" fill-opacity="0.01"/>
<path fill-rule="evenodd" clip-rule="evenodd" d="M1.6 3.2C1.30545 3.2 1.06667 3.43878 1.06667 3.73333C1.06667 4.02788 1.30545 4.26666 1.6 4.26666H14.4C14.6945 4.26666 14.9333 4.02788 14.9333 3.73333C14.9333 3.43878 14.6945 3.2 14.4 3.2H1.6ZM1.06667 8C1.06667 7.70545 1.30545 7.46666 1.6 7.46666H3.73333C4.02788 7.46666 4.26667 7.70545 4.26667 8C4.26667 8.29455 4.02788 8.53333 3.73333 8.53333H1.6C1.30545 8.53333 1.06667 8.29455 1.06667 8ZM1.06667 12.2667C1.06667 11.9722 1.30545 11.7333 1.6 11.7333C1.89455 11.7333 2.13333 11.9722 2.13333 12.2667C2.13333 12.5612 1.89455 12.8 1.6 12.8C1.30545 12.8 1.06667 12.5612 1.06667 12.2667ZM3.2 12.2667C3.2 11.9722 3.43878 11.7333 3.73333 11.7333C4.02788 11.7333 4.26667 11.9722 4.26667 12.2667C4.26667 12.5612 4.02788 12.8 3.73333 12.8C3.43878 12.8 3.2 12.5612 3.2 12.2667ZM5.86667 11.7333C5.57212 11.7333 5.33333 11.9722 5.33333 12.2667C5.33333 12.5612 5.57212 12.8 5.86667 12.8C6.16122 12.8 6.4 12.5612 6.4 12.2667C6.4 11.9722 6.16122 11.7333 5.86667 11.7333ZM7.46667 12.2667C7.46667 11.9722 7.70545 11.7333 8 11.7333C8.29455 11.7333 8.53333 11.9722 8.53333 12.2667C8.53333 12.5612 8.29455 12.8 8 12.8C7.70545 12.8 7.46667 12.5612 7.46667 12.2667ZM10.1333 11.7333C9.83878 11.7333 9.6 11.9722 9.6 12.2667C9.6 12.5612 9.83878 12.8 10.1333 12.8C10.4279 12.8 10.6667 12.5612 10.6667 12.2667C10.6667 11.9722 10.4279 11.7333 10.1333 11.7333ZM11.7333 12.2667C11.7333 11.9722 11.9722 11.7333 12.2667 11.7333C12.5612 11.7333 12.8 11.9722 12.8 12.2667C12.8 12.5612 12.5612 12.8 12.2667 12.8C11.9722 12.8 11.7333 12.5612 11.7333 12.2667ZM14.4 11.7333C14.1055 11.7333 13.8667 11.9722 13.8667 12.2667C13.8667 12.5612 14.1055 12.8 14.4 12.8C14.6945 12.8 14.9333 12.5612 14.9333 12.2667C14.9333 11.9722 14.6945 11.7333 14.4 11.7333ZM6.93333 7.46666C6.63878 7.46666 6.4 7.70545 6.4 8C6.4 8.29455 6.63878 8.53333 6.93333 8.53333H9.06667C9.36122 8.53333 9.6 8.29455 9.6 8C9.6 7.70545 9.36122 7.46666 9.06667 7.46666H6.93333ZM11.7333 8C11.7333 7.70545 11.9722 7.46666 12.2667 7.46666H14.4C14.6945 7.46666 14.9333 7.70545 14.9333 8C14.9333 8.29455 14.6945 8.53333 14.4 8.53333H12.2667C11.9722 8.53333 11.7333 8.29455 11.7333 8Z" fill="#1C2024"/>
</svg>
