<svg width="16" height="16" viewBox="0 0 16 16" fill="none" xmlns="http://www.w3.org/2000/svg">
<rect width="16" height="16" fill="white" fill-opacity="0.01"/>
<path fill-rule="evenodd" clip-rule="evenodd" d="M1.86666 1.06667V14.9333H0.266663L0.266664 1.06667H1.86666Z" fill="#1C2024"/>
<path d="M10.1333 8.53333C10.4279 8.53333 10.6667 8.29455 10.6667 8C10.6667 7.70545 10.4279 7.46667 10.1333 7.46667C9.83878 7.46667 9.6 7.70545 9.6 8C9.6 8.29455 9.83878 8.53333 10.1333 8.53333Z" fill="#1C2024"/>
<path d="M10.1333 14.9333C10.4279 14.9333 10.6667 14.6946 10.6667 14.4C10.6667 14.1054 10.4279 13.8667 10.1333 13.8667C9.83878 13.8667 9.6 14.1054 9.6 14.4C9.6 14.6946 9.83878 14.9333 10.1333 14.9333Z" fill="#1C2024"/>
<path d="M12.2667 8.53333C12.5612 8.53333 12.8 8.29455 12.8 8C12.8 7.70545 12.5612 7.46667 12.2667 7.46667C11.9721 7.46667 11.7333 7.70545 11.7333 8C11.7333 8.29455 11.9721 8.53333 12.2667 8.53333Z" fill="#1C2024"/>
<path d="M12.2667 14.9333C12.5612 14.9333 12.8 14.6946 12.8 14.4C12.8 14.1054 12.5612 13.8667 12.2667 13.8667C11.9721 13.8667 11.7333 14.1054 11.7333 14.4C11.7333 14.6946 11.9721 14.9333 12.2667 14.9333Z" fill="#1C2024"/>
<path d="M8 8.53333C8.29455 8.53333 8.53333 8.29455 8.53333 8C8.53333 7.70545 8.29455 7.46667 8 7.46667C7.70544 7.46667 7.46666 7.70545 7.46666 8C7.46666 8.29455 7.70544 8.53333 8 8.53333Z" fill="#1C2024"/>
<path d="M14.4 8.53333C14.6945 8.53333 14.9333 8.29455 14.9333 8C14.9333 7.70545 14.6945 7.46667 14.4 7.46667C14.1054 7.46667 13.8667 7.70545 13.8667 8C13.8667 8.29455 14.1054 8.53333 14.4 8.53333Z" fill="#1C2024"/>
<path d="M8 14.9333C8.29455 14.9333 8.53333 14.6946 8.53333 14.4C8.53333 14.1054 8.29455 13.8667 8 13.8667C7.70544 13.8667 7.46666 14.1054 7.46666 14.4C7.46666 14.6946 7.70544 14.9333 8 14.9333Z" fill="#1C2024"/>
<path d="M14.4 14.9333C14.6945 14.9333 14.9333 14.6946 14.9333 14.4C14.9333 14.1054 14.6945 13.8667 14.4 13.8667C14.1054 13.8667 13.8667 14.1054 13.8667 14.4C13.8667 14.6946 14.1054 14.9333 14.4 14.9333Z" fill="#1C2024"/>
<path d="M8 6.4C8.29455 6.4 8.53333 6.16122 8.53333 5.86667C8.53333 5.57211 8.29455 5.33333 8 5.33333C7.70544 5.33333 7.46666 5.57211 7.46666 5.86667C7.46666 6.16122 7.70544 6.4 8 6.4Z" fill="#1C2024"/>
<path d="M14.4 6.4C14.6945 6.4 14.9333 6.16122 14.9333 5.86667C14.9333 5.57211 14.6945 5.33333 14.4 5.33333C14.1054 5.33333 13.8667 5.57211 13.8667 5.86667C13.8667 6.16122 14.1054 6.4 14.4 6.4Z" fill="#1C2024"/>
<path d="M8 4.26667C8.29455 4.26667 8.53333 4.02788 8.53333 3.73333C8.53333 3.43878 8.29455 3.2 8 3.2C7.70544 3.2 7.46666 3.43878 7.46666 3.73333C7.46666 4.02788 7.70544 4.26667 8 4.26667Z" fill="#1C2024"/>
<path d="M14.4 4.26667C14.6945 4.26667 14.9333 4.02788 14.9333 3.73333C14.9333 3.43878 14.6945 3.2 14.4 3.2C14.1054 3.2 13.8667 3.43878 13.8667 3.73333C13.8667 4.02788 14.1054 4.26667 14.4 4.26667Z" fill="#1C2024"/>
<path d="M8 10.6667C8.29455 10.6667 8.53333 10.4279 8.53333 10.1333C8.53333 9.83878 8.29455 9.6 8 9.6C7.70544 9.6 7.46666 9.83878 7.46666 10.1333C7.46666 10.4279 7.70544 10.6667 8 10.6667Z" fill="#1C2024"/>
<path d="M14.4 10.6667C14.6945 10.6667 14.9333 10.4279 14.9333 10.1333C14.9333 9.83878 14.6945 9.6 14.4 9.6C14.1054 9.6 13.8667 9.83878 13.8667 10.1333C13.8667 10.4279 14.1054 10.6667 14.4 10.6667Z" fill="#1C2024"/>
<path d="M8 12.8C8.29455 12.8 8.53333 12.5612 8.53333 12.2667C8.53333 11.9721 8.29455 11.7333 8 11.7333C7.70544 11.7333 7.46666 11.9721 7.46666 12.2667C7.46666 12.5612 7.70544 12.8 8 12.8Z" fill="#1C2024"/>
<path d="M14.4 12.8C14.6945 12.8 14.9333 12.5612 14.9333 12.2667C14.9333 11.9721 14.6945 11.7333 14.4 11.7333C14.1054 11.7333 13.8667 11.9721 13.8667 12.2667C13.8667 12.5612 14.1054 12.8 14.4 12.8Z" fill="#1C2024"/>
<path d="M5.86666 8.53333C6.16122 8.53333 6.4 8.29455 6.4 8C6.4 7.70545 6.16122 7.46667 5.86666 7.46667C5.57211 7.46667 5.33333 7.70545 5.33333 8C5.33333 8.29455 5.57211 8.53333 5.86666 8.53333Z" fill="#1C2024"/>
<path d="M5.86666 14.9333C6.16122 14.9333 6.4 14.6946 6.4 14.4C6.4 14.1054 6.16122 13.8667 5.86666 13.8667C5.57211 13.8667 5.33333 14.1054 5.33333 14.4C5.33333 14.6946 5.57211 14.9333 5.86666 14.9333Z" fill="#1C2024"/>
<path d="M3.73333 8.53333C4.02788 8.53333 4.26666 8.29455 4.26666 8C4.26666 7.70545 4.02788 7.46667 3.73333 7.46667C3.43878 7.46667 3.2 7.70545 3.2 8C3.2 8.29455 3.43878 8.53333 3.73333 8.53333Z" fill="#1C2024"/>
<path d="M3.73333 14.9333C4.02788 14.9333 4.26666 14.6946 4.26666 14.4C4.26666 14.1054 4.02788 13.8667 3.73333 13.8667C3.43878 13.8667 3.2 14.1054 3.2 14.4C3.2 14.6946 3.43878 14.9333 3.73333 14.9333Z" fill="#1C2024"/>
<path d="M10.1333 2.13333C10.4279 2.13333 10.6667 1.89455 10.6667 1.6C10.6667 1.30545 10.4279 1.06667 10.1333 1.06667C9.83878 1.06667 9.6 1.30545 9.6 1.6C9.6 1.89455 9.83878 2.13333 10.1333 2.13333Z" fill="#1C2024"/>
<path d="M12.2667 2.13333C12.5612 2.13333 12.8 1.89455 12.8 1.6C12.8 1.30545 12.5612 1.06667 12.2667 1.06667C11.9721 1.06667 11.7333 1.30545 11.7333 1.6C11.7333 1.89455 11.9721 2.13333 12.2667 2.13333Z" fill="#1C2024"/>
<path d="M8 2.13333C8.29455 2.13333 8.53333 1.89455 8.53333 1.6C8.53333 1.30545 8.29455 1.06667 8 1.06667C7.70544 1.06667 7.46666 1.30545 7.46666 1.6C7.46666 1.89455 7.70544 2.13333 8 2.13333Z" fill="#1C2024"/>
<path d="M14.4 2.13333C14.6945 2.13333 14.9333 1.89455 14.9333 1.6C14.9333 1.30545 14.6945 1.06667 14.4 1.06667C14.1054 1.06667 13.8667 1.30545 13.8667 1.6C13.8667 1.89455 14.1054 2.13333 14.4 2.13333Z" fill="#1C2024"/>
<path d="M5.86666 2.13333C6.16122 2.13333 6.4 1.89455 6.4 1.6C6.4 1.30545 6.16122 1.06667 5.86666 1.06667C5.57211 1.06667 5.33333 1.30545 5.33333 1.6C5.33333 1.89455 5.57211 2.13333 5.86666 2.13333Z" fill="#1C2024"/>
<path d="M3.73333 2.13333C4.02788 2.13333 4.26666 1.89455 4.26666 1.6C4.26666 1.30545 4.02788 1.06667 3.73333 1.06667C3.43878 1.06667 3.2 1.30545 3.2 1.6C3.2 1.89455 3.43878 2.13333 3.73333 2.13333Z" fill="#1C2024"/>
</svg>
