<svg width="16" height="16" viewBox="0 0 16 16" fill="none" xmlns="http://www.w3.org/2000/svg">
<rect width="16" height="16" fill="white" fill-opacity="0.01"/>
<path fill-rule="evenodd" clip-rule="evenodd" d="M14.1333 1.06667V14.9333H15.7333V1.06667H14.1333Z" fill="#1C2024"/>
<path d="M5.86668 8.53333C5.57213 8.53333 5.33335 8.29455 5.33335 8C5.33335 7.70545 5.57213 7.46667 5.86668 7.46667C6.16123 7.46667 6.40001 7.70545 6.40001 8C6.40001 8.29455 6.16123 8.53333 5.86668 8.53333Z" fill="#1C2024"/>
<path d="M5.86668 14.9333C5.57213 14.9333 5.33335 14.6946 5.33335 14.4C5.33335 14.1054 5.57213 13.8667 5.86668 13.8667C6.16123 13.8667 6.40001 14.1054 6.40001 14.4C6.40001 14.6946 6.16123 14.9333 5.86668 14.9333Z" fill="#1C2024"/>
<path d="M3.73335 8.53333C3.4388 8.53333 3.20001 8.29455 3.20001 8C3.20001 7.70545 3.4388 7.46667 3.73335 7.46667C4.0279 7.46667 4.26668 7.70545 4.26668 8C4.26668 8.29455 4.0279 8.53333 3.73335 8.53333Z" fill="#1C2024"/>
<path d="M3.73335 14.9333C3.4388 14.9333 3.20001 14.6946 3.20001 14.4C3.20001 14.1054 3.4388 13.8667 3.73335 13.8667C4.0279 13.8667 4.26668 14.1054 4.26668 14.4C4.26668 14.6946 4.0279 14.9333 3.73335 14.9333Z" fill="#1C2024"/>
<path d="M8.00001 8.53333C7.70546 8.53333 7.46668 8.29455 7.46668 8C7.46668 7.70545 7.70546 7.46667 8.00001 7.46667C8.29457 7.46667 8.53335 7.70545 8.53335 8C8.53335 8.29455 8.29457 8.53333 8.00001 8.53333Z" fill="#1C2024"/>
<path d="M1.60001 8.53333C1.30546 8.53333 1.06668 8.29455 1.06668 8C1.06668 7.70545 1.30546 7.46667 1.60001 7.46667C1.89457 7.46667 2.13335 7.70545 2.13335 8C2.13335 8.29455 1.89457 8.53333 1.60001 8.53333Z" fill="#1C2024"/>
<path d="M8.00001 14.9333C7.70546 14.9333 7.46668 14.6946 7.46668 14.4C7.46668 14.1054 7.70546 13.8667 8.00001 13.8667C8.29457 13.8667 8.53335 14.1054 8.53335 14.4C8.53335 14.6946 8.29457 14.9333 8.00001 14.9333Z" fill="#1C2024"/>
<path d="M1.60001 14.9333C1.30546 14.9333 1.06668 14.6946 1.06668 14.4C1.06668 14.1054 1.30546 13.8667 1.60001 13.8667C1.89457 13.8667 2.13335 14.1054 2.13335 14.4C2.13335 14.6946 1.89457 14.9333 1.60001 14.9333Z" fill="#1C2024"/>
<path d="M8.00001 6.4C7.70546 6.4 7.46668 6.16122 7.46668 5.86667C7.46668 5.57211 7.70546 5.33333 8.00001 5.33333C8.29457 5.33333 8.53335 5.57211 8.53335 5.86667C8.53335 6.16122 8.29457 6.4 8.00001 6.4Z" fill="#1C2024"/>
<path d="M1.60001 6.4C1.30546 6.4 1.06668 6.16122 1.06668 5.86667C1.06668 5.57211 1.30546 5.33333 1.60001 5.33333C1.89457 5.33333 2.13335 5.57211 2.13335 5.86667C2.13335 6.16122 1.89457 6.4 1.60001 6.4Z" fill="#1C2024"/>
<path d="M8.00001 4.26667C7.70546 4.26667 7.46668 4.02788 7.46668 3.73333C7.46668 3.43878 7.70546 3.2 8.00001 3.2C8.29457 3.2 8.53335 3.43878 8.53335 3.73333C8.53335 4.02788 8.29457 4.26667 8.00001 4.26667Z" fill="#1C2024"/>
<path d="M1.60001 4.26667C1.30546 4.26667 1.06668 4.02788 1.06668 3.73333C1.06668 3.43878 1.30546 3.2 1.60001 3.2C1.89457 3.2 2.13335 3.43878 2.13335 3.73333C2.13335 4.02788 1.89457 4.26667 1.60001 4.26667Z" fill="#1C2024"/>
<path d="M8.00001 10.6667C7.70546 10.6667 7.46668 10.4279 7.46668 10.1333C7.46668 9.83878 7.70546 9.6 8.00001 9.6C8.29457 9.6 8.53335 9.83878 8.53335 10.1333C8.53335 10.4279 8.29457 10.6667 8.00001 10.6667Z" fill="#1C2024"/>
<path d="M1.60001 10.6667C1.30546 10.6667 1.06668 10.4279 1.06668 10.1333C1.06668 9.83878 1.30546 9.6 1.60001 9.6C1.89457 9.6 2.13335 9.83878 2.13335 10.1333C2.13335 10.4279 1.89457 10.6667 1.60001 10.6667Z" fill="#1C2024"/>
<path d="M8.00001 12.8C7.70546 12.8 7.46668 12.5612 7.46668 12.2667C7.46668 11.9721 7.70546 11.7333 8.00001 11.7333C8.29457 11.7333 8.53335 11.9721 8.53335 12.2667C8.53335 12.5612 8.29457 12.8 8.00001 12.8Z" fill="#1C2024"/>
<path d="M1.60001 12.8C1.30546 12.8 1.06668 12.5612 1.06668 12.2667C1.06668 11.9721 1.30546 11.7333 1.60001 11.7333C1.89457 11.7333 2.13335 11.9721 2.13335 12.2667C2.13335 12.5612 1.89457 12.8 1.60001 12.8Z" fill="#1C2024"/>
<path d="M10.1333 8.53333C9.8388 8.53333 9.60001 8.29455 9.60001 8C9.60001 7.70545 9.8388 7.46667 10.1333 7.46667C10.4279 7.46667 10.6667 7.70545 10.6667 8C10.6667 8.29455 10.4279 8.53333 10.1333 8.53333Z" fill="#1C2024"/>
<path d="M10.1333 14.9333C9.8388 14.9333 9.60001 14.6946 9.60001 14.4C9.60001 14.1054 9.8388 13.8667 10.1333 13.8667C10.4279 13.8667 10.6667 14.1054 10.6667 14.4C10.6667 14.6946 10.4279 14.9333 10.1333 14.9333Z" fill="#1C2024"/>
<path d="M12.2667 8.53333C11.9721 8.53333 11.7333 8.29455 11.7333 8C11.7333 7.70545 11.9721 7.46667 12.2667 7.46667C12.5612 7.46667 12.8 7.70545 12.8 8C12.8 8.29455 12.5612 8.53333 12.2667 8.53333Z" fill="#1C2024"/>
<path d="M12.2667 14.9333C11.9721 14.9333 11.7333 14.6946 11.7333 14.4C11.7333 14.1054 11.9721 13.8667 12.2667 13.8667C12.5612 13.8667 12.8 14.1054 12.8 14.4C12.8 14.6946 12.5612 14.9333 12.2667 14.9333Z" fill="#1C2024"/>
<path d="M5.86668 2.13333C5.57213 2.13333 5.33335 1.89455 5.33335 1.6C5.33335 1.30545 5.57213 1.06667 5.86668 1.06667C6.16123 1.06667 6.40001 1.30545 6.40001 1.6C6.40001 1.89455 6.16123 2.13333 5.86668 2.13333Z" fill="#1C2024"/>
<path d="M3.73335 2.13333C3.4388 2.13333 3.20001 1.89455 3.20001 1.6C3.20001 1.30545 3.4388 1.06667 3.73335 1.06667C4.0279 1.06667 4.26668 1.30545 4.26668 1.6C4.26668 1.89455 4.0279 2.13333 3.73335 2.13333Z" fill="#1C2024"/>
<path d="M8.00001 2.13333C7.70546 2.13333 7.46668 1.89455 7.46668 1.6C7.46668 1.30545 7.70546 1.06667 8.00001 1.06667C8.29457 1.06667 8.53335 1.30545 8.53335 1.6C8.53335 1.89455 8.29457 2.13333 8.00001 2.13333Z" fill="#1C2024"/>
<path d="M1.60001 2.13333C1.30546 2.13333 1.06668 1.89455 1.06668 1.6C1.06668 1.30545 1.30546 1.06667 1.60001 1.06667C1.89457 1.06667 2.13335 1.30545 2.13335 1.6C2.13335 1.89455 1.89457 2.13333 1.60001 2.13333Z" fill="#1C2024"/>
<path d="M10.1333 2.13333C9.8388 2.13333 9.60001 1.89455 9.60001 1.6C9.60001 1.30545 9.8388 1.06667 10.1333 1.06667C10.4279 1.06667 10.6667 1.30545 10.6667 1.6C10.6667 1.89455 10.4279 2.13333 10.1333 2.13333Z" fill="#1C2024"/>
<path d="M12.2667 2.13333C11.9721 2.13333 11.7333 1.89455 11.7333 1.6C11.7333 1.30545 11.9721 1.06667 12.2667 1.06667C12.5612 1.06667 12.8 1.30545 12.8 1.6C12.8 1.89455 12.5612 2.13333 12.2667 2.13333Z" fill="#1C2024"/>
</svg>
