<svg width="16" height="16" viewBox="0 0 16 16" fill="none" xmlns="http://www.w3.org/2000/svg">
<rect width="16" height="16" fill="white" fill-opacity="0.01"/>
<path fill-rule="evenodd" clip-rule="evenodd" d="M14.9333 1.86666H1.06668V0.266663L14.9333 0.266664V1.86666Z" fill="#1C2024"/>
<path d="M7.46668 10.1333C7.46668 10.4279 7.70546 10.6667 8.00001 10.6667C8.29457 10.6667 8.53335 10.4279 8.53335 10.1333C8.53335 9.83878 8.29457 9.6 8.00001 9.6C7.70546 9.6 7.46668 9.83878 7.46668 10.1333Z" fill="#1C2024"/>
<path d="M1.06668 10.1333C1.06668 10.4279 1.30546 10.6667 1.60001 10.6667C1.89457 10.6667 2.13335 10.4279 2.13335 10.1333C2.13335 9.83878 1.89457 9.6 1.60001 9.6C1.30546 9.6 1.06668 9.83878 1.06668 10.1333Z" fill="#1C2024"/>
<path d="M7.46668 12.2667C7.46668 12.5612 7.70546 12.8 8.00001 12.8C8.29457 12.8 8.53335 12.5612 8.53335 12.2667C8.53335 11.9721 8.29457 11.7333 8.00001 11.7333C7.70546 11.7333 7.46668 11.9721 7.46668 12.2667Z" fill="#1C2024"/>
<path d="M1.06668 12.2667C1.06668 12.5612 1.30546 12.8 1.60001 12.8C1.89457 12.8 2.13335 12.5612 2.13335 12.2667C2.13335 11.9721 1.89457 11.7333 1.60001 11.7333C1.30546 11.7333 1.06668 11.9721 1.06668 12.2667Z" fill="#1C2024"/>
<path d="M7.46668 8C7.46668 8.29455 7.70546 8.53333 8.00001 8.53333C8.29457 8.53333 8.53335 8.29455 8.53335 8C8.53335 7.70544 8.29457 7.46666 8.00001 7.46666C7.70546 7.46666 7.46668 7.70544 7.46668 8Z" fill="#1C2024"/>
<path d="M7.46668 14.4C7.46668 14.6945 7.70546 14.9333 8.00001 14.9333C8.29457 14.9333 8.53335 14.6945 8.53335 14.4C8.53335 14.1054 8.29457 13.8667 8.00001 13.8667C7.70546 13.8667 7.46668 14.1054 7.46668 14.4Z" fill="#1C2024"/>
<path d="M1.06668 8C1.06668 8.29455 1.30546 8.53333 1.60001 8.53333C1.89457 8.53333 2.13335 8.29455 2.13335 8C2.13335 7.70544 1.89457 7.46666 1.60001 7.46666C1.30546 7.46666 1.06668 7.70544 1.06668 8Z" fill="#1C2024"/>
<path d="M1.06668 14.4C1.06668 14.6945 1.30546 14.9333 1.60001 14.9333C1.89457 14.9333 2.13335 14.6945 2.13335 14.4C2.13335 14.1054 1.89457 13.8667 1.60001 13.8667C1.30546 13.8667 1.06668 14.1054 1.06668 14.4Z" fill="#1C2024"/>
<path d="M9.60001 8C9.60001 8.29455 9.8388 8.53333 10.1333 8.53333C10.4279 8.53333 10.6667 8.29455 10.6667 8C10.6667 7.70544 10.4279 7.46666 10.1333 7.46666C9.8388 7.46666 9.60001 7.70544 9.60001 8Z" fill="#1C2024"/>
<path d="M9.60001 14.4C9.60001 14.6945 9.8388 14.9333 10.1333 14.9333C10.4279 14.9333 10.6667 14.6945 10.6667 14.4C10.6667 14.1054 10.4279 13.8667 10.1333 13.8667C9.8388 13.8667 9.60001 14.1054 9.60001 14.4Z" fill="#1C2024"/>
<path d="M11.7333 8C11.7333 8.29455 11.9721 8.53333 12.2667 8.53333C12.5612 8.53333 12.8 8.29455 12.8 8C12.8 7.70544 12.5612 7.46666 12.2667 7.46666C11.9721 7.46666 11.7333 7.70544 11.7333 8Z" fill="#1C2024"/>
<path d="M11.7333 14.4C11.7333 14.6945 11.9721 14.9333 12.2667 14.9333C12.5612 14.9333 12.8 14.6945 12.8 14.4C12.8 14.1054 12.5612 13.8667 12.2667 13.8667C11.9721 13.8667 11.7333 14.1054 11.7333 14.4Z" fill="#1C2024"/>
<path d="M5.33335 8C5.33335 8.29455 5.57213 8.53333 5.86668 8.53333C6.16123 8.53333 6.40001 8.29455 6.40001 8C6.40001 7.70544 6.16123 7.46666 5.86668 7.46666C5.57213 7.46666 5.33335 7.70544 5.33335 8Z" fill="#1C2024"/>
<path d="M5.33335 14.4C5.33335 14.6945 5.57213 14.9333 5.86668 14.9333C6.16123 14.9333 6.40001 14.6945 6.40001 14.4C6.40001 14.1054 6.16123 13.8667 5.86668 13.8667C5.57213 13.8667 5.33335 14.1054 5.33335 14.4Z" fill="#1C2024"/>
<path d="M3.20001 8C3.20001 8.29455 3.4388 8.53333 3.73335 8.53333C4.0279 8.53333 4.26668 8.29455 4.26668 8C4.26668 7.70544 4.0279 7.46666 3.73335 7.46666C3.4388 7.46666 3.20001 7.70544 3.20001 8Z" fill="#1C2024"/>
<path d="M3.20001 14.4C3.20001 14.6945 3.4388 14.9333 3.73335 14.9333C4.0279 14.9333 4.26668 14.6945 4.26668 14.4C4.26668 14.1054 4.0279 13.8667 3.73335 13.8667C3.4388 13.8667 3.20001 14.1054 3.20001 14.4Z" fill="#1C2024"/>
<path d="M7.46668 5.86666C7.46668 6.16122 7.70546 6.4 8.00001 6.4C8.29457 6.4 8.53335 6.16122 8.53335 5.86666C8.53335 5.57211 8.29457 5.33333 8.00001 5.33333C7.70546 5.33333 7.46668 5.57211 7.46668 5.86666Z" fill="#1C2024"/>
<path d="M1.06668 5.86666C1.06668 6.16122 1.30546 6.4 1.60001 6.4C1.89457 6.4 2.13335 6.16122 2.13335 5.86666C2.13335 5.57211 1.89457 5.33333 1.60001 5.33333C1.30546 5.33333 1.06668 5.57211 1.06668 5.86666Z" fill="#1C2024"/>
<path d="M7.46668 3.73333C7.46668 4.02788 7.70546 4.26666 8.00001 4.26666C8.29457 4.26666 8.53335 4.02788 8.53335 3.73333C8.53335 3.43878 8.29457 3.2 8.00001 3.2C7.70546 3.2 7.46668 3.43878 7.46668 3.73333Z" fill="#1C2024"/>
<path d="M1.06668 3.73333C1.06668 4.02788 1.30546 4.26666 1.60001 4.26666C1.89457 4.26666 2.13335 4.02788 2.13335 3.73333C2.13335 3.43878 1.89457 3.2 1.60001 3.2C1.30546 3.2 1.06668 3.43878 1.06668 3.73333Z" fill="#1C2024"/>
<path d="M13.8667 10.1333C13.8667 10.4279 14.1055 10.6667 14.4 10.6667C14.6946 10.6667 14.9333 10.4279 14.9333 10.1333C14.9333 9.83878 14.6946 9.6 14.4 9.6C14.1055 9.6 13.8667 9.83878 13.8667 10.1333Z" fill="#1C2024"/>
<path d="M13.8667 12.2667C13.8667 12.5612 14.1055 12.8 14.4 12.8C14.6946 12.8 14.9333 12.5612 14.9333 12.2667C14.9333 11.9721 14.6946 11.7333 14.4 11.7333C14.1055 11.7333 13.8667 11.9721 13.8667 12.2667Z" fill="#1C2024"/>
<path d="M13.8667 8C13.8667 8.29455 14.1055 8.53333 14.4 8.53333C14.6946 8.53333 14.9333 8.29455 14.9333 8C14.9333 7.70544 14.6946 7.46666 14.4 7.46666C14.1055 7.46666 13.8667 7.70544 13.8667 8Z" fill="#1C2024"/>
<path d="M13.8667 14.4C13.8667 14.6945 14.1055 14.9333 14.4 14.9333C14.6946 14.9333 14.9333 14.6945 14.9333 14.4C14.9333 14.1054 14.6946 13.8667 14.4 13.8667C14.1055 13.8667 13.8667 14.1054 13.8667 14.4Z" fill="#1C2024"/>
<path d="M13.8667 5.86666C13.8667 6.16122 14.1055 6.4 14.4 6.4C14.6946 6.4 14.9333 6.16122 14.9333 5.86666C14.9333 5.57211 14.6946 5.33333 14.4 5.33333C14.1055 5.33333 13.8667 5.57211 13.8667 5.86666Z" fill="#1C2024"/>
<path d="M13.8667 3.73333C13.8667 4.02788 14.1055 4.26666 14.4 4.26666C14.6946 4.26666 14.9333 4.02788 14.9333 3.73333C14.9333 3.43878 14.6946 3.2 14.4 3.2C14.1055 3.2 13.8667 3.43878 13.8667 3.73333Z" fill="#1C2024"/>
</svg>
