<svg width="16" height="16" viewBox="0 0 16 16" fill="none" xmlns="http://www.w3.org/2000/svg">
<rect width="16" height="16" fill="white" fill-opacity="0.01"/>
<path d="M8.53333 5.89334C8.53333 5.59878 8.29455 5.36 8 5.36C7.70545 5.36 7.46667 5.59878 7.46667 5.89334C7.46667 6.18789 7.70545 6.42667 8 6.42667C8.29455 6.42667 8.53333 6.18789 8.53333 5.89334Z" fill="#1C2024"/>
<path d="M8.53333 3.76C8.53333 3.46545 8.29455 3.22667 8 3.22667C7.70545 3.22667 7.46667 3.46545 7.46667 3.76C7.46667 4.05456 7.70545 4.29334 8 4.29334C8.29455 4.29334 8.53333 4.05456 8.53333 3.76Z" fill="#1C2024"/>
<path d="M8.53333 8.02667C8.53333 7.73212 8.29455 7.49334 8 7.49334C7.70545 7.49334 7.46667 7.73212 7.46667 8.02667C7.46667 8.32122 7.70545 8.56 8 8.56C8.29455 8.56 8.53333 8.32122 8.53333 8.02667Z" fill="#1C2024"/>
<path d="M8.53333 14.4267C8.53333 14.1321 8.29455 13.8933 8 13.8933C7.70545 13.8933 7.46667 14.1321 7.46667 14.4267C7.46667 14.7212 7.70545 14.96 8 14.96C8.29455 14.96 8.53333 14.7212 8.53333 14.4267Z" fill="#1C2024"/>
<path d="M8.53333 1.62667C8.53333 1.33212 8.29455 1.09334 8 1.09334C7.70545 1.09334 7.46667 1.33212 7.46667 1.62667C7.46667 1.92122 7.70545 2.16 8 2.16C8.29455 2.16 8.53333 1.92122 8.53333 1.62667Z" fill="#1C2024"/>
<path d="M14.9333 8.02667C14.9333 7.73212 14.6946 7.49334 14.4 7.49334C14.1054 7.49334 13.8667 7.73212 13.8667 8.02667C13.8667 8.32122 14.1054 8.56 14.4 8.56C14.6946 8.56 14.9333 8.32122 14.9333 8.02667Z" fill="#1C2024"/>
<path d="M6.4 8.02667C6.4 7.73212 6.16122 7.49334 5.86667 7.49334C5.57211 7.49334 5.33333 7.73212 5.33333 8.02667C5.33333 8.32122 5.57211 8.56 5.86667 8.56C6.16122 8.56 6.4 8.32122 6.4 8.02667Z" fill="#1C2024"/>
<path d="M4.26667 8.02667C4.26667 7.73212 4.02788 7.49334 3.73333 7.49334C3.43878 7.49334 3.2 7.73212 3.2 8.02667C3.2 8.32122 3.43878 8.56 3.73333 8.56C4.02788 8.56 4.26667 8.32122 4.26667 8.02667Z" fill="#1C2024"/>
<path d="M10.6667 8.02667C10.6667 7.73212 10.4279 7.49334 10.1333 7.49334C9.83878 7.49334 9.6 7.73212 9.6 8.02667C9.6 8.32122 9.83878 8.56 10.1333 8.56C10.4279 8.56 10.6667 8.32122 10.6667 8.02667Z" fill="#1C2024"/>
<path d="M12.8 8.02667C12.8 7.73212 12.5612 7.49334 12.2667 7.49334C11.9721 7.49334 11.7333 7.73212 11.7333 8.02667C11.7333 8.32122 11.9721 8.56 12.2667 8.56C12.5612 8.56 12.8 8.32122 12.8 8.02667Z" fill="#1C2024"/>
<path d="M8.53333 10.16C8.53333 9.86545 8.29455 9.62667 8 9.62667C7.70545 9.62667 7.46667 9.86545 7.46667 10.16C7.46667 10.4546 7.70545 10.6933 8 10.6933C8.29455 10.6933 8.53333 10.4546 8.53333 10.16Z" fill="#1C2024"/>
<path d="M8.53333 12.2933C8.53333 11.9988 8.29455 11.76 8 11.76C7.70545 11.76 7.46667 11.9988 7.46667 12.2933C7.46667 12.5879 7.70545 12.8267 8 12.8267C8.29455 12.8267 8.53333 12.5879 8.53333 12.2933Z" fill="#1C2024"/>
<path d="M2.13333 8.02667C2.13333 7.73212 1.89455 7.49334 1.6 7.49334C1.30545 7.49334 1.06667 7.73212 1.06667 8.02667C1.06667 8.32122 1.30545 8.56 1.6 8.56C1.89455 8.56 2.13333 8.32122 2.13333 8.02667Z" fill="#1C2024"/>
<path fill-rule="evenodd" clip-rule="evenodd" d="M1.06667 1.59994C1.06667 1.30539 1.30545 1.0666 1.6 1.0666H6.4V2.13327H2.13333V6.39994H1.06667V1.59994ZM13.8667 2.13327H9.6V1.0666H14.4C14.6945 1.0666 14.9333 1.30539 14.9333 1.59994V6.39994H13.8667V2.13327ZM1.06667 14.3999V9.59994H2.13333V13.8666H6.4V14.9332H1.6C1.30545 14.9332 1.06667 14.6945 1.06667 14.3999ZM13.8667 13.8666V9.59994H14.9333V14.3999C14.9333 14.6945 14.6945 14.9332 14.4 14.9332H10.1333V13.8666H13.8667Z" fill="#1C2024"/>
</svg>
