<svg width="16" height="16" viewBox="0 0 16 16" fill="none" xmlns="http://www.w3.org/2000/svg">
<rect width="16" height="16" fill="white" fill-opacity="0.01"/>
<path fill-rule="evenodd" clip-rule="evenodd" d="M5.46414 3.2H5.44H3.73333C3.43878 3.2 3.2 3.43878 3.2 3.73333C3.2 4.02788 3.43878 4.26666 3.73333 4.26666H5.44C6.64358 4.26666 7.51418 4.26708 8.19891 4.32303C8.87739 4.37846 9.32627 4.48575 9.6949 4.67358C10.3974 5.0315 10.9685 5.60263 11.3264 6.3051C11.5142 6.67372 11.6215 7.1226 11.677 7.80108C11.7329 8.48581 11.7333 9.35641 11.7333 10.56V12.2667C11.7333 12.5612 11.9722 12.8 12.2667 12.8C12.5612 12.8 12.8 12.5612 12.8 12.2667V10.56V10.5359C12.8 9.3615 12.8 8.44744 12.7401 7.71423C12.6793 6.96977 12.554 6.3649 12.2768 5.82084C11.8166 4.91766 11.0823 4.18336 10.1792 3.72316C9.63509 3.44595 9.03023 3.32072 8.28577 3.2599C7.55255 3.2 6.63849 3.2 5.46414 3.2Z" fill="#1C2024"/>
</svg>
