<svg width="16" height="16" viewBox="0 0 16 16" fill="none" xmlns="http://www.w3.org/2000/svg">
<rect width="16" height="16" fill="white" fill-opacity="0.01"/>
<path fill-rule="evenodd" clip-rule="evenodd" d="M5.46415 12.8H5.44001H3.73335C3.4388 12.8 3.20001 12.5612 3.20001 12.2667C3.20001 11.9722 3.4388 11.7333 3.73335 11.7333H5.44001C6.6436 11.7333 7.5142 11.7329 8.19892 11.677C8.87741 11.6215 9.32628 11.5142 9.69491 11.3264C10.3974 10.9685 10.9685 10.3974 11.3264 9.6949C11.5143 9.32627 11.6216 8.87739 11.677 8.19891C11.7329 7.51418 11.7333 6.64358 11.7333 5.44V3.73333C11.7333 3.43878 11.9722 3.2 12.2667 3.2C12.5612 3.2 12.8 3.43878 12.8 3.73333V5.44V5.46414C12.8 6.63849 12.8 7.55255 12.7401 8.28577C12.6793 9.03023 12.554 9.63509 12.2768 10.1792C11.8167 11.0823 11.0824 11.8166 10.1792 12.2768C9.63511 12.554 9.03024 12.6793 8.28578 12.7401C7.55257 12.8 6.63851 12.8 5.46415 12.8Z" fill="#1C2024"/>
</svg>
