<svg width="16" height="16" viewBox="0 0 16 16" fill="none" xmlns="http://www.w3.org/2000/svg">
<rect width="16" height="16" fill="white" fill-opacity="0.01"/>
<path fill-rule="evenodd" clip-rule="evenodd" d="M10.5359 12.8H10.56H12.2667C12.5612 12.8 12.8 12.5612 12.8 12.2667C12.8 11.9722 12.5612 11.7333 12.2667 11.7333H10.56C9.35643 11.7333 8.48583 11.7329 7.8011 11.677C7.12262 11.6215 6.67374 11.5142 6.30511 11.3264C5.60265 10.9685 5.03151 10.3974 4.67359 9.6949C4.48576 9.32627 4.37848 8.87739 4.32304 8.19891C4.2671 7.51418 4.26668 6.64358 4.26668 5.44V3.73333C4.26668 3.43878 4.02789 3.2 3.73335 3.2C3.4388 3.2 3.20001 3.43878 3.20001 3.73333V5.44V5.46414C3.20001 6.63849 3.20001 7.55255 3.25992 8.28577C3.32074 9.03023 3.44596 9.63509 3.72318 10.1792C4.18337 11.0823 4.91768 11.8166 5.82085 12.2768C6.36492 12.554 6.96978 12.6793 7.71424 12.7401C8.44746 12.8 9.36152 12.8 10.5359 12.8Z" fill="#1C2024"/>
</svg>
