<svg width="16" height="16" viewBox="0 0 16 16" fill="none" xmlns="http://www.w3.org/2000/svg">
<rect width="16" height="16" fill="white" fill-opacity="0.01"/>
<path fill-rule="evenodd" clip-rule="evenodd" d="M5.86667 2.13333H5.20464C4.77533 2.13332 4.421 2.13332 4.13236 2.15691C3.83257 2.1814 3.557 2.23396 3.29815 2.36585C2.89675 2.57038 2.57038 2.89675 2.36585 3.29815C2.23396 3.557 2.1814 3.83257 2.15691 4.13236C2.13332 4.42099 2.13332 4.77532 2.13333 5.20462V5.86667C2.13333 6.16121 2.37212 6.4 2.66667 6.4C2.96121 6.4 3.2 6.16121 3.2 5.86667V5.22667C3.2 4.76982 3.20041 4.45926 3.22003 4.21922C3.23913 3.9854 3.27376 3.86582 3.31625 3.78241C3.41853 3.58171 3.58171 3.41853 3.78241 3.31625C3.86582 3.27376 3.9854 3.23913 4.21922 3.22003C4.45926 3.20041 4.76982 3.2 5.22667 3.2H5.86667C6.16121 3.2 6.4 2.96121 6.4 2.66667C6.4 2.37212 6.16121 2.13333 5.86667 2.13333ZM13.8667 10.1333C13.8667 9.83878 13.6278 9.6 13.3333 9.6C13.0388 9.6 12.8 9.83878 12.8 10.1333V10.7733C12.8 11.2302 12.7996 11.5407 12.7799 11.7808C12.7609 12.0146 12.7263 12.1342 12.6837 12.2176C12.5814 12.4183 12.4183 12.5814 12.2176 12.6837C12.1342 12.7263 12.0146 12.7609 11.7808 12.7799C11.5407 12.7996 11.2302 12.8 10.7733 12.8H10.1333C9.83878 12.8 9.6 13.0388 9.6 13.3333C9.6 13.6278 9.83878 13.8667 10.1333 13.8667H10.7953C11.2246 13.8667 11.579 13.8667 11.8676 13.8431C12.1675 13.8186 12.443 13.7661 12.7019 13.6341C13.1033 13.4297 13.4297 13.1033 13.6341 12.7019C13.7661 12.443 13.8186 12.1675 13.8431 11.8676C13.8667 11.579 13.8667 11.2247 13.8667 10.7954V10.1333ZM2.66667 9.6C2.96121 9.6 3.2 9.83878 3.2 10.1333V10.7733C3.2 11.2302 3.20041 11.5407 3.22003 11.7808C3.23913 12.0146 3.27376 12.1342 3.31625 12.2176C3.41853 12.4183 3.58171 12.5814 3.78241 12.6837C3.86582 12.7263 3.9854 12.7609 4.21922 12.7799C4.45926 12.7996 4.76982 12.8 5.22667 12.8H5.86667C6.16121 12.8 6.4 13.0388 6.4 13.3333C6.4 13.6278 6.16121 13.8667 5.86667 13.8667H5.20464C4.77533 13.8667 4.421 13.8667 4.13236 13.8431C3.83257 13.8186 3.557 13.7661 3.29815 13.6341C2.89675 13.4297 2.57038 13.1033 2.36585 12.7019C2.23396 12.443 2.1814 12.1675 2.15691 11.8676C2.13332 11.579 2.13332 11.2246 2.13333 10.7954V10.7733V10.1333C2.13333 9.83878 2.37212 9.6 2.66667 9.6ZM10.7733 3.2C11.2302 3.2 11.5407 3.20041 11.7808 3.22003C12.0146 3.23913 12.1342 3.27376 12.2176 3.31625C12.4183 3.41853 12.5814 3.58171 12.6837 3.78241C12.7263 3.86582 12.7609 3.9854 12.7799 4.21922C12.7996 4.45926 12.8 4.76982 12.8 5.22667V5.86667C12.8 6.16121 13.0388 6.4 13.3333 6.4C13.6278 6.4 13.8667 6.16121 13.8667 5.86667V5.20464C13.8667 4.77533 13.8667 4.42099 13.8431 4.13236C13.8186 3.83257 13.7661 3.557 13.6341 3.29815C13.4297 2.89675 13.1033 2.57038 12.7019 2.36585C12.443 2.23396 12.1675 2.1814 11.8676 2.15691C11.579 2.13332 11.2246 2.13332 10.7953 2.13333H10.7733H10.1333C9.83878 2.13333 9.6 2.37212 9.6 2.66667C9.6 2.96121 9.83878 3.2 10.1333 3.2H10.7733Z" fill="#1C2024"/>
</svg>
