<svg width="16" height="16" viewBox="0 0 16 16" fill="none" xmlns="http://www.w3.org/2000/svg">
<rect width="16" height="16" fill="white" fill-opacity="0.01"/>
<path fill-rule="evenodd" clip-rule="evenodd" d="M10.5359 3.2H10.56H12.2667C12.5612 3.2 12.8 3.43878 12.8 3.73333C12.8 4.02788 12.5612 4.26666 12.2667 4.26666H10.56C9.35643 4.26666 8.48583 4.26708 7.8011 4.32303C7.12262 4.37846 6.67374 4.48575 6.30511 4.67358C5.60265 5.0315 5.03151 5.60263 4.67359 6.3051C4.48576 6.67372 4.37848 7.1226 4.32304 7.80108C4.2671 8.48581 4.26668 9.35641 4.26668 10.56V12.2667C4.26668 12.5612 4.02789 12.8 3.73335 12.8C3.4388 12.8 3.20001 12.5612 3.20001 12.2667V10.56V10.5359C3.20001 9.3615 3.20001 8.44744 3.25992 7.71423C3.32074 6.96977 3.44596 6.3649 3.72318 5.82084C4.18337 4.91766 4.91768 4.18336 5.82085 3.72316C6.36492 3.44595 6.96978 3.32072 7.71424 3.2599C8.44746 3.2 9.36152 3.2 10.5359 3.2Z" fill="#1C2024"/>
</svg>
