<svg width="16" height="16" viewBox="0 0 16 16" fill="none" xmlns="http://www.w3.org/2000/svg">
<rect width="16" height="16" fill="white" fill-opacity="0.01"/>
<path fill-rule="evenodd" clip-rule="evenodd" d="M8.22554 0.850024C8.08258 0.783309 7.91741 0.783309 7.77446 0.850024L1.37446 3.83669C1.18668 3.92431 1.06667 4.11277 1.06667 4.31998V11.68C1.06667 11.8872 1.18668 12.0756 1.37446 12.1633L7.77446 15.15C7.91741 15.2166 8.08258 15.2166 8.22554 15.15L14.6255 12.1633C14.8133 12.0756 14.9333 11.8872 14.9333 11.68V4.31998C14.9333 4.11277 14.8133 3.92431 14.6255 3.83669L8.22554 0.850024ZM8 3.36718L6.37909 2.6783L8 1.92187L9.6209 2.6783L8 3.36718ZM8.2086 4.43752L10.9208 3.28488L13.09 4.29722L8 6.46048L2.90996 4.29722L5.07927 3.28488L7.79139 4.43752C7.92469 4.49418 8.0753 4.49418 8.2086 4.43752ZM8.53333 7.39283L13.8667 5.12616V8.4583L11.8209 9.39935C11.4425 9.57342 11.2 9.95187 11.2 10.3684V12.5847L8.53333 13.8292V7.39283ZM12.2667 12.087L13.8667 11.3404V9.63241L12.2667 10.3684V12.087ZM7.46666 7.39283V13.8292L4.80247 12.5859V10.3684C4.80247 9.95183 4.56 9.57339 4.18157 9.39932L2.13333 8.45712V5.12616L7.46666 7.39283ZM2.13333 11.3404L3.7358 12.0881V10.3684L2.13333 9.63124V11.3404Z" fill="#1C2024"/>
</svg>
