<svg width="16" height="16" viewBox="0 0 16 16" fill="none" xmlns="http://www.w3.org/2000/svg">
<rect width="16" height="16" fill="white" fill-opacity="0.01"/>
<mask id="mask0_1_2366" style="mask-type:luminance" maskUnits="userSpaceOnUse" x="0" y="0" width="16" height="16">
<path d="M0 0H16V16H0V0Z" fill="white"/>
</mask>
<g mask="url(#mask0_1_2366)">
<path fill-rule="evenodd" clip-rule="evenodd" d="M5.41629 1.92651C5.3698 1.9192 5.32255 1.91808 5.27575 1.92318C4.37507 2.02127 3.00697 2.50647 2.19923 2.94456C2.14357 2.97474 2.09374 3.01461 2.05205 3.06226C1.71491 3.44774 1.41029 4.07543 1.17193 4.66603C0.926641 5.27374 0.723501 5.91421 0.607675 6.37729C0.230985 7.88334 0.0241958 9.6915 -0.00249876 11.405C-0.00388969 11.4943 0.0171607 11.5825 0.0587215 11.6616C0.382636 12.2776 1.07631 12.8465 1.7685 13.2613C2.46881 13.6808 3.28686 14.0136 3.9489 14.0776C4.115 14.0936 4.27904 14.031 4.39219 13.9083C4.55836 13.7281 4.83903 13.3098 5.04997 12.987C5.1623 12.8151 5.26622 12.6524 5.34195 12.5328C5.34713 12.5247 5.35216 12.5167 5.35707 12.5089C6.07428 12.6814 6.94978 12.8001 8.00019 12.8001C9.04948 12.8001 9.92423 12.6816 10.641 12.5095C10.6458 12.517 10.6507 12.5248 10.6558 12.5328C10.7315 12.6524 10.8355 12.8151 10.9478 12.987C11.1587 13.3098 11.4394 13.7281 11.6055 13.9083C11.7187 14.031 11.8827 14.0936 12.0488 14.0776C12.7109 14.0136 13.5289 13.6808 14.2293 13.2613C14.9214 12.8465 15.6151 12.2776 15.9391 11.6616C15.9805 11.5825 16.0017 11.4943 16.0003 11.405C15.9735 9.6915 15.7668 7.88334 15.39 6.37729C15.2742 5.91421 15.0711 5.27374 14.8258 4.66603C14.5875 4.07543 14.2828 3.44774 13.9457 3.06226C13.904 3.01461 13.8541 2.97474 13.7985 2.94456C12.9908 2.50647 11.6227 2.02127 10.722 1.92318C10.6752 1.91808 10.6279 1.9192 10.5814 1.92651C10.3564 1.96187 10.1636 2.07762 10.0226 2.18412C9.87352 2.29675 9.73536 2.43515 9.61636 2.5748C9.44221 2.77918 9.27331 3.02899 9.16556 3.26581C8.80217 3.2243 8.41312 3.20002 8.00017 3.20002C7.58629 3.20002 7.1964 3.22441 6.83231 3.26608C6.72455 3.0292 6.55559 2.77926 6.38138 2.5748C6.26238 2.43515 6.12422 2.29675 5.97514 2.18412C5.83415 2.07762 5.64133 1.96187 5.41629 1.92651ZM11.6973 12.1821C11.7422 12.252 11.7907 12.3269 11.8407 12.4035C11.9795 12.6159 12.1163 12.819 12.2234 12.969C12.6413 12.8728 13.1713 12.6517 13.681 12.3463C14.2567 12.0013 14.7106 11.6064 14.9309 11.2728C14.8958 9.66926 14.6978 8.00542 14.3553 6.63611C14.2518 6.22229 14.0641 5.62869 13.8366 5.06526C13.6233 4.53673 13.3971 4.0911 13.2001 3.83461C12.51 3.47786 11.4275 3.10135 10.7196 2.99808C10.7057 3.00656 10.6876 3.01853 10.6656 3.03523C10.5945 3.08894 10.5119 3.16846 10.4283 3.26662C10.3728 3.33167 10.3235 3.39694 10.2812 3.45869C10.6732 3.55039 11.0194 3.6577 11.3158 3.76546C11.7067 3.90764 12.0116 4.0508 12.2218 4.16051C12.3271 4.21539 12.4087 4.26198 12.4659 4.296C12.4944 4.31302 12.5169 4.3269 12.533 4.33712L12.5526 4.34964L12.5588 4.35371L12.561 4.35518L12.562 4.35577C12.5622 4.35589 12.5626 4.35626 12.2825 4.77652L12.562 4.35577C12.807 4.51915 12.874 4.85079 12.7106 5.09586C12.5475 5.34047 12.2173 5.40692 11.9724 5.24472L11.9714 5.24401C11.9713 5.24391 11.9709 5.24378 12.2668 4.80002L11.9714 5.24401L11.9634 5.23897C11.9548 5.23356 11.9403 5.22453 11.92 5.21238C11.8791 5.18807 11.815 5.15132 11.7285 5.1062C11.5555 5.01592 11.2936 4.89241 10.9512 4.76792C10.2666 4.51895 9.26175 4.26669 8.00017 4.26669C6.73859 4.26669 5.73377 4.51895 5.0491 4.76792C4.70673 4.89241 4.44491 5.01592 4.27187 5.1062C4.1854 5.15132 4.12124 5.18807 4.08043 5.21238C4.06003 5.22453 4.04548 5.23356 4.03692 5.23897L4.02859 5.24429C4.02849 5.24436 4.02868 5.24423 4.02859 5.24429C3.78356 5.40717 3.453 5.34075 3.28975 5.09586C3.12636 4.85079 3.19258 4.51965 3.43766 4.35627L3.7335 4.80002C3.43766 4.35627 3.43748 4.35639 3.43766 4.35627L3.4393 4.35518L3.44153 4.35371L3.44777 4.34964L3.46733 4.33712C3.4835 4.3269 3.50594 4.31302 3.5345 4.296C3.59161 4.26198 3.67328 4.21539 3.77846 4.16051C3.98877 4.0508 4.29361 3.90764 4.68457 3.76546C4.98037 3.6579 5.32576 3.55081 5.71694 3.45921C5.67449 3.39731 5.62508 3.33185 5.56948 3.26662C5.48585 3.16846 5.40328 3.08894 5.33217 3.03523C5.31006 3.01853 5.29203 3.00656 5.27807 2.99808C4.57029 3.10135 3.48766 3.47786 2.79769 3.83461C2.60065 4.0911 2.37438 4.53673 2.16106 5.06526C1.93365 5.62869 1.74597 6.22229 1.64246 6.63611C1.29998 8.00542 1.10187 9.66926 1.06683 11.2728C1.28715 11.6064 1.74102 12.0013 2.31671 12.3463C2.82646 12.6517 3.35635 12.8728 3.77434 12.969C3.88141 12.819 4.01826 12.6159 4.15702 12.4035C4.2073 12.3265 4.25591 12.2514 4.30098 12.1813C4.19946 12.1418 4.10309 12.1018 4.01179 12.0616C3.58468 11.8733 3.27082 11.6824 3.05856 11.5331C2.95249 11.4587 2.87194 11.3947 2.8154 11.3468C2.78714 11.3229 2.76487 11.303 2.74844 11.2878C2.74022 11.2802 2.73346 11.2738 2.72813 11.2687L2.72121 11.262L2.71854 11.2594L2.71741 11.2583C2.71716 11.2581 2.71641 11.2573 3.09353 10.8801L2.71641 11.2573C2.50813 11.049 2.50813 10.7113 2.71641 10.503C2.92359 10.2958 3.25882 10.2948 3.46735 10.4998L3.47148 10.5036C3.47708 10.5088 3.48805 10.5187 3.50458 10.5327C3.53762 10.5607 3.59291 10.605 3.67183 10.6605C3.82958 10.7713 4.08237 10.927 4.44193 11.0855C5.1592 11.4015 6.31245 11.7335 8.00019 11.7335C9.68795 11.7335 10.8412 11.4015 11.5585 11.0855C11.918 10.927 12.1708 10.7713 12.3286 10.6605C12.4075 10.605 12.4628 10.5606 12.4958 10.5327C12.5124 10.5187 12.5234 10.5088 12.5289 10.5036L12.5331 10.4998C12.7416 10.2948 13.0768 10.2958 13.284 10.503C13.4922 10.7113 13.4922 11.049 13.284 11.2573L12.9122 10.8855C13.284 11.2573 13.2843 11.2571 13.284 11.2573L13.2829 11.2583L13.2819 11.2594L13.2792 11.262L13.2723 11.2687C13.2669 11.2738 13.2602 11.2802 13.2519 11.2878C13.2355 11.303 13.2133 11.3229 13.185 11.3468C13.1285 11.3947 13.048 11.4587 12.9418 11.5331C12.7296 11.6824 12.4157 11.8733 11.9886 12.0616C11.8967 12.1021 11.7996 12.1424 11.6973 12.1821ZM4.35269 7.47971C4.61257 7.19985 4.96525 7.04175 5.33358 7.04C5.70191 7.04175 6.0546 7.19985 6.31447 7.47971C6.57435 7.75959 6.72024 8.13841 6.72024 8.53334C6.72024 8.92825 6.57435 9.30707 6.31447 9.58695C6.0546 9.86681 5.70191 10.0249 5.33358 10.0267C4.96525 10.0249 4.61257 9.86681 4.35269 9.58695C4.09281 9.30707 3.94691 8.92825 3.94691 8.53334C3.94691 8.13841 4.09281 7.75959 4.35269 7.47971ZM10.6656 7.04C10.2973 7.04175 9.9446 7.19985 9.68471 7.47971C9.42484 7.75959 9.27894 8.13841 9.27894 8.53334C9.27894 8.92825 9.42484 9.30707 9.68471 9.58695C9.9446 9.86681 10.2973 10.0249 10.6656 10.0267C11.034 10.0249 11.3866 9.86681 11.6465 9.58695C11.9064 9.30707 12.0523 8.92825 12.0523 8.53334C12.0523 8.13841 11.9064 7.75959 11.6465 7.47971C11.3866 7.19985 11.034 7.04175 10.6656 7.04Z" fill="#1C2024"/>
</g>
</svg>
