<svg width="16" height="16" viewBox="0 0 16 16" fill="none" xmlns="http://www.w3.org/2000/svg">
<rect width="16" height="16" fill="white" fill-opacity="0.01"/>
<path fill-rule="evenodd" clip-rule="evenodd" d="M7.46672 2.18666H5.89339C5.02446 2.18666 4.32005 2.89107 4.32005 3.76C4.32005 4.62892 5.02446 5.33333 5.89339 5.33333H7.46672V2.18666ZM7.46672 1.12H8.53339H10.1067C11.5648 1.12 12.7467 2.30196 12.7467 3.76C12.7467 4.62041 12.3351 5.3847 11.698 5.86666C12.3351 6.34864 12.7467 7.11292 12.7467 7.97334C12.7467 9.43137 11.5648 10.6133 10.1067 10.6133C9.51719 10.6133 8.97278 10.4201 8.53339 10.0935V10.6133V12.1867C8.53339 13.6447 7.35141 14.8267 5.89339 14.8267C4.43535 14.8267 3.25339 13.6447 3.25339 12.1867C3.25339 11.3262 3.66499 10.562 4.30205 10.08C3.66499 9.59802 3.25339 8.83374 3.25339 7.97334C3.25339 7.11292 3.665 6.34864 4.30207 5.86667C3.665 5.3847 3.25339 4.62041 3.25339 3.76C3.25339 2.30196 4.43535 1.12 5.89339 1.12H7.46672ZM8.53339 2.18666V5.33333H10.1067C10.9757 5.33333 11.68 4.62892 11.68 3.76C11.68 2.89107 10.9757 2.18666 10.1067 2.18666H8.53339ZM5.89339 9.54665H7.46672V7.97739V7.97334V7.96929V6.40001H5.89339C5.02446 6.40001 4.32005 7.10441 4.32005 7.97334C4.32005 8.84019 5.02109 9.5433 5.88715 9.54666L5.89339 9.54665ZM4.32005 12.1867C4.32005 11.3198 5.02109 10.6167 5.88715 10.6133L5.89339 10.6133H7.46672V12.1867C7.46672 13.0556 6.76232 13.76 5.89339 13.76C5.02446 13.76 4.32005 13.0556 4.32005 12.1867ZM8.53339 7.9702C8.53508 7.10272 9.23884 6.40001 10.1067 6.40001C10.9757 6.40001 11.68 7.10441 11.68 7.97334C11.68 8.84227 10.9757 9.54667 10.1067 9.54667C9.23884 9.54667 8.53508 8.84396 8.53339 7.97648V7.9702Z" fill="#1C2024"/>
</svg>
