<svg width="16" height="16" viewBox="0 0 16 16" fill="none" xmlns="http://www.w3.org/2000/svg">
<rect width="16" height="16" fill="white" fill-opacity="0.01"/>
<path fill-rule="evenodd" clip-rule="evenodd" d="M3.60801 1.38206C3.69325 1.18862 3.88468 1.06378 4.09607 1.06378H12.2667C12.5612 1.06378 12.8 1.30256 12.8 1.59711V5.86668C12.8 6.16123 12.5612 6.40001 12.2667 6.40001H9.2109L12.2974 9.77331C12.4401 9.92929 12.4772 10.1548 12.392 10.3483C12.3068 10.5418 12.1154 10.6667 11.904 10.6667H8.53335V14.4C8.53335 14.6157 8.4034 14.8101 8.20411 14.8927C8.00481 14.9753 7.77543 14.9297 7.62289 14.7772L3.35623 10.5105C3.2562 10.4105 3.20001 10.2748 3.20001 10.1333V5.86668C3.20001 5.57213 3.4388 5.33335 3.73335 5.33335H6.78968L3.70247 1.957C3.55982 1.80101 3.52277 1.57549 3.60801 1.38206ZM8.23502 5.33335L5.3064 2.13044H11.7333V5.33335H8.23502ZM7.76511 6.40001H4.26668V9.60001H8.00001H10.693L7.76511 6.40001ZM5.02093 10.6667L7.46668 13.1124V10.6667H5.02093Z" fill="#1C2024"/>
</svg>
