<svg width="16" height="16" viewBox="0 0 16 16" fill="none" xmlns="http://www.w3.org/2000/svg">
<rect width="16" height="16" fill="white" fill-opacity="0.01"/>
<path fill-rule="evenodd" clip-rule="evenodd" d="M8 0.0032959C7.25838 0.0032959 6.66616 0.299627 6.66667 0.799775C6.66667 1.06352 6.85276 1.1946 7.01533 1.3091C7.14141 1.3979 7.25333 1.47674 7.25333 1.59978C7.25333 1.82069 6.46639 1.8586 5.54441 1.903C4.24056 1.9658 2.66667 2.0416 2.66667 2.66645C2.66667 2.961 2.90545 3.19978 3.2 3.19978H12.8C13.0945 3.19978 13.3333 2.961 13.3333 2.66645C13.3333 2.0416 11.7595 1.9658 10.4556 1.903C9.53361 1.8586 8.74667 1.82069 8.74667 1.59978C8.74667 1.47674 8.85859 1.3979 8.98467 1.3091C9.14724 1.1946 9.33333 1.06352 9.33333 0.799775C9.33383 0.299627 8.74162 0.0032959 8 0.0032959ZM3.08748 6.53062C2.4086 6.95947 2.03111 7.79837 2.15971 8.59242L3.02494 13.3088C3.21059 14.2464 4.01376 14.9331 4.97132 14.9331H11.0265C11.9844 14.9331 12.7876 14.2464 12.9733 13.3088L13.8385 8.59292C13.9616 7.8116 13.6836 6.96806 12.942 6.49976C12.5102 6.21859 12.4173 5.68758 12.942 5.4696C13.6836 5.18842 13.5411 4.26645 12.8 4.26645H10.9868H7.25339H3.19996C2.45833 4.26645 2.34536 5.21928 3.08748 5.50046C3.61218 5.68758 3.51935 6.21859 3.08748 6.53062ZM8.74673 6.66645C8.74673 6.20532 8.62477 5.73434 8.43344 5.33311H4.38499C4.48668 5.56044 4.52469 5.80126 4.51097 6.032C4.4749 6.63884 4.10226 7.11337 3.71217 7.39522L3.68525 7.41467L3.65715 7.43242C3.34301 7.63086 3.15521 8.04233 3.21128 8.4131L4.0725 13.1076C4.16547 13.5629 4.54558 13.8664 4.97132 13.8664H11.0265C11.4528 13.8664 11.8327 13.5628 11.9258 13.1076L12.7866 8.41557C12.8512 7.98108 12.6884 7.60118 12.3725 7.40167L12.36 7.39374C11.941 7.12095 11.5553 6.64282 11.5185 6.02429C11.5036 5.77258 11.5482 5.54002 11.6386 5.33311H9.65885C9.62119 5.48896 9.60006 5.66592 9.60006 5.86645C9.60006 6.37258 9.83124 6.7958 10.0732 7.23884C10.339 7.72541 10.6179 8.2359 10.6179 8.90637C10.6179 9.88757 10.1319 10.498 9.19668 10.498C8.6742 10.498 8.08339 10.0915 8.08339 9.34144C8.08339 8.90942 8.22995 8.55067 8.38529 8.17043C8.56043 7.74171 8.74673 7.28566 8.74673 6.66645Z" fill="#1C2024"/>
</svg>
