<svg width="16" height="16" viewBox="0 0 16 16" fill="none" xmlns="http://www.w3.org/2000/svg">
<rect width="16" height="16" fill="white" fill-opacity="0.01"/>
<path fill-rule="evenodd" clip-rule="evenodd" d="M2.13335 1.06665C1.54425 1.06665 1.06668 1.54422 1.06668 2.13332V13.8667C1.06668 14.4558 1.54425 14.9333 2.13335 14.9333H13.8667C14.4558 14.9333 14.9333 14.4558 14.9333 13.8667V2.13332C14.9333 1.54422 14.4558 1.06665 13.8667 1.06665H2.13335ZM3.25335 6.39998H5.28001V12.8H3.25335V6.39998ZM5.41335 4.27198C5.41335 4.90527 4.89997 5.41865 4.26668 5.41865C3.6334 5.41865 3.12001 4.90527 3.12001 4.27198C3.12001 3.63869 3.6334 3.12532 4.26668 3.12532C4.89997 3.12532 5.41335 3.63869 5.41335 4.27198ZM12.8 8.91426C12.8 6.98887 11.5556 6.24034 10.3195 6.24034C9.9147 6.22039 9.51171 6.30525 9.15067 6.48646C8.87652 6.62406 8.58951 6.9389 8.36819 7.48642H8.31126V6.40045H6.40001V12.805H8.43325V9.3986C8.40385 9.04972 8.5155 8.59883 8.74392 8.33051C8.97234 8.06219 9.2991 7.99812 9.54684 7.96557H9.6241C10.2707 7.96557 10.7505 8.36586 10.7505 9.37458V12.805H12.7837L12.8 8.91426Z" fill="#1C2024"/>
</svg>
