<svg width="16" height="16" viewBox="0 0 16 16" fill="none" xmlns="http://www.w3.org/2000/svg">
<rect width="16" height="16" fill="white" fill-opacity="0.01"/>
<path fill-rule="evenodd" clip-rule="evenodd" d="M7.74321 3.37777L4.66173 5.68887V1.06665L7.74321 3.37777ZM1.06668 8.77035L4.14816 6.45924L1.06668 4.14813V8.77035ZM1.06668 14.9333L4.14816 12.6222L1.06668 10.3111V14.9333ZM8.25678 8.77035L11.3383 6.45924L8.25678 4.14813V8.77035ZM14.9333 3.37777L11.8519 5.68887V1.06665L14.9333 3.37777ZM11.8519 11.8518L14.9333 9.54072L11.8519 7.22961V11.8518ZM4.14816 11.8518L1.06668 9.54072L4.14816 7.22961V11.8518ZM4.66173 6.45924L7.74321 8.77035V4.14813L4.66173 6.45924ZM4.14816 5.68887L1.06668 3.37777L4.14816 1.06665V5.68887ZM8.25678 3.37777L11.3383 5.68887V1.06665L8.25678 3.37777ZM14.9333 8.77035L11.8519 6.45924L14.9333 4.14813V8.77035ZM11.8519 12.6222L14.9333 14.9333V10.3111L11.8519 12.6222Z" fill="#1C2024"/>
</svg>
