<svg width="16" height="16" viewBox="0 0 16 16" fill="none" xmlns="http://www.w3.org/2000/svg">
<rect width="16" height="16" fill="white" fill-opacity="0.01"/>
<path d="M3.47498 3.32462C3.92288 3.68848 4.0909 3.66071 4.93192 3.60461L12.8609 3.12851C13.029 3.12851 12.8892 2.96075 12.8332 2.93286L11.5163 1.98091C11.264 1.78502 10.9278 1.56068 10.2835 1.6168L2.60594 2.17678C2.32595 2.20454 2.27001 2.34453 2.38153 2.45676L3.47498 3.32462ZM3.95103 5.17244V13.5151C3.95103 13.9634 4.17508 14.1312 4.67938 14.1035L13.3933 13.5992C13.8978 13.5715 13.954 13.263 13.954 12.8989V4.61222C13.954 4.24858 13.8142 4.05248 13.5053 4.08047L4.39915 4.61222C4.06311 4.64046 3.95103 4.80855 3.95103 5.17244ZM12.5534 5.61996C12.6093 5.87218 12.5534 6.12417 12.3007 6.15251L11.8808 6.23616V12.3952C11.5163 12.5911 11.1801 12.7031 10.9 12.7031C10.4516 12.7031 10.3392 12.5631 10.0033 12.1433L7.257 7.83198V12.0034L8.12602 12.1995C8.12602 12.1995 8.12602 12.7031 7.4249 12.7031L5.49203 12.8152C5.43588 12.7031 5.49203 12.4235 5.68808 12.3673L6.19248 12.2276V6.71226L5.49215 6.65615C5.43599 6.40392 5.57587 6.04029 5.96841 6.01205L8.04196 5.87229L10.9 10.2398V6.37615L10.1713 6.29251C10.1154 5.98418 10.3392 5.76029 10.6195 5.73252L12.5534 5.61996ZM1.96131 1.42092L9.94726 0.832827C10.928 0.748715 11.1803 0.805058 11.7967 1.25281L14.3458 3.04451C14.7665 3.35262 14.9067 3.4365 14.9067 3.77237V13.5992C14.9067 14.215 14.6823 14.5793 13.8979 14.635L4.6239 15.1951C4.03509 15.2231 3.75485 15.1392 3.4465 14.747L1.56922 12.3113C1.23284 11.863 1.09296 11.5276 1.09296 11.1351V2.40043C1.09296 1.89679 1.31736 1.47669 1.96131 1.42092Z" fill="#1C2024"/>
</svg>
