<svg width="16" height="16" viewBox="0 0 16 16" fill="none" xmlns="http://www.w3.org/2000/svg">
<rect width="16" height="16" fill="white" fill-opacity="0.01"/>
<path fill-rule="evenodd" clip-rule="evenodd" d="M8.03979 0.88199C8.01332 0.879343 7.98666 0.879343 7.96019 0.88199L4.22686 1.25532C4.11382 1.26663 4.01092 1.32545 3.94384 1.41713L0.746412 5.78696C0.697639 5.85201 0.668224 5.93242 0.666717 6.01962C0.666677 6.02197 0.666656 6.02432 0.666656 6.02667L0.66666 6.02829C0.667044 6.12519 0.701879 6.21395 0.759549 6.28298L7.6911 14.7075C7.76708 14.7999 7.88041 14.8533 7.99999 14.8533C8.11957 14.8533 8.2329 14.7999 8.30888 14.7075L15.2404 6.28299C15.2981 6.21396 15.3329 6.12519 15.3333 6.02829V6.02667V6.0218C15.3332 6.0156 15.333 6.0094 15.3327 6.0032C15.328 5.92233 15.2993 5.84791 15.2535 5.78695L12.0561 1.41713C11.989 1.32545 11.8862 1.26663 11.7731 1.25532L8.03979 0.88199ZM11.6533 5.62667V5.60251L11.6504 5.62667H11.6533ZM11.6631 5.51997H14.0669L11.9995 2.6945L11.6631 5.51997ZM11.2754 2.00954L8.5806 1.74006L10.853 5.55769L11.2754 2.00954ZM7.41938 1.74006L4.72459 2.00954L5.14699 5.55769L7.41938 1.74006ZM4.00048 2.6945L1.93307 5.51997H4.33684L4.00048 2.6945ZM1.91376 6.42667L7.20917 12.8626L4.50528 6.47135C4.49905 6.45663 4.49401 6.4417 4.49011 6.42667H1.91376ZM5.49391 6.42667L7.99998 12.9157L10.506 6.42667H10.4393H5.56073H5.49391ZM11.5099 6.42667C11.506 6.4417 11.5009 6.45663 11.4947 6.47135L8.79081 12.8626L14.0862 6.42667H11.5099ZM7.99999 2.32871L9.96306 5.62667H6.03692L7.99999 2.32871Z" fill="#1C2024"/>
</svg>
