<svg width="16" height="16" viewBox="0 0 16 16" fill="none" xmlns="http://www.w3.org/2000/svg">
<rect width="16" height="16" fill="white" fill-opacity="0.01"/>
<path fill-rule="evenodd" clip-rule="evenodd" d="M1.97332 7.99995C1.97332 7.69407 1.9961 7.3935 2.04007 7.09987L10.2013 2.38797C10.5207 2.51333 10.8267 2.66516 11.1167 2.84074L4.02203 6.93685C3.98581 6.95659 3.95181 6.9812 3.92109 7.01051C3.83051 7.09659 3.77862 7.21369 3.77261 7.33499C3.76917 7.40456 3.78082 7.47551 3.80892 7.54277C3.82856 7.59005 3.8559 7.63456 3.89061 7.67419C3.91794 7.70553 3.94881 7.73268 3.98227 7.75538L7.81369 10.494L4.13048 12.6205C2.81178 11.515 1.97332 9.85538 1.97332 7.99995ZM8.92633 10.9601C8.93528 10.9553 8.9441 10.9503 8.95277 10.9448L10.497 10.0533C10.5035 10.0497 10.51 10.046 10.5164 10.0421L12.0641 9.14853C12.1232 9.11623 12.1764 9.07091 12.2191 9.01326C12.377 8.80031 12.3324 8.49969 12.1195 8.3418L8.34965 5.54682L11.9638 3.46017C13.2281 4.56491 14.0267 6.18917 14.0267 7.99995C14.0267 8.3578 13.9954 8.70836 13.9357 9.04907L5.94001 13.6654C5.61214 13.5461 5.29756 13.3992 4.99907 13.2275L8.92633 10.9601ZM8.72693 9.96673L5.1377 7.40123L5.87646 6.97471L9.39311 9.5821L8.72693 9.96673ZM6.78267 6.45152L7.44344 6.07002L10.9601 8.67737L10.2993 9.05891L6.78267 6.45152ZM8.88726 2.03814L2.39214 5.78809C3.27404 3.55398 5.45242 1.97329 7.99998 1.97329C8.30142 1.97329 8.59769 1.99541 8.88726 2.03814ZM7.3033 13.9867C7.53189 14.0131 7.76436 14.0266 7.99998 14.0266C10.4796 14.0266 12.6094 12.5291 13.5345 10.3892L7.3033 13.9867ZM7.99998 0.906616C4.08244 0.906616 0.906647 4.08241 0.906647 7.99995C0.906647 11.9175 4.08244 15.0933 7.99998 15.0933C11.9176 15.0933 15.0933 11.9175 15.0933 7.99995C15.0933 4.08241 11.9176 0.906616 7.99998 0.906616Z" fill="#1C2024"/>
</svg>
