<svg width="16" height="16" viewBox="0 0 16 16" fill="none" xmlns="http://www.w3.org/2000/svg">
<rect width="16" height="16" fill="white" fill-opacity="0.01"/>
<path fill-rule="evenodd" clip-rule="evenodd" d="M7.7156 5.00939C7.7156 3.16678 9.20892 1.67316 11.0507 1.67316C12.1319 1.67316 12.9952 2.18459 13.5738 2.92679C14.1951 2.79966 14.7794 2.56975 15.3081 2.2561C15.0996 2.90773 14.6586 3.45559 14.0835 3.80229L14.085 3.80566C14.649 3.7372 15.1855 3.58724 15.6851 3.36584L15.684 3.36764C15.3245 3.90597 14.8727 4.3812 14.3532 4.76838C14.3811 4.95652 14.3953 5.1459 14.3953 5.33419C14.3953 9.26625 11.3998 13.8396 5.88931 13.8396C4.20168 13.8396 2.62981 13.3451 1.30673 12.4962C1.05882 12.3372 0.986794 12.0073 1.14586 11.7594C1.15991 11.7374 1.1753 11.7169 1.19184 11.6977C1.28622 11.5416 1.46602 11.4463 1.65911 11.469C2.63538 11.5841 3.6114 11.4651 4.47168 11.0893C3.61842 10.713 2.95605 9.98375 2.66885 9.08774C2.61717 8.92652 2.65425 8.75 2.76642 8.62318C2.77032 8.61879 2.77427 8.61448 2.77829 8.61025C2.09485 8.00875 1.66372 7.12757 1.66372 6.14554V6.10944C1.66372 5.93936 1.75373 5.78198 1.90033 5.69574C1.9485 5.6674 2.00041 5.64813 2.05369 5.63797C1.8192 5.18566 1.68658 4.67184 1.68658 4.12757C1.68658 3.62844 1.68944 2.9994 2.04089 2.43288C2.11967 2.30588 2.2481 2.22844 2.38551 2.2101C2.58762 2.14654 2.81694 2.20768 2.95901 2.3819C4.12306 3.80936 5.80338 4.79557 7.71592 5.0556L7.7156 5.00939ZM5.88931 12.7729C5.04947 12.7729 4.24301 12.6331 3.49066 12.3758C4.40547 12.2174 5.28329 11.857 6.03967 11.2642C6.1996 11.1389 6.26329 10.9264 6.19869 10.7338C6.13409 10.5412 5.95521 10.4101 5.75207 10.4065C5.00234 10.3933 4.33827 10.0237 3.92314 9.45969C4.12618 9.44328 4.32458 9.40843 4.51676 9.35646C4.73178 9.29832 4.87855 9.0999 4.8712 8.87727C4.86385 8.65465 4.70432 8.46634 4.48593 8.42249C3.65541 8.25577 2.98543 7.6455 2.73248 6.84987C2.94673 6.90162 3.1691 6.93239 3.39715 6.93986C3.61135 6.94686 3.80424 6.81103 3.86983 6.607C3.9354 6.40297 3.85778 6.18019 3.67962 6.06107C3.05626 5.64434 2.64658 4.93296 2.64658 4.12757C2.64658 3.94895 2.6491 3.78954 2.6598 3.64502C4.10791 5.11909 6.08932 6.06861 8.29428 6.17962C8.46108 6.18803 8.62218 6.11781 8.72956 5.98991C8.83695 5.86201 8.87822 5.69119 8.84109 5.52838C8.80273 5.3602 8.78226 5.18704 8.78226 5.00939C8.78226 3.75559 9.79832 2.73982 11.0507 2.73982C12.3673 2.73982 13.3287 3.95957 13.3287 5.33419C13.3287 8.80758 10.6882 12.7729 5.88931 12.7729Z" fill="#1C2024"/>
</svg>
