<svg width="16" height="16" viewBox="0 0 16 16" fill="none" xmlns="http://www.w3.org/2000/svg">
<rect width="16" height="16" fill="white" fill-opacity="0.01"/>
<path fill-rule="evenodd" clip-rule="evenodd" d="M3.57711 1.9771C3.7854 1.76883 3.7854 1.43114 3.57711 1.22286C3.36883 1.01458 3.03115 1.01458 2.82287 1.22286L0.689536 3.3562C0.481255 3.56447 0.481255 3.90216 0.689536 4.11044L2.82287 6.24377C3.03115 6.45206 3.36883 6.45206 3.57711 6.24377C3.7854 6.03549 3.7854 5.69781 3.57711 5.48953L2.35424 4.26665H10.1333C12.1952 4.26665 13.8667 5.93812 13.8667 7.99998C13.8667 8.29453 14.1055 8.53332 14.4 8.53332C14.6945 8.53332 14.9333 8.29453 14.9333 7.99998C14.9333 5.34902 12.7843 3.19998 10.1333 3.19998H2.35424L3.57711 1.9771ZM2.13333 7.99998C2.13333 7.70543 1.89454 7.46665 1.59999 7.46665C1.30544 7.46665 1.06666 7.70543 1.06666 7.99998C1.06666 10.6509 3.21569 12.8 5.86666 12.8H13.6458L12.4228 14.0228C12.2146 14.2311 12.2146 14.5688 12.4228 14.7772C12.6311 14.9854 12.9688 14.9854 13.1772 14.7772L15.3105 12.6438C15.5187 12.4355 15.5187 12.0978 15.3105 11.8895L13.1772 9.7562C12.9688 9.54791 12.6311 9.54791 12.4228 9.7562C12.2146 9.96447 12.2146 10.3022 12.4228 10.5104L13.6458 11.7333H5.86666C3.80479 11.7333 2.13333 10.0619 2.13333 7.99998Z" fill="#1C2024"/>
</svg>
