<svg width="16" height="16" viewBox="0 0 16 16" fill="none" xmlns="http://www.w3.org/2000/svg">
<rect width="16" height="16" fill="white" fill-opacity="0.01"/>
<path fill-rule="evenodd" clip-rule="evenodd" d="M6.45327 2.93335C6.45327 2.60935 6.19061 2.34668 5.8666 2.34668C5.54259 2.34668 5.27994 2.60935 5.27994 2.93335V13.0667C5.27994 13.3906 5.54259 13.6534 5.8666 13.6534C6.19061 13.6534 6.45327 13.3906 6.45327 13.0667V2.93335ZM10.72 2.93335C10.72 2.60935 10.4573 2.34668 10.1333 2.34668C9.80926 2.34668 9.5466 2.60935 9.5466 2.93335V13.0667C9.5466 13.3906 9.80926 13.6534 10.1333 13.6534C10.4573 13.6534 10.72 13.3906 10.72 13.0667V2.93335Z" fill="#1C2024"/>
</svg>
