<svg width="16" height="16" viewBox="0 0 16 16" fill="none" xmlns="http://www.w3.org/2000/svg">
<rect width="16" height="16" fill="white" fill-opacity="0.01"/>
<path fill-rule="evenodd" clip-rule="evenodd" d="M5.17712 2.28952C5.38541 2.49779 5.38541 2.83548 5.17712 3.04376L3.95425 4.26664H9.6C12.251 4.26664 14.4 6.41567 14.4 9.06664C14.4 11.7176 12.251 13.8666 9.6 13.8666H5.33333C5.03878 13.8666 4.8 13.6278 4.8 13.3333C4.8 13.0388 5.03878 12.8 5.33333 12.8H9.6C11.6619 12.8 13.3333 11.1285 13.3333 9.06664C13.3333 7.00477 11.6619 5.3333 9.6 5.3333H3.95425L5.17712 6.55618C5.38541 6.76446 5.38541 7.10215 5.17712 7.31042C4.96884 7.51871 4.63116 7.51871 4.42288 7.31042L2.28955 5.17709C2.08126 4.96881 2.08126 4.63113 2.28955 4.42285L4.42288 2.28952C4.63116 2.08123 4.96884 2.08123 5.17712 2.28952Z" fill="#1C2024"/>
</svg>
