<svg width="16" height="16" viewBox="0 0 16 16" fill="none" xmlns="http://www.w3.org/2000/svg">
<rect width="16" height="16" fill="white" fill-opacity="0.01"/>
<path fill-rule="evenodd" clip-rule="evenodd" d="M3.25329 2.93322C3.25329 2.60921 2.99063 2.34656 2.66662 2.34656C2.34261 2.34656 2.07996 2.60921 2.07996 2.93322V13.0666C2.07996 13.3906 2.34261 13.6533 2.66662 13.6533C2.99063 13.6533 3.25329 13.3906 3.25329 13.0666V2.93322ZM6.11556 2.46155C5.95025 2.3743 5.75132 2.37997 5.59123 2.47649C5.43116 2.57301 5.33329 2.7463 5.33329 2.93322V13.0666C5.33329 13.2535 5.43116 13.4268 5.59123 13.5232C5.75132 13.6198 5.95025 13.6254 6.11556 13.5382L15.7155 8.47156C15.8905 8.37924 16 8.19769 16 7.99989C16 7.8021 15.8905 7.62054 15.7155 7.52822L6.11556 2.46155ZM6.39996 12.182V3.81776L14.324 7.99989L6.39996 12.182Z" fill="#1C2024"/>
</svg>
