<svg width="16" height="16" viewBox="0 0 16 16" fill="none" xmlns="http://www.w3.org/2000/svg">
<rect width="16" height="16" fill="white" fill-opacity="0.01"/>
<path fill-rule="evenodd" clip-rule="evenodd" d="M13.1772 1.22286C12.9689 1.01458 12.6311 1.01458 12.4228 1.22286C12.2146 1.43114 12.2146 1.76883 12.4228 1.9771L13.6458 3.19998H12.8C11.4173 3.19998 10.3585 3.82316 9.46398 4.68191C8.74736 5.36987 8.09972 6.24728 7.46092 7.11273C7.32039 7.30311 7.18031 7.49291 7.04 7.67998C5.44932 9.80089 3.72306 11.7333 0.533333 11.7333C0.238782 11.7333 0 11.9721 0 12.2667C0 12.5612 0.238782 12.8 0.533333 12.8C4.27694 12.8 6.28401 10.4657 7.89333 8.31998C8.04658 8.11566 8.19541 7.91425 8.34129 7.71683C8.97775 6.85554 9.55807 6.07022 10.2027 5.45139C10.9748 4.71014 11.7827 4.26665 12.8 4.26665H13.6458L12.4228 5.48953C12.2146 5.69781 12.2146 6.03549 12.4228 6.24377C12.6311 6.45206 12.9689 6.45206 13.1772 6.24377L15.3105 4.11044C15.5187 3.90216 15.5187 3.56447 15.3105 3.3562L13.1772 1.22286ZM0.533333 3.19998C3.5763 3.19998 5.47191 4.74226 6.93918 6.47194L6.80128 6.65882C6.66485 6.84382 6.53113 7.02515 6.4 7.19998C6.36157 7.25123 6.32318 7.30218 6.2848 7.35285C4.87838 5.64591 3.22813 4.26665 0.533333 4.26665C0.238782 4.26665 0 4.02787 0 3.73332C0 3.43877 0.238782 3.19998 0.533333 3.19998ZM9.46398 11.3181C8.93103 10.8064 8.43623 10.19 7.95485 9.55164C8.15667 9.29804 8.34884 9.04597 8.53333 8.79998L8.62919 8.67185C9.15639 9.38027 9.6564 10.0242 10.2027 10.5486C10.9748 11.2898 11.7827 11.7333 12.8 11.7333H13.6458L12.4228 10.5104C12.2146 10.3022 12.2146 9.96447 12.4228 9.7562C12.6311 9.54791 12.9689 9.54791 13.1772 9.7562L15.3105 11.8895C15.5187 12.0978 15.5187 12.4355 15.3105 12.6438L13.1772 14.7772C12.9689 14.9854 12.6311 14.9854 12.4228 14.7772C12.2146 14.5688 12.2146 14.2311 12.4228 14.0228L13.6458 12.8H12.8C11.4173 12.8 10.3585 12.1768 9.46398 11.3181Z" fill="#1C2024"/>
</svg>
