<svg width="16" height="16" viewBox="0 0 16 16" fill="none" xmlns="http://www.w3.org/2000/svg">
<rect width="16" height="16" fill="white" fill-opacity="0.01"/>
<path fill-rule="evenodd" clip-rule="evenodd" d="M8.53333 1.59998C8.53333 1.39798 8.4192 1.21331 8.23852 1.12296C8.05782 1.03262 7.84161 1.05211 7.68 1.17332L3.55555 4.26665H1.6C0.716344 4.26665 0 4.983 0 5.86665V10.1333C0 11.0169 0.716344 11.7333 1.6 11.7333H3.55555L7.68 14.8267C7.84161 14.9478 8.05782 14.9673 8.23852 14.877C8.4192 14.7867 8.53333 14.602 8.53333 14.4V1.59998ZM4.05333 5.22665L7.46667 2.66665V13.3333L4.05333 10.7733C3.96101 10.7041 3.84874 10.6667 3.73333 10.6667H1.6C1.30545 10.6667 1.06667 10.4279 1.06667 10.1333V5.86665C1.06667 5.5721 1.30545 5.33332 1.6 5.33332H3.73333C3.84874 5.33332 3.96101 5.29589 4.05333 5.22665ZM11.5552 4.22344C11.4246 4.02726 11.1598 3.97403 10.9636 4.10456C10.7674 4.23509 10.7141 4.49994 10.8447 4.69613C12.1718 6.69084 12.1718 9.30908 10.8447 11.3038C10.7141 11.5 10.7674 11.7649 10.9636 11.8953C11.1598 12.0259 11.4246 11.9727 11.5552 11.7765C13.0729 9.49544 13.0729 6.5045 11.5552 4.22344Z" fill="#1C2024"/>
</svg>
