<svg width="16" height="16" viewBox="0 0 16 16" fill="none" xmlns="http://www.w3.org/2000/svg">
<rect width="16" height="16" fill="white" fill-opacity="0.01"/>
<path fill-rule="evenodd" clip-rule="evenodd" d="M8.53333 1.59998C8.53333 1.39798 8.4192 1.21331 8.23852 1.12296C8.05782 1.03262 7.84161 1.05211 7.68 1.17332L3.55555 4.26665H1.6C0.716345 4.26665 0 4.983 0 5.86665V10.1333C0 11.0169 0.716345 11.7333 1.6 11.7333H3.55555L7.68 14.8267C7.84161 14.9478 8.05782 14.9673 8.23852 14.877C8.4192 14.7867 8.53333 14.602 8.53333 14.4V1.59998ZM4.05333 5.22665L7.46667 2.66665V13.3333L4.05333 10.7733C3.96101 10.7041 3.84874 10.6667 3.73333 10.6667H1.6C1.30545 10.6667 1.06667 10.4279 1.06667 10.1333V5.86665C1.06667 5.5721 1.30545 5.33332 1.6 5.33332H3.73333C3.84874 5.33332 3.96101 5.29589 4.05333 5.22665ZM10.7552 5.39281C10.6247 5.19662 10.3598 5.1434 10.1637 5.27393C9.96747 5.40445 9.91424 5.66931 10.0448 5.8655C10.9021 7.15404 10.9021 8.84588 10.0448 10.1344C9.91424 10.3306 9.96747 10.5955 10.1637 10.726C10.3598 10.8565 10.6247 10.8033 10.7552 10.6071C11.803 9.03223 11.803 6.96769 10.7552 5.39281Z" fill="#1C2024"/>
</svg>
