<svg width="16" height="16" viewBox="0 0 16 16" fill="none" xmlns="http://www.w3.org/2000/svg">
<rect width="16" height="16" fill="white" fill-opacity="0.01"/>
<path fill-rule="evenodd" clip-rule="evenodd" d="M7.96766 1.12089C8.15063 1.21038 8.26667 1.39629 8.26667 1.59998V14.4C8.26667 14.6037 8.15063 14.7896 7.96766 14.8791C7.78467 14.9686 7.56669 14.946 7.4059 14.821L3.43605 11.7333H1.6C0.716342 11.7333 0 11.0169 0 10.1333V5.86665C0 4.983 0.716344 4.26665 1.6 4.26665H3.43605L7.4059 1.179C7.56669 1.05394 7.78467 1.03139 7.96766 1.12089ZM7.2 2.69046L3.94649 5.22097C3.85286 5.29379 3.73765 5.33332 3.61905 5.33332H1.6C1.30545 5.33332 1.06667 5.5721 1.06667 5.86665V10.1333C1.06667 10.4279 1.30545 10.6666 1.6 10.6666H3.61905C3.73765 10.6666 3.85286 10.7062 3.94649 10.779L7.2 13.3095V2.69046ZM10.9636 4.10456C11.1598 3.97403 11.4246 4.02726 11.5552 4.22344C13.0729 6.5045 13.0729 9.49544 11.5552 11.7765C11.4246 11.9727 11.1598 12.0259 10.9636 11.8953C10.7674 11.7649 10.7141 11.5 10.8447 11.3038C12.1718 9.30908 12.1718 6.69085 10.8447 4.69613C10.7141 4.49994 10.7674 4.23509 10.9636 4.10456ZM13.5237 1.52579C13.3713 1.34601 13.1021 1.32376 12.9223 1.4761C12.7426 1.62843 12.7203 1.89767 12.8726 2.07744C15.7625 5.48785 15.7625 10.5121 12.8726 13.9225C12.7203 14.1023 12.7426 14.3715 12.9223 14.5238C13.1021 14.6763 13.3713 14.654 13.5237 14.4742C16.6833 10.7455 16.6833 5.25451 13.5237 1.52579Z" fill="#1C2024"/>
</svg>
