<svg width="16" height="16" viewBox="0 0 16 16" fill="none" xmlns="http://www.w3.org/2000/svg">
<rect width="16" height="16" fill="white" fill-opacity="0.01"/>
<path fill-rule="evenodd" clip-rule="evenodd" d="M13.9202 2.93322C13.9202 2.60921 13.6576 2.34656 13.3335 2.34656C13.0096 2.34656 12.7469 2.60921 12.7469 2.93322V7.76801C12.6982 7.66723 12.6181 7.58242 12.5156 7.52829L2.9156 2.46162C2.75029 2.37437 2.55136 2.38003 2.39127 2.47655C2.2312 2.57307 2.13333 2.74637 2.13333 2.93329V13.0667C2.13333 13.2536 2.2312 13.4269 2.39127 13.5233C2.55136 13.6198 2.75029 13.6255 2.9156 13.5382L12.5156 8.47162C12.6181 8.41749 12.6982 8.33268 12.7469 8.2319V13.0666C12.7469 13.3905 13.0096 13.6532 13.3335 13.6532C13.6576 13.6532 13.9202 13.3905 13.9202 13.0666V2.93322ZM3.2 12.1821V3.81782L11.1241 7.99995L3.2 12.1821Z" fill="#1C2024"/>
</svg>
