<svg width="16" height="16" viewBox="0 0 16 16" fill="none" xmlns="http://www.w3.org/2000/svg">
<rect width="16" height="16" fill="white" fill-opacity="0.01"/>
<path fill-rule="evenodd" clip-rule="evenodd" d="M2.07974 2.93322C2.07974 2.60921 2.3424 2.34656 2.66641 2.34656C2.99041 2.34656 3.25308 2.60921 3.25308 2.93322V7.76801C3.30176 7.66723 3.38182 7.58242 3.48439 7.52829L13.0844 2.46162C13.2497 2.37437 13.4486 2.38003 13.6087 2.47655C13.7689 2.57307 13.8667 2.74637 13.8667 2.93329V13.0667C13.8667 13.2536 13.7689 13.4269 13.6087 13.5233C13.4486 13.6198 13.2497 13.6255 13.0844 13.5382L3.48439 8.47162C3.38182 8.41749 3.30176 8.33268 3.25308 8.2319V13.0666C3.25308 13.3905 2.99041 13.6532 2.66641 13.6532C2.3424 13.6532 2.07974 13.3905 2.07974 13.0666V2.93322ZM4.87597 7.99995L12.8 12.1821V3.81782L4.87597 7.99995Z" fill="#1C2024"/>
</svg>
