<svg width="16" height="16" viewBox="0 0 16 16" fill="none" xmlns="http://www.w3.org/2000/svg">
<rect width="16" height="16" fill="white" fill-opacity="0.01"/>
<path fill-rule="evenodd" clip-rule="evenodd" d="M0 1.6C0 1.30545 0.238782 1.06667 0.533333 1.06667H2.66667C2.96122 1.06667 3.2 1.30545 3.2 1.6C3.2 1.89455 2.96122 2.13333 2.66667 2.13333H0.533333C0.238782 2.13333 0 1.89455 0 1.6ZM4.26667 1.6C4.26667 1.30545 4.50545 1.06667 4.8 1.06667H15.4667C15.7612 1.06667 16 1.30545 16 1.6C16 1.89455 15.7612 2.13333 15.4667 2.13333H4.8C4.50545 2.13333 4.26667 1.89455 4.26667 1.6ZM4.26667 4.8C4.26667 4.50545 4.50545 4.26667 4.8 4.26667H12.2667C12.5612 4.26667 12.8 4.50545 12.8 4.8C12.8 5.09455 12.5612 5.33333 12.2667 5.33333H4.8C4.50545 5.33333 4.26667 5.09455 4.26667 4.8ZM0 8C0 7.70545 0.238782 7.46667 0.533333 7.46667H2.66667C2.96122 7.46667 3.2 7.70545 3.2 8C3.2 8.29455 2.96122 8.53333 2.66667 8.53333H0.533333C0.238782 8.53333 0 8.29455 0 8ZM4.26667 8C4.26667 7.70545 4.50545 7.46667 4.8 7.46667H15.4667C15.7612 7.46667 16 7.70545 16 8C16 8.29455 15.7612 8.53333 15.4667 8.53333H4.8C4.50545 8.53333 4.26667 8.29455 4.26667 8ZM4.26667 11.2C4.26667 10.9055 4.50545 10.6667 4.8 10.6667H12.2667C12.5612 10.6667 12.8 10.9055 12.8 11.2C12.8 11.4945 12.5612 11.7333 12.2667 11.7333H4.8C4.50545 11.7333 4.26667 11.4945 4.26667 11.2ZM0 14.4C0 14.1055 0.238782 13.8667 0.533333 13.8667H2.66667C2.96122 13.8667 3.2 14.1055 3.2 14.4C3.2 14.6945 2.96122 14.9333 2.66667 14.9333H0.533333C0.238782 14.9333 0 14.6945 0 14.4ZM4.26667 14.4C4.26667 14.1055 4.50545 13.8667 4.8 13.8667H15.4667C15.7612 13.8667 16 14.1055 16 14.4C16 14.6945 15.7612 14.9333 15.4667 14.9333H4.8C4.50545 14.9333 4.26667 14.6945 4.26667 14.4Z" fill="#1C2024"/>
</svg>
