<svg width="16" height="16" viewBox="0 0 16 16" fill="none" xmlns="http://www.w3.org/2000/svg">
<rect width="16" height="16" fill="white" fill-opacity="0.01"/>
<path fill-rule="evenodd" clip-rule="evenodd" d="M0.935482 7.99987C0.935482 4.09834 4.0983 0.935516 7.99984 0.935516C11.9013 0.935516 15.0642 4.09834 15.0642 7.99987C15.0642 11.9013 11.9013 15.0642 7.99984 15.0642C4.0983 15.0642 0.935482 11.9013 0.935482 7.99987ZM7.99984 1.94884C4.65795 1.94884 1.94881 4.65799 1.94881 7.99987C1.94881 9.57009 2.54692 11.0006 3.52776 12.0761C4.47012 10.6039 6.12073 9.62666 8.00025 9.62666C9.87953 9.62666 11.5299 10.6037 12.4724 12.0755C13.4529 11.0002 14.0509 9.56984 14.0509 7.99987C14.0509 4.65799 11.3417 1.94884 7.99984 1.94884ZM11.7139 12.7773C10.9695 11.4981 9.58475 10.64 8.00025 10.64C6.41555 10.64 5.03066 11.4983 4.28635 12.7777C5.31149 13.5757 6.60016 14.0509 7.99984 14.0509C9.39976 14.0509 10.6886 13.5755 11.7139 12.7773ZM5.49332 6.93853C5.49332 5.55413 6.6156 4.43186 7.99999 4.43186C9.38439 4.43186 10.5067 5.55413 10.5067 6.93853C10.5067 8.32292 9.38439 9.4452 7.99999 9.4452C6.6156 9.4452 5.49332 8.32292 5.49332 6.93853ZM7.99999 5.4452C7.17524 5.4452 6.50666 6.11378 6.50666 6.93853C6.50666 7.76328 7.17524 8.43186 7.99999 8.43186C8.82474 8.43186 9.49332 7.76328 9.49332 6.93853C9.49332 6.11378 8.82474 5.4452 7.99999 5.4452Z" fill="#1C2024"/>
</svg>
