<svg width="16" height="16" viewBox="0 0 16 16" fill="none" xmlns="http://www.w3.org/2000/svg">
<rect width="16" height="16" fill="white" fill-opacity="0.01"/>
<path fill-rule="evenodd" clip-rule="evenodd" d="M12.2667 1.06667C12.5612 1.06667 12.8 1.30545 12.8 1.6V14.4C12.8 14.6945 12.5612 14.9333 12.2667 14.9333C11.9722 14.9333 11.7333 14.6945 11.7333 14.4V1.6C11.7333 1.30545 11.9722 1.06667 12.2667 1.06667ZM10.1333 3.2C10.4279 3.2 10.6667 3.43878 10.6667 3.73333V14.4C10.6667 14.6945 10.4279 14.9333 10.1333 14.9333C9.8388 14.9333 9.60001 14.6945 9.60001 14.4V3.73333C9.60001 3.43878 9.8388 3.2 10.1333 3.2ZM14.4 3.2C14.6945 3.2 14.9333 3.43878 14.9333 3.73333V14.4C14.9333 14.6945 14.6945 14.9333 14.4 14.9333C14.1055 14.9333 13.8667 14.6945 13.8667 14.4V3.73333C13.8667 3.43878 14.1055 3.2 14.4 3.2ZM5.86668 4.26667C6.16123 4.26667 6.40001 4.50545 6.40001 4.8V14.4C6.40001 14.6945 6.16123 14.9333 5.86668 14.9333C5.57213 14.9333 5.33335 14.6945 5.33335 14.4V4.8C5.33335 4.50545 5.57213 4.26667 5.86668 4.26667ZM1.60001 5.33333C1.89456 5.33333 2.13335 5.57212 2.13335 5.86667V14.4C2.13335 14.6945 1.89456 14.9333 1.60001 14.9333C1.30546 14.9333 1.06668 14.6945 1.06668 14.4V5.86667C1.06668 5.57212 1.30546 5.33333 1.60001 5.33333ZM8.00001 5.33333C8.29456 5.33333 8.53335 5.57212 8.53335 5.86667V14.4C8.53335 14.6945 8.29456 14.9333 8.00001 14.9333C7.70547 14.9333 7.46668 14.6945 7.46668 14.4V5.86667C7.46668 5.57212 7.70547 5.33333 8.00001 5.33333ZM3.73335 7.46667C4.0279 7.46667 4.26668 7.70545 4.26668 8V14.4C4.26668 14.6945 4.0279 14.9333 3.73335 14.9333C3.4388 14.9333 3.20001 14.6945 3.20001 14.4V8C3.20001 7.70545 3.4388 7.46667 3.73335 7.46667Z" fill="#1C2024"/>
</svg>
