<svg width="16" height="16" viewBox="0 0 16 16" fill="none" xmlns="http://www.w3.org/2000/svg">
<rect width="16" height="16" fill="white" fill-opacity="0.01"/>
<path fill-rule="evenodd" clip-rule="evenodd" d="M2.13333 5.33333H13.8667C14.4558 5.33333 14.9333 5.8109 14.9333 6.4V9.6C14.9333 10.1891 14.4558 10.6667 13.8667 10.6667H2.13333C1.54423 10.6667 1.06667 10.1891 1.06667 9.6V6.4C1.06667 5.8109 1.54423 5.33333 2.13333 5.33333ZM0 6.4C0 5.22179 0.955127 4.26667 2.13333 4.26667H13.8667C15.0449 4.26667 16 5.22179 16 6.4V9.6C16 10.7782 15.0449 11.7333 13.8667 11.7333H2.13333C0.955125 11.7333 0 10.7782 0 9.6V6.4ZM4.8 7.2C4.35818 7.2 4 7.55818 4 8C4 8.44182 4.35818 8.8 4.8 8.8C5.24182 8.8 5.6 8.44182 5.6 8C5.6 7.55818 5.24182 7.2 4.8 7.2ZM7.2 8C7.2 7.55818 7.55818 7.2 8 7.2C8.44182 7.2 8.8 7.55818 8.8 8C8.8 8.44182 8.44182 8.8 8 8.8C7.55818 8.8 7.2 8.44182 7.2 8ZM11.2 7.2C10.7582 7.2 10.4 7.55818 10.4 8C10.4 8.44182 10.7582 8.8 11.2 8.8C11.6418 8.8 12 8.44182 12 8C12 7.55818 11.6418 7.2 11.2 7.2Z" fill="#1C2024"/>
</svg>
