<svg width="16" height="16" viewBox="0 0 16 16" fill="none" xmlns="http://www.w3.org/2000/svg">
<rect width="16" height="16" fill="white" fill-opacity="0.01"/>
<path fill-rule="evenodd" clip-rule="evenodd" d="M10.6285 2.86476C10.7379 2.59126 10.6049 2.28088 10.3314 2.17149C10.0579 2.0621 9.74754 2.19511 9.63814 2.46861L5.37148 13.1353C5.26208 13.4087 5.3951 13.7191 5.66859 13.8285C5.94208 13.9379 6.25246 13.8049 6.36186 13.5314L10.6285 2.86476ZM4.11045 5.48956C4.31874 5.69783 4.31874 6.03552 4.11045 6.2438L2.35425 8.00001L4.11045 9.75622C4.31874 9.9645 4.31874 10.3022 4.11045 10.5105C3.90218 10.7187 3.56449 10.7187 3.35621 10.5105L1.22288 8.37713C1.0146 8.16885 1.0146 7.83117 1.22288 7.62289L3.35621 5.48956C3.56449 5.28128 3.90218 5.28128 4.11045 5.48956ZM11.8895 5.48956C12.0978 5.28128 12.4355 5.28128 12.6438 5.48956L14.7772 7.62289C14.9854 7.83117 14.9854 8.16885 14.7772 8.37713L12.6438 10.5105C12.4355 10.7187 12.0978 10.7187 11.8895 10.5105C11.6813 10.3022 11.6813 9.9645 11.8895 9.75622L13.6458 8.00001L11.8895 6.2438C11.6813 6.03552 11.6813 5.69783 11.8895 5.48956Z" fill="#1C2024"/>
</svg>
