<svg width="16" height="16" viewBox="0 0 16 16" fill="none" xmlns="http://www.w3.org/2000/svg">
<rect width="16" height="16" fill="white" fill-opacity="0.01"/>
<path fill-rule="evenodd" clip-rule="evenodd" d="M2.13333 1.6C2.13333 1.89455 1.89455 2.13333 1.6 2.13333C1.30545 2.13333 1.06667 1.89455 1.06667 1.6C1.06667 1.30545 1.30545 1.06667 1.6 1.06667C1.89455 1.06667 2.13333 1.30545 2.13333 1.6ZM5.33333 13.8667H10.6667V2.13333H5.33333V13.8667ZM4.26667 13.8667C4.26667 14.4558 4.74424 14.9333 5.33333 14.9333H10.6667C11.2558 14.9333 11.7333 14.4558 11.7333 13.8667V2.13333C11.7333 1.54423 11.2558 1.06667 10.6667 1.06667H5.33333C4.74424 1.06667 4.26667 1.54422 4.26667 2.13333V13.8667ZM14.4 2.13333C14.6945 2.13333 14.9333 1.89455 14.9333 1.6C14.9333 1.30545 14.6945 1.06667 14.4 1.06667C14.1055 1.06667 13.8667 1.30545 13.8667 1.6C13.8667 1.89455 14.1055 2.13333 14.4 2.13333ZM2.13333 3.73333C2.13333 4.02788 1.89455 4.26667 1.6 4.26667C1.30545 4.26667 1.06667 4.02788 1.06667 3.73333C1.06667 3.43878 1.30545 3.2 1.6 3.2C1.89455 3.2 2.13333 3.43878 2.13333 3.73333ZM14.4 4.26667C14.6945 4.26667 14.9333 4.02788 14.9333 3.73333C14.9333 3.43878 14.6945 3.2 14.4 3.2C14.1055 3.2 13.8667 3.43878 13.8667 3.73333C13.8667 4.02788 14.1055 4.26667 14.4 4.26667ZM2.13333 5.86667C2.13333 6.16122 1.89455 6.4 1.6 6.4C1.30545 6.4 1.06667 6.16122 1.06667 5.86667C1.06667 5.57212 1.30545 5.33333 1.6 5.33333C1.89455 5.33333 2.13333 5.57212 2.13333 5.86667ZM14.4 6.4C14.6945 6.4 14.9333 6.16122 14.9333 5.86667C14.9333 5.57212 14.6945 5.33333 14.4 5.33333C14.1055 5.33333 13.8667 5.57212 13.8667 5.86667C13.8667 6.16122 14.1055 6.4 14.4 6.4ZM2.13333 8C2.13333 8.29455 1.89455 8.53333 1.6 8.53333C1.30545 8.53333 1.06667 8.29455 1.06667 8C1.06667 7.70545 1.30545 7.46667 1.6 7.46667C1.89455 7.46667 2.13333 7.70545 2.13333 8ZM14.4 8.53333C14.6945 8.53333 14.9333 8.29455 14.9333 8C14.9333 7.70545 14.6945 7.46667 14.4 7.46667C14.1055 7.46667 13.8667 7.70545 13.8667 8C13.8667 8.29455 14.1055 8.53333 14.4 8.53333ZM2.13333 10.1333C2.13333 10.4279 1.89455 10.6667 1.6 10.6667C1.30545 10.6667 1.06667 10.4279 1.06667 10.1333C1.06667 9.83878 1.30545 9.6 1.6 9.6C1.89455 9.6 2.13333 9.83878 2.13333 10.1333ZM14.4 10.6667C14.6945 10.6667 14.9333 10.4279 14.9333 10.1333C14.9333 9.83878 14.6945 9.6 14.4 9.6C14.1055 9.6 13.8667 9.83878 13.8667 10.1333C13.8667 10.4279 14.1055 10.6667 14.4 10.6667ZM2.13333 12.2667C2.13333 12.5612 1.89455 12.8 1.6 12.8C1.30545 12.8 1.06667 12.5612 1.06667 12.2667C1.06667 11.9722 1.30545 11.7333 1.6 11.7333C1.89455 11.7333 2.13333 11.9722 2.13333 12.2667ZM14.4 12.8C14.6945 12.8 14.9333 12.5612 14.9333 12.2667C14.9333 11.9722 14.6945 11.7333 14.4 11.7333C14.1055 11.7333 13.8667 11.9722 13.8667 12.2667C13.8667 12.5612 14.1055 12.8 14.4 12.8ZM2.13333 14.4C2.13333 14.6945 1.89455 14.9333 1.6 14.9333C1.30545 14.9333 1.06667 14.6945 1.06667 14.4C1.06667 14.1055 1.30545 13.8667 1.6 13.8667C1.89455 13.8667 2.13333 14.1055 2.13333 14.4ZM14.4 14.9333C14.6945 14.9333 14.9333 14.6945 14.9333 14.4C14.9333 14.1055 14.6945 13.8667 14.4 13.8667C14.1055 13.8667 13.8667 14.1055 13.8667 14.4C13.8667 14.6945 14.1055 14.9333 14.4 14.9333Z" fill="#1C2024"/>
</svg>
