<svg width="16" height="16" viewBox="0 0 16 16" fill="none" xmlns="http://www.w3.org/2000/svg">
<rect width="16" height="16" fill="white" fill-opacity="0.01"/>
<path fill-rule="evenodd" clip-rule="evenodd" d="M2.98667 1.06667L2.93298 1.06663C2.6893 1.0664 2.47925 1.0662 2.29315 1.11088C1.70812 1.25133 1.25133 1.70812 1.11088 2.29315C1.0662 2.47924 1.06641 2.6893 1.06664 2.93298L1.06667 2.98667V5.54667L1.06664 5.60035C1.06641 5.84403 1.0662 6.0541 1.11088 6.24018C1.25133 6.82521 1.70812 7.282 2.29315 7.42246C2.47925 7.46713 2.6893 7.46693 2.93298 7.4667L2.98667 7.46667H5.54667L5.60035 7.4667C5.84403 7.46693 6.0541 7.46713 6.24018 7.42246C6.82522 7.282 7.28201 6.82521 7.42247 6.24018C7.46714 6.0541 7.46694 5.84403 7.4667 5.60035L7.46667 5.54667V2.98667L7.4667 2.93298C7.46694 2.6893 7.46714 2.47924 7.42247 2.29315C7.28201 1.70812 6.82522 1.25133 6.24018 1.11088C6.0541 1.0662 5.84403 1.0664 5.60035 1.06663L5.54667 1.06667H2.98667ZM2.54217 2.14807C2.58808 2.13704 2.65837 2.13333 2.98667 2.13333H5.54667C5.87498 2.13333 5.94527 2.13704 5.99117 2.14807C6.18619 2.19489 6.33845 2.34715 6.38527 2.54216C6.39629 2.58807 6.4 2.65837 6.4 2.98667V5.54667C6.4 5.87497 6.39629 5.94527 6.38527 5.99117C6.33845 6.18619 6.18619 6.33844 5.99117 6.38527C5.94527 6.39629 5.87498 6.4 5.54667 6.4H2.98667C2.65837 6.4 2.58808 6.39629 2.54217 6.38527C2.34715 6.33844 2.19489 6.18619 2.14808 5.99117C2.13705 5.94527 2.13334 5.87497 2.13334 5.54667V2.98667C2.13334 2.65837 2.13705 2.58807 2.14808 2.54216C2.19489 2.34715 2.34715 2.19489 2.54217 2.14807ZM10.4533 1.06667L10.3997 1.06663C10.156 1.0664 9.94591 1.0662 9.75982 1.11088C9.17479 1.25133 8.718 1.70812 8.57755 2.29315C8.53287 2.47924 8.53307 2.6893 8.5333 2.93298L8.53334 2.98667V5.54667L8.5333 5.60035C8.53307 5.84403 8.53287 6.0541 8.57755 6.24018C8.718 6.82521 9.17479 7.282 9.75982 7.42246C9.94591 7.46713 10.156 7.46693 10.3997 7.4667L10.4533 7.46667H13.0133L13.067 7.4667C13.3107 7.46693 13.5207 7.46713 13.7069 7.42246C14.2918 7.282 14.7487 6.82521 14.8892 6.24018C14.9338 6.0541 14.9337 5.84403 14.9333 5.60035V5.54667V2.98667V2.93298C14.9337 2.6893 14.9338 2.47924 14.8892 2.29315C14.7487 1.70812 14.2918 1.25133 13.7069 1.11088C13.5207 1.0662 13.3107 1.0664 13.067 1.06663L13.0133 1.06667H10.4533ZM10.0088 2.14807C10.0547 2.13704 10.125 2.13333 10.4533 2.13333H13.0133C13.3417 2.13333 13.4119 2.13704 13.4578 2.14807C13.6528 2.19489 13.8051 2.34715 13.8519 2.54216C13.8629 2.58807 13.8667 2.65837 13.8667 2.98667V5.54667C13.8667 5.87497 13.8629 5.94527 13.8519 5.99117C13.8051 6.18619 13.6528 6.33844 13.4578 6.38527C13.4119 6.39629 13.3417 6.4 13.0133 6.4H10.4533C10.125 6.4 10.0547 6.39629 10.0088 6.38527C9.81382 6.33844 9.66156 6.18619 9.61474 5.99117C9.60371 5.94527 9.6 5.87497 9.6 5.54667V2.98667C9.6 2.65837 9.60371 2.58807 9.61474 2.54216C9.66156 2.34715 9.81382 2.19489 10.0088 2.14807ZM2.93298 8.5333L2.98667 8.53333H5.54667L5.60035 8.5333C5.84403 8.53307 6.0541 8.53286 6.24018 8.57755C6.82522 8.71799 7.28201 9.17478 7.42247 9.75982C7.46714 9.94591 7.46694 10.156 7.4667 10.3996L7.46667 10.4533V13.0133L7.4667 13.067C7.46694 13.3107 7.46714 13.5207 7.42247 13.7069C7.28201 14.2918 6.82522 14.7487 6.24018 14.8892C6.0541 14.9338 5.84403 14.9337 5.60035 14.9333H5.54667H2.98667H2.93298C2.6893 14.9337 2.47925 14.9338 2.29315 14.8892C1.70812 14.7487 1.25133 14.2918 1.11088 13.7069C1.0662 13.5207 1.06641 13.3107 1.06664 13.067L1.06667 13.0133V10.4533L1.06664 10.3996C1.06641 10.156 1.0662 9.94591 1.11088 9.75982C1.25133 9.17478 1.70812 8.71799 2.29315 8.57755C2.47925 8.53286 2.6893 8.53307 2.93298 8.5333ZM2.98667 9.6C2.65837 9.6 2.58808 9.60371 2.54217 9.61474C2.34715 9.66156 2.19489 9.81381 2.14808 10.0088C2.13705 10.0547 2.13334 10.125 2.13334 10.4533V13.0133C2.13334 13.3417 2.13705 13.4119 2.14808 13.4578C2.19489 13.6528 2.34715 13.8051 2.54217 13.8519C2.58808 13.8629 2.65837 13.8667 2.98667 13.8667H5.54667C5.87498 13.8667 5.94527 13.8629 5.99117 13.8519C6.18619 13.8051 6.33845 13.6528 6.38527 13.4578C6.39629 13.4119 6.4 13.3417 6.4 13.0133V10.4533C6.4 10.125 6.39629 10.0547 6.38527 10.0088C6.33845 9.81381 6.18619 9.66156 5.99117 9.61474C5.94527 9.60371 5.87498 9.6 5.54667 9.6H2.98667ZM10.4533 8.53333L10.3997 8.5333C10.156 8.53307 9.94591 8.53286 9.75982 8.57755C9.17479 8.71799 8.718 9.17478 8.57755 9.75982C8.53287 9.94591 8.53307 10.156 8.5333 10.3996L8.53334 10.4533V13.0133L8.5333 13.067C8.53307 13.3107 8.53287 13.5207 8.57755 13.7069C8.718 14.2918 9.17479 14.7487 9.75982 14.8892C9.94591 14.9338 10.156 14.9337 10.3997 14.9333H10.4533H13.0133H13.067C13.3107 14.9337 13.5207 14.9338 13.7069 14.8892C14.2918 14.7487 14.7487 14.2918 14.8892 13.7069C14.9338 13.5207 14.9337 13.3107 14.9333 13.067V13.0133V10.4533V10.3996C14.9337 10.156 14.9338 9.94591 14.8892 9.75982C14.7487 9.17478 14.2918 8.71799 13.7069 8.57755C13.5207 8.53286 13.3107 8.53307 13.067 8.5333L13.0133 8.53333H10.4533ZM10.0088 9.61474C10.0547 9.60371 10.125 9.6 10.4533 9.6H13.0133C13.3417 9.6 13.4119 9.60371 13.4578 9.61474C13.6528 9.66156 13.8051 9.81381 13.8519 10.0088C13.8629 10.0547 13.8667 10.125 13.8667 10.4533V13.0133C13.8667 13.3417 13.8629 13.4119 13.8519 13.4578C13.8051 13.6528 13.6528 13.8051 13.4578 13.8519C13.4119 13.8629 13.3417 13.8667 13.0133 13.8667H10.4533C10.125 13.8667 10.0547 13.8629 10.0088 13.8519C9.81382 13.8051 9.66156 13.6528 9.61474 13.4578C9.60371 13.4119 9.6 13.3417 9.6 13.0133V10.4533C9.6 10.125 9.60371 10.0547 9.61474 10.0088C9.66156 9.81381 9.81382 9.66156 10.0088 9.61474Z" fill="#1C2024"/>
</svg>
