<svg width="16" height="16" viewBox="0 0 16 16" fill="none" xmlns="http://www.w3.org/2000/svg">
<rect width="16" height="16" fill="white" fill-opacity="0.01"/>
<path fill-rule="evenodd" clip-rule="evenodd" d="M7.99999 3.30665C7.76434 3.30665 7.57332 3.49766 7.57332 3.73331C7.57332 3.96895 7.76434 4.15998 7.99999 4.15998H15.4667C15.7023 4.15998 15.8933 3.96895 15.8933 3.73331C15.8933 3.49766 15.7023 3.30665 15.4667 3.30665H7.99999ZM7.99998 5.44C7.76434 5.44 7.57331 5.63102 7.57331 5.86667C7.57331 6.1023 7.76434 6.29333 7.99998 6.29333H15.4667C15.7023 6.29333 15.8933 6.1023 15.8933 5.86667C15.8933 5.63102 15.7023 5.44 15.4667 5.44H7.99998ZM7.57333 8C7.57333 7.76435 7.76436 7.57333 8 7.57333H15.4667C15.7023 7.57333 15.8933 7.76435 15.8933 8C15.8933 8.23564 15.7023 8.42667 15.4667 8.42667H8C7.76436 8.42667 7.57333 8.23564 7.57333 8ZM7.99998 9.70667C7.76434 9.70667 7.57331 9.89769 7.57331 10.1333C7.57331 10.369 7.76434 10.56 7.99998 10.56H15.4667C15.7023 10.56 15.8933 10.369 15.8933 10.1333C15.8933 9.89769 15.7023 9.70667 15.4667 9.70667H7.99998ZM7.57331 12.2667C7.57331 12.031 7.76434 11.84 7.99998 11.84H15.4667C15.7023 11.84 15.8933 12.031 15.8933 12.2667C15.8933 12.5023 15.7023 12.6933 15.4667 12.6933H7.99998C7.76434 12.6933 7.57331 12.5023 7.57331 12.2667ZM2.66667 9.8667L5.33333 6.40003H0L2.66667 9.8667Z" fill="#1C2024"/>
</svg>
