<svg width="16" height="16" viewBox="0 0 16 16" fill="none" xmlns="http://www.w3.org/2000/svg">
<rect width="16" height="16" fill="white" fill-opacity="0.01"/>
<path fill-rule="evenodd" clip-rule="evenodd" d="M2.66668 1.06667H13.3333C14.217 1.06667 14.9333 1.78301 14.9333 2.66667V13.3333C14.9333 14.217 14.217 14.9333 13.3333 14.9333H2.66668C1.78302 14.9333 1.06668 14.217 1.06668 13.3333V2.66667C1.06668 1.78301 1.78302 1.06667 2.66668 1.06667ZM2.66668 2.13333C2.37213 2.13333 2.13335 2.37212 2.13335 2.66667V8.92117L3.92727 7.12725C4.01931 7.03521 4.14478 6.9845 4.27494 6.98674C4.40508 6.98897 4.52874 7.04397 4.61756 7.13912L8.39847 11.1894L11.3939 8.19392C11.5813 8.00647 11.8853 8.00647 12.0728 8.19392L13.8667 9.98784V2.66667C13.8667 2.37212 13.6279 2.13333 13.3333 2.13333H2.66668ZM2.13335 13.3333V10.2788L4.25481 8.15736L8.03319 12.2049L9.53722 13.8667H2.66668C2.37213 13.8667 2.13335 13.6278 2.13335 13.3333ZM13.3333 13.8667H10.832L9.04893 11.8965L11.7333 9.21216L13.8667 11.3455V13.3333C13.8667 13.6278 13.6279 13.8667 13.3333 13.8667ZM7.09252 5.86667C7.09252 5.36547 7.49882 4.95917 8.00001 4.95917C8.50121 4.95917 8.90751 5.36547 8.90751 5.86667C8.90751 6.36786 8.50121 6.77416 8.00001 6.77416C7.49882 6.77416 7.09252 6.36786 7.09252 5.86667ZM8.00001 3.99917C6.96862 3.99917 6.13252 4.83527 6.13252 5.86667C6.13252 6.89806 6.96862 7.73416 8.00001 7.73416C9.03141 7.73416 9.86751 6.89806 9.86751 5.86667C9.86751 4.83527 9.03141 3.99917 8.00001 3.99917Z" fill="#1C2024"/>
</svg>
