<svg width="16" height="16" viewBox="0 0 16 16" fill="none" xmlns="http://www.w3.org/2000/svg">
<rect width="16" height="16" fill="white" fill-opacity="0.01"/>
<path fill-rule="evenodd" clip-rule="evenodd" d="M6.93333 1.06667C6.63878 1.06667 6.4 1.30545 6.4 1.6C6.4 1.89455 6.63878 2.13333 6.93333 2.13333C7.60182 2.13333 7.95433 2.34696 8.16601 2.64333C8.40331 2.97554 8.53333 3.50759 8.53333 4.26667V11.7333C8.53333 12.4924 8.40331 13.0244 8.16601 13.3567C7.95433 13.653 7.60182 13.8667 6.93333 13.8667C6.63878 13.8667 6.4 14.1055 6.4 14.4C6.4 14.6945 6.63878 14.9333 6.93333 14.9333C7.86484 14.9333 8.57901 14.6137 9.03399 13.9766C9.04508 13.9612 9.05597 13.9455 9.06667 13.9297C9.07737 13.9455 9.08826 13.9612 9.09934 13.9766C9.55433 14.6137 10.2685 14.9333 11.2 14.9333C11.4945 14.9333 11.7333 14.6945 11.7333 14.4C11.7333 14.1055 11.4945 13.8667 11.2 13.8667C10.5315 13.8667 10.179 13.653 9.96733 13.3567C9.73003 13.0244 9.6 12.4924 9.6 11.7333V4.26667C9.6 3.50759 9.73003 2.97554 9.96733 2.64333C10.179 2.34696 10.5315 2.13333 11.2 2.13333C11.4945 2.13333 11.7333 1.89455 11.7333 1.6C11.7333 1.30545 11.4945 1.06667 11.2 1.06667C10.2685 1.06667 9.55433 1.38637 9.09934 2.02334C9.08826 2.03886 9.07737 2.05452 9.06667 2.07029C9.05597 2.05452 9.04508 2.03886 9.03399 2.02334C8.57901 1.38637 7.86484 1.06667 6.93333 1.06667ZM14.9333 5.33333H11.7333V4.26667H14.9333C15.5225 4.26667 16 4.74423 16 5.33333V10.6667C16 11.2558 15.5225 11.7333 14.9333 11.7333H11.7333V10.6667H14.9333V5.33333ZM6.4 4.26667V5.33333H1.06667V10.6667H6.4V11.7333H1.06667C0.477563 11.7333 0 11.2558 0 10.6667V5.33333C0 4.74423 0.477563 4.26667 1.06667 4.26667H6.4Z" fill="#1C2024"/>
</svg>
