<svg width="16" height="16" viewBox="0 0 16 16" fill="none" xmlns="http://www.w3.org/2000/svg">
<rect width="16" height="16" fill="white" fill-opacity="0.01"/>
<path fill-rule="evenodd" clip-rule="evenodd" d="M9.60001 2.13333H6.40001V13.8667H9.60001V2.13333ZM10.6667 2.13333V13.8667H13.3333C13.6279 13.8667 13.8667 13.6278 13.8667 13.3333V2.66667C13.8667 2.37212 13.6279 2.13333 13.3333 2.13333H10.6667ZM2.66668 2.13333H5.33335V13.8667H2.66668C2.37213 13.8667 2.13335 13.6278 2.13335 13.3333V2.66667C2.13335 2.37212 2.37213 2.13333 2.66668 2.13333ZM2.66668 1.06667C1.78302 1.06667 1.06668 1.78301 1.06668 2.66667V13.3333C1.06668 14.217 1.78302 14.9333 2.66668 14.9333H13.3333C14.217 14.9333 14.9333 14.217 14.9333 13.3333V2.66667C14.9333 1.78301 14.217 1.06667 13.3333 1.06667H2.66668Z" fill="#1C2024"/>
</svg>
