<svg width="16" height="16" viewBox="0 0 16 16" fill="none" xmlns="http://www.w3.org/2000/svg">
<rect width="16" height="16" fill="white" fill-opacity="0.01"/>
<path fill-rule="evenodd" clip-rule="evenodd" d="M1.6 5.6C2.04183 5.6 2.4 5.24182 2.4 4.8C2.4 4.35818 2.04183 4 1.6 4C1.15818 4 0.800003 4.35818 0.800003 4.8C0.800003 5.24182 1.15818 5.6 1.6 5.6ZM4.26667 4.8C4.26667 4.50545 4.50545 4.26667 4.8 4.26667H14.4C14.6945 4.26667 14.9333 4.50545 14.9333 4.8C14.9333 5.09455 14.6945 5.33333 14.4 5.33333H4.8C4.50545 5.33333 4.26667 5.09455 4.26667 4.8ZM4.8 7.46667C4.50545 7.46667 4.26667 7.70545 4.26667 8C4.26667 8.29455 4.50545 8.53333 4.8 8.53333H14.4C14.6945 8.53333 14.9333 8.29455 14.9333 8C14.9333 7.70545 14.6945 7.46667 14.4 7.46667H4.8ZM4.8 10.6667C4.50545 10.6667 4.26667 10.9055 4.26667 11.2C4.26667 11.4945 4.50545 11.7333 4.8 11.7333H14.4C14.6945 11.7333 14.9333 11.4945 14.9333 11.2C14.9333 10.9055 14.6945 10.6667 14.4 10.6667H4.8ZM2.4 8C2.4 8.44182 2.04183 8.8 1.6 8.8C1.15818 8.8 0.800003 8.44182 0.800003 8C0.800003 7.55818 1.15818 7.2 1.6 7.2C2.04183 7.2 2.4 7.55818 2.4 8ZM1.6 12C2.04183 12 2.4 11.6418 2.4 11.2C2.4 10.7582 2.04183 10.4 1.6 10.4C1.15818 10.4 0.800003 10.7582 0.800003 11.2C0.800003 11.6418 1.15818 12 1.6 12Z" fill="#1C2024"/>
</svg>
