<svg width="16" height="16" viewBox="0 0 16 16" fill="none" xmlns="http://www.w3.org/2000/svg">
<rect width="16" height="16" fill="white" fill-opacity="0.01"/>
<path fill-rule="evenodd" clip-rule="evenodd" d="M1.97335 8.00046C1.97335 4.67173 4.67161 1.97334 8.00002 1.97334C11.3284 1.97334 14.0267 4.67173 14.0267 8.00046C14.0267 11.3292 11.3284 14.0276 8.00002 14.0276C4.67161 14.0276 1.97335 11.3292 1.97335 8.00046ZM8.00002 0.90667C4.08244 0.90667 0.906677 4.0827 0.906677 8.00046C0.906677 11.9182 4.08244 15.0943 8.00002 15.0943C11.9176 15.0943 15.0933 11.9182 15.0933 8.00046C15.0933 4.0827 11.9176 0.90667 8.00002 0.90667ZM7.46668 8.53334V3.33665C7.64172 3.31684 7.81967 3.30667 8.00002 3.30667C10.5921 3.30667 12.6933 5.40815 12.6933 8.00046C12.6933 8.18064 12.6832 8.35844 12.6635 8.53334H7.46668Z" fill="#1C2024"/>
</svg>
