<svg width="16" height="16" viewBox="0 0 16 16" fill="none" xmlns="http://www.w3.org/2000/svg">
<rect width="16" height="16" fill="white" fill-opacity="0.01"/>
<path fill-rule="evenodd" clip-rule="evenodd" d="M10.0534 3.67078C10.7265 3.45231 11.5026 3.45621 12.1378 3.78265C13.6034 4.53572 14.2375 6.4767 13.6476 8.53333C13.3829 9.45589 12.9175 10.3517 11.9318 11.2559C10.9461 12.16 9.57903 12.6933 8.94475 12.6933C8.71753 12.6933 8.53333 12.5142 8.53333 12.2933C8.53333 12.0724 8.72153 11.8933 8.94475 11.8933C9.6693 11.8933 10.3167 11.4991 11.0833 10.9184C11.67 10.4739 12.1281 9.90542 12.3819 9.41004C12.867 8.46258 12.8834 7.12719 12.0995 6.77228C11.7231 7.18352 11.2315 7.42342 10.6424 7.42342C9.36245 7.42342 8.6081 6.39373 8.64054 5.46143C8.67154 4.57039 9.23767 3.93551 10.0534 3.67078ZM3.65336 3.67078C4.32655 3.45231 5.10257 3.45621 5.73784 3.78265C7.20341 4.53572 7.8375 6.4767 7.24759 8.53333C6.98297 9.45589 6.51753 10.3517 5.53184 11.2559C4.54614 12.16 3.17903 12.6933 2.54476 12.6933C2.31753 12.6933 2.13333 12.5142 2.13333 12.2933C2.13333 12.0724 2.32153 11.8933 2.54476 11.8933C3.2693 11.8933 3.91668 11.4991 4.68328 10.9184C5.27002 10.4739 5.72815 9.90542 5.98183 9.41004C6.46701 8.46258 6.48342 7.12719 5.69952 6.77228C5.32306 7.18352 4.83144 7.42342 4.2424 7.42342C2.96245 7.42342 2.2081 6.39373 2.24054 5.46143C2.27154 4.57039 2.83767 3.93551 3.65336 3.67078Z" fill="#1C2024"/>
</svg>
