<svg width="16" height="16" viewBox="0 0 16 16" fill="none" xmlns="http://www.w3.org/2000/svg">
<rect width="16" height="16" fill="white" fill-opacity="0.01"/>
<path fill-rule="evenodd" clip-rule="evenodd" d="M7.99984 0.935514C4.09831 0.935514 0.935486 4.09834 0.935486 7.99987C0.935486 11.9013 4.09831 15.0642 7.99984 15.0642C11.9013 15.0642 15.0642 11.9013 15.0642 7.99987C15.0642 4.09834 11.9013 0.935514 7.99984 0.935514ZM1.94881 7.99987C1.94881 4.65798 4.65796 1.94884 7.99984 1.94884C11.3417 1.94884 14.0509 4.65798 14.0509 7.99987C14.0509 11.3418 11.3417 14.0509 7.99984 14.0509C4.65796 14.0509 1.94881 11.3418 1.94881 7.99987ZM7.99999 10.1333C9.1782 10.1333 10.1333 9.1782 10.1333 7.99999C10.1333 6.82178 9.1782 5.86666 7.99999 5.86666C6.82179 5.86666 5.86666 6.82178 5.86666 7.99999C5.86666 9.1782 6.82179 10.1333 7.99999 10.1333Z" fill="#1C2024"/>
</svg>
