<svg width="16" height="16" viewBox="0 0 16 16" fill="none" xmlns="http://www.w3.org/2000/svg">
<rect width="16" height="16" fill="white" fill-opacity="0.01"/>
<path fill-rule="evenodd" clip-rule="evenodd" d="M2.13335 1.6C2.13335 1.89455 1.89456 2.13333 1.60001 2.13333C1.30546 2.13333 1.06668 1.89455 1.06668 1.6C1.06668 1.30545 1.30546 1.06667 1.60001 1.06667C1.89456 1.06667 2.13335 1.30545 2.13335 1.6ZM2.13335 5.33333V10.6667H13.8667V5.33333H2.13335ZM2.13335 4.26667C1.54425 4.26667 1.06668 4.74423 1.06668 5.33333V10.6667C1.06668 11.2558 1.54425 11.7333 2.13335 11.7333H13.8667C14.4558 11.7333 14.9333 11.2558 14.9333 10.6667V5.33333C14.9333 4.74423 14.4558 4.26667 13.8667 4.26667H2.13335ZM1.60001 14.9333C1.89456 14.9333 2.13335 14.6945 2.13335 14.4C2.13335 14.1055 1.89456 13.8667 1.60001 13.8667C1.30546 13.8667 1.06668 14.1055 1.06668 14.4C1.06668 14.6945 1.30546 14.9333 1.60001 14.9333ZM4.26668 1.6C4.26668 1.89455 4.0279 2.13333 3.73335 2.13333C3.4388 2.13333 3.20001 1.89455 3.20001 1.6C3.20001 1.30545 3.4388 1.06667 3.73335 1.06667C4.0279 1.06667 4.26668 1.30545 4.26668 1.6ZM3.73335 14.9333C4.0279 14.9333 4.26668 14.6945 4.26668 14.4C4.26668 14.1055 4.0279 13.8667 3.73335 13.8667C3.4388 13.8667 3.20001 14.1055 3.20001 14.4C3.20001 14.6945 3.4388 14.9333 3.73335 14.9333ZM6.40001 1.6C6.40001 1.89455 6.16123 2.13333 5.86668 2.13333C5.57213 2.13333 5.33335 1.89455 5.33335 1.6C5.33335 1.30545 5.57213 1.06667 5.86668 1.06667C6.16123 1.06667 6.40001 1.30545 6.40001 1.6ZM5.86668 14.9333C6.16123 14.9333 6.40001 14.6945 6.40001 14.4C6.40001 14.1055 6.16123 13.8667 5.86668 13.8667C5.57213 13.8667 5.33335 14.1055 5.33335 14.4C5.33335 14.6945 5.57213 14.9333 5.86668 14.9333ZM8.53335 1.6C8.53335 1.89455 8.29456 2.13333 8.00001 2.13333C7.70547 2.13333 7.46668 1.89455 7.46668 1.6C7.46668 1.30545 7.70547 1.06667 8.00001 1.06667C8.29456 1.06667 8.53335 1.30545 8.53335 1.6ZM8.00001 14.9333C8.29456 14.9333 8.53335 14.6945 8.53335 14.4C8.53335 14.1055 8.29456 13.8667 8.00001 13.8667C7.70547 13.8667 7.46668 14.1055 7.46668 14.4C7.46668 14.6945 7.70547 14.9333 8.00001 14.9333ZM10.6667 1.6C10.6667 1.89455 10.4279 2.13333 10.1333 2.13333C9.8388 2.13333 9.60001 1.89455 9.60001 1.6C9.60001 1.30545 9.8388 1.06667 10.1333 1.06667C10.4279 1.06667 10.6667 1.30545 10.6667 1.6ZM10.1333 14.9333C10.4279 14.9333 10.6667 14.6945 10.6667 14.4C10.6667 14.1055 10.4279 13.8667 10.1333 13.8667C9.8388 13.8667 9.60001 14.1055 9.60001 14.4C9.60001 14.6945 9.8388 14.9333 10.1333 14.9333ZM12.8 1.6C12.8 1.89455 12.5612 2.13333 12.2667 2.13333C11.9722 2.13333 11.7333 1.89455 11.7333 1.6C11.7333 1.30545 11.9722 1.06667 12.2667 1.06667C12.5612 1.06667 12.8 1.30545 12.8 1.6ZM12.2667 14.9333C12.5612 14.9333 12.8 14.6945 12.8 14.4C12.8 14.1055 12.5612 13.8667 12.2667 13.8667C11.9722 13.8667 11.7333 14.1055 11.7333 14.4C11.7333 14.6945 11.9722 14.9333 12.2667 14.9333ZM14.9333 1.6C14.9333 1.89455 14.6945 2.13333 14.4 2.13333C14.1055 2.13333 13.8667 1.89455 13.8667 1.6C13.8667 1.30545 14.1055 1.06667 14.4 1.06667C14.6945 1.06667 14.9333 1.30545 14.9333 1.6ZM14.4 14.9333C14.6945 14.9333 14.9333 14.6945 14.9333 14.4C14.9333 14.1055 14.6945 13.8667 14.4 13.8667C14.1055 13.8667 13.8667 14.1055 13.8667 14.4C13.8667 14.6945 14.1055 14.9333 14.4 14.9333Z" fill="#1C2024"/>
</svg>
