<svg width="16" height="16" viewBox="0 0 16 16" fill="none" xmlns="http://www.w3.org/2000/svg">
<rect width="16" height="16" fill="white" fill-opacity="0.01"/>
<path fill-rule="evenodd" clip-rule="evenodd" d="M10.9871 7.9999C10.9871 9.06059 10.1272 9.92044 9.06654 9.92044C8.00586 9.92044 7.14601 9.06059 7.14601 7.9999C7.14601 6.93923 8.00586 6.07938 9.06654 6.07938C10.1272 6.07938 10.9871 6.93923 10.9871 7.9999ZM11.952 8.53333C11.7012 9.89898 10.5047 10.9338 9.06654 10.9338C7.62837 10.9338 6.43189 9.89898 6.18105 8.53333H0.533333C0.238782 8.53333 0 8.29455 0 8C0 7.70545 0.238782 7.46667 0.533333 7.46667H6.18101C6.43179 6.10093 7.62831 5.06605 9.06654 5.06605C10.5048 5.06605 11.7013 6.10093 11.9521 7.46667H15.4667C15.7612 7.46667 16 7.70545 16 8C16 8.29455 15.7612 8.53333 15.4667 8.53333H11.952Z" fill="#1C2024"/>
</svg>
