<svg width="16" height="16" viewBox="0 0 16 16" fill="none" xmlns="http://www.w3.org/2000/svg">
<rect width="16" height="16" fill="white" fill-opacity="0.01"/>
<path fill-rule="evenodd" clip-rule="evenodd" d="M5.86664 0.533333C5.86664 0.238782 6.10542 0 6.39998 0H7.99998H9.59998C9.89452 0 10.1333 0.238782 10.1333 0.533333C10.1333 0.827885 9.89452 1.06667 9.59998 1.06667H8.53331V2.2605C9.70487 2.35103 10.7936 2.7373 11.7248 3.34477C11.7457 3.31574 11.7692 3.28802 11.7952 3.26193L12.6485 2.4086C12.9089 2.14825 13.331 2.14825 13.5914 2.4086C13.8517 2.66895 13.8517 3.09105 13.5914 3.3514L12.7648 4.17794C14.0368 5.41787 14.8267 7.15002 14.8267 9.06664C14.8267 12.8369 11.7702 15.8933 7.99998 15.8933C4.2297 15.8933 1.17331 12.8369 1.17331 9.06664C1.17331 5.47586 3.94564 2.53259 7.46664 2.2605V1.06667H6.39998C6.10542 1.06667 5.86664 0.827885 5.86664 0.533333ZM2.23998 9.06664C2.23998 5.88548 4.81881 3.30665 7.99998 3.30665C11.1811 3.30665 13.76 5.88548 13.76 9.06664C13.76 12.2478 11.1811 14.8267 7.99998 14.8267C4.81881 14.8267 2.23998 12.2478 2.23998 9.06664ZM8.53331 4.8C8.53331 4.50545 8.29453 4.26667 7.99998 4.26667C7.70542 4.26667 7.46664 4.50545 7.46664 4.8V10.1333C7.46664 10.4279 7.70542 10.6667 7.99998 10.6667C8.29453 10.6667 8.53331 10.4279 8.53331 10.1333V4.8Z" fill="#1C2024"/>
</svg>
