<svg width="16" height="16" viewBox="0 0 16 16" fill="none" xmlns="http://www.w3.org/2000/svg">
<rect width="16" height="16" fill="white" fill-opacity="0.01"/>
<path fill-rule="evenodd" clip-rule="evenodd" d="M11.2 4.26666C9.13813 4.26666 7.46667 5.93813 7.46667 8C7.46667 10.0619 9.13813 11.7333 11.2 11.7333C13.2619 11.7333 14.9333 10.0619 14.9333 8C14.9333 5.93813 13.2619 4.26666 11.2 4.26666ZM8.18275 11.7333C7.09529 10.8533 6.4 9.50787 6.4 8C6.4 6.49213 7.09529 5.14664 8.18275 4.26666H4.8C2.73813 4.26666 1.06667 5.93813 1.06667 8C1.06667 10.0619 2.73813 11.7333 4.8 11.7333H8.18275ZM0 8C0 5.34903 2.14903 3.2 4.8 3.2H11.2C13.851 3.2 16 5.34903 16 8C16 10.651 13.851 12.8 11.2 12.8H4.8C2.14903 12.8 0 10.651 0 8Z" fill="#1C2024"/>
</svg>
