<svg width="16" height="16" viewBox="0 0 16 16" fill="none" xmlns="http://www.w3.org/2000/svg">
<rect width="16" height="16" fill="white" fill-opacity="0.01"/>
<path fill-rule="evenodd" clip-rule="evenodd" d="M8.53333 2.13333H13.3333C13.6278 2.13333 13.8667 2.37212 13.8667 2.66667V5.33333H8.53333V2.13333ZM7.46667 5.33333V2.13333H2.66667C2.37212 2.13333 2.13333 2.37212 2.13333 2.66667V5.33333H7.46667ZM2.13333 6.4V9.6H7.46667V6.4H2.13333ZM8.53333 6.4H13.8667V9.6H8.53333V6.4ZM8.53333 10.6667H13.8667V13.3333C13.8667 13.6278 13.6278 13.8667 13.3333 13.8667H8.53333V10.6667ZM2.13333 13.3333V10.6667H7.46667V13.8667H2.66667C2.37212 13.8667 2.13333 13.6278 2.13333 13.3333ZM1.06667 2.66667C1.06667 1.78301 1.78301 1.06667 2.66667 1.06667H13.3333C14.217 1.06667 14.9333 1.78301 14.9333 2.66667V13.3333C14.9333 14.217 14.217 14.9333 13.3333 14.9333H2.66667C1.78301 14.9333 1.06667 14.217 1.06667 13.3333V2.66667Z" fill="#1C2024"/>
</svg>
