<svg width="16" height="16" viewBox="0 0 16 16" fill="none" xmlns="http://www.w3.org/2000/svg">
<rect width="16" height="16" fill="white" fill-opacity="0.01"/>
<path fill-rule="evenodd" clip-rule="evenodd" d="M5.0821 3.33012C6.00694 3.25183 6.99821 3.2 8 3.2C9.00179 3.2 9.99306 3.25183 10.9179 3.33012C12.0316 3.42439 12.7523 3.48808 13.3035 3.61816C13.8053 3.73657 14.0851 3.89308 14.326 4.13958C14.3523 4.16659 14.3895 4.20708 14.4142 4.23565C14.6268 4.48159 14.7664 4.78795 14.8459 5.36835C14.931 5.98997 14.9333 6.80153 14.9333 8.02659C14.9333 9.23761 14.931 10.0375 14.846 10.6511C14.7668 11.222 14.6279 11.5265 14.4133 11.7746C14.3889 11.8028 14.351 11.8441 14.3249 11.8706C14.081 12.12 13.8033 12.2748 13.3139 12.3908C12.7735 12.5189 12.0686 12.5805 10.9737 12.6717C10.0474 12.7489 9.0407 12.8 8 12.8C6.9593 12.8 5.95256 12.7489 5.02635 12.6717C3.93144 12.5805 3.22642 12.5189 2.68604 12.3908C2.19665 12.2748 1.91904 12.12 1.67506 11.8706C1.64899 11.8441 1.61104 11.8028 1.58665 11.7746C1.37203 11.5265 1.23319 11.222 1.15406 10.6511C1.06902 10.0375 1.06667 9.23761 1.06667 8.02659C1.06667 6.80153 1.06897 5.98997 1.15413 5.36835C1.23364 4.78795 1.37327 4.48159 1.58577 4.23565C1.61045 4.20708 1.64766 4.16659 1.67405 4.13958C1.91488 3.89308 2.19469 3.73657 2.69649 3.61816C3.24771 3.48808 3.96843 3.42439 5.0821 3.33012ZM0 8.02659C0 5.63516 0 4.43944 0.778651 3.53827C0.817554 3.49324 0.869482 3.43673 0.911065 3.39417C1.74335 2.54228 2.82627 2.4506 4.99213 2.26725C5.94051 2.18696 6.96239 2.13333 8 2.13333C9.03761 2.13333 10.0595 2.18696 11.0079 2.26725C13.1738 2.4506 14.2566 2.54228 15.089 3.39417C15.1306 3.43673 15.1824 3.49324 15.2213 3.53827C16 4.43944 16 5.63516 16 8.02659C16 10.3895 16 11.5709 15.2201 12.4724C15.1814 12.5171 15.1287 12.5744 15.0874 12.6166C14.2538 13.4687 13.1899 13.5573 11.0623 13.7347C10.1117 13.8139 9.07501 13.8667 8 13.8667C6.92499 13.8667 5.8883 13.8139 4.93776 13.7347C2.81009 13.5573 1.74626 13.4687 0.912595 12.6166C0.8713 12.5744 0.818605 12.5171 0.779969 12.4724C0 11.5709 0 10.3895 0 8.02659ZM5.6 5.74148C5.6 5.54906 5.79757 5.41999 5.97377 5.49727L11.1232 7.75578C11.3359 7.8491 11.3359 8.1509 11.1232 8.24421L5.97377 10.5027C5.79757 10.58 5.6 10.4509 5.6 10.2585V5.74148Z" fill="#1C2024"/>
</svg>
