<svg width="16" height="16" viewBox="0 0 16 16" fill="none" xmlns="http://www.w3.org/2000/svg">
<rect width="16" height="16" fill="white" fill-opacity="0.01"/>
<path fill-rule="evenodd" clip-rule="evenodd" d="M2.1332 6.40001C1.54409 6.40001 1.06653 6.87758 1.06653 7.46668V8.53335C1.06653 9.12245 1.54409 9.60001 2.1332 9.60001H7.46653V14.4C7.46653 14.6945 7.70532 14.9333 7.99986 14.9333C8.29441 14.9333 8.5332 14.6945 8.5332 14.4V9.60001H13.8666C14.4557 9.60001 14.9332 9.12245 14.9332 8.53335V7.46668C14.9332 6.87758 14.4557 6.40001 13.8666 6.40001H8.5332V1.60001C8.5332 1.30546 8.29441 1.06668 7.99986 1.06668C7.7053 1.06668 7.46653 1.30546 7.46653 1.60001V6.40001H2.1332Z" fill="#1C2024"/>
</svg>
