<svg width="16" height="16" viewBox="0 0 16 16" fill="none" xmlns="http://www.w3.org/2000/svg">
<rect width="16" height="16" fill="white" fill-opacity="0.01"/>
<path fill-rule="evenodd" clip-rule="evenodd" d="M6.4 11.7333V4.26668H9.60001V11.7333H6.4ZM5.33334 4.00001C5.33334 3.55819 5.69151 3.20001 6.13334 3.20001H9.86667C10.3085 3.20001 10.6667 3.55819 10.6667 4.00001V12C10.6667 12.4418 10.3085 12.8 9.86667 12.8H6.13334C5.69151 12.8 5.33334 12.4418 5.33334 12V4.00001ZM1.59914 13.92C1.33405 13.92 1.11914 14.1349 1.11914 14.4C1.11914 14.6652 1.33405 14.88 1.59914 14.88H14.3992C14.6642 14.88 14.8792 14.6652 14.8792 14.4C14.8792 14.1349 14.6642 13.92 14.3992 13.92H1.59914Z" fill="#1C2024"/>
</svg>
