<svg width="16" height="16" viewBox="0 0 16 16" fill="none" xmlns="http://www.w3.org/2000/svg">
<rect width="16" height="16" fill="white" fill-opacity="0.01"/>
<path fill-rule="evenodd" clip-rule="evenodd" d="M3.46654 2.13333C2.73016 2.13333 2.13321 2.73028 2.13321 3.46666V12.5333C2.13321 13.2698 2.73016 13.8667 3.46654 13.8667H6.13321C6.86958 13.8667 7.46654 13.2698 7.46654 12.5333V3.46666C7.46654 2.73028 6.86958 2.13333 6.13321 2.13333H3.46654ZM3.19988 3.46666C3.19988 3.31939 3.31927 3.2 3.46654 3.2H6.13321C6.28048 3.2 6.39988 3.31939 6.39988 3.46666V12.5333C6.39988 12.6806 6.28048 12.8 6.13321 12.8H3.46654C3.31927 12.8 3.19988 12.6806 3.19988 12.5333V3.46666ZM9.86667 4.26666C9.13029 4.26666 8.53334 4.86361 8.53334 5.6V10.4C8.53334 11.1364 9.13029 11.7333 9.86667 11.7333H12.5333C13.2698 11.7333 13.8667 11.1364 13.8667 10.4V5.6C13.8667 4.86361 13.2698 4.26666 12.5333 4.26666H9.86667Z" fill="#1C2024"/>
</svg>
