<svg width="16" height="16" viewBox="0 0 16 16" fill="none" xmlns="http://www.w3.org/2000/svg">
<rect width="16" height="16" fill="white" fill-opacity="0.01"/>
<path fill-rule="evenodd" clip-rule="evenodd" d="M6.4 7.52003V4.26668H9.60001V7.52003H6.4ZM5.33334 7.52003H1.59914C1.33405 7.52003 1.11914 7.73494 1.11914 8.00003C1.11914 8.26513 1.33405 8.48003 1.59914 8.48003H5.33334V12C5.33334 12.4418 5.69151 12.8 6.13334 12.8H9.86667C10.3085 12.8 10.6667 12.4418 10.6667 12V8.48003H14.3992C14.6642 8.48003 14.8792 8.26513 14.8792 8.00003C14.8792 7.73495 14.6642 7.52003 14.3992 7.52003H10.6667V4.00001C10.6667 3.55819 10.3085 3.20001 9.86667 3.20001H6.13334C5.69151 3.20001 5.33334 3.55819 5.33334 4.00001V7.52003ZM9.60001 8.48003V11.7333H6.4V8.48003H9.60001Z" fill="#1C2024"/>
</svg>
