<svg width="16" height="16" viewBox="0 0 16 16" fill="none" xmlns="http://www.w3.org/2000/svg">
<rect width="16" height="16" fill="white" fill-opacity="0.01"/>
<path fill-rule="evenodd" clip-rule="evenodd" d="M1.11954 1.60003C1.11954 1.33493 1.33444 1.12003 1.59954 1.12003H14.3996C14.6646 1.12003 14.8796 1.33493 14.8796 1.60003C14.8796 1.86512 14.6646 2.08003 14.3996 2.08003H1.59954C1.33444 2.08003 1.11954 1.86512 1.11954 1.60003ZM1.11964 14.4C1.11964 14.1349 1.33455 13.92 1.59964 13.92H14.3997C14.6648 13.92 14.8797 14.1349 14.8797 14.4C14.8797 14.6651 14.6648 14.88 14.3997 14.88H1.59964C1.33455 14.88 1.11964 14.6651 1.11964 14.4ZM6.40001 11.7333V4.26666H9.60001V11.7333H6.40001ZM5.33334 3.99999C5.33334 3.55817 5.69152 3.19999 6.13334 3.19999H9.86667C10.3085 3.19999 10.6667 3.55817 10.6667 3.99999V12C10.6667 12.4418 10.3085 12.8 9.86667 12.8H6.13334C5.69152 12.8 5.33334 12.4418 5.33334 12V3.99999Z" fill="#1C2024"/>
</svg>
