<svg width="16" height="16" viewBox="0 0 16 16" fill="none" xmlns="http://www.w3.org/2000/svg">
<rect width="16" height="16" fill="white" fill-opacity="0.01"/>
<path fill-rule="evenodd" clip-rule="evenodd" d="M7.46653 1.06668C6.87742 1.06668 6.39986 1.54425 6.39986 2.13335V7.46668H1.59986C1.30531 7.46668 1.06653 7.70547 1.06653 8.00001C1.06653 8.29456 1.30531 8.53335 1.59986 8.53335H6.39986V13.8667C6.39986 14.4558 6.87742 14.9333 7.46653 14.9333H8.5332C9.1223 14.9333 9.59986 14.4558 9.59986 13.8667V8.53335H14.3999C14.6944 8.53335 14.9332 8.29456 14.9332 8.00001C14.9332 7.70547 14.6944 7.46668 14.3999 7.46668H9.59986V2.13335C9.59986 1.54425 9.1223 1.06668 8.5332 1.06668H7.46653Z" fill="#1C2024"/>
</svg>
