<svg width="16" height="16" viewBox="0 0 16 16" fill="none" xmlns="http://www.w3.org/2000/svg">
<rect width="16" height="16" fill="white" fill-opacity="0.01"/>
<path fill-rule="evenodd" clip-rule="evenodd" d="M2.13333 3.46666C2.13333 2.73028 2.73028 2.13333 3.46666 2.13333H12.5333C13.2698 2.13333 13.8667 2.73028 13.8667 3.46666V6.13333C13.8667 6.86972 13.2698 7.46666 12.5333 7.46666H3.46666C2.73028 7.46666 2.13333 6.86972 2.13333 6.13333V3.46666ZM3.46666 3.2C3.31939 3.2 3.2 3.31939 3.2 3.46666V6.13333C3.2 6.28061 3.31939 6.4 3.46666 6.4H12.5333C12.6806 6.4 12.8 6.28061 12.8 6.13333V3.46666C12.8 3.31939 12.6806 3.2 12.5333 3.2H3.46666ZM4.26666 9.86666C4.26666 9.13028 4.86361 8.53333 5.6 8.53333H10.4C11.1364 8.53333 11.7333 9.13028 11.7333 9.86666V12.5333C11.7333 13.2698 11.1364 13.8667 10.4 13.8667H5.6C4.86361 13.8667 4.26666 13.2698 4.26666 12.5333V9.86666Z" fill="#1C2024"/>
</svg>
