<svg width="16" height="16" viewBox="0 0 16 16" fill="none" xmlns="http://www.w3.org/2000/svg">
<rect width="16" height="16" fill="white" fill-opacity="0.01"/>
<path fill-rule="evenodd" clip-rule="evenodd" d="M1.60006 1.12006C1.33496 1.12006 1.12006 1.33496 1.12006 1.60006C1.12006 1.86515 1.33496 2.08006 1.60006 2.08006H14.4C14.6652 2.08006 14.88 1.86515 14.88 1.60006C14.88 1.33496 14.6652 1.12006 14.4 1.12006H1.60006ZM4.19401 7.92714C4.00655 8.1146 4.00655 8.41852 4.19401 8.60597C4.38145 8.79342 4.68538 8.79342 4.87282 8.60597L7.52008 5.95871V14.4C7.52008 14.6651 7.73499 14.88 8.00008 14.88C8.26518 14.88 8.48008 14.6651 8.48008 14.4V5.95871L11.1274 8.60597C11.3148 8.79342 11.6187 8.79342 11.8062 8.60597C11.9936 8.41851 11.9936 8.1146 11.8062 7.92714L8.33949 4.46047C8.15205 4.27303 7.84812 4.27303 7.66068 4.46047L4.19401 7.92714Z" fill="#1C2024"/>
</svg>
