<svg width="16" height="16" viewBox="0 0 16 16" fill="none" xmlns="http://www.w3.org/2000/svg">
<rect width="16" height="16" fill="white" fill-opacity="0.01"/>
<path fill-rule="evenodd" clip-rule="evenodd" d="M2.18671 14.4C2.18671 14.6651 2.40161 14.88 2.66671 14.88C2.93181 14.88 3.14671 14.6651 3.14671 14.4V1.59993C3.14671 1.33484 2.93181 1.11993 2.66671 1.11993C2.40161 1.11993 2.18671 1.33484 2.18671 1.59993V14.4ZM8.9938 11.806C9.18125 11.9935 9.48517 11.9935 9.67262 11.806C9.86007 11.6185 9.86007 11.3147 9.67262 11.1271L7.02536 8.47991H15.4667C15.7317 8.47991 15.9467 8.26501 15.9467 7.99991C15.9467 7.73481 15.7317 7.51991 15.4667 7.51991H7.02536L9.67262 4.87266C9.86007 4.6852 9.86007 4.38128 9.67262 4.19383C9.48517 4.00638 9.18125 4.00638 8.9938 4.19383L5.52713 7.6605C5.33968 7.84794 5.33968 8.15187 5.52713 8.33932L8.9938 11.806Z" fill="#1C2024"/>
</svg>
