<svg width="16" height="16" viewBox="0 0 16 16" fill="none" xmlns="http://www.w3.org/2000/svg">
<rect width="16" height="16" fill="white" fill-opacity="0.01"/>
<path fill-rule="evenodd" clip-rule="evenodd" d="M14.4 14.88C14.6651 14.88 14.88 14.6651 14.88 14.4C14.88 14.1348 14.6651 13.92 14.4 13.92H1.59995C1.33485 13.92 1.11995 14.1348 1.11995 14.4C1.11995 14.6651 1.33485 14.88 1.59995 14.88H14.4ZM11.806 8.07284C11.9935 7.88539 11.9935 7.58147 11.806 7.39402C11.6186 7.20657 11.3147 7.20657 11.1271 7.39402L8.47993 10.0413V1.59996C8.47993 1.33488 8.26503 1.11996 7.99993 1.11996C7.73483 1.11996 7.51993 1.33488 7.51993 1.59996V10.0413L4.87267 7.39402C4.68522 7.20657 4.38129 7.20657 4.19385 7.39402C4.00639 7.58147 4.00639 7.88539 4.19385 8.07284L7.66051 11.5395C7.84796 11.7269 8.15189 11.7269 8.33933 11.5395L11.806 8.07284Z" fill="#1C2024"/>
</svg>
