<svg width="16" height="16" viewBox="0 0 16 16" fill="none" xmlns="http://www.w3.org/2000/svg">
<rect width="16" height="16" fill="white" fill-opacity="0.01"/>
<path fill-rule="evenodd" clip-rule="evenodd" d="M1.06654 0.533333C1.06654 0.238782 1.30533 0 1.59988 0H14.3999C14.6944 0 14.9332 0.238782 14.9332 0.533333C14.9332 0.827885 14.6944 1.06667 14.3999 1.06667H1.59988C1.30533 1.06667 1.06654 0.827885 1.06654 0.533333ZM7.46667 2.13333C6.87757 2.13333 6.40001 2.6109 6.40001 3.2V6.4C6.40001 6.9891 6.87757 7.46667 7.46667 7.46667H8.53334C9.12244 7.46667 9.60001 6.9891 9.60001 6.4V3.2C9.60001 2.6109 9.12244 2.13333 8.53334 2.13333H7.46667ZM7.46667 8.53333C6.87757 8.53333 6.40001 9.01089 6.40001 9.6V12.8C6.40001 13.3891 6.87757 13.8667 7.46667 13.8667H8.53334C9.12244 13.8667 9.60001 13.3891 9.60001 12.8V9.6C9.60001 9.0109 9.12244 8.53333 8.53334 8.53333H7.46667ZM1.59988 14.9333C1.30533 14.9333 1.06654 15.1722 1.06654 15.4667C1.06654 15.7612 1.30533 16 1.59988 16H14.3999C14.6944 16 14.9332 15.7612 14.9332 15.4667C14.9332 15.1722 14.6944 14.9333 14.3999 14.9333H1.59988Z" fill="#1C2024"/>
</svg>
