<svg width="16" height="16" viewBox="0 0 16 16" fill="none" xmlns="http://www.w3.org/2000/svg">
<rect width="16" height="16" fill="white" fill-opacity="0.01"/>
<path fill-rule="evenodd" clip-rule="evenodd" d="M15.4666 1.06665C15.1719 1.06665 14.9332 1.30543 14.9332 1.59998V14.3999C14.9332 14.6944 15.1719 14.9332 15.4666 14.9332C15.7611 14.9332 15.9999 14.6944 15.9999 14.3999V1.59998C15.9999 1.30543 15.7611 1.06665 15.4666 1.06665ZM0.533329 1.06665C0.23878 1.06665 1.28752e-08 1.30543 0 1.59998L4.57744e-07 14.3999C4.44868e-07 14.6944 0.238779 14.9332 0.533329 14.9332C0.827878 14.9332 1.06666 14.6944 1.06666 14.3999V1.59998C1.06666 1.30543 0.827878 1.06665 0.533329 1.06665ZM2.13331 7.46659C2.13331 6.8775 2.61087 6.39994 3.19998 6.39994H6.39995C6.98905 6.39994 7.4666 6.8775 7.4666 7.46659V8.53325C7.4666 9.12235 6.98905 9.59991 6.39995 9.59991H3.19998C2.61088 9.59991 2.13331 9.12235 2.13331 8.53325V7.46659ZM9.59993 6.39994C9.01083 6.39994 8.53326 6.8775 8.53326 7.46659V8.53325C8.53326 9.12235 9.01083 9.59991 9.59993 9.59991H12.7999C13.389 9.59991 13.8666 9.12235 13.8666 8.53325V7.46659C13.8666 6.8775 13.389 6.39994 12.7999 6.39994H9.59993Z" fill="#1C2024"/>
</svg>
