<svg width="16" height="16" viewBox="0 0 16 16" fill="none" xmlns="http://www.w3.org/2000/svg">
<rect width="16" height="16" fill="white" fill-opacity="0.01"/>
<path fill-rule="evenodd" clip-rule="evenodd" d="M15.4666 1.06665C15.1719 1.06665 14.9332 1.30543 14.9332 1.59998V6.39994H1.06666V1.59998C1.06666 1.30543 0.827878 1.06665 0.533329 1.06665C0.23878 1.06665 1.28752e-08 1.30543 0 1.59998L4.57744e-07 14.3999C4.44868e-07 14.6944 0.238779 14.9332 0.533329 14.9332C0.827878 14.9332 1.06666 14.6944 1.06666 14.3999V9.59991H14.9332V14.3999C14.9332 14.6944 15.1719 14.9332 15.4666 14.9332C15.7611 14.9332 15.9999 14.6944 15.9999 14.3999V1.59998C15.9999 1.30543 15.7611 1.06665 15.4666 1.06665Z" fill="#1C2024"/>
</svg>
