<svg width="16" height="16" viewBox="0 0 16 16" fill="none" xmlns="http://www.w3.org/2000/svg">
<rect width="16" height="16" fill="white" fill-opacity="0.01"/>
<path fill-rule="evenodd" clip-rule="evenodd" d="M1.06653 0.533333C1.06653 0.238782 1.30531 0 1.59986 0H14.3999C14.6944 0 14.9332 0.238782 14.9332 0.533333C14.9332 0.827885 14.6944 1.06667 14.3999 1.06667H6.39999H1.59986C1.30531 1.06667 1.06653 0.827885 1.06653 0.533333ZM9.59999 14.9333V1.06667H6.39999V14.9333H1.59986C1.30531 14.9333 1.06653 15.1722 1.06653 15.4667C1.06653 15.7612 1.30531 16 1.59986 16H14.3999C14.6944 16 14.9332 15.7612 14.9332 15.4667C14.9332 15.1722 14.6944 14.9333 14.3999 14.9333H9.59999Z" fill="#1C2024"/>
</svg>
