<svg width="16" height="16" viewBox="0 0 16 16" fill="none" xmlns="http://www.w3.org/2000/svg">
<rect width="16" height="16" fill="white" fill-opacity="0.01"/>
<path fill-rule="evenodd" clip-rule="evenodd" d="M9.48416 2.33996C9.72352 2.51163 9.7784 2.84483 9.60673 3.08419L2.6388 12.8H14.4C14.6945 12.8 14.9333 13.0388 14.9333 13.3334C14.9333 13.628 14.6945 13.8667 14.4 13.8667H1.6C1.40004 13.8667 1.21687 13.7549 1.12555 13.577C1.03422 13.3991 1.05007 13.1851 1.1666 13.0225L8.73994 2.46254C8.91159 2.22318 9.2448 2.1683 9.48416 2.33996ZM11.84 6.93336C11.84 6.63881 12.0787 6.40003 12.3733 6.40003C12.6678 6.40003 12.9067 6.63881 12.9067 6.93336C12.9067 7.22791 12.6678 7.46669 12.3733 7.46669C12.0787 7.46669 11.84 7.22791 11.84 6.93336ZM11.0933 4.26669C10.7988 4.26669 10.56 4.50548 10.56 4.80003C10.56 5.09458 10.7988 5.33336 11.0933 5.33336C11.3879 5.33336 11.6267 5.09458 11.6267 4.80003C11.6267 4.50548 11.3879 4.26669 11.0933 4.26669ZM12.9067 9.06669C12.9067 8.77214 13.1454 8.53336 13.44 8.53336C13.7345 8.53336 13.9733 8.77214 13.9733 9.06669C13.9733 9.36124 13.7345 9.60003 13.44 9.60003C13.1454 9.60003 12.9067 9.36124 12.9067 9.06669ZM14.2933 10.6667C13.9988 10.6667 13.76 10.9055 13.76 11.2C13.76 11.4945 13.9988 11.7333 14.2933 11.7333C14.5879 11.7333 14.8267 11.4945 14.8267 11.2C14.8267 10.9055 14.5879 10.6667 14.2933 10.6667Z" fill="#1C2024"/>
</svg>
