<svg width="16" height="16" viewBox="0 0 16 16" fill="none" xmlns="http://www.w3.org/2000/svg">
<rect width="16" height="16" fill="white" fill-opacity="0.01"/>
<path fill-rule="evenodd" clip-rule="evenodd" d="M2.66668 2.13332H13.3333C13.6279 2.13332 13.8667 2.3721 13.8667 2.66665V13.3333C13.8667 13.6278 13.6279 13.8667 13.3333 13.8667H2.66668C2.37213 13.8667 2.13335 13.6278 2.13335 13.3333V2.66665C2.13335 2.3721 2.37213 2.13332 2.66668 2.13332ZM1.06668 2.66665C1.06668 1.78299 1.78302 1.06665 2.66668 1.06665H13.3333C14.217 1.06665 14.9333 1.78299 14.9333 2.66665V13.3333C14.9333 14.2169 14.217 14.9333 13.3333 14.9333H2.66668C1.78302 14.9333 1.06668 14.2169 1.06668 13.3333V2.66665ZM8.00001 4.26665C8.29456 4.26665 8.53335 4.02787 8.53335 3.73332C8.53335 3.43877 8.29456 3.19998 8.00001 3.19998C7.70547 3.19998 7.46668 3.43877 7.46668 3.73332C7.46668 4.02787 7.70547 4.26665 8.00001 4.26665ZM8.53335 5.86665C8.53335 6.1612 8.29456 6.39998 8.00001 6.39998C7.70547 6.39998 7.46668 6.1612 7.46668 5.86665C7.46668 5.5721 7.70547 5.33332 8.00001 5.33332C8.29456 5.33332 8.53335 5.5721 8.53335 5.86665ZM8.00001 8.53332C8.29456 8.53332 8.53335 8.29453 8.53335 7.99998C8.53335 7.70543 8.29456 7.46665 8.00001 7.46665C7.70547 7.46665 7.46668 7.70543 7.46668 7.99998C7.46668 8.29453 7.70547 8.53332 8.00001 8.53332ZM10.6667 7.99998C10.6667 8.29453 10.4279 8.53332 10.1333 8.53332C9.8388 8.53332 9.60001 8.29453 9.60001 7.99998C9.60001 7.70543 9.8388 7.46665 10.1333 7.46665C10.4279 7.46665 10.6667 7.70543 10.6667 7.99998ZM12.2667 8.53332C12.5612 8.53332 12.8 8.29453 12.8 7.99998C12.8 7.70543 12.5612 7.46665 12.2667 7.46665C11.9722 7.46665 11.7333 7.70543 11.7333 7.99998C11.7333 8.29453 11.9722 8.53332 12.2667 8.53332Z" fill="#1C2024"/>
</svg>
