<svg width="16" height="16" viewBox="0 0 16 16" fill="none" xmlns="http://www.w3.org/2000/svg">
<rect width="16" height="16" fill="white" fill-opacity="0.01"/>
<path fill-rule="evenodd" clip-rule="evenodd" d="M2.13331 1.06665C1.5442 1.06665 1.06664 1.54421 1.06664 2.13332V13.8667C1.06664 14.4558 1.5442 14.9333 2.13331 14.9333H13.8667C14.4558 14.9333 14.9333 14.4558 14.9333 13.8667V2.13332C14.9333 1.54421 14.4558 1.06665 13.8667 1.06665H2.13331ZM2.13331 2.13332H13.8667V13.8667H2.13331V2.13332ZM4.79995 4.26663C4.5054 4.26663 4.26662 4.50542 4.26662 4.79997V11.2C4.26662 11.4945 4.5054 11.7333 4.79995 11.7333H11.2C11.4945 11.7333 11.7333 11.4945 11.7333 11.2V4.79997C11.7333 4.50542 11.4945 4.26663 11.2 4.26663H4.79995ZM5.33328 10.6666V5.3333H10.6666V10.6666H5.33328Z" fill="#1C2024"/>
</svg>
