<svg width="16" height="16" viewBox="0 0 16 16" fill="none" xmlns="http://www.w3.org/2000/svg">
<rect width="16" height="16" fill="white" fill-opacity="0.01"/>
<path fill-rule="evenodd" clip-rule="evenodd" d="M0.935547 7.99978C0.935547 4.09825 4.09837 0.935425 7.9999 0.935425C11.9014 0.935425 15.0642 4.09825 15.0642 7.99978C15.0642 11.9013 11.9014 15.0642 7.9999 15.0642C4.09837 15.0642 0.935547 11.9013 0.935547 7.99978ZM4.03344 3.42997C4.99518 2.59449 6.22324 2.05759 7.57331 1.96356V6.96985L4.03344 3.42997ZM3.43005 4.03337C2.59458 4.99512 2.0577 6.22318 1.96368 7.57324H6.96992L3.43005 4.03337ZM6.96992 8.42658H1.9637C2.05777 9.7766 2.5947 11.0046 3.43018 11.9663L6.96992 8.42658ZM4.03359 12.5698C4.99531 13.4051 6.22331 13.942 7.57331 14.036V9.02998L4.03359 12.5698ZM8.42664 9.02998V14.036C9.77663 13.9419 11.0046 13.4051 11.9663 12.5696L8.42664 9.02998ZM12.5697 11.9662C13.4051 11.0045 13.9421 9.77656 14.0361 8.42658H9.03005L12.5697 11.9662ZM9.03005 7.57324H14.0362C13.9421 6.22322 13.4052 4.9952 12.5698 4.03347L9.03005 7.57324ZM11.9664 3.43006C11.0047 2.59457 9.77669 2.05764 8.42664 1.96357V6.96985L11.9664 3.43006Z" fill="#1C2024"/>
</svg>
