<svg width="16" height="16" viewBox="0 0 16 16" fill="none" xmlns="http://www.w3.org/2000/svg">
<rect width="16" height="16" fill="white" fill-opacity="0.01"/>
<path fill-rule="evenodd" clip-rule="evenodd" d="M8.53345 1.59998C8.53345 1.30543 8.29467 1.06665 8.00012 1.06665C7.70557 1.06665 7.46678 1.30543 7.46678 1.59998V14.4C7.46678 14.6945 7.70557 14.9333 8.00012 14.9333C8.29467 14.9333 8.53345 14.6945 8.53345 14.4V1.59998ZM3.53932 6.20585C3.72677 6.0184 3.72677 5.71448 3.53932 5.52703C3.35187 5.33958 3.04795 5.33958 2.8605 5.52703L0.727167 7.66037C0.539715 7.84781 0.539715 8.15174 0.727167 8.33918L2.8605 10.4725C3.04795 10.66 3.35187 10.66 3.53932 10.4725C3.72677 10.2851 3.72677 9.98115 3.53932 9.7937L2.2254 8.47977H5.86684C6.13194 8.47977 6.34684 8.26487 6.34684 7.99977C6.34684 7.73468 6.13194 7.51977 5.86684 7.51977H2.2254L3.53932 6.20585ZM13.1393 5.52703C12.9519 5.33958 12.648 5.33958 12.4605 5.52703C12.2731 5.71448 12.2731 6.0184 12.4605 6.20585L13.7744 7.51977H10.1335C9.86841 7.51977 9.65351 7.73468 9.65351 7.99977C9.65351 8.26487 9.86841 8.47977 10.1335 8.47977H13.7744L12.4605 9.7937C12.2731 9.98115 12.2731 10.2851 12.4605 10.4725C12.648 10.66 12.9519 10.66 13.1393 10.4725L15.2726 8.33918C15.4602 8.15174 15.4602 7.84781 15.2726 7.66037L13.1393 5.52703Z" fill="#1C2024"/>
</svg>
