<svg width="16" height="16" viewBox="0 0 16 16" fill="none" xmlns="http://www.w3.org/2000/svg">
<rect width="16" height="16" fill="white" fill-opacity="0.01"/>
<path fill-rule="evenodd" clip-rule="evenodd" d="M13.657 7.62288C13.8652 7.41461 14.2029 7.41461 14.4112 7.62288C14.6194 7.83116 14.6194 8.16886 14.4112 8.37713C14.2029 8.58541 13.8652 8.58541 13.657 8.37713C13.4486 8.16885 13.4486 7.83116 13.657 7.62288ZM12.9026 9.13137C13.1109 9.33966 13.1109 9.67735 12.9026 9.88562C12.6944 10.0939 12.3567 10.0939 12.1484 9.88562C11.9402 9.67735 11.9402 9.33966 12.1484 9.13137C12.3567 8.9231 12.6944 8.9231 12.9026 9.13137ZM11.3941 10.6399C11.6025 10.8481 11.6025 11.1858 11.3941 11.3941C11.1859 11.6024 10.8482 11.6024 10.6399 11.3941C10.4316 11.1858 10.4316 10.8481 10.6399 10.6399C10.8482 10.4316 11.1859 10.4316 11.3941 10.6399ZM9.88568 12.1484C10.094 12.3566 10.094 12.6943 9.88568 12.9026C9.6774 13.1109 9.33971 13.1109 9.13142 12.9026C8.92315 12.6943 8.92315 12.3566 9.13144 12.1484C9.33971 11.9401 9.6774 11.9401 9.88568 12.1484ZM7.62293 14.4111C7.41466 14.2028 7.41466 13.8652 7.62293 13.6569C7.64897 13.6308 7.67702 13.608 7.7066 13.5885C7.91361 13.4519 8.19493 13.4746 8.37718 13.6569C8.58546 13.8652 8.58546 14.2028 8.37718 14.4111C8.16891 14.6194 7.83121 14.6194 7.62293 14.4111Z" fill="#1C2024"/>
<path d="M3.09745 9.13142C2.88917 9.33971 2.88917 9.67739 3.09745 9.88567C3.30573 10.0939 3.64342 10.0939 3.8517 9.88567C4.05998 9.67739 4.05998 9.33971 3.8517 9.13142C3.64342 8.92314 3.30573 8.92314 3.09745 9.13142ZM4.60594 10.6399C4.39766 10.8482 4.39766 11.1859 4.60594 11.3942C4.81423 11.6024 5.15191 11.6024 5.36019 11.3942C5.56847 11.1859 5.56847 10.8482 5.36019 10.6399C5.15191 10.4316 4.81423 10.4316 4.60594 10.6399ZM6.11444 12.1484C5.90617 12.3566 5.90617 12.6944 6.11444 12.9027C6.32272 13.1109 6.66041 13.111 6.86868 12.9027C7.07697 12.6944 7.07697 12.3566 6.86868 12.1484C6.66041 11.9401 6.32272 11.9401 6.11444 12.1484ZM2.3432 8.37718C2.52545 8.19493 2.54824 7.91361 2.41154 7.7066C2.22982 7.43135 1.82467 7.38722 1.58896 7.62293C1.38068 7.83121 1.38068 8.1689 1.58896 8.37718C1.79724 8.58546 2.13492 8.58546 2.3432 8.37718ZM3.8517 6.11444C3.64342 5.90615 3.30573 5.90615 3.09745 6.11444C2.88917 6.32271 2.88917 6.6604 3.09745 6.86868C3.30573 7.07697 3.64342 7.07697 3.8517 6.86868C4.05998 6.6604 4.05998 6.32271 3.8517 6.11444ZM5.36019 4.60594C5.15191 4.39766 4.81423 4.39766 4.60594 4.60594C4.39766 4.81422 4.39766 5.15191 4.60594 5.36019C4.81423 5.56846 5.15191 5.56846 5.36019 5.36019C5.56847 5.15191 5.56847 4.81422 5.36019 4.60594ZM6.86868 3.09745C6.66041 2.88917 6.32272 2.88917 6.11444 3.09745C5.90617 3.30572 5.90617 3.64341 6.11444 3.8517C6.32272 4.05997 6.66041 4.05997 6.86868 3.8517C7.07697 3.64341 7.07697 3.30572 6.86868 3.09745ZM8.37718 1.58896C8.16891 1.38067 7.83121 1.38067 7.62293 1.58896C7.41466 1.79723 7.41466 2.13492 7.62293 2.3432C7.83121 2.55148 8.16891 2.55148 8.37718 2.3432C8.58546 2.13492 8.58546 1.79723 8.37718 1.58896ZM9.88568 3.09745C9.6774 2.88917 9.33971 2.88917 9.13142 3.09745C8.92315 3.30572 8.92315 3.64341 9.13142 3.8517C9.33971 4.05997 9.6774 4.05997 9.88568 3.8517C10.094 3.64341 10.094 3.30572 9.88568 3.09745ZM11.3941 4.60594C11.1859 4.39766 10.8482 4.39766 10.6399 4.60594C10.4316 4.81422 10.4316 5.15191 10.6399 5.36019C10.8482 5.56846 11.1859 5.56846 11.3941 5.36019C11.6025 5.15191 11.6025 4.81422 11.3941 4.60594ZM12.9026 6.11444C12.6944 5.90615 12.3567 5.90615 12.1484 6.11444C11.9402 6.32271 11.9402 6.6604 12.1484 6.86868C12.3567 7.07697 12.6944 7.07697 12.9026 6.86868C13.1109 6.6604 13.1109 6.32271 12.9026 6.11444Z" fill="#1C2024"/>
</svg>
