<svg width="16" height="16" viewBox="0 0 16 16" fill="none" xmlns="http://www.w3.org/2000/svg">
<rect width="16" height="16" fill="white" fill-opacity="0.01"/>
<path fill-rule="evenodd" clip-rule="evenodd" d="M8.37717 1.58896C8.16889 1.38067 7.8312 1.38067 7.62292 1.58896L1.58895 7.62293C1.38067 7.83121 1.38067 8.1689 1.58895 8.37718L4.22879 11.017L1.75619 13.4896C1.54791 13.6979 1.54791 14.0356 1.75619 14.2439C1.96448 14.4521 2.30216 14.4521 2.51044 14.2439L4.98303 11.7713L7.62292 14.4112C7.8312 14.6195 8.16889 14.6195 8.37717 14.4112L14.4112 8.37718C14.6194 8.1689 14.6194 7.83121 14.4112 7.62293L11.7713 4.98304L14.2437 2.51051C14.452 2.30224 14.452 1.96455 14.2437 1.75627C14.0355 1.54798 13.6978 1.54798 13.4895 1.75627L11.0171 4.22878L8.37717 1.58896ZM10.2628 4.98304L8.00004 2.72033L2.72032 8.00005L4.98303 10.2628L10.2628 4.98304ZM5.73728 11.017L8.00004 13.2797L13.2798 8.00005L11.0171 5.73729L5.73728 11.017Z" fill="#1C2024"/>
</svg>
