<svg width="16" height="16" viewBox="0 0 16 16" fill="none" xmlns="http://www.w3.org/2000/svg">
<rect width="16" height="16" fill="white" fill-opacity="0.01"/>
<path fill-rule="evenodd" clip-rule="evenodd" d="M4.98271 3.35613C4.77443 3.56442 4.77443 3.9021 4.98271 4.11038L7.62257 6.75025C7.83085 6.95853 8.16854 6.95853 8.37682 6.75025L11.0166 4.11038C11.225 3.9021 11.225 3.56442 11.0166 3.35613L8.37682 0.716268C8.16854 0.507989 7.83085 0.507989 7.62257 0.716268L4.98271 3.35613ZM7.99969 5.61887L6.11408 3.73326L7.99969 1.84764L9.88531 3.73326L7.99969 5.61887ZM9.24938 7.62279C9.0411 7.83108 9.0411 8.16877 9.24938 8.37705L11.8893 11.0169C12.0975 11.2252 12.4352 11.2252 12.6435 11.0169L15.2833 8.37705C15.4916 8.16877 15.4916 7.83108 15.2833 7.62279L12.6435 4.98293C12.4352 4.77466 12.0975 4.77466 11.8893 4.98293L9.24938 7.62279ZM12.2663 9.88554L10.3807 7.99993L12.2663 6.1143L14.152 7.99993L12.2663 9.88554ZM4.98271 12.6438C4.77443 12.4354 4.77443 12.0977 4.98271 11.8894L7.62257 9.2496C7.83085 9.04132 8.16854 9.04132 8.37682 9.2496L11.0166 11.8894C11.225 12.0977 11.225 12.4354 11.0166 12.6438L8.37682 15.2836C8.16854 15.4919 7.83085 15.4919 7.62257 15.2836L4.98271 12.6438ZM6.11408 12.2666L7.99969 14.1522L9.88531 12.2666L7.99969 10.381L6.11408 12.2666ZM0.716039 7.62295C0.50776 7.83123 0.50776 8.16893 0.716039 8.37721L3.3559 11.0171C3.56418 11.2253 3.90188 11.2253 4.11015 11.0171L6.75001 8.37721C6.95829 8.16893 6.95829 7.83123 6.75001 7.62295L4.11015 4.98309C3.90188 4.77482 3.56418 4.77482 3.3559 4.98309L0.716039 7.62295ZM3.73303 9.8857L1.84741 8.00009L3.73303 6.11446L5.61864 8.00009L3.73303 9.8857Z" fill="#1C2024"/>
</svg>
