<svg width="16" height="16" viewBox="0 0 16 16" fill="none" xmlns="http://www.w3.org/2000/svg">
<rect width="16" height="16" fill="white" fill-opacity="0.01"/>
<path fill-rule="evenodd" clip-rule="evenodd" d="M4.13797 1.06665H4.16H11.84H11.8621C12.2913 1.06664 12.6457 1.06664 12.9343 1.09022C13.2341 1.11471 13.5097 1.16728 13.7685 1.29917C14.1699 1.5037 14.4963 1.83006 14.7008 2.23147C14.8327 2.49032 14.8852 2.76589 14.9098 3.06568C14.9333 3.35431 14.9333 3.70863 14.9333 4.13795V4.15998V11.84V11.8621C14.9333 12.2913 14.9333 12.6456 14.9098 12.9343C14.8852 13.2341 14.8327 13.5096 14.7008 13.7685C14.4963 14.1699 14.1699 14.4963 13.7685 14.7008C13.5097 14.8327 13.2341 14.8852 12.9343 14.9097C12.6457 14.9333 12.2913 14.9333 11.8621 14.9333H11.84H4.16H4.13796C3.70865 14.9333 3.35432 14.9333 3.0657 14.9097C2.76591 14.8852 2.49034 14.8327 2.23149 14.7008C1.83008 14.4963 1.50371 14.1699 1.29919 13.7685C1.1673 13.5096 1.11473 13.2341 1.09024 12.9343C1.06665 12.6456 1.06666 12.2913 1.06667 11.8621V11.84V4.15998V4.13796C1.06666 3.70865 1.06665 3.35431 1.09024 3.06568C1.11473 2.76589 1.1673 2.49032 1.29919 2.23147C1.50371 1.83006 1.83008 1.5037 2.23149 1.29917C2.49034 1.16728 2.76591 1.11471 3.0657 1.09022C3.35434 1.06664 3.70866 1.06664 4.13797 1.06665ZM3.15255 2.15335C2.91873 2.17245 2.79916 2.20708 2.71574 2.24957C2.51504 2.35185 2.35186 2.51502 2.24959 2.71573C2.20709 2.79914 2.17247 2.91871 2.15336 3.15254C2.13375 3.39258 2.13333 3.70314 2.13333 4.15998V7.46665H7.46667V2.13332H4.16C3.70316 2.13332 3.3926 2.13373 3.15255 2.15335ZM7.46667 8.53332H2.13333V11.84C2.13333 12.2968 2.13375 12.6073 2.15336 12.8475C2.17247 13.0813 2.20709 13.2008 2.24959 13.2843C2.35186 13.485 2.51504 13.6481 2.71574 13.7504C2.79916 13.7929 2.91873 13.8275 3.15255 13.8466C3.3926 13.8662 3.70316 13.8667 4.16 13.8667H7.46667V8.53332ZM8.53333 8.53332H13.8667V11.84C13.8667 12.2968 13.8662 12.6073 13.8466 12.8475C13.8275 13.0813 13.793 13.2008 13.7504 13.2843C13.6481 13.485 13.485 13.6481 13.2843 13.7504C13.2009 13.7929 13.0813 13.8275 12.8475 13.8466C12.6074 13.8662 12.2969 13.8667 11.84 13.8667H8.53333V8.53332ZM13.8667 7.46665H8.53333V2.13332H11.84C12.2969 2.13332 12.6074 2.13373 12.8475 2.15335C13.0813 2.17245 13.2009 2.20708 13.2843 2.24957C13.485 2.35185 13.6481 2.51502 13.7504 2.71573C13.793 2.79914 13.8275 2.91871 13.8466 3.15254C13.8662 3.39258 13.8667 3.70314 13.8667 4.15998V7.46665Z" fill="#1C2024"/>
</svg>
