<svg width="16" height="16" viewBox="0 0 16 16" fill="none" xmlns="http://www.w3.org/2000/svg">
<rect width="16" height="16" fill="white" fill-opacity="0.01"/>
<path fill-rule="evenodd" clip-rule="evenodd" d="M3.73333 0C4.02788 -1.28747e-08 4.26667 0.238782 4.26667 0.533334V3.20006H12.2667C12.5612 3.20006 12.8 3.43885 12.8 3.7334V11.7334L15.4667 11.7333C15.7612 11.7333 16 11.9721 16 12.2667C16 12.5612 15.7613 12.8 15.4667 12.8L12.8 12.8001V15.4667C12.8 15.7612 12.5612 16 12.2667 16C11.9722 16 11.7333 15.7612 11.7333 15.4667V12.8001H3.73333C3.43878 12.8001 3.2 12.5613 3.2 12.2668V4.26672L0.533322 4.26667C0.238771 4.26667 -5.97624e-06 4.02787 1.12185e-10 3.73332C6.00826e-06 3.43877 0.238792 3.2 0.533345 3.2L3.2 3.20005V0.533334C3.2 0.238782 3.43878 1.28757e-08 3.73333 0ZM4.26667 4.26673V11.7334H11.7333V4.26673H4.26667Z" fill="#1C2024"/>
</svg>
