<svg width="16" height="16" viewBox="0 0 16 16" fill="none" xmlns="http://www.w3.org/2000/svg">
<rect width="16" height="16" fill="white" fill-opacity="0.01"/>
<path fill-rule="evenodd" clip-rule="evenodd" d="M3.20015 2.9215C3.20015 3.1434 2.94492 3.26823 2.76977 3.13198L1.07078 1.81055C0.933519 1.70379 0.933519 1.49634 1.07078 1.38957L2.76977 0.0681411C2.94492 -0.0680962 3.20015 0.0567291 3.20015 0.278635V1.06675H9.60009V0.278667C9.60009 0.0567609 9.85531 -0.0680644 10.0305 0.0681728L11.7295 1.3896C11.8668 1.49637 11.8668 1.70382 11.7295 1.81059L10.0305 3.13202C9.85531 3.26826 9.60009 3.14343 9.60009 2.92153V2.13341H3.20015V2.9215ZM10.1334 5.33326H2.66668C2.37214 5.33326 2.13335 5.57205 2.13335 5.8666V13.3333C2.13335 13.6278 2.37214 13.8666 2.66668 13.8666H10.1334C10.4279 13.8666 10.6667 13.6278 10.6667 13.3333V5.8666C10.6667 5.57205 10.4279 5.33326 10.1334 5.33326ZM2.66668 4.2666C1.78303 4.2666 1.06668 4.98295 1.06668 5.8666V13.3333C1.06668 14.2169 1.78303 14.9333 2.66668 14.9333H10.1334C11.017 14.9333 11.7333 14.2169 11.7333 13.3333V5.8666C11.7333 4.98295 11.017 4.2666 10.1334 4.2666H2.66668ZM15.7215 6.39996H14.9333V12.8H15.7215C15.9434 12.8 16.0683 13.0552 15.9319 13.2304L14.6106 14.9293C14.5038 15.0666 14.2963 15.0666 14.1895 14.9293L12.8682 13.2304C12.7319 13.0552 12.8567 12.8 13.0786 12.8H13.8667V6.39996H13.0786C12.8567 6.39996 12.7318 6.14474 12.8682 5.96958L14.1895 4.2706C14.2963 4.13334 14.5038 4.13334 14.6106 4.27061L15.9319 5.96958C16.0682 6.14474 15.9434 6.39996 15.7215 6.39996Z" fill="#1C2024"/>
</svg>
