<svg width="16" height="16" viewBox="0 0 16 16" fill="none" xmlns="http://www.w3.org/2000/svg">
<rect width="16" height="16" fill="white" fill-opacity="0.01"/>
<path fill-rule="evenodd" clip-rule="evenodd" d="M11.7333 1.59998C11.7333 1.30543 11.4945 1.06665 11.2 1.06665C10.9055 1.06665 10.6667 1.30543 10.6667 1.59998V4.26665H5.33333V1.59998C5.33333 1.30543 5.09455 1.06665 4.8 1.06665C4.50545 1.06665 4.26667 1.30543 4.26667 1.59998V4.26665H1.6C1.30545 4.26665 1.06667 4.50543 1.06667 4.79998C1.06667 5.09453 1.30545 5.33332 1.6 5.33332H4.26667V10.6667H1.6C1.30545 10.6667 1.06667 10.9055 1.06667 11.2C1.06667 11.4945 1.30545 11.7333 1.6 11.7333H4.26667V14.4C4.26667 14.6945 4.50545 14.9333 4.8 14.9333C5.09455 14.9333 5.33333 14.6945 5.33333 14.4V11.7333H10.6667V14.4C10.6667 14.6945 10.9055 14.9333 11.2 14.9333C11.4945 14.9333 11.7333 14.6945 11.7333 14.4V11.7333H14.4C14.6945 11.7333 14.9333 11.4945 14.9333 11.2C14.9333 10.9055 14.6945 10.6667 14.4 10.6667H11.7333V5.33332H14.4C14.6945 5.33332 14.9333 5.09453 14.9333 4.79998C14.9333 4.50543 14.6945 4.26665 14.4 4.26665H11.7333V1.59998ZM10.6667 10.6667V5.33332H5.33333V10.6667H10.6667Z" fill="#1C2024"/>
</svg>
