<svg width="16" height="16" viewBox="0 0 16 16" fill="none" xmlns="http://www.w3.org/2000/svg">
<rect width="16" height="16" fill="white" fill-opacity="0.01"/>
<path fill-rule="evenodd" clip-rule="evenodd" d="M13.3333 2.13332H8.53333V7.46665H13.8667V2.66665C13.8667 2.3721 13.6278 2.13332 13.3333 2.13332ZM13.8667 8.53332H8.53333V13.8667H13.3333C13.6278 13.8667 13.8667 13.6278 13.8667 13.3333V8.53332ZM7.46667 7.46665V2.13332H2.66667C2.37212 2.13332 2.13333 2.3721 2.13333 2.66665V7.46665H7.46667ZM2.13333 8.53332V13.3333C2.13333 13.6278 2.37212 13.8667 2.66667 13.8667H7.46667V8.53332H2.13333ZM2.66667 1.06665C1.78301 1.06665 1.06667 1.78299 1.06667 2.66665V13.3333C1.06667 14.2169 1.78301 14.9333 2.66667 14.9333H13.3333C14.217 14.9333 14.9333 14.2169 14.9333 13.3333V2.66665C14.9333 1.78299 14.217 1.06665 13.3333 1.06665H2.66667Z" fill="#1C2024"/>
</svg>
