<svg width="16" height="16" viewBox="0 0 16 16" fill="none" xmlns="http://www.w3.org/2000/svg">
<rect width="16" height="16" fill="white" fill-opacity="0.01"/>
<path fill-rule="evenodd" clip-rule="evenodd" d="M1.54662 1.01331C1.40516 1.01331 1.26951 1.0695 1.1695 1.16952C1.06947 1.26954 1.01328 1.4052 1.01328 1.54664L1.0133 3.67997C1.0133 3.97453 1.25209 4.2133 1.54664 4.2133C1.84119 4.2133 2.07997 3.97452 2.07997 3.67997L2.07995 2.07997H3.67997C3.97452 2.07997 4.2133 1.84119 4.2133 1.54664C4.2133 1.25209 3.97452 1.01331 3.67997 1.01331H1.54662ZM6.34662 1.01331C6.05207 1.01331 5.81328 1.25209 5.81328 1.54664C5.81328 1.84119 6.05207 2.07997 6.34662 2.07997H9.54662C9.84116 2.07997 10.0799 1.84119 10.0799 1.54664C10.0799 1.25209 9.84116 1.01331 9.54662 1.01331H6.34662ZM5.81328 14.3467C5.81328 14.0521 6.05207 13.8134 6.34662 13.8134H9.54662C9.84116 13.8134 10.0799 14.0521 10.0799 14.3467C10.0799 14.6412 9.84116 14.88 9.54662 14.88H6.34662C6.05207 14.88 5.81328 14.6412 5.81328 14.3467ZM2.07995 6.34664C2.07995 6.05209 1.84116 5.8133 1.54662 5.8133C1.25207 5.8133 1.01328 6.05209 1.01328 6.34664V9.54664C1.01328 9.84119 1.25207 10.08 1.54662 10.08C1.84116 10.08 2.07995 9.84119 2.07995 9.54664V6.34664ZM14.3467 5.8133C14.6412 5.8133 14.88 6.05209 14.88 6.34664V9.54664C14.88 9.84119 14.6412 10.08 14.3467 10.08C14.0521 10.08 13.8133 9.84119 13.8133 9.54664V6.34664C13.8133 6.05209 14.0521 5.8133 14.3467 5.8133ZM12.2133 1.01331C11.9187 1.01331 11.68 1.25209 11.68 1.54664C11.68 1.84119 11.9187 2.07997 12.2133 2.07997H13.8132V3.67997C13.8132 3.97452 14.0521 4.2133 14.3466 4.2133C14.6412 4.2133 14.8799 3.97452 14.8799 3.67997V1.54664C14.8799 1.25209 14.6402 1.01331 14.3456 1.01331H12.2133ZM1.54662 11.68C1.84116 11.68 2.07995 11.9187 2.07995 12.2134V13.8134H3.67997C3.97452 13.8134 4.2133 14.0521 4.2133 14.3467C4.2133 14.6412 3.97452 14.88 3.67997 14.88H1.54662C1.25207 14.88 1.01328 14.6412 1.01328 14.3467V12.2134C1.01328 11.9187 1.25207 11.68 1.54662 11.68ZM14.88 12.2134C14.88 11.9187 14.6412 11.68 14.3467 11.68C14.0521 11.6799 13.8133 11.9187 13.8133 12.2133L13.8124 13.8134H12.2133C11.9187 13.8134 11.68 14.0521 11.68 14.3467C11.68 14.6412 11.9187 14.88 12.2133 14.88H14.3466C14.6412 14.88 14.8799 14.6412 14.8799 14.3467L14.88 12.2134Z" fill="#1C2024"/>
</svg>
