<svg width="16" height="16" viewBox="0 0 16 16" fill="none" xmlns="http://www.w3.org/2000/svg">
<rect width="16" height="16" fill="white" fill-opacity="0.01"/>
<path fill-rule="evenodd" clip-rule="evenodd" d="M0.935547 7.9999C0.935547 4.09837 4.09837 0.935547 7.9999 0.935547C11.9014 0.935547 15.0642 4.09837 15.0642 7.9999C15.0642 11.9014 11.9014 15.0642 7.9999 15.0642C4.09837 15.0642 0.935547 11.9014 0.935547 7.9999ZM7.9999 1.94887C4.65802 1.94887 1.94889 4.65802 1.94889 7.9999C1.94889 11.3418 4.65802 14.0509 7.9999 14.0509C11.3418 14.0509 14.0509 11.3418 14.0509 7.9999C14.0509 4.65802 11.3418 1.94887 7.9999 1.94887Z" fill="#1C2024"/>
<path opacity="0.05" fill-rule="evenodd" clip-rule="evenodd" d="M12.9727 4.10867C8.91538 5.21518 5.21532 8.91526 4.10879 12.9725L3.59424 12.8322C4.75046 8.59274 8.59286 4.75034 12.8323 3.59412L12.9727 4.10867Z" fill="#1C2024"/>
<path opacity="0.1" fill-rule="evenodd" clip-rule="evenodd" d="M12.6728 3.6555C8.57004 4.80574 4.80599 8.5698 3.65575 12.6725L3.14221 12.5286C4.34271 8.24659 8.24683 4.34247 12.5289 3.14197L12.6728 3.6555Z" fill="#1C2024"/>
<path opacity="0.15" fill-rule="evenodd" clip-rule="evenodd" d="M12.2881 3.22723C8.20365 4.43942 4.44564 8.19541 3.22992 12.2794L2.71875 12.1273C3.98588 7.87057 7.87903 3.97944 12.1363 2.71594L12.2881 3.22723Z" fill="#1C2024"/>
<path opacity="0.2" fill-rule="evenodd" clip-rule="evenodd" d="M11.7833 2.83909C7.79858 4.13503 4.13779 7.79504 2.84051 11.7796L2.33337 11.6145C3.68345 7.46778 7.47141 3.68061 11.6182 2.33191L11.7833 2.83909Z" fill="#1C2024"/>
<path opacity="0.25" fill-rule="evenodd" clip-rule="evenodd" d="M11.2214 2.47858C7.38231 3.85545 3.86551 7.36936 2.48369 11.2078L1.98187 11.0272C3.41758 7.03905 7.05233 3.40721 11.0414 1.97656L11.2214 2.47858Z" fill="#1C2024"/>
<path opacity="0.3" fill-rule="evenodd" clip-rule="evenodd" d="M10.5624 2.16669C6.93337 3.62102 3.62633 6.92664 2.1696 10.5553L1.67465 10.3566C3.18562 6.59287 6.59977 3.18014 10.364 1.67163L10.5624 2.16669Z" fill="#1C2024"/>
<path opacity="0.35" fill-rule="evenodd" clip-rule="evenodd" d="M9.82109 1.90792C6.46545 3.417 3.4251 6.45544 1.91287 9.81048L1.42664 9.59132C2.99239 6.11757 6.12784 2.98405 9.60235 1.42151L9.82109 1.90792Z" fill="#1C2024"/>
<path opacity="0.4" fill-rule="evenodd" clip-rule="evenodd" d="M8.96759 1.72885C5.9661 3.25453 3.26179 5.95738 1.73379 8.95831L1.25851 8.71632C2.8377 5.61485 5.62379 2.83024 8.72593 1.25342L8.96759 1.72885Z" fill="#1C2024"/>
<path opacity="0.45" fill-rule="evenodd" clip-rule="evenodd" d="M7.95955 1.67201C5.42603 3.14346 3.15054 5.41777 1.67733 7.95075L1.21631 7.68261C2.73604 5.06962 5.07809 2.72877 7.6917 1.21082L7.95955 1.67201Z" fill="#1C2024"/>
<path opacity="0.5" fill-rule="evenodd" clip-rule="evenodd" d="M6.72434 1.81849C4.82095 3.10463 3.10382 4.82194 1.81792 6.72543L1.37598 6.42688C2.70005 4.46687 4.46584 2.70091 6.42574 1.37659L6.72434 1.81849Z" fill="#1C2024"/>
</svg>
