<svg width="16" height="16" viewBox="0 0 16 16" fill="none" xmlns="http://www.w3.org/2000/svg">
<rect width="16" height="16" fill="white" fill-opacity="0.01"/>
<path fill-rule="evenodd" clip-rule="evenodd" d="M14.4 1.11951C14.6651 1.11951 14.88 1.33441 14.88 1.59951V14.3995C14.88 14.6646 14.6651 14.8795 14.4 14.8795C14.1348 14.8795 13.92 14.6646 13.92 14.3995V1.59951C13.92 1.33441 14.1348 1.11951 14.4 1.11951ZM1.59993 1.11961C1.86503 1.11961 2.07993 1.33451 2.07993 1.59961V14.3997C2.07993 14.6647 1.86503 14.8797 1.59993 14.8797C1.33484 14.8797 1.11993 14.6647 1.11993 14.3997V1.59961C1.11993 1.33451 1.33484 1.11961 1.59993 1.11961ZM4.26662 6.39998H11.7333V9.59998H4.26662V6.39998ZM12 5.33331C12.4418 5.33331 12.8 5.69148 12.8 6.13331V9.86664C12.8 10.3085 12.4418 10.6666 12 10.6666H3.99996C3.55813 10.6666 3.19996 10.3085 3.19996 9.86664V6.13331C3.19997 5.69148 3.55813 5.33331 3.99997 5.33331H12Z" fill="#1C2024"/>
</svg>
