<svg width="16" height="16" viewBox="0 0 16 16" fill="none" xmlns="http://www.w3.org/2000/svg">
<rect width="16" height="16" fill="white" fill-opacity="0.01"/>
<path fill-rule="evenodd" clip-rule="evenodd" d="M14.88 1.59951C14.88 1.33441 14.6651 1.11951 14.4 1.11951C14.1348 1.11951 13.92 1.33441 13.92 1.59951V14.3995C13.92 14.6646 14.1348 14.8795 14.4 14.8795C14.6651 14.8795 14.88 14.6646 14.88 14.3995V1.59951ZM4.26663 6.39998H11.7333V9.59998H4.26663V6.39998ZM12 5.33331C12.4418 5.33331 12.8 5.69149 12.8 6.13331V9.86664C12.8 10.3085 12.4418 10.6666 12 10.6666H3.99997C3.55814 10.6666 3.19997 10.3085 3.19997 9.86664V6.13331C3.19998 5.69149 3.55814 5.33331 3.99998 5.33331H12Z" fill="#1C2024"/>
</svg>
