<svg width="16" height="16" viewBox="0 0 16 16" fill="none" xmlns="http://www.w3.org/2000/svg">
<rect width="16" height="16" fill="white" fill-opacity="0.01"/>
<path fill-rule="evenodd" clip-rule="evenodd" d="M8.47998 6.39988H11.7333V9.59988H8.47998V6.39988ZM8.47998 5.33322V1.59902C8.47998 1.33393 8.26507 1.11902 7.99998 1.11902C7.73488 1.11902 7.51998 1.33392 7.51998 1.59902V5.33322H4C3.55817 5.33322 3.2 5.69138 3.2 6.13322V9.86655C3.2 10.3084 3.55817 10.6665 4 10.6665H7.51998V14.399C7.51998 14.6642 7.73488 14.879 7.99998 14.879C8.26506 14.879 8.47998 14.6642 8.47998 14.399V10.6665H12C12.4418 10.6665 12.8 10.3084 12.8 9.86655V6.13322C12.8 5.69139 12.4418 5.33322 12 5.33322H8.47998ZM7.51998 9.59988H4.26666V6.39988H7.51998V9.59988Z" fill="#1C2024"/>
</svg>
