<svg width="16" height="16" viewBox="0 0 16 16" fill="none" xmlns="http://www.w3.org/2000/svg">
<rect width="16" height="16" fill="white" fill-opacity="0.01"/>
<path fill-rule="evenodd" clip-rule="evenodd" d="M1.12006 14.4005C1.12006 14.6656 1.33496 14.8805 1.60006 14.8805C1.86515 14.8805 2.08006 14.6656 2.08006 14.4005V1.60048C2.08006 1.33538 1.86515 1.12048 1.60006 1.12048C1.33496 1.12048 1.12006 1.33538 1.12006 1.60048V14.4005ZM11.7333 9.60001H4.26669V6.40001H11.7333V9.60001ZM4.00002 10.6666C3.5582 10.6666 3.20002 10.3085 3.20002 9.86668V6.13335C3.20002 5.69152 3.5582 5.33335 4.00002 5.33335H12C12.4418 5.33335 12.8 5.69152 12.8 6.13335V9.86668C12.8 10.3085 12.4418 10.6666 12 10.6666H4.00002Z" fill="#1C2024"/>
</svg>
