<svg width="16" height="16" viewBox="0 0 16 16" fill="none" xmlns="http://www.w3.org/2000/svg">
<rect width="16" height="16" fill="white" fill-opacity="0.01"/>
<path fill-rule="evenodd" clip-rule="evenodd" d="M8.27127 0.874222C8.10391 0.775325 7.896 0.775325 7.72863 0.874222L1.86196 4.34089C1.69958 4.43684 1.59996 4.61143 1.59996 4.80005C1.59996 4.98867 1.69958 5.16326 1.86196 5.25921L7.72863 8.72587C7.896 8.82477 8.10391 8.82477 8.27127 8.72587L14.1379 5.25921C14.3004 5.16326 14.4 4.98867 14.4 4.80005C14.4 4.61143 14.3004 4.43684 14.1379 4.34089L8.27127 0.874222ZM7.99996 7.64723L3.18165 4.80005L7.99996 1.95287L12.8182 4.80005L7.99996 7.64723ZM1.67413 7.9954C1.82398 7.74181 2.15103 7.65771 2.40461 7.80756L7.99996 11.1139L13.5953 7.80756C13.8489 7.65771 14.1759 7.74181 14.3258 7.9954C14.4756 8.24898 14.3916 8.57603 14.1379 8.72587L8.27127 12.1926C8.10391 12.2915 7.896 12.2915 7.72863 12.1926L1.86196 8.72587C1.60838 8.57603 1.52428 8.24898 1.67413 7.9954ZM1.67412 11.1954C1.82398 10.9418 2.15102 10.8578 2.40461 11.0075L7.99996 14.3139L13.5953 11.0075C13.8489 10.8578 14.1759 10.9418 14.3258 11.1954C14.4756 11.449 14.3916 11.776 14.1379 11.9259L8.27127 15.3926C8.10391 15.4915 7.896 15.4915 7.72863 15.3926L1.86196 11.9259C1.60837 11.776 1.52428 11.449 1.67412 11.1954Z" fill="#1C2024"/>
</svg>
