<svg width="16" height="16" viewBox="0 0 16 16" fill="none" xmlns="http://www.w3.org/2000/svg">
<rect width="16" height="16" fill="white" fill-opacity="0.01"/>
<path fill-rule="evenodd" clip-rule="evenodd" d="M1.59986 2.13344C1.89441 2.13344 2.1332 1.89466 2.1332 1.60011C2.1332 1.30556 1.89441 1.06677 1.59986 1.06677C1.30531 1.06677 1.06653 1.30556 1.06653 1.60011C1.06653 1.89466 1.30531 2.13344 1.59986 2.13344ZM4.79986 2.13344C5.09441 2.13344 5.3332 1.89466 5.3332 1.60011C5.3332 1.30556 5.09441 1.06677 4.79986 1.06677C4.50531 1.06677 4.26653 1.30556 4.26653 1.60011C4.26653 1.89466 4.50531 2.13344 4.79986 2.13344ZM8.5332 1.60011C8.5332 1.89466 8.29441 2.13344 7.99986 2.13344C7.70531 2.13344 7.46653 1.89466 7.46653 1.60011C7.46653 1.30556 7.70531 1.06677 7.99986 1.06677C8.29441 1.06677 8.5332 1.30556 8.5332 1.60011ZM11.1999 2.13344C11.4944 2.13344 11.7332 1.89466 11.7332 1.60011C11.7332 1.30556 11.4944 1.06677 11.1999 1.06677C10.9053 1.06677 10.6665 1.30556 10.6665 1.60011C10.6665 1.89466 10.9053 2.13344 11.1999 2.13344ZM14.9332 1.60011C14.9332 1.89466 14.6944 2.13344 14.3999 2.13344C14.1053 2.13344 13.8666 1.89466 13.8666 1.60011C13.8666 1.30556 14.1053 1.06677 14.3999 1.06677C14.6944 1.06677 14.9332 1.30556 14.9332 1.60011ZM1.59986 14.9334C1.89441 14.9334 2.1332 14.6947 2.1332 14.4001C2.1332 14.1056 1.89441 13.8668 1.59986 13.8668C1.30531 13.8668 1.06653 14.1056 1.06653 14.4001C1.06653 14.6947 1.30531 14.9334 1.59986 14.9334ZM2.1332 11.2001C2.1332 11.4947 1.89441 11.7334 1.59986 11.7334C1.30531 11.7334 1.06653 11.4947 1.06653 11.2001C1.06653 10.9056 1.30531 10.6668 1.59986 10.6668C1.89441 10.6668 2.1332 10.9056 2.1332 11.2001ZM1.59986 8.53344C1.89441 8.53344 2.1332 8.29466 2.1332 8.00011C2.1332 7.70556 1.89441 7.46677 1.59986 7.46677C1.30531 7.46677 1.06653 7.70556 1.06653 8.00011C1.06653 8.29466 1.30531 8.53344 1.59986 8.53344ZM2.1332 4.80011C2.1332 5.09466 1.89441 5.33344 1.59986 5.33344C1.30531 5.33344 1.06653 5.09466 1.06653 4.80011C1.06653 4.50556 1.30531 4.26677 1.59986 4.26677C1.89441 4.26677 2.1332 4.50556 2.1332 4.80011ZM14.3999 11.7334C14.6944 11.7334 14.9332 11.4947 14.9332 11.2001C14.9332 10.9056 14.6944 10.6668 14.3999 10.6668C14.1053 10.6668 13.8666 10.9056 13.8666 11.2001C13.8666 11.4947 14.1053 11.7334 14.3999 11.7334ZM14.9332 8.00011C14.9332 8.29466 14.6944 8.53344 14.3999 8.53344C14.1053 8.53344 13.8666 8.29466 13.8666 8.00011C13.8666 7.70556 14.1053 7.46677 14.3999 7.46677C14.6944 7.46677 14.9332 7.70556 14.9332 8.00011ZM14.3999 5.33344C14.6944 5.33344 14.9332 5.09466 14.9332 4.80011C14.9332 4.50556 14.6944 4.26677 14.3999 4.26677C14.1053 4.26677 13.8666 4.50556 13.8666 4.80011C13.8666 5.09466 14.1053 5.33344 14.3999 5.33344ZM5.3332 14.4001C5.3332 14.6947 5.09441 14.9334 4.79986 14.9334C4.50531 14.9334 4.26653 14.6947 4.26653 14.4001C4.26653 14.1056 4.50531 13.8668 4.79986 13.8668C5.09441 13.8668 5.3332 14.1056 5.3332 14.4001ZM7.99986 14.9334C8.29441 14.9334 8.5332 14.6947 8.5332 14.4001C8.5332 14.1056 8.29441 13.8668 7.99986 13.8668C7.70531 13.8668 7.46653 14.1056 7.46653 14.4001C7.46653 14.6947 7.70531 14.9334 7.99986 14.9334ZM11.7332 14.4001C11.7332 14.6947 11.4944 14.9334 11.1999 14.9334C10.9053 14.9334 10.6665 14.6947 10.6665 14.4001C10.6665 14.1056 10.9053 13.8668 11.1999 13.8668C11.4944 13.8668 11.7332 14.1056 11.7332 14.4001ZM14.3999 14.9334C14.6944 14.9334 14.9332 14.6947 14.9332 14.4001C14.9332 14.1056 14.6944 13.8668 14.3999 13.8668C14.1053 13.8668 13.8666 14.1056 13.8666 14.4001C13.8666 14.6947 14.1053 14.9334 14.3999 14.9334ZM4.26653 5.33344C4.26653 4.74434 4.74409 4.26677 5.3332 4.26677H10.6665C11.2557 4.26677 11.7332 4.74434 11.7332 5.33344V10.6668C11.7332 11.2559 11.2557 11.7334 10.6665 11.7334H5.3332C4.74409 11.7334 4.26653 11.2559 4.26653 10.6668V5.33344ZM5.3332 5.33344H10.6665V10.6668H5.3332V5.33344Z" fill="#1C2024"/>
</svg>
