<svg width="16" height="16" viewBox="0 0 16 16" fill="none" xmlns="http://www.w3.org/2000/svg">
<rect width="16" height="16" fill="white" fill-opacity="0.01"/>
<path fill-rule="evenodd" clip-rule="evenodd" d="M1.06667 1.06665C0.477563 1.06665 0 1.54422 0 2.13332V13.8667C0 14.4558 0.477563 14.9333 1.06667 14.9333H14.9333C15.5225 14.9333 16 14.4558 16 13.8667V2.13332C16 1.54422 15.5225 1.06665 14.9333 1.06665H1.06667ZM8 11.3333C9.84095 11.3333 11.3333 9.84093 11.3333 7.99998C11.3333 6.15903 9.84095 4.66665 8 4.66665C6.15905 4.66665 4.66667 6.15903 4.66667 7.99998C4.66667 9.84093 6.15905 11.3333 8 11.3333Z" fill="#1C2024"/>
</svg>
