<svg width="16" height="16" viewBox="0 0 16 16" fill="none" xmlns="http://www.w3.org/2000/svg">
<rect width="16" height="16" fill="white" fill-opacity="0.01"/>
<path fill-rule="evenodd" clip-rule="evenodd" d="M1.06667 2.13332H14.9333V13.8667H1.06667V2.13332ZM0 2.13332C0 1.54422 0.477563 1.06665 1.06667 1.06665H14.9333C15.5225 1.06665 16 1.54422 16 2.13332V13.8667C16 14.4558 15.5225 14.9333 14.9333 14.9333H1.06667C0.477563 14.9333 0 14.4558 0 13.8667V2.13332ZM5.2 7.99998C5.2 6.45358 6.4536 5.19998 8 5.19998C9.5464 5.19998 10.8 6.45358 10.8 7.99998C10.8 9.54638 9.5464 10.8 8 10.8C6.4536 10.8 5.2 9.54638 5.2 7.99998ZM8 4.13332C5.8645 4.13332 4.13333 5.86449 4.13333 7.99998C4.13333 10.1355 5.8645 11.8667 8 11.8667C10.1355 11.8667 11.8667 10.1355 11.8667 7.99998C11.8667 5.86449 10.1355 4.13332 8 4.13332Z" fill="#1C2024"/>
</svg>
