<svg width="16" height="16" viewBox="0 0 16 16" fill="none" xmlns="http://www.w3.org/2000/svg">
<rect width="16" height="16" fill="white" fill-opacity="0.01"/>
<path opacity="0.05" fill-rule="evenodd" clip-rule="evenodd" d="M12.9491 4.14526C14.779 5.27106 16 7.29283 16 9.60002C16 13.1346 13.1346 16 9.60001 16C7.29973 16 5.28315 14.7863 4.1554 12.9656L4.6088 12.6847C5.6434 14.355 7.492 15.4667 9.60001 15.4667C12.84 15.4667 15.4667 12.84 15.4667 9.60002C15.4667 7.48568 14.3484 5.6323 12.6697 4.59951L12.9491 4.14526Z" fill="#1C2024"/>
<path opacity="0.2" fill-rule="evenodd" clip-rule="evenodd" d="M13.7077 5.41138C14.7929 6.47575 15.4667 7.95941 15.4667 9.59995C15.4667 12.84 12.84 15.4666 9.59996 15.4666C7.95955 15.4666 6.476 14.793 5.41165 13.7079L5.79238 13.3345C6.76057 14.3215 8.10858 14.9333 9.59996 14.9333C12.5455 14.9333 14.9333 12.5455 14.9333 9.59995C14.9333 8.10844 14.3214 6.76034 13.3343 5.79214L13.7077 5.41138Z" fill="#1C2024"/>
<path opacity="0.35" fill-rule="evenodd" clip-rule="evenodd" d="M14.1889 6.88074C14.6619 7.67717 14.9333 8.60728 14.9333 9.59998C14.9333 12.5455 12.5455 14.9333 9.60001 14.9333C8.58525 14.9333 7.63592 14.6497 6.82793 14.1571L7.10551 13.7017C7.83226 14.1447 8.68592 14.4 9.60001 14.4C12.251 14.4 14.4 12.251 14.4 9.59998C14.4 8.70573 14.1557 7.86935 13.7303 7.15303L14.1889 6.88074Z" fill="#1C2024"/>
<path opacity="0.5" fill-rule="evenodd" clip-rule="evenodd" d="M14.266 8.4696C14.3537 8.83237 14.4 9.21097 14.4 9.60005C14.4 12.251 12.251 14.4 9.60002 14.4C9.1851 14.4 8.78209 14.3474 8.39751 14.2482L8.53075 13.7317C8.87218 13.8198 9.23042 13.8667 9.60002 13.8667C11.9564 13.8667 13.8667 11.9564 13.8667 9.60005C13.8667 9.25346 13.8254 8.91687 13.7476 8.59478L14.266 8.4696Z" fill="#1C2024"/>
<path opacity="0.65" fill-rule="evenodd" clip-rule="evenodd" d="M13.7765 10.4761C13.4291 12.14 12.1133 13.4477 10.4448 13.7829L10.3398 13.26C11.7987 12.9669 12.9507 11.8222 13.2545 10.3671L13.7765 10.4761Z" fill="#1C2024"/>
<path fill-rule="evenodd" clip-rule="evenodd" d="M1.36224 8.00266C1.36224 4.33549 4.33508 1.36267 8.00223 1.36267C11.6693 1.36267 14.6422 4.33549 14.6422 8.00266C14.6422 11.6698 11.6693 14.6426 8.00223 14.6426C4.33506 14.6426 1.36224 11.6698 1.36224 8.00266ZM8.00223 2.37599C4.89472 2.37599 2.37558 4.89514 2.37558 8.00266C2.37558 11.1102 4.89472 13.6293 8.00223 13.6293C11.1098 13.6293 13.6289 11.1102 13.6289 8.00266C13.6289 4.89514 11.1098 2.37599 8.00223 2.37599Z" fill="#1C2024"/>
</svg>
