<svg width="16" height="16" viewBox="0 0 16 16" fill="none" xmlns="http://www.w3.org/2000/svg">
<rect width="16" height="16" fill="white" fill-opacity="0.01"/>
<path fill-rule="evenodd" clip-rule="evenodd" d="M3.04762 2.13332H12.9524C13.4573 2.13332 13.8667 2.54266 13.8667 3.0476V12.9524C13.8667 13.4573 13.4573 13.8667 12.9524 13.8667H3.04762C2.54268 13.8667 2.13333 13.4573 2.13333 12.9524V3.0476C2.13333 2.54266 2.54268 2.13332 3.04762 2.13332ZM1.06667 3.0476C1.06667 1.95355 1.95357 1.06665 3.04762 1.06665H12.9524C14.0464 1.06665 14.9333 1.95355 14.9333 3.0476V12.9524C14.9333 14.0464 14.0464 14.9333 12.9524 14.9333H3.04762C1.95357 14.9333 1.06667 14.0464 1.06667 12.9524V3.0476ZM7.99987 5.33345C8.29442 5.33345 8.5332 5.09466 8.5332 4.80011C8.5332 4.50556 8.29442 4.26678 7.99987 4.26678C7.70532 4.26678 7.46654 4.50556 7.46654 4.80011C7.46654 5.09466 7.70532 5.33345 7.99987 5.33345ZM4.79987 11.7334C5.09442 11.7334 5.3332 11.4947 5.3332 11.2001C5.3332 10.9056 5.09442 10.6668 4.79987 10.6668C4.50532 10.6668 4.26654 10.9056 4.26654 11.2001C4.26654 11.4947 4.50532 11.7334 4.79987 11.7334ZM5.3332 8.00011C5.3332 8.29466 5.09442 8.53345 4.79987 8.53345C4.50532 8.53345 4.26654 8.29466 4.26654 8.00011C4.26654 7.70556 4.50532 7.46678 4.79987 7.46678C5.09442 7.46678 5.3332 7.70556 5.3332 8.00011ZM4.79987 5.33345C5.09442 5.33345 5.3332 5.09466 5.3332 4.80011C5.3332 4.50556 5.09442 4.26678 4.79987 4.26678C4.50532 4.26678 4.26654 4.50556 4.26654 4.80011C4.26654 5.09466 4.50532 5.33345 4.79987 5.33345ZM11.7332 11.2001C11.7332 11.4947 11.4944 11.7334 11.1999 11.7334C10.9053 11.7334 10.6665 11.4947 10.6665 11.2001C10.6665 10.9056 10.9053 10.6668 11.1999 10.6668C11.4944 10.6668 11.7332 10.9056 11.7332 11.2001ZM11.1999 8.53345C11.4944 8.53345 11.7332 8.29466 11.7332 8.00011C11.7332 7.70556 11.4944 7.46678 11.1999 7.46678C10.9053 7.46678 10.6665 7.70556 10.6665 8.00011C10.6665 8.29466 10.9053 8.53345 11.1999 8.53345ZM11.7332 4.80011C11.7332 5.09466 11.4944 5.33345 11.1999 5.33345C10.9053 5.33345 10.6665 5.09466 10.6665 4.80011C10.6665 4.50556 10.9053 4.26678 11.1999 4.26678C11.4944 4.26678 11.7332 4.50556 11.7332 4.80011ZM7.99987 11.7334C8.29442 11.7334 8.5332 11.4947 8.5332 11.2001C8.5332 10.9056 8.29442 10.6668 7.99987 10.6668C7.70532 10.6668 7.46654 10.9056 7.46654 11.2001C7.46654 11.4947 7.70532 11.7334 7.99987 11.7334Z" fill="#1C2024"/>
</svg>
