<svg width="16" height="16" viewBox="0 0 16 16" fill="none" xmlns="http://www.w3.org/2000/svg">
<rect width="16" height="16" fill="white" fill-opacity="0.01"/>
<path fill-rule="evenodd" clip-rule="evenodd" d="M8.10308 3.13198C8.27824 3.26823 8.53346 3.1434 8.53346 2.9215V2.13326C10.6469 2.13328 11.9305 2.52123 12.7045 3.29536C13.4787 4.06952 13.8667 5.35312 13.8667 7.4666C13.8667 7.76116 14.1055 7.99993 14.4 7.99993C14.6945 7.99993 14.9333 7.76116 14.9333 7.4666C14.9333 5.27334 14.5413 3.62362 13.4588 2.54111C12.3763 1.45864 10.7266 1.06662 8.53346 1.0666V0.278635C8.53346 0.0567291 8.27824 -0.0680962 8.10308 0.0681411L6.4041 1.38957C6.26684 1.49634 6.26684 1.70379 6.4041 1.81055L8.10308 3.13198ZM10.1333 5.33328H2.66667C2.37212 5.33328 2.13333 5.57207 2.13333 5.86662V13.3333C2.13333 13.6278 2.37212 13.8666 2.66667 13.8666H10.1333C10.4279 13.8666 10.6667 13.6278 10.6667 13.3333V5.86662C10.6667 5.57207 10.4279 5.33328 10.1333 5.33328ZM2.66667 4.26662C1.78301 4.26662 1.06667 4.98296 1.06667 5.86662V13.3333C1.06667 14.2169 1.78301 14.9333 2.66667 14.9333H10.1333C11.017 14.9333 11.7333 14.2169 11.7333 13.3333V5.86662C11.7333 4.98296 11.017 4.26662 10.1333 4.26662H2.66667Z" fill="#1C2024"/>
</svg>
