<svg width="16" height="16" viewBox="0 0 16 16" fill="none" xmlns="http://www.w3.org/2000/svg">
<rect width="16" height="16" fill="white" fill-opacity="0.01"/>
<path fill-rule="evenodd" clip-rule="evenodd" d="M8.33954 0.727259C8.15208 0.539807 7.84817 0.539807 7.66071 0.727259L5.52738 2.86059C5.33993 3.04805 5.33993 3.35196 5.52738 3.53942C5.71484 3.72686 6.01875 3.72686 6.20621 3.53942L7.52013 2.22549V5.86693C7.52013 6.13203 7.73503 6.34693 8.00013 6.34693C8.26523 6.34693 8.48013 6.13203 8.48013 5.86693V2.22549L9.79405 3.53942C9.9815 3.72686 10.2854 3.72686 10.4729 3.53942C10.6603 3.35196 10.6603 3.04805 10.4729 2.86059L8.33954 0.727259ZM8.48013 13.7745V10.1336C8.48013 9.8685 8.26523 9.65359 8.00013 9.65359C7.73503 9.65359 7.52013 9.8685 7.52013 10.1336V13.7745L6.20621 12.4606C6.01875 12.2732 5.71484 12.2732 5.52738 12.4606C5.33993 12.648 5.33993 12.9519 5.52738 13.1394L7.66071 15.2728C7.75074 15.3628 7.87282 15.4134 8.00013 15.4134C8.12743 15.4134 8.24952 15.3628 8.33954 15.2728L10.4729 13.1394C10.6603 12.9519 10.6603 12.648 10.4729 12.4606C10.2854 12.2732 9.9815 12.2732 9.79405 12.4606L8.48013 13.7745ZM1.59994 7.46687C1.30539 7.46687 1.0666 7.70565 1.0666 8.0002C1.0666 8.29475 1.30539 8.53353 1.59994 8.53353H14.3999C14.6945 8.53353 14.9332 8.29475 14.9332 8.0002C14.9332 7.70565 14.6945 7.46687 14.3999 7.46687H1.59994Z" fill="#1C2024"/>
</svg>
