<svg width="16" height="16" viewBox="0 0 16 16" fill="none" xmlns="http://www.w3.org/2000/svg">
<rect width="16" height="16" fill="white" fill-opacity="0.01"/>
<path opacity="0.05" fill-rule="evenodd" clip-rule="evenodd" d="M12.9491 4.14526C14.779 5.27104 16 7.29283 16 9.60003C16 13.1346 13.1346 16 9.60002 16C7.29974 16 5.28316 14.7863 4.1554 12.9656L4.60881 12.6847C5.6434 14.355 7.49201 15.4667 9.60002 15.4667C12.8401 15.4667 15.4667 12.84 15.4667 9.60003C15.4667 7.48568 14.3484 5.6323 12.6697 4.59951L12.9491 4.14526Z" fill="#1C2024"/>
<path opacity="0.2" fill-rule="evenodd" clip-rule="evenodd" d="M13.7077 5.41138C14.793 6.47575 15.4667 7.95941 15.4667 9.59995C15.4667 12.84 12.8401 15.4666 9.60004 15.4666C7.95963 15.4666 6.47607 14.793 5.41172 13.708L5.79246 13.3345C6.76064 14.3214 8.10865 14.9333 9.60004 14.9333C12.5455 14.9333 14.9333 12.5454 14.9333 9.59995C14.9333 8.10844 14.3215 6.76034 13.3343 5.79213L13.7077 5.41138Z" fill="#1C2024"/>
<path opacity="0.35" fill-rule="evenodd" clip-rule="evenodd" d="M14.189 6.88074C14.6619 7.67717 14.9333 8.60729 14.9333 9.59999C14.9333 12.5455 12.5455 14.9333 9.60002 14.9333C8.58526 14.9333 7.63592 14.6497 6.82792 14.1572L7.10551 13.7017C7.83227 14.1447 8.68593 14.4 9.60002 14.4C12.251 14.4 14.4 12.251 14.4 9.59999C14.4 8.70574 14.1557 7.86936 13.7303 7.15304L14.189 6.88074Z" fill="#1C2024"/>
<path opacity="0.5" fill-rule="evenodd" clip-rule="evenodd" d="M14.2661 8.4696C14.3537 8.83237 14.4 9.21097 14.4 9.60005C14.4 12.251 12.251 14.4 9.60003 14.4C9.18511 14.4 8.78211 14.3473 8.39753 14.2481L8.53076 13.7317C8.87219 13.8198 9.23043 13.8667 9.60003 13.8667C11.9564 13.8667 13.8667 11.9564 13.8667 9.60005C13.8667 9.25347 13.8254 8.91687 13.7476 8.59478L14.2661 8.4696Z" fill="#1C2024"/>
<path opacity="0.65" fill-rule="evenodd" clip-rule="evenodd" d="M13.7765 10.4761C13.4291 12.14 12.1133 13.4477 10.4449 13.7829L10.3398 13.26C11.7987 12.9669 12.9507 11.8223 13.2545 10.3671L13.7765 10.4761Z" fill="#1C2024"/>
<path fill-rule="evenodd" clip-rule="evenodd" d="M1.36224 8.00267C1.36224 4.3355 4.33507 1.36267 8.00224 1.36267C11.6693 1.36267 14.6422 4.3355 14.6422 8.00267C14.6422 11.6698 11.6693 14.6426 8.00224 14.6426C4.33507 14.6426 1.36224 11.6698 1.36224 8.00267ZM8.00224 2.376C4.89472 2.376 2.37557 4.89515 2.37557 8.00267C2.37557 11.1102 4.89472 13.6293 8.00224 13.6293C11.1098 13.6293 13.6289 11.1102 13.6289 8.00267C13.6289 4.89515 11.1098 2.376 8.00224 2.376Z" fill="#1C2024"/>
</svg>
