<svg width="16" height="16" viewBox="0 0 16 16" fill="none" xmlns="http://www.w3.org/2000/svg">
<rect width="16" height="16" fill="white" fill-opacity="0.01"/>
<path opacity="0.05" fill-rule="evenodd" clip-rule="evenodd" d="M7.23515 14.2677C9.32164 10.6163 9.32164 5.38361 7.23515 1.73226L7.69821 1.46765C9.8784 5.28296 9.8784 10.717 7.69821 14.5322L7.23515 14.2677Z" fill="#1C2024"/>
<path opacity="0.1" fill-rule="evenodd" clip-rule="evenodd" d="M7.76752 14.376C9.85525 10.6616 9.85525 5.3384 7.76752 1.62398L8.23244 1.36267C10.4114 5.23936 10.4114 10.7606 8.23244 14.6373L7.76752 14.376Z" fill="#1C2024"/>
<path opacity="0.15" fill-rule="evenodd" clip-rule="evenodd" d="M8.34238 14.4068C10.3734 10.6616 10.3748 5.34839 8.34658 1.6009L8.81562 1.34705C10.9296 5.25298 10.9281 10.7573 8.81122 14.6611L8.34238 14.4068Z" fill="#1C2024"/>
<path opacity="0.2" fill-rule="evenodd" clip-rule="evenodd" d="M8.97369 14.3243C10.8749 10.5903 10.8754 5.41375 8.9753 1.67898L9.45065 1.43713C11.4282 5.3239 11.4275 10.6803 9.44897 14.5663L8.97369 14.3243Z" fill="#1C2024"/>
<path opacity="0.25" fill-rule="evenodd" clip-rule="evenodd" d="M9.62604 14.182C11.3671 10.4937 11.3692 5.52227 9.63205 1.83098L10.1146 1.60388C11.9195 5.43911 11.9174 10.5774 10.1083 14.4097L9.62604 14.182Z" fill="#1C2024"/>
<path opacity="0.3" fill-rule="evenodd" clip-rule="evenodd" d="M10.3126 13.9365C11.8503 10.3421 11.8514 5.66621 10.3156 2.07031L10.8061 1.86084C12.399 5.59059 12.398 10.4179 10.803 14.1463L10.3126 13.9365Z" fill="#1C2024"/>
<path opacity="0.35" fill-rule="evenodd" clip-rule="evenodd" d="M11.0197 13.5953C12.3254 10.1554 12.3268 5.8571 11.0237 2.41541L11.5226 2.22656C12.8717 5.79003 12.8703 10.2229 11.5184 13.7846L11.0197 13.5953Z" fill="#1C2024"/>
<path opacity="0.4" fill-rule="evenodd" clip-rule="evenodd" d="M11.7499 13.1185C12.7934 9.91728 12.7944 6.09383 11.753 2.89139L12.2602 2.72644C13.3365 6.03617 13.3355 9.97524 12.257 13.2837L11.7499 13.1185Z" fill="#1C2024"/>
<path opacity="0.45" fill-rule="evenodd" clip-rule="evenodd" d="M12.5028 12.4458C13.2538 9.61388 13.2546 6.39669 12.5053 3.56389L13.0209 3.42749C13.7939 6.34976 13.7931 9.66108 13.0183 12.5825L12.5028 12.4458Z" fill="#1C2024"/>
<path opacity="0.5" fill-rule="evenodd" clip-rule="evenodd" d="M13.2728 11.4688C13.7092 9.21349 13.7091 6.78497 13.2724 4.52973L13.7961 4.42834C14.2457 6.75054 14.2458 9.24787 13.7964 11.5702L13.2728 11.4688Z" fill="#1C2024"/>
<path fill-rule="evenodd" clip-rule="evenodd" d="M7.9999 0.935547C4.09837 0.935547 0.935547 4.09837 0.935547 7.9999C0.935547 9.75875 1.57834 11.3675 2.64181 12.604L1.75623 13.4895C1.54796 13.6978 1.54796 14.0356 1.75623 14.2438C1.96451 14.4521 2.30221 14.4521 2.51049 14.2438L3.39609 13.3582C4.63255 14.4216 6.24117 15.0642 7.9999 15.0642C11.9014 15.0642 15.0642 11.9014 15.0642 7.9999C15.0642 6.24117 14.4215 4.63254 13.3582 3.39609L14.2438 2.51049C14.4521 2.30221 14.4521 1.96451 14.2438 1.75623C14.0355 1.54796 13.6978 1.54796 13.4896 1.75623L12.6039 2.64181C11.3675 1.57834 9.75875 0.935547 7.9999 0.935547ZM11.8851 3.36073C10.8339 2.47949 9.47887 1.94887 7.9999 1.94887C4.65802 1.94887 1.94889 4.65802 1.94889 7.9999C1.94889 9.47887 2.47949 10.834 3.36074 11.885L11.8851 3.36073ZM4.115 12.6393C5.1661 13.5204 6.52104 14.0509 7.9999 14.0509C11.3418 14.0509 14.0509 11.3418 14.0509 7.9999C14.0509 6.52104 13.5204 5.1661 12.6393 4.115L4.115 12.6393Z" fill="#1C2024"/>
</svg>
