<svg width="16" height="16" viewBox="0 0 16 16" fill="none" xmlns="http://www.w3.org/2000/svg">
<rect width="16" height="16" fill="white" fill-opacity="0.01"/>
<path fill-rule="evenodd" clip-rule="evenodd" d="M8.27128 1.94088C8.10392 1.84197 7.896 1.84197 7.72863 1.94088L1.86196 5.40754C1.69959 5.50349 1.59996 5.67808 1.59996 5.8667C1.59996 6.05532 1.69959 6.22991 1.86196 6.32586L7.72863 9.79252C7.896 9.89142 8.10392 9.89142 8.27128 9.79252L14.1379 6.32586C14.3004 6.22991 14.4 6.05532 14.4 5.8667C14.4 5.67808 14.3004 5.50349 14.1379 5.40754L8.27128 1.94088ZM7.99996 8.71388L3.18166 5.8667L7.99996 3.01952L12.8182 5.8667L7.99996 8.71388ZM2.40461 8.87421C2.15102 8.72436 1.82398 8.80846 1.67412 9.06205C1.52428 9.31563 1.60838 9.64268 1.86196 9.79252L7.72863 13.2592C7.896 13.3581 8.10392 13.3581 8.27128 13.2592L14.1379 9.79252C14.3916 9.64268 14.4756 9.31563 14.3258 9.06205C14.1759 8.80846 13.8489 8.72436 13.5953 8.87421L7.99996 12.1805L2.40461 8.87421Z" fill="#1C2024"/>
</svg>
