<svg width="16" height="16" viewBox="0 0 16 16" fill="none" xmlns="http://www.w3.org/2000/svg">
<rect width="16" height="16" fill="white" fill-opacity="0.01"/>
<path fill-rule="evenodd" clip-rule="evenodd" d="M2.0301 7.78323C2.0301 11.0304 4.38445 13.2424 7.02821 13.7002C7.33073 13.7525 7.53352 14.0402 7.48113 14.3428C7.42875 14.6453 7.14104 14.8481 6.83851 14.7957C3.73273 14.2579 0.918243 11.6402 0.918243 7.78323C0.918242 6.1441 1.66397 4.85596 2.53483 3.87603C3.15867 3.17407 3.87238 2.60412 4.44637 2.1675H2.70087C2.40632 2.1675 2.16753 1.92871 2.16753 1.63416C2.16753 1.33961 2.40632 1.10083 2.70087 1.10083H5.90087C6.19542 1.10083 6.4342 1.33961 6.4342 1.63416V4.83416C6.4342 5.12871 6.19542 5.3675 5.90087 5.3675C5.60632 5.3675 5.36753 5.12871 5.36753 4.83416V2.86556L5.36592 2.86677C4.75636 3.32652 4.01131 3.88841 3.36592 4.61462C2.60377 5.47223 2.0301 6.50832 2.0301 7.78323ZM13.8783 8.21677C13.8783 5.0039 11.5739 2.80492 8.96411 2.31498C8.66234 2.25833 8.46364 1.96778 8.52029 1.66601C8.57694 1.36425 8.86749 1.16556 9.16925 1.22221C12.2351 1.79778 14.9901 4.40113 14.9901 8.21677C14.9901 9.85588 14.2444 11.144 13.3736 12.124C12.7497 12.8259 12.036 13.3959 11.462 13.8325H13.2076C13.5021 13.8325 13.7409 14.0713 13.7409 14.3659C13.7409 14.6604 13.5021 14.8992 13.2076 14.8992H10.0075C9.71299 14.8992 9.4742 14.6604 9.4742 14.3659V11.1659C9.4742 10.8713 9.71299 10.6325 10.0075 10.6325C10.3021 10.6325 10.5409 10.8713 10.5409 11.1659V13.1344L10.5425 13.1331C11.1521 12.6734 11.8971 12.1116 12.5424 11.3854C13.3047 10.5278 13.8783 9.49168 13.8783 8.21677Z" fill="#1C2024"/>
</svg>
