<svg width="16" height="16" viewBox="0 0 16 16" fill="none" xmlns="http://www.w3.org/2000/svg">
<rect width="16" height="16" fill="white" fill-opacity="0.01"/>
<path fill-rule="evenodd" clip-rule="evenodd" d="M0.906647 1.86662C0.906647 1.33642 1.33645 0.906616 1.86665 0.906616H3.46665C3.99684 0.906616 4.42665 1.33642 4.42665 1.86662V2.18662H11.5733V1.86662C11.5733 1.33642 12.0031 0.906616 12.5333 0.906616H14.1333C14.6635 0.906616 15.0933 1.33642 15.0933 1.86662V3.46662C15.0933 3.99681 14.6635 4.42662 14.1333 4.42662H13.8133V11.5733H14.1333C14.6635 11.5733 15.0933 12.0031 15.0933 12.5333V14.1333C15.0933 14.6634 14.6635 15.0933 14.1333 15.0933H12.5333C12.0031 15.0933 11.5733 14.6634 11.5733 14.1333V13.8133H4.42665V14.1333C4.42665 14.6634 3.99684 15.0933 3.46665 15.0933H1.86665C1.33645 15.0933 0.906647 14.6634 0.906647 14.1333V12.5333C0.906647 12.0031 1.33645 11.5733 1.86665 11.5733H2.18665V4.42662H1.86665C1.33645 4.42662 0.906647 3.99681 0.906647 3.46662V1.86662ZM3.14665 4.42662V11.5733H3.46665C3.99684 11.5733 4.42665 12.0031 4.42665 12.5333V12.8533H11.5733V12.5333C11.5733 12.0031 12.0031 11.5733 12.5333 11.5733H12.8533V4.42662H12.5333C12.0031 4.42662 11.5733 3.99681 11.5733 3.46662V3.14662H4.42665V3.46662C4.42665 3.99681 3.99684 4.42662 3.46665 4.42662H3.14665ZM2.50665 1.86662H1.86665V2.50662V2.82662V3.46662H2.50665H2.82665H3.46665V2.82662V2.50662V1.86662H2.82665H2.50665ZM5.43998 6.39995C5.43998 5.86976 5.86979 5.43995 6.39998 5.43995H7.46665C7.99684 5.43995 8.42665 5.86976 8.42665 6.39995V7.46662C8.42665 7.50495 8.4244 7.54274 8.42004 7.5799C8.45719 7.57553 8.49499 7.57329 8.53332 7.57329H9.59998C10.1302 7.57329 10.56 8.00309 10.56 8.53329V9.59995C10.56 10.1301 10.1302 10.56 9.59998 10.56H8.53332C8.00312 10.56 7.57332 10.1301 7.57332 9.59995V8.53329C7.57332 8.49496 7.57556 8.45716 7.57993 8.42001C7.54277 8.42437 7.50498 8.42662 7.46665 8.42662H6.39998C5.86979 8.42662 5.43998 7.99681 5.43998 7.46662V6.39995ZM6.50665 6.39995H6.39998V6.50662V7.35995V7.46662H6.50665H7.35998H7.46665V7.35995V6.50662V6.39995H7.35998H6.50665ZM8.53332 8.53329H8.63998H9.49332H9.59998V8.63995V9.49329V9.59995H9.49332H8.63998H8.53332V9.49329V8.63995V8.53329ZM2.82665 12.5333H2.50665H1.86665V13.1733V13.4933V14.1333H2.50665H2.82665H3.46665V13.4933V13.1733V12.5333H2.82665ZM12.5333 1.86662H13.1733H13.4933H14.1333V2.50662V2.82662V3.46662H13.4933H13.1733H12.5333V2.82662V2.50662V1.86662ZM13.4933 12.5333H13.1733H12.5333V13.1733V13.4933V14.1333H13.1733H13.4933H14.1333V13.4933V13.1733V12.5333H13.4933Z" fill="#1C2024"/>
</svg>
