<svg width="16" height="16" viewBox="0 0 16 16" fill="none" xmlns="http://www.w3.org/2000/svg">
<rect width="16" height="16" fill="white" fill-opacity="0.01"/>
<path opacity="0.25" fill-rule="evenodd" clip-rule="evenodd" d="M0 0H3.2V3.2H0V0ZM6.4 3.2H3.2V6.4H0V9.6H3.2V12.8H0V16H3.2V12.8H6.4V16H9.6V12.8H12.8V16H16V12.8H12.8V9.6H16V6.4H12.8V3.2H16V0H12.8V3.2H9.6V0H6.4V3.2ZM6.4 6.4V3.2H9.6V6.4H6.4ZM6.4 9.6H3.2V6.4H6.4V9.6ZM9.6 9.6V6.4H12.8V9.6H9.6ZM9.6 9.6H6.4V12.8H9.6V9.6Z" fill="#1C2024"/>
</svg>
