<svg width="16" height="16" viewBox="0 0 16 16" fill="none" xmlns="http://www.w3.org/2000/svg">
<rect width="16" height="16" fill="white" fill-opacity="0.01"/>
<path fill-rule="evenodd" clip-rule="evenodd" d="M7.99984 0.935547C4.09831 0.935547 0.935486 4.09837 0.935486 7.9999C0.935486 9.75875 1.57828 11.3675 2.64176 12.604L1.7562 13.4895C1.54792 13.6978 1.54792 14.0356 1.7562 14.2438C1.96448 14.4521 2.30217 14.4521 2.51045 14.2438L3.39603 13.3582C4.6325 14.4216 6.24111 15.0642 7.99984 15.0642C11.9013 15.0642 15.0642 11.9014 15.0642 7.9999C15.0642 6.24117 14.4216 4.63255 13.3582 3.39609L14.2437 2.51047C14.4521 2.30219 14.4521 1.9645 14.2437 1.75622C14.0355 1.54795 13.6978 1.54795 13.4895 1.75622L12.604 2.64182C11.3675 1.57834 9.75869 0.935547 7.99984 0.935547ZM11.885 3.36074C10.8338 2.47949 9.47882 1.94887 7.99984 1.94887C4.65796 1.94887 1.94881 4.65802 1.94881 7.9999C1.94881 9.47888 2.47943 10.834 3.36068 11.885L11.885 3.36074ZM4.11495 12.6393C5.16605 13.5204 6.521 14.0509 7.99984 14.0509C11.3417 14.0509 14.0509 11.3418 14.0509 7.9999C14.0509 6.52106 13.5203 5.16611 12.6393 4.11501L4.11495 12.6393Z" fill="#1C2024"/>
</svg>
