<svg width="16" height="16" viewBox="0 0 16 16" fill="none" xmlns="http://www.w3.org/2000/svg">
<rect width="16" height="16" fill="white" fill-opacity="0.01"/>
<path fill-rule="evenodd" clip-rule="evenodd" d="M6.93333 10.6666C8.9952 10.6666 10.6667 8.99517 10.6667 6.9333C10.6667 4.87143 8.9952 3.19997 6.93333 3.19997C4.87146 3.19997 3.2 4.87143 3.2 6.9333C3.2 8.99517 4.87146 10.6666 6.93333 10.6666ZM6.93333 11.7333C8.06668 11.7333 9.10828 11.3406 9.92943 10.6836L12.9562 13.7105C13.1645 13.9187 13.5022 13.9187 13.7105 13.7105C13.9187 13.5022 13.9187 13.1644 13.7105 12.9561L10.6836 9.9294C11.3406 9.10824 11.7333 8.06665 11.7333 6.9333C11.7333 4.28234 9.5843 2.1333 6.93333 2.1333C4.28237 2.1333 2.13333 4.28234 2.13333 6.9333C2.13333 9.58427 4.28237 11.7333 6.93333 11.7333ZM5.06666 6.39997C4.77212 6.39997 4.53333 6.63875 4.53333 6.9333C4.53333 7.22785 4.77212 7.46663 5.06666 7.46663H8.8C9.09455 7.46663 9.33333 7.22785 9.33333 6.9333C9.33333 6.63875 9.09455 6.39997 8.8 6.39997H5.06666Z" fill="#1C2024"/>
</svg>
