<svg width="16" height="16" viewBox="0 0 16 16" fill="none" xmlns="http://www.w3.org/2000/svg">
<rect width="16" height="16" fill="white" fill-opacity="0.01"/>
<path fill-rule="evenodd" clip-rule="evenodd" d="M10.6667 6.9333C10.6667 8.99517 8.9952 10.6666 6.93333 10.6666C4.87147 10.6666 3.2 8.99517 3.2 6.9333C3.2 4.87143 4.87147 3.19997 6.93333 3.19997C8.9952 3.19997 10.6667 4.87143 10.6667 6.9333ZM9.92943 10.6836C9.10828 11.3406 8.06668 11.7333 6.93333 11.7333C4.28237 11.7333 2.13333 9.58427 2.13333 6.9333C2.13333 4.28234 4.28237 2.1333 6.93333 2.1333C9.5843 2.1333 11.7333 4.28234 11.7333 6.9333C11.7333 8.06665 11.3406 9.10824 10.6836 9.9294L13.7105 12.9561C13.9187 13.1644 13.9187 13.5022 13.7105 13.7105C13.5022 13.9187 13.1645 13.9187 12.9562 13.7105L9.92943 10.6836ZM4.53333 6.9333C4.53333 6.63875 4.77212 6.39997 5.06667 6.39997H6.4V5.06663C6.4 4.77208 6.63878 4.5333 6.93333 4.5333C7.22788 4.5333 7.46667 4.77208 7.46667 5.06663V6.39997H8.8C9.09455 6.39997 9.33333 6.63875 9.33333 6.9333C9.33333 7.22785 9.09455 7.46663 8.8 7.46663H7.46667V8.79997C7.46667 9.09452 7.22788 9.3333 6.93333 9.3333C6.63878 9.3333 6.4 9.09452 6.4 8.79997V7.46663H5.06667C4.77212 7.46663 4.53333 7.22785 4.53333 6.9333Z" fill="#1C2024"/>
</svg>
