<svg width="16" height="16" viewBox="0 0 16 16" fill="none" xmlns="http://www.w3.org/2000/svg">
<rect width="16" height="16" fill="white" fill-opacity="0.01"/>
<path fill-rule="evenodd" clip-rule="evenodd" d="M3.52964 1.06667C3.12561 1.06667 2.75626 1.29493 2.57558 1.65631L1.12299 4.56148C1.08596 4.63554 1.06668 4.7172 1.06668 4.8V13.8667C1.06668 14.4558 1.54425 14.9333 2.13335 14.9333H13.8667C14.4558 14.9333 14.9333 14.4558 14.9333 13.8667V4.8C14.9333 4.7172 14.914 4.63554 14.877 4.56148L13.4244 1.65633C13.2437 1.29496 12.8745 1.0667 12.4704 1.0667L8.00001 1.06668L3.52964 1.06667ZM3.52964 2.13333L7.46668 2.13334V4.26667H2.46297L3.52964 2.13333ZM8.53335 4.26667V2.13335L12.4704 2.13336L13.5371 4.26667H8.53335ZM8.00001 5.33333H13.8667V13.8667H2.13335V5.33333H8.00001ZM5.86668 7.46667C5.57213 7.46667 5.33335 7.70545 5.33335 8C5.33335 8.29455 5.57213 8.53333 5.86668 8.53333H10.1333C10.4279 8.53333 10.6667 8.29455 10.6667 8C10.6667 7.70545 10.4279 7.46667 10.1333 7.46667H5.86668Z" fill="#1C2024"/>
</svg>
