<svg width="16" height="16" viewBox="0 0 16 16" fill="none" xmlns="http://www.w3.org/2000/svg">
<rect width="16" height="16" fill="white" fill-opacity="0.01"/>
<path fill-rule="evenodd" clip-rule="evenodd" d="M3.2 2.66666C3.2 2.37212 3.43878 2.13333 3.73333 2.13333H12.2667C12.5612 2.13333 12.8 2.37212 12.8 2.66666V14.4C12.8 14.5939 12.6948 14.7725 12.5252 14.8665C12.3556 14.9604 12.1484 14.955 11.984 14.8523L8 12.3622L4.016 14.8523C3.8516 14.955 3.64436 14.9604 3.4748 14.8665C3.30522 14.7725 3.2 14.5939 3.2 14.4V2.66666ZM4.26667 3.2V13.4378L7.43467 11.4577C7.78056 11.2416 8.21945 11.2416 8.56533 11.4577L11.7333 13.4378V3.2H4.26667Z" fill="#1C2024"/>
</svg>
