<svg width="16" height="16" viewBox="0 0 16 16" fill="none" xmlns="http://www.w3.org/2000/svg">
<rect width="16" height="16" fill="white" fill-opacity="0.01"/>
<path fill-rule="evenodd" clip-rule="evenodd" d="M2.13333 3.2C1.54423 3.2 1.06667 3.67757 1.06667 4.26666V11.7333C1.06667 12.3225 1.54423 12.8 2.13333 12.8H13.8667C14.4558 12.8 14.9333 12.3225 14.9333 11.7333V4.26666C14.9333 3.67757 14.4558 3.2 13.8667 3.2H2.13333ZM0 4.26666C0 3.08846 0.955127 2.13333 2.13333 2.13333H13.8667C15.0449 2.13333 16 3.08846 16 4.26666V11.7333C16 12.9116 15.0449 13.8667 13.8667 13.8667H2.13333C0.955127 13.8667 0 12.9116 0 11.7333V4.26666ZM2.13333 4.53333C2.13333 4.38606 2.25273 4.26666 2.4 4.26666H5.06667C5.21394 4.26666 5.33333 4.38606 5.33333 4.53333V6.13817C5.33333 6.28545 5.21394 6.40484 5.06667 6.40484H2.4C2.25273 6.40484 2.13333 6.28545 2.13333 6.13817V4.53333ZM12.9077 8.08982C12.9077 9.62211 11.6656 10.8643 10.1333 10.8643C8.60102 10.8643 7.35886 9.62211 7.35886 8.08982C7.35886 6.55753 8.60102 5.31536 10.1333 5.31536C11.6656 5.31536 12.9077 6.55753 12.9077 8.08982ZM13.9744 8.08982C13.9744 10.2112 12.2547 11.931 10.1333 11.931C8.01192 11.931 6.29219 10.2112 6.29219 8.08982C6.29219 5.96842 8.01192 4.24869 10.1333 4.24869C12.2547 4.24869 13.9744 5.96842 13.9744 8.08982Z" fill="#1C2024"/>
</svg>
