<svg width="16" height="16" viewBox="0 0 16 16" fill="none" xmlns="http://www.w3.org/2000/svg">
<rect width="16" height="16" fill="white" fill-opacity="0.01"/>
<path fill-rule="evenodd" clip-rule="evenodd" d="M2.66668 3.2C2.37213 3.2 2.13335 3.43878 2.13335 3.73333V10.1333C2.13335 10.4279 2.37213 10.6667 2.66668 10.6667H13.3333C13.6279 10.6667 13.8667 10.4279 13.8667 10.1333V3.73333C13.8667 3.43878 13.6279 3.2 13.3333 3.2H2.66668ZM1.06668 10.1333C1.06668 10.83 1.51191 11.4226 2.13335 11.6422V12.2667C2.13335 13.1503 2.84969 13.8667 3.73335 13.8667H12.2667C13.1503 13.8667 13.8667 13.1503 13.8667 12.2667V11.6422C14.4881 11.4226 14.9333 10.83 14.9333 10.1333V3.73333C14.9333 2.84967 14.217 2.13333 13.3333 2.13333H2.66668C1.78302 2.13333 1.06668 2.84967 1.06668 3.73333V10.1333ZM12.8 12.2667V11.7333H3.20001V12.2667C3.20001 12.5612 3.4388 12.8 3.73335 12.8H12.2667C12.5612 12.8 12.8 12.5612 12.8 12.2667ZM5.86668 6.4C5.57213 6.4 5.33335 6.63878 5.33335 6.93333C5.33335 7.22788 5.57213 7.46666 5.86668 7.46666H10.1333C10.4279 7.46666 10.6667 7.22788 10.6667 6.93333C10.6667 6.63878 10.4279 6.4 10.1333 6.4H5.86668Z" fill="#1C2024"/>
</svg>
