<svg width="16" height="16" viewBox="0 0 16 16" fill="none" xmlns="http://www.w3.org/2000/svg">
<rect width="16" height="16" fill="white" fill-opacity="0.01"/>
<path fill-rule="evenodd" clip-rule="evenodd" d="M2.13333 3.73333C2.13333 3.43878 2.37212 3.2 2.66667 3.2H13.3333C13.6278 3.2 13.8667 3.43878 13.8667 3.73333V10.1333C13.8667 10.4279 13.6278 10.6667 13.3333 10.6667H2.66667C2.37212 10.6667 2.13333 10.4279 2.13333 10.1333V3.73333ZM2.13333 11.6422C1.51189 11.4226 1.06667 10.83 1.06667 10.1333V3.73333C1.06667 2.84967 1.78301 2.13333 2.66667 2.13333H13.3333C14.217 2.13333 14.9333 2.84967 14.9333 3.73333V10.1333C14.9333 10.83 14.4881 11.4226 13.8667 11.6422V12.2667C13.8667 13.1503 13.1503 13.8667 12.2667 13.8667H3.73333C2.84967 13.8667 2.13333 13.1503 2.13333 12.2667V11.6422ZM12.8 11.7333V12.2667C12.8 12.5612 12.5612 12.8 12.2667 12.8H3.73333C3.43878 12.8 3.2 12.5612 3.2 12.2667V11.7333H12.8Z" fill="#1C2024"/>
</svg>
