<svg width="16" height="16" viewBox="0 0 16 16" fill="none" xmlns="http://www.w3.org/2000/svg">
<rect width="16" height="16" fill="white" fill-opacity="0.01"/>
<path fill-rule="evenodd" clip-rule="evenodd" d="M13.3333 3.2L2.66667 3.20002C1.78301 3.20002 1.06667 3.91637 1.06667 4.80002V10.1334C1.06667 11.0171 1.78301 11.7333 2.66667 11.7333H8.00003C8.14148 11.7333 8.27714 11.7895 8.37715 11.8896L10.6667 14.1791V12.2667C10.6667 11.9722 10.9055 11.7333 11.2 11.7333H13.3333C14.217 11.7333 14.9333 11.0171 14.9333 10.1334V4.8C14.9333 3.91634 14.217 3.2 13.3333 3.2ZM2.66666 2.13335L13.3333 2.13333C14.8061 2.13333 16 3.32724 16 4.8V10.1334C16 11.6061 14.8061 12.8 13.3333 12.8H11.7333V15.4667C11.7333 15.6823 11.6034 15.8768 11.4041 15.9594C11.2048 16.0419 10.9754 15.9963 10.8228 15.8438L7.77912 12.8H2.66667C1.19391 12.8 0 11.6061 0 10.1334V4.80002C0 3.32726 1.1939 2.13336 2.66666 2.13335Z" fill="#1C2024"/>
</svg>
