<svg width="16" height="16" viewBox="0 0 16 16" fill="none" xmlns="http://www.w3.org/2000/svg">
<rect width="16" height="16" fill="white" fill-opacity="0.01"/>
<path fill-rule="evenodd" clip-rule="evenodd" d="M5.33333 2.13333V1.06667H10.6667V2.13333H5.33333ZM5.06666 0C4.62484 0 4.26666 0.358172 4.26666 0.8V1.06667H3.73333C2.84967 1.06667 2.13333 1.78301 2.13333 2.66667V13.3333C2.13333 14.217 2.84967 14.9333 3.73333 14.9333H7.46666V13.8667H3.73333C3.43878 13.8667 3.2 13.6278 3.2 13.3333V2.66667C3.2 2.37212 3.43878 2.13333 3.73333 2.13333H4.26666V2.4C4.26666 2.84182 4.62484 3.2 5.06666 3.2H10.9333C11.3751 3.2 11.7333 2.84182 11.7333 2.4V2.13333H12.2667C12.5612 2.13333 12.8 2.37212 12.8 2.66667V7.46667H13.8667V2.66667C13.8667 1.78301 13.1503 1.06667 12.2667 1.06667H11.7333V0.8C11.7333 0.358172 11.3751 0 10.9333 0H5.06666ZM9.6 9.06667C9.6 9.36122 9.36121 9.6 9.06667 9.6C8.77212 9.6 8.53333 9.36122 8.53333 9.06667C8.53333 8.77212 8.77212 8.53333 9.06667 8.53333C9.36121 8.53333 9.6 8.77212 9.6 9.06667ZM11.2 9.6C11.4945 9.6 11.7333 9.36122 11.7333 9.06667C11.7333 8.77212 11.4945 8.53333 11.2 8.53333C10.9055 8.53333 10.6667 8.77212 10.6667 9.06667C10.6667 9.36122 10.9055 9.6 11.2 9.6ZM13.8667 9.06667C13.8667 9.36122 13.6278 9.6 13.3333 9.6C13.0388 9.6 12.8 9.36122 12.8 9.06667C12.8 8.77212 13.0388 8.53333 13.3333 8.53333C13.6278 8.53333 13.8667 8.77212 13.8667 9.06667ZM15.4667 9.6C15.7612 9.6 16 9.36122 16 9.06667C16 8.77212 15.7612 8.53333 15.4667 8.53333C15.1722 8.53333 14.9333 8.77212 14.9333 9.06667C14.9333 9.36122 15.1722 9.6 15.4667 9.6ZM16 11.2C16 11.4945 15.7612 11.7333 15.4667 11.7333C15.1722 11.7333 14.9333 11.4945 14.9333 11.2C14.9333 10.9055 15.1722 10.6667 15.4667 10.6667C15.7612 10.6667 16 10.9055 16 11.2ZM15.4667 13.8667C15.7612 13.8667 16 13.6278 16 13.3333C16 13.0388 15.7612 12.8 15.4667 12.8C15.1722 12.8 14.9333 13.0388 14.9333 13.3333C14.9333 13.6278 15.1722 13.8667 15.4667 13.8667ZM15.4667 16C15.7612 16 16 15.7612 16 15.4667C16 15.1722 15.7612 14.9333 15.4667 14.9333C15.1722 14.9333 14.9333 15.1722 14.9333 15.4667C14.9333 15.7612 15.1722 16 15.4667 16ZM9.06667 11.7333C9.36121 11.7333 9.6 11.4945 9.6 11.2C9.6 10.9055 9.36121 10.6667 9.06667 10.6667C8.77212 10.6667 8.53333 10.9055 8.53333 11.2C8.53333 11.4945 8.77212 11.7333 9.06667 11.7333ZM9.6 13.3333C9.6 13.6278 9.36121 13.8667 9.06667 13.8667C8.77212 13.8667 8.53333 13.6278 8.53333 13.3333C8.53333 13.0388 8.77212 12.8 9.06667 12.8C9.36121 12.8 9.6 13.0388 9.6 13.3333ZM9.06667 16C9.36121 16 9.6 15.7612 9.6 15.4667C9.6 15.1722 9.36121 14.9333 9.06667 14.9333C8.77212 14.9333 8.53333 15.1722 8.53333 15.4667C8.53333 15.7612 8.77212 16 9.06667 16ZM11.7333 15.4667C11.7333 15.7612 11.4945 16 11.2 16C10.9055 16 10.6667 15.7612 10.6667 15.4667C10.6667 15.1722 10.9055 14.9333 11.2 14.9333C11.4945 14.9333 11.7333 15.1722 11.7333 15.4667ZM13.3333 16C13.6278 16 13.8667 15.7612 13.8667 15.4667C13.8667 15.1722 13.6278 14.9333 13.3333 14.9333C13.0388 14.9333 12.8 15.1722 12.8 15.4667C12.8 15.7612 13.0388 16 13.3333 16Z" fill="#1C2024"/>
</svg>
