<svg width="16" height="16" viewBox="0 0 16 16" fill="none" xmlns="http://www.w3.org/2000/svg">
<rect width="16" height="16" fill="white" fill-opacity="0.01"/>
<path fill-rule="evenodd" clip-rule="evenodd" d="M5.33333 2.13333V1.06667H10.6667V2.13333H5.33333ZM5.06666 0C4.62484 0 4.26666 0.358172 4.26666 0.8V1.06667H3.73333C2.84967 1.06667 2.13333 1.78301 2.13333 2.66667V13.3333C2.13333 14.217 2.84967 14.9333 3.73333 14.9333H12.2667C13.1503 14.9333 13.8667 14.217 13.8667 13.3333V2.66667C13.8667 1.78301 13.1503 1.06667 12.2667 1.06667H11.7333V0.8C11.7333 0.358172 11.3751 0 10.9333 0H5.06666ZM11.7333 2.13333V2.4C11.7333 2.84182 11.3751 3.2 10.9333 3.2H5.06666C4.62484 3.2 4.26666 2.84182 4.26666 2.4V2.13333H3.73333C3.43878 2.13333 3.2 2.37212 3.2 2.66667V13.3333C3.2 13.6278 3.43878 13.8667 3.73333 13.8667H12.2667C12.5612 13.8667 12.8 13.6278 12.8 13.3333V2.66667C12.8 2.37212 12.5612 2.13333 12.2667 2.13333H11.7333Z" fill="#1C2024"/>
</svg>
