<svg width="16" height="16" viewBox="0 0 16 16" fill="none" xmlns="http://www.w3.org/2000/svg">
<rect width="16" height="16" fill="white" fill-opacity="0.01"/>
<path fill-rule="evenodd" clip-rule="evenodd" d="M14.0267 7.99998C14.0267 4.97556 11.6695 1.97332 8.00002 1.97332C5.03645 1.97332 3.57172 4.16683 2.94757 5.33334H4.8C5.09455 5.33334 5.33333 5.57212 5.33333 5.86667C5.33333 6.16122 5.09455 6.40001 4.8 6.40001H1.6C1.30545 6.40001 1.06667 6.16122 1.06667 5.86667V2.66667C1.06667 2.37212 1.30545 2.13334 1.6 2.13334C1.89455 2.13334 2.13333 2.37212 2.13333 2.66667V4.60073C2.88483 3.27602 4.623 0.906647 8.00002 0.906647C12.3337 0.906647 15.0933 4.4644 15.0933 7.99998C15.0933 11.5356 12.3337 15.0933 8.00002 15.0933C5.92659 15.0933 4.2003 14.2729 2.97118 13.0223C2.31309 12.3526 1.79912 11.5616 1.4487 10.7101C1.3366 10.4377 1.46654 10.126 1.73892 10.0139C2.01131 9.90183 2.323 10.0318 2.43509 10.3042C2.73466 11.032 3.17328 11.7061 3.73195 12.2746C4.76855 13.3294 6.22396 14.0267 8.00002 14.0267C11.6695 14.0267 14.0267 11.0244 14.0267 7.99998ZM8 4.26668C8.29455 4.26668 8.53333 4.50547 8.53333 4.80002V7.77911L10.5105 9.75623C10.7187 9.96451 10.7187 10.3022 10.5105 10.5105C10.3022 10.7187 9.96449 10.7187 9.75621 10.5105L7.62288 8.37715C7.52286 8.27713 7.46667 8.14147 7.46667 8.00002V4.80002C7.46667 4.50547 7.70545 4.26668 8 4.26668Z" fill="#1C2024"/>
</svg>
