<svg width="16" height="16" viewBox="0 0 16 16" fill="none" xmlns="http://www.w3.org/2000/svg">
<rect width="16" height="16" fill="white" fill-opacity="0.01"/>
<path fill-rule="evenodd" clip-rule="evenodd" d="M14.0267 7.99998C14.0267 4.97556 11.6696 1.97332 8.00004 1.97332C5.03649 1.97332 3.57176 4.16679 2.9476 5.33331H4.80001C5.09456 5.33331 5.33335 5.57209 5.33335 5.86664C5.33335 6.16119 5.09456 6.39997 4.80001 6.39997H1.60001C1.30546 6.39997 1.06668 6.16119 1.06668 5.86664V2.66664C1.06668 2.37209 1.30546 2.13331 1.60001 2.13331C1.89456 2.13331 2.13335 2.37209 2.13335 2.66664V4.60073C2.88485 3.27602 4.62301 0.906647 8.00004 0.906647C12.3337 0.906647 15.0933 4.4644 15.0933 7.99998C15.0933 11.5356 12.3337 15.0933 8.00004 15.0933C5.92661 15.0933 4.20031 14.2729 2.97119 13.0223C2.3131 12.3526 1.79914 11.5616 1.44872 10.7101C1.33661 10.4377 1.46655 10.126 1.73894 10.0139C2.01132 9.90183 2.32301 10.0318 2.43511 10.3042C2.73467 11.032 3.17329 11.7061 3.73196 12.2746C4.76857 13.3294 6.22397 14.0267 8.00004 14.0267C11.6696 14.0267 14.0267 11.0244 14.0267 7.99998ZM7.46668 10.6667V5.33335H8.53335V10.6667H7.46668Z" fill="#1C2024"/>
</svg>
