<svg width="16" height="16" viewBox="0 0 16 16" fill="none" xmlns="http://www.w3.org/2000/svg">
<rect width="16" height="16" fill="white" fill-opacity="0.01"/>
<path fill-rule="evenodd" clip-rule="evenodd" d="M0.935547 8.00221C0.935547 4.0994 4.0994 0.935547 8.00222 0.935547C11.905 0.935547 15.0689 4.0994 15.0689 8.00221C15.0689 11.905 11.905 15.0689 8.00222 15.0689C4.0994 15.0689 0.935547 11.905 0.935547 8.00221ZM1.97225 7.4667C2.22784 4.55082 4.55082 2.22784 7.4667 1.97225V4.80003C7.4667 5.09458 7.70547 5.33337 8.00003 5.33337C8.29458 5.33337 8.53337 5.09458 8.53337 4.80003V1.97186C11.4513 2.22553 13.7764 4.54936 14.0322 7.4667H11.2C10.9055 7.4667 10.6667 7.70547 10.6667 8.00003C10.6667 8.29458 10.9055 8.53337 11.2 8.53337H14.0325C13.7788 11.4527 11.4527 13.7788 8.53337 14.0325V11.2C8.53337 10.9055 8.29458 10.6667 8.00003 10.6667C7.70547 10.6667 7.4667 10.9055 7.4667 11.2V14.0322C4.54936 13.7764 2.22553 11.4513 1.97186 8.53337H4.80003C5.09458 8.53337 5.33337 8.29458 5.33337 8.00003C5.33337 7.70547 5.09458 7.4667 4.80003 7.4667H1.97225Z" fill="#1C2024"/>
</svg>
