<svg width="16" height="16" viewBox="0 0 16 16" fill="none" xmlns="http://www.w3.org/2000/svg">
<rect width="16" height="16" fill="white" fill-opacity="0.01"/>
<path fill-rule="evenodd" clip-rule="evenodd" d="M4.91639 0.0676553C4.68353 0.00943853 4.44345 0.13219 4.35431 0.355056L3.36404 2.83072L0.888376 3.82099C0.749729 3.87645 0.64479 3.99328 0.604471 4.13705C0.564152 4.28084 0.593046 4.4352 0.682644 4.55465L2.14556 6.50521L1.13431 10.5502C1.07672 10.7806 1.1962 11.0184 1.41536 11.1098L4.48121 12.3872L6.00059 14.6662C6.11638 14.8399 6.33113 14.9188 6.53185 14.8615L10.2652 13.7949C10.2719 13.793 10.2785 13.7909 10.2851 13.7887L13.4851 12.722C13.6451 12.6687 13.7653 12.5354 13.8019 12.3708L14.8686 7.57078C14.9094 7.38673 14.8388 7.19578 14.688 7.08265L12.7467 5.62665V3.19999C12.7467 3.01818 12.6439 2.85198 12.4813 2.77066L9.28131 1.17066C9.24998 1.15501 9.21703 1.14281 9.18306 1.13432L4.91639 0.0676553ZM12.1944 6.41251L13.6264 7.48648L10.8927 9.76457C10.8241 9.82172 10.7728 9.89685 10.7446 9.98153L9.87073 12.6032L8.25438 11.593C8.02958 11.4525 7.73344 11.5207 7.59294 11.7456C7.45243 11.9703 7.52078 12.2666 7.74558 12.407L8.96362 13.1683L6.60501 13.8422L5.19936 11.7338C5.14679 11.6549 5.07207 11.5934 4.98459 11.5569L2.16581 10.3824L3.04141 6.87999H5.33331C5.59841 6.87999 5.81331 6.66509 5.81331 6.39999C5.81331 6.13489 5.59841 5.91999 5.33331 5.91999H2.90664L1.82644 4.47972L3.74833 3.71096L6.78152 4.72202C6.97231 4.78562 7.1825 4.72354 7.30812 4.56651L9.19906 2.20286L11.7867 3.49665V5.54168L9.42171 6.48766C9.29061 6.54009 9.18926 6.64759 9.1446 6.78153L8.61127 8.38153C8.52744 8.63302 8.66336 8.90486 8.91486 8.98869C9.16634 9.07252 9.43818 8.93661 9.52201 8.68511L9.98495 7.29631L12.1944 6.41251ZM8.22454 1.88424L6.76758 3.70545L4.36804 2.9056L5.09003 1.10062L8.22454 1.88424ZM10.8923 12.5744L12.9237 11.8973L13.6261 8.73636L11.6121 10.4147L10.8923 12.5744Z" fill="#1C2024"/>
</svg>
