<svg width="16" height="16" viewBox="0 0 16 16" fill="none" xmlns="http://www.w3.org/2000/svg">
<rect width="16" height="16" fill="white" fill-opacity="0.01"/>
<path fill-rule="evenodd" clip-rule="evenodd" d="M7.77446 0.850023C7.91742 0.783309 8.08258 0.783309 8.22554 0.850023L14.6255 3.83669C14.8133 3.92432 14.9333 4.11278 14.9333 4.31999V11.68C14.9333 11.8872 14.8133 12.0756 14.6255 12.1633L8.22554 15.15C8.08258 15.2166 7.91742 15.2166 7.77446 15.15L1.37446 12.1633C1.18669 12.0756 1.06667 11.8872 1.06667 11.68V4.31999C1.06667 4.11278 1.18669 3.92432 1.37446 3.83669L7.77446 0.850023ZM2.13333 5.12615L7.46667 7.39282V13.8292L2.13333 11.3404V5.12615ZM8.53333 13.8292L13.8667 11.3404V5.12615L8.53333 7.39282V13.8292ZM8 6.46049L13.09 4.29722L8 1.92187L2.90996 4.29722L8 6.46049Z" fill="#1C2024"/>
</svg>
