<svg width="16" height="16" viewBox="0 0 16 16" fill="none" xmlns="http://www.w3.org/2000/svg">
<rect width="16" height="16" fill="white" fill-opacity="0.01"/>
<path fill-rule="evenodd" clip-rule="evenodd" d="M1.06667 3.46666C1.06667 3.31939 1.18606 3.2 1.33333 3.2H14.6667C14.814 3.2 14.9333 3.31939 14.9333 3.46666V11.4667C14.9333 11.614 14.814 11.7333 14.6667 11.7333H1.33333C1.18606 11.7333 1.06667 11.614 1.06667 11.4667V3.46666ZM1.33333 2.13333C0.596953 2.13333 0 2.73028 0 3.46666V11.4667C0 12.2031 0.596954 12.8 1.33333 12.8H5.41164L5.1519 14.1852C5.08421 14.5462 5.3612 14.88 5.72852 14.88H10.2715C10.6388 14.88 10.9158 14.5462 10.8481 14.1852L10.5884 12.8H14.6667C15.4031 12.8 16 12.2031 16 11.4667V3.46666C16 2.73028 15.4031 2.13333 14.6667 2.13333H1.33333ZM9.61164 12.8H6.38836L6.17837 13.92H9.82163L9.61164 12.8Z" fill="#1C2024"/>
</svg>
