<svg width="16" height="16" viewBox="0 0 16 16" fill="none" xmlns="http://www.w3.org/2000/svg">
<rect width="16" height="16" fill="white" fill-opacity="0.01"/>
<path fill-rule="evenodd" clip-rule="evenodd" d="M7.9999 0.935547C4.09837 0.935547 0.935547 4.09837 0.935547 7.9999C0.935547 11.9014 4.09837 15.0642 7.9999 15.0642C11.9014 15.0642 15.0642 11.9014 15.0642 7.9999C15.0642 4.09837 11.9014 0.935547 7.9999 0.935547ZM1.94889 7.9999C1.94889 4.65802 4.65802 1.94887 7.9999 1.94887C11.3418 1.94887 14.0509 4.65802 14.0509 7.9999C14.0509 11.3418 11.3418 14.0509 7.9999 14.0509C4.65802 14.0509 1.94889 11.3418 1.94889 7.9999ZM8.93106 8.00006C8.93106 8.51409 8.51436 8.93081 8.00032 8.93081C7.48628 8.93081 7.06958 8.51409 7.06958 8.00006C7.06958 7.48603 7.48628 7.06931 8.00032 7.06931C8.51436 7.06931 8.93106 7.48603 8.93106 8.00006ZM9.94439 8.00006C9.94439 9.07375 9.07401 9.94414 8.00032 9.94414C6.92663 9.94414 6.05625 9.07375 6.05625 8.00006C6.05625 6.92638 6.92663 6.05598 8.00032 6.05598C9.07401 6.05598 9.94439 6.92638 9.94439 8.00006Z" fill="#1C2024"/>
</svg>
