<svg width="16" height="16" viewBox="0 0 16 16" fill="none" xmlns="http://www.w3.org/2000/svg">
<rect width="16" height="16" fill="white" fill-opacity="0.01"/>
<path fill-rule="evenodd" clip-rule="evenodd" d="M11.0171 1.21181C10.8087 1.00353 10.471 1.00353 10.2628 1.21181C10.0545 1.42009 10.0545 1.75779 10.2628 1.96606L10.9593 2.66261L5.78732 6.54159L4.60591 5.36017C4.39763 5.1519 4.05994 5.1519 3.85167 5.36017C3.64339 5.56845 3.64339 5.90614 3.85167 6.11442L5.36016 7.62292L6.49153 8.75429L3.00313 12.2427C2.79485 12.451 2.79485 12.7887 3.00313 12.9969C3.21142 13.2052 3.5491 13.2052 3.75738 12.9969L7.24578 9.50854L8.37715 10.6399L9.88564 12.1484C10.0939 12.3567 10.4316 12.3567 10.6399 12.1484C10.8482 11.9402 10.8482 11.6025 10.6399 11.3941L9.45847 10.2127L13.3375 5.04075L14.034 5.73729C14.2423 5.94557 14.5799 5.94557 14.7883 5.73729C14.9966 5.52902 14.9966 5.19133 14.7883 4.98304L13.6568 3.85167L12.1484 2.34318L11.0171 1.21181ZM6.54923 7.30349L11.7213 3.42451L12.5756 4.27885L8.69657 9.45083L6.54923 7.30349Z" fill="#1C2024"/>
</svg>
