<svg width="16" height="16" viewBox="0 0 16 16" fill="none" xmlns="http://www.w3.org/2000/svg">
<rect width="16" height="16" fill="white" fill-opacity="0.01"/>
<path fill-rule="evenodd" clip-rule="evenodd" d="M10.2627 1.21181C10.471 1.00353 10.8086 1.00353 11.017 1.21181L14.7882 4.98304C14.9965 5.19133 14.9965 5.52902 14.7882 5.73729C14.5799 5.94557 14.2422 5.94557 14.0339 5.73729L13.3374 5.04075L9.45842 10.2127L10.6398 11.3941C10.8481 11.6025 10.8481 11.9402 10.6398 12.1484C10.4316 12.3567 10.0939 12.3567 9.88559 12.1484L7.24573 9.50854L3.75734 12.9969C3.54906 13.2052 3.21136 13.2052 3.00309 12.9969C2.79481 12.7887 2.79481 12.451 3.00309 12.2427L6.49148 8.75429L3.85162 6.11442C3.64334 5.90614 3.64333 5.56845 3.85162 5.36017C4.0599 5.1519 4.39758 5.1519 4.60586 5.36017L5.78728 6.54159L10.9593 2.66261L10.2627 1.96606C10.0544 1.75779 10.0544 1.42009 10.2627 1.21181Z" fill="#1C2024"/>
<path fill-rule="evenodd" clip-rule="evenodd" d="M10.2627 1.21181C10.471 1.00353 10.8086 1.00353 11.017 1.21181L14.7882 4.98304C14.9965 5.19133 14.9965 5.52902 14.7882 5.73729C14.5799 5.94557 14.2422 5.94557 14.0339 5.73729L13.3374 5.04075L9.45842 10.2127L10.6398 11.3941C10.8481 11.6025 10.8481 11.9402 10.6398 12.1484C10.4316 12.3567 10.0939 12.3567 9.88559 12.1484L7.24573 9.50854L3.75734 12.9969C3.54906 13.2052 3.21136 13.2052 3.00309 12.9969C2.79481 12.7887 2.79481 12.451 3.00309 12.2427L6.49148 8.75429L3.85162 6.11442C3.64334 5.90614 3.64333 5.56845 3.85162 5.36017C4.0599 5.1519 4.39758 5.1519 4.60586 5.36017L5.78728 6.54159L10.9593 2.66261L10.2627 1.96606C10.0544 1.75779 10.0544 1.42009 10.2627 1.21181Z" fill="#1C2024"/>
</svg>
