<svg width="16" height="16" viewBox="0 0 16 16" fill="none" xmlns="http://www.w3.org/2000/svg">
<rect width="16" height="16" fill="white" fill-opacity="0.01"/>
<path fill-rule="evenodd" clip-rule="evenodd" d="M1.06667 2.13333C0.477563 2.13333 0 2.6109 0 3.2V12.8C0 13.3891 0.477563 13.8667 1.06667 13.8667H14.9333C15.5225 13.8667 16 13.3891 16 12.8V3.2C16 2.6109 15.5225 2.13333 14.9333 2.13333H1.06667ZM1.06667 3.2H14.9333V4.1866C14.8452 4.18652 14.7561 4.21068 14.6762 4.26138L8 8.49816L1.32386 4.26138C1.24396 4.21068 1.15477 4.18652 1.06667 4.1866V3.2ZM1.06667 5.23517V12.8H14.9333V5.23517L8.25719 9.47194C8.1002 9.57157 7.8998 9.57157 7.74281 9.47194L1.06667 5.23517Z" fill="#1C2024"/>
</svg>
