<svg width="16" height="16" viewBox="0 0 16 16" fill="none" xmlns="http://www.w3.org/2000/svg">
<rect width="16" height="16" fill="white" fill-opacity="0.01"/>
<path fill-rule="evenodd" clip-rule="evenodd" d="M8.47702 0.175569C8.17674 0.0254206 7.82326 0.0254209 7.52298 0.175569L0.589638 3.64223C0.228269 3.82292 0 4.19227 0 4.59629V12.8C0 13.3891 0.477563 13.8667 1.06667 13.8667H14.9333C15.5225 13.8667 16 13.3891 16 12.8V4.59629C16 4.19227 15.7717 3.82292 15.4103 3.64223L8.47702 0.175569ZM14.4735 4.36639L8 1.12962L1.52645 4.36639L8 7.77745L14.4735 4.36639ZM1.06667 5.20924V12.8H14.9333V5.20924L8.22375 8.74467C8.08371 8.81847 7.91629 8.81847 7.77625 8.74467L1.06667 5.20924Z" fill="#1C2024"/>
</svg>
