<svg width="16" height="16" viewBox="0 0 16 16" fill="none" xmlns="http://www.w3.org/2000/svg">
<rect width="16" height="16" fill="white" fill-opacity="0.01"/>
<path fill-rule="evenodd" clip-rule="evenodd" d="M8.91789 0.777822C9.12617 0.569543 9.46385 0.569543 9.67214 0.777822L15.2222 6.32784C15.4304 6.53612 15.4304 6.87381 15.2222 7.08209L9.55214 12.7521L7.83637 14.4678C7.21153 15.0927 6.19846 15.0927 5.57363 14.4678L1.53211 10.4263C0.907267 9.8015 0.907267 8.78845 1.53211 8.1636L3.24787 6.44784L8.91789 0.777822ZM9.29501 1.90919L4.37924 6.82496L9.17501 11.6207L14.0908 6.70497L9.29501 1.90919ZM8.42077 12.3749L3.62499 7.57921L2.28636 8.91785C2.07807 9.12613 2.07807 9.46382 2.28636 9.67209L6.32787 13.7136C6.53616 13.9219 6.87385 13.9219 7.08212 13.7136L8.42077 12.3749Z" fill="#1C2024"/>
</svg>
