<svg width="16" height="16" viewBox="0 0 16 16" fill="none" xmlns="http://www.w3.org/2000/svg">
<rect width="16" height="16" fill="white" fill-opacity="0.01"/>
<path fill-rule="evenodd" clip-rule="evenodd" d="M7.9999 0.935364C4.09837 0.935364 0.935547 4.09819 0.935547 7.99971C0.935547 11.9012 4.09837 15.0641 7.9999 15.0641C11.9014 15.0641 15.0642 11.9012 15.0642 7.99971C15.0642 4.09819 11.9014 0.935364 7.9999 0.935364ZM1.94889 7.99971C1.94889 4.65784 4.65802 1.9487 7.9999 1.9487C11.3418 1.9487 14.0509 4.65784 14.0509 7.99971C14.0509 11.3416 11.3418 14.0508 7.9999 14.0508C4.65802 14.0508 1.94889 11.3416 1.94889 7.99971ZM5.3733 9.82823C5.20479 9.58664 4.87234 9.5274 4.63075 9.69592C4.38916 9.86443 4.32993 10.1969 4.49844 10.4385C5.26854 11.5425 6.54969 12.2667 8.00004 12.2667C9.45039 12.2667 10.7315 11.5425 11.5017 10.4385C11.6702 10.1969 11.6109 9.86443 11.3693 9.69592C11.1278 9.5274 10.7953 9.58664 10.6268 9.82823C10.0476 10.6586 9.08701 11.2 8.00004 11.2C6.91307 11.2 5.95247 10.6586 5.3733 9.82823ZM5.73337 7.30666C6.24883 7.30666 6.6667 6.88871 6.6667 6.37332C6.6667 5.85793 6.24883 5.43999 5.73337 5.43999C5.21791 5.43999 4.80003 5.85793 4.80003 6.37332C4.80003 6.88871 5.21791 7.30666 5.73337 7.30666ZM11.2 6.37332C11.2 6.88871 10.7822 7.30666 10.2667 7.30666C9.75124 7.30666 9.33336 6.88871 9.33336 6.37332C9.33336 5.85793 9.75124 5.43999 10.2667 5.43999C10.7822 5.43999 11.2 5.85793 11.2 6.37332Z" fill="#1C2024"/>
</svg>
