<svg width="16" height="16" viewBox="0 0 16 16" fill="none" xmlns="http://www.w3.org/2000/svg">
<rect width="16" height="16" fill="white" fill-opacity="0.01"/>
<path fill-rule="evenodd" clip-rule="evenodd" d="M3.73333 2.13335C3.43878 2.13335 3.2 2.37213 3.2 2.66668V13.3333C3.2 13.6279 3.43878 13.8667 3.73333 13.8667H12.2667C12.5612 13.8667 12.8 13.6279 12.8 13.3333V5.02093L9.91242 2.13335H3.73333ZM2.13333 2.66668C2.13333 1.78302 2.84967 1.06668 3.73333 1.06668H10.1333C10.2748 1.06668 10.4104 1.12287 10.5105 1.22289L13.6323 4.34478C13.7824 4.49482 13.8667 4.6983 13.8667 4.91047V13.3333C13.8667 14.217 13.1503 14.9333 12.2667 14.9333H3.73333C2.84967 14.9333 2.13333 14.217 2.13333 13.3333V2.66668ZM5.06667 8.00001C5.06667 7.70547 5.30545 7.46668 5.6 7.46668H7.46667V5.60001C7.46667 5.30547 7.70545 5.06668 8 5.06668C8.29455 5.06668 8.53333 5.30547 8.53333 5.60001V7.46668H10.4C10.6945 7.46668 10.9333 7.70547 10.9333 8.00001C10.9333 8.29456 10.6945 8.53335 10.4 8.53335H8.53333V10.4C8.53333 10.6945 8.29455 10.9333 8 10.9333C7.70545 10.9333 7.46667 10.6945 7.46667 10.4V8.53335H5.6C5.30545 8.53335 5.06667 8.29456 5.06667 8.00001Z" fill="#1C2024"/>
</svg>
