<svg width="16" height="16" viewBox="0 0 16 16" fill="none" xmlns="http://www.w3.org/2000/svg">
<rect width="16" height="16" fill="white" fill-opacity="0.01"/>
<path fill-rule="evenodd" clip-rule="evenodd" d="M3.2 2.66668C3.2 2.37213 3.43878 2.13335 3.73333 2.13335H9.69151C9.83295 2.13335 9.96861 2.18954 10.0686 2.28956L12.6438 4.86472C12.7438 4.96474 12.8 5.1004 12.8 5.24184V13.3333C12.8 13.6279 12.5612 13.8667 12.2667 13.8667H3.73333C3.43878 13.8667 3.2 13.6279 3.2 13.3333V2.66668ZM3.73333 1.06668C2.84967 1.06668 2.13333 1.78302 2.13333 2.66668V13.3333C2.13333 14.217 2.84967 14.9333 3.73333 14.9333H12.2667C13.1503 14.9333 13.8667 14.217 13.8667 13.3333V5.24184C13.8667 4.8175 13.6981 4.41053 13.3981 4.11047L10.8228 1.53531C10.5228 1.23526 10.1158 1.06668 9.69151 1.06668H3.73333ZM4.8 4.26668C4.50545 4.26668 4.26666 4.50547 4.26666 4.80001C4.26666 5.09456 4.50545 5.33335 4.8 5.33335H8C8.29455 5.33335 8.53333 5.09456 8.53333 4.80001C8.53333 4.50547 8.29455 4.26668 8 4.26668H4.8ZM4.8 7.46668C4.50545 7.46668 4.26666 7.70547 4.26666 8.00001C4.26666 8.29456 4.50545 8.53335 4.8 8.53335H11.2C11.4945 8.53335 11.7333 8.29456 11.7333 8.00001C11.7333 7.70547 11.4945 7.46668 11.2 7.46668H4.8ZM4.8 10.6667C4.50545 10.6667 4.26666 10.9055 4.26666 11.2C4.26666 11.4945 4.50545 11.7333 4.8 11.7333H11.2C11.4945 11.7333 11.7333 11.4945 11.7333 11.2C11.7333 10.9055 11.4945 10.6667 11.2 10.6667H4.8Z" fill="#1C2024"/>
</svg>
