<svg width="16" height="16" viewBox="0 0 16 16" fill="none" xmlns="http://www.w3.org/2000/svg">
<rect width="16" height="16" fill="white" fill-opacity="0.01"/>
<path fill-rule="evenodd" clip-rule="evenodd" d="M3.2 2.66668C3.2 2.37213 3.43878 2.13335 3.73333 2.13335H9.91241L12.8 5.02093V13.3333C12.8 13.6279 12.5612 13.8667 12.2667 13.8667H3.73333C3.43878 13.8667 3.2 13.6279 3.2 13.3333V2.66668ZM3.73333 1.06668C2.84967 1.06668 2.13333 1.78302 2.13333 2.66668V13.3333C2.13333 14.217 2.84967 14.9333 3.73333 14.9333H12.2667C13.1503 14.9333 13.8667 14.217 13.8667 13.3333V4.91047C13.8667 4.6983 13.7824 4.49482 13.6323 4.34478L10.5105 1.22289C10.4104 1.12287 10.2748 1.06668 10.1333 1.06668H3.73333ZM5.6 7.46668C5.30545 7.46668 5.06666 7.70547 5.06666 8.00001C5.06666 8.29456 5.30545 8.53335 5.6 8.53335H10.4C10.6945 8.53335 10.9333 8.29456 10.9333 8.00001C10.9333 7.70547 10.6945 7.46668 10.4 7.46668H5.6Z" fill="#1C2024"/>
</svg>
