<svg width="16" height="16" viewBox="0 0 16 16" fill="none" xmlns="http://www.w3.org/2000/svg">
<rect width="16" height="16" fill="white" fill-opacity="0.01"/>
<path fill-rule="evenodd" clip-rule="evenodd" d="M3.73333 2.13335C3.43878 2.13335 3.2 2.37213 3.2 2.66668V13.3333C3.2 13.6279 3.43878 13.8667 3.73333 13.8667H12.2667C12.5612 13.8667 12.8 13.6279 12.8 13.3333V6.40001H9.06667C8.77212 6.40001 8.53333 6.16123 8.53333 5.86668V2.13335H3.73333ZM9.6 2.8876L12.0458 5.33335H9.6V2.8876ZM2.13333 2.66668C2.13333 1.78302 2.84967 1.06668 3.73333 1.06668H9.06667C9.20812 1.06668 9.34378 1.12287 9.44379 1.22289L13.7105 5.48956C13.8105 5.58957 13.8667 5.72523 13.8667 5.86668V13.3333C13.8667 14.217 13.1503 14.9333 12.2667 14.9333H3.73333C2.84967 14.9333 2.13333 14.217 2.13333 13.3333V2.66668Z" fill="#1C2024"/>
</svg>
