<svg width="16" height="16" viewBox="0 0 16 16" fill="none" xmlns="http://www.w3.org/2000/svg">
<rect width="16" height="16" fill="white" fill-opacity="0.01"/>
<path fill-rule="evenodd" clip-rule="evenodd" d="M7.54235 0.693573C7.11884 0.693573 6.75176 0.986755 6.65811 1.39978L6.40416 2.51995C5.99989 2.63752 5.61424 2.79852 5.25265 2.99746L4.28091 2.38489C3.92265 2.15906 3.45577 2.21131 3.1563 2.51077L2.5098 3.15728C2.21035 3.45673 2.15808 3.92361 2.38393 4.28187L2.99672 5.25397C2.79794 5.61545 2.63709 6.00099 2.51964 6.40512L1.39956 6.65905C0.986542 6.75268 0.693359 7.11977 0.693359 7.54327V8.45755C0.693359 8.88106 0.986542 9.24815 1.39956 9.34179L2.51977 9.59575C2.63729 9.99998 2.79824 10.3856 2.99711 10.7472L2.38443 11.7191C2.15858 12.0773 2.21085 12.5442 2.5103 12.8437L3.15681 13.4902C3.45627 13.7896 3.92315 13.8419 4.28141 13.6161L5.2534 13.0034C5.61476 13.2021 6.00017 13.363 6.40416 13.4804L6.65811 14.6006C6.75176 15.0136 7.11884 15.3069 7.54235 15.3069H8.45663C8.88013 15.3069 9.24722 15.0136 9.34085 14.6006L9.59472 13.4808C9.99905 13.3634 10.3848 13.2024 10.7465 13.0036L11.7184 13.6163C12.0766 13.8421 12.5435 13.7899 12.843 13.4904L13.4895 12.8439C13.7889 12.5444 13.8412 12.0775 13.6154 11.7193L13.0029 10.7477C13.2019 10.386 13.363 10.0001 13.4805 9.59568L14.6004 9.34179C15.0134 9.24815 15.3067 8.88106 15.3067 8.45755V7.54327C15.3067 7.11977 15.0134 6.75268 14.6004 6.65905L13.4806 6.40519C13.3632 6.00082 13.2022 5.61507 13.0033 5.25339L13.6158 4.28166C13.8417 3.9234 13.7894 3.45652 13.4899 3.15705L12.8434 2.51056C12.544 2.2111 12.0771 2.15883 11.7188 2.38468L10.7472 2.9972C10.3853 2.79815 9.99933 2.6371 9.59472 2.51955L9.34085 1.39978C9.24722 0.986755 8.88013 0.693573 8.45663 0.693573H7.54235ZM5.24857 4.06666C5.81039 3.67294 6.46043 3.39651 7.16313 3.27293L7.54235 1.60024H8.45663L8.83579 3.27269C9.53885 3.39611 10.1892 3.67254 10.7514 4.06637L12.2023 3.15167L12.8489 3.79816L11.9341 5.24923C12.3278 5.81116 12.6042 6.46132 12.7276 7.16412L14.4 7.54327V8.45755L12.7275 8.83672C12.6039 9.53963 12.3275 10.1899 11.9337 10.7518L12.8483 12.2029L12.2018 12.8493L10.7506 11.9345C10.1887 12.3281 9.53857 12.6044 8.83579 12.7278L8.45663 14.4002H7.54235L7.16313 12.7275C6.46069 12.6039 5.8109 12.3277 5.24924 11.9342L3.79792 12.8491L3.15141 12.2025L4.06627 10.7513C3.67264 10.1895 3.3963 9.53946 3.2728 8.83679L1.60002 8.45755V7.54327L3.27273 7.16406C3.39614 6.46148 3.67235 5.81154 4.06582 5.24975L3.15091 3.79839L3.79742 3.15189L5.24857 4.06666ZM9.62662 8.00007C9.62662 8.8984 8.89838 9.62664 8.00005 9.62664C7.10172 9.62664 6.37347 8.8984 6.37347 8.00007C6.37347 7.10173 7.10172 6.37349 8.00005 6.37349C8.89838 6.37349 9.62662 7.10173 9.62662 8.00007ZM10.5866 8.00007C10.5866 9.42859 9.42858 10.5866 8.00005 10.5866C6.57152 10.5866 5.41347 9.42859 5.41347 8.00007C5.41347 6.57155 6.57152 5.41349 8.00005 5.41349C9.42858 5.41349 10.5866 6.57155 10.5866 8.00007Z" fill="#1C2024"/>
</svg>
