<svg width="16" height="16" viewBox="0 0 16 16" fill="none" xmlns="http://www.w3.org/2000/svg">
<rect width="16" height="16" fill="white" fill-opacity="0.01"/>
<path fill-rule="evenodd" clip-rule="evenodd" d="M7.99996 1.92002C4.64207 1.92002 1.91996 4.64213 1.91996 8.00002C1.91996 11.3579 4.64207 14.08 7.99996 14.08C11.3579 14.08 14.08 11.3579 14.08 8.00002C14.08 4.64213 11.3579 1.92002 7.99996 1.92002ZM0.959961 8.00002C0.959961 4.11193 4.11187 0.960022 7.99996 0.960022C11.888 0.960022 15.04 4.11193 15.04 8.00002C15.04 11.8881 11.888 15.04 7.99996 15.04C4.11187 15.04 0.959961 11.8881 0.959961 8.00002Z" fill="#1C2024"/>
<path fill-rule="evenodd" clip-rule="evenodd" d="M14.3999 8.42664H1.59994V7.5733H14.3999V8.42664Z" fill="#1C2024"/>
<path fill-rule="evenodd" clip-rule="evenodd" d="M7.57324 14.4V1.59999H8.42657V14.4H7.57324ZM11.0667 7.99997C11.0667 5.68238 10.2332 3.38962 8.59928 1.87365L9.10712 1.32629C10.9222 3.01032 11.8133 5.51757 11.8133 7.99997C11.8133 10.4824 10.9222 12.9896 9.10712 14.6737L8.59928 14.1263C10.2332 12.6103 11.0667 10.3176 11.0667 7.99997ZM4.26633 7.99999C4.26633 5.52117 5.12838 3.01522 6.88819 1.33033L7.40455 1.86965C5.82208 3.38477 5.013 5.67881 5.013 7.99999C5.01301 10.3212 5.8221 12.6152 7.40457 14.1303L6.8882 14.6696C5.1284 12.9847 4.26635 10.4788 4.26633 7.99999Z" fill="#1C2024"/>
<path fill-rule="evenodd" clip-rule="evenodd" d="M7.99996 4.22186C10.3139 4.22186 12.667 4.64975 14.262 5.54076C14.442 5.64132 14.5065 5.86875 14.4059 6.04876C14.3054 6.22876 14.0779 6.29318 13.8979 6.19263C12.458 5.38831 10.2485 4.96853 7.99996 4.96853C5.75138 4.96853 3.54189 5.38831 2.10201 6.19263C1.922 6.29318 1.69457 6.22876 1.59401 6.04876C1.49347 5.86875 1.55787 5.64132 1.73789 5.54076C3.33297 4.64975 5.686 4.22186 7.99996 4.22186ZM7.99996 11.5733C10.3139 11.5733 12.667 11.1454 14.262 10.2544C14.442 10.1538 14.5065 9.9264 14.4059 9.7464C14.3054 9.56639 14.0779 9.50198 13.8979 9.60252C12.458 10.4068 10.2485 10.8267 7.99996 10.8267C5.75138 10.8267 3.54189 10.4068 2.10201 9.60253C1.922 9.50198 1.69457 9.56639 1.59401 9.7464C1.49347 9.9264 1.55787 10.1538 1.73789 10.2544C3.33297 11.1454 5.686 11.5733 7.99996 11.5733Z" fill="#1C2024"/>
</svg>
