<svg width="16" height="16" viewBox="0 0 16 16" fill="none" xmlns="http://www.w3.org/2000/svg">
<rect width="16" height="16" fill="white" fill-opacity="0.01"/>
<path fill-rule="evenodd" clip-rule="evenodd" d="M7.26539 1.75686C7.06334 3.07113 7.12819 4.14425 7.21971 5.65866C7.23643 5.93521 7.25403 6.22647 7.27105 6.53662C7.28652 6.81822 7.08008 7.06317 6.79995 7.09565C6.51981 7.12813 6.2628 6.9369 6.21343 6.65924L6.13071 6.19411C6.02029 5.50964 5.84912 4.53846 5.52327 3.67724C5.18657 2.78733 4.74517 2.17729 4.19665 1.98447C3.89327 1.87844 3.64694 1.96564 3.47592 2.14455C3.29329 2.33559 3.19744 2.63536 3.26688 2.93759C3.42891 3.56719 3.67602 4.17781 3.94492 4.81922C3.96887 4.87635 3.99302 4.93379 4.01729 4.99151C4.26176 5.57288 4.5186 6.18368 4.71087 6.81686L4.71137 6.81854C4.86613 7.33425 4.96689 7.74347 5.04625 8.06576C5.0777 8.19347 5.10578 8.30753 5.13253 8.40916C5.19219 8.6358 5.09692 8.87482 4.89772 8.99827C4.69852 9.12172 4.44208 9.10067 4.26567 8.9464C3.98666 8.70238 3.74933 8.45636 3.53938 8.23256C3.49469 8.18491 3.45175 8.13886 3.41019 8.09427C3.25095 7.92348 3.11159 7.77399 2.9689 7.63764C2.62388 7.30797 2.32958 7.12538 1.92624 7.0866L1.92345 7.08633C1.66525 7.06014 1.50829 7.1087 1.4054 7.17469C1.30026 7.2421 1.19454 7.36442 1.10703 7.58645C1.04168 7.77058 1.08283 8.13853 1.27243 8.50038L1.2771 8.5093C1.49425 8.94349 1.86107 9.40359 2.32684 9.91252C2.55722 10.1642 2.80397 10.4197 3.06063 10.6852L3.07164 10.6966C3.32316 10.9569 3.58359 11.2263 3.83694 11.5015C4.72405 12.4654 5.62886 13.6041 5.82688 14.9333H12.2759C12.3345 13.2643 12.6673 12.0192 13.1067 10.8102C13.2751 10.3471 13.4529 9.90306 13.6348 9.44884C13.9837 8.57748 14.3476 7.66866 14.6885 6.51546C15.0388 5.33053 14.9437 4.66169 14.7854 4.30916C14.6315 3.96649 14.3908 3.85905 14.2737 3.8358C14.014 3.78426 13.9076 3.8501 13.8345 3.92428C13.7248 4.03537 13.6211 4.24825 13.5382 4.58954C13.4577 4.92101 13.4135 5.29618 13.3685 5.68001L13.3651 5.70971C13.3252 6.05058 13.2805 6.43217 13.1909 6.72105C13.1609 6.83412 13.1007 6.93767 13.0111 7.01375C12.9474 7.06784 12.8111 7.15539 12.6196 7.13933C12.3119 7.1135 12.1293 6.84953 12.1227 6.55769C12.1131 6.13818 12.1475 5.71588 12.1679 5.29715C12.2057 4.51889 12.2421 3.76928 12.1861 3.02315L12.1858 3.01796C12.151 2.4853 11.7859 2.13577 11.4141 2.05099C11.2325 2.00961 11.0603 2.03308 10.917 2.11573C10.7765 2.19676 10.619 2.36073 10.5146 2.68154L10.5134 2.68508C10.4696 2.81643 10.4245 3.06937 10.3851 3.42656C10.3471 3.77111 10.3183 4.17364 10.295 4.58046C10.2751 4.92835 10.259 5.28896 10.2446 5.61274C10.2264 6.02164 10.2108 6.37181 10.1934 6.56341C10.1865 6.63956 10.1647 6.71459 10.128 6.78171C10.1051 6.82358 9.98523 7.0501 9.6758 7.05966C9.36445 7.06927 9.21573 6.82727 9.19144 6.78314C9.12676 6.66559 9.1207 6.52594 9.11738 6.39235C9.11439 6.27268 9.11247 6.09918 9.11119 5.91751C9.10864 5.55288 9.10864 5.14047 9.10864 5.02349C9.10864 3.91008 9.1076 2.83063 9.01028 1.7533C8.95128 1.32402 8.6003 1.07152 8.15317 1.06672C7.70559 1.06192 7.33779 1.30884 7.26539 1.75686ZM10.0397 1.45248C9.829 0.478383 8.95907 0.00864346 8.16462 0.000118976C7.32215 -0.00892062 6.38678 0.49694 6.21189 1.58973L6.21139 1.5929C6.16788 1.87563 6.13578 2.14913 6.11296 2.41762C5.75384 1.78522 5.25463 1.22554 4.54987 0.977983C3.82572 0.724599 3.14581 0.946226 2.70487 1.40749C2.27643 1.85569 2.074 2.52525 2.22966 3.18662L2.2322 3.19694C2.41576 3.91262 2.69222 4.59004 2.9612 5.23163C2.98468 5.28765 3.00811 5.34337 3.0314 5.39882C3.22282 5.85431 3.4067 6.2919 3.56129 6.7334C3.16164 6.38018 2.6872 6.08849 2.02961 6.02496C1.58789 5.98041 1.1775 6.05372 0.829658 6.27674C0.484521 6.49803 0.256715 6.83099 0.111132 7.20433L0.107591 7.21366C-0.10863 7.80038 0.0707522 8.50301 0.32522 8.9909C0.61195 9.56239 1.06251 10.111 1.53997 10.6327C1.78182 10.897 2.03878 11.1629 2.29368 11.4266L2.30061 11.4337C2.55492 11.6969 2.80765 11.9583 3.0521 12.2239C4.06333 13.3227 4.80002 14.3607 4.80002 15.4667C4.80002 15.7612 5.0388 16 5.33335 16H12.8C13.0946 16 13.3333 15.7612 13.3333 15.4667C13.3333 13.6759 13.6556 12.4226 14.1092 11.1746C14.2563 10.7699 14.423 10.3528 14.5993 9.91197C14.9587 9.0125 15.3579 8.01385 15.7115 6.81787C16.102 5.49679 16.0596 4.54298 15.7584 3.87218C15.4528 3.19155 14.9118 2.87499 14.4814 2.78955C14.0028 2.69455 13.5858 2.7784 13.2553 3.01953C13.2537 2.99491 13.2518 2.97033 13.25 2.94578C13.1826 1.9312 12.4701 1.19771 11.6512 1.01101C11.2369 0.916573 10.7852 0.960419 10.3841 1.19172C10.2598 1.26342 10.1446 1.35065 10.0397 1.45248Z" fill="#1C2024"/>
</svg>
