<svg width="16" height="16" viewBox="0 0 16 16" fill="none" xmlns="http://www.w3.org/2000/svg">
<rect width="16" height="16" fill="white" fill-opacity="0.01"/>
<path fill-rule="evenodd" clip-rule="evenodd" d="M1.44264 5.23235C1.44264 3.14132 3.13173 1.44266 5.21969 1.44266C6.67487 1.44266 7.31795 2.0516 8.00002 3.13116C8.68209 2.0516 9.32517 1.44266 10.7804 1.44266C12.8683 1.44266 14.5574 3.14132 14.5574 5.23235C14.5574 7.18978 13.4414 9.0721 12.1608 10.6339C10.9478 12.1133 9.51673 13.3875 8.53974 14.2575C8.47621 14.314 8.4146 14.369 8.3551 14.422C8.15279 14.6026 7.84725 14.6026 7.64494 14.422C7.58544 14.369 7.52383 14.314 7.4603 14.2575C6.4833 13.3875 5.05217 12.1133 3.83921 10.6339C2.55863 9.0721 1.44264 7.18978 1.44264 5.23235Z" fill="#1C2024"/>
</svg>
