<svg width="16" height="16" viewBox="0 0 16 16" fill="none" xmlns="http://www.w3.org/2000/svg">
<rect width="16" height="16" fill="white" fill-opacity="0.01"/>
<path fill-rule="evenodd" clip-rule="evenodd" d="M5.21969 2.50932C3.72474 2.50932 2.50931 3.72651 2.50931 5.23235C2.50931 6.80709 3.42351 8.4446 4.66405 9.95758C5.75355 11.2864 7.03428 12.4482 8.00002 13.3097C8.96576 12.4482 10.2465 11.2864 11.336 9.95758C12.5765 8.4446 13.4908 6.80709 13.4908 5.23235C13.4908 3.72651 12.2753 2.50932 10.7804 2.50932C9.88863 2.50932 9.40687 2.81946 9.10901 3.15567C8.83068 3.46983 8.68931 3.82472 8.56001 4.14927C8.5375 4.20577 8.51536 4.26136 8.49291 4.31565C8.41047 4.51515 8.21589 4.64528 8.00002 4.64528C7.78416 4.64528 7.58958 4.51516 7.50712 4.31566C7.48468 4.26136 7.46252 4.20576 7.44002 4.14924C7.31072 3.82469 7.16934 3.46981 6.89103 3.15567C6.59316 2.81946 6.11141 2.50932 5.21969 2.50932ZM1.44264 5.23235C1.44264 3.14132 3.13173 1.44266 5.21969 1.44266C6.40896 1.44266 7.18404 1.87787 7.68943 2.44833C7.80866 2.58291 7.91131 2.72409 8.00002 2.86449C8.08872 2.72409 8.19137 2.58291 8.3106 2.44833C8.816 1.87787 9.59108 1.44266 10.7804 1.44266C12.8683 1.44266 14.5574 3.14132 14.5574 5.23235C14.5574 7.18978 13.4414 9.0721 12.1608 10.6339C10.9478 12.1133 9.51673 13.3875 8.53974 14.2575C8.47621 14.314 8.4146 14.369 8.3551 14.422C8.15279 14.6026 7.84725 14.6026 7.64494 14.422C7.58544 14.369 7.52383 14.314 7.4603 14.2575C6.4833 13.3875 5.05217 12.1133 3.83921 10.6339C2.55863 9.0721 1.44264 7.18978 1.44264 5.23235Z" fill="#1C2024"/>
</svg>
