<svg width="16" height="16" viewBox="0 0 16 16" fill="none" xmlns="http://www.w3.org/2000/svg">
<rect width="16" height="16" fill="white" fill-opacity="0.01"/>
<path fill-rule="evenodd" clip-rule="evenodd" d="M13.1772 14.2438C12.9689 14.452 12.6311 14.452 12.4229 14.2438L6.82288 8.64378C6.7891 8.61 6.76079 8.57282 6.73798 8.53333H5.33336C5.10634 8.53333 4.90421 8.38963 4.82962 8.17521L2.26962 0.815225C2.18953 0.584942 2.27579 0.329661 2.47915 0.195166C2.68252 0.0606702 2.95119 0.0812054 3.13176 0.245046L8.89174 5.4717C9.00314 5.57279 9.06668 5.71623 9.06668 5.86666V6.20463C9.10616 6.22745 9.14335 6.25576 9.17713 6.28954L14.7772 11.8895C14.9854 12.0978 14.9854 12.4355 14.7772 12.6438L13.1772 14.2438ZM8.8 7.42091L7.95425 8.26666L12.8 13.1124L13.6458 12.2667L8.8 7.42091ZM3.96447 2.44101L5.71253 7.46666H6.71243L8.00001 6.17908V6.10289L3.96447 2.44101Z" fill="#1C2024"/>
</svg>
