<svg width="16" height="16" viewBox="0 0 16 16" fill="none" xmlns="http://www.w3.org/2000/svg">
<rect width="16" height="16" fill="white" fill-opacity="0.01"/>
<path fill-rule="evenodd" clip-rule="evenodd" d="M7.55122 0.237064C7.80027 -0.00793565 8.19979 -0.00793565 8.44885 0.237064L15.6489 7.31975C15.9008 7.56762 15.9041 7.97283 15.6563 8.2248C15.4084 8.47679 15.0032 8.48012 14.7513 8.23224L13.8667 7.36214V13.3333C13.8667 13.6278 13.628 13.8667 13.3333 13.8667H2.6667C2.37215 13.8667 2.13336 13.6278 2.13336 13.3333V7.36214L1.24885 8.23224C0.99687 8.48012 0.591658 8.47679 0.343784 8.2248C0.0959099 7.97283 0.0992383 7.56762 0.351219 7.31975L7.55122 0.237064ZM8.00003 1.59107L12.8 6.31286V12.8H10.6667V9.06665C10.6667 8.7721 10.4279 8.53332 10.1334 8.53332H6.93336C6.63881 8.53332 6.40003 8.7721 6.40003 9.06665V12.8H3.20003V6.31286L8.00003 1.59107ZM7.4667 12.8H9.60003V9.59998H7.4667V12.8Z" fill="#1C2024"/>
</svg>
