<svg width="16" height="16" viewBox="0 0 16 16" fill="none" xmlns="http://www.w3.org/2000/svg">
<rect width="16" height="16" fill="white" fill-opacity="0.01"/>
<path fill-rule="evenodd" clip-rule="evenodd" d="M14.9333 11.7334V4.26674H1.06667V11.7334H14.9333ZM16 4.26674V11.7334C16 12.3225 15.5225 12.8001 14.9333 12.8001H1.06667C0.477563 12.8001 0 12.3225 0 11.7334V4.26674C0 3.67764 0.477563 3.20007 1.06667 3.20007H14.9333C15.5225 3.20007 16 3.67764 16 4.26674ZM2.13333 5.60001C2.13333 5.45273 2.25273 5.33334 2.4 5.33334H6.13333C6.28061 5.33334 6.4 5.45273 6.4 5.60001V10.4C6.4 10.5473 6.28061 10.6667 6.13333 10.6667H2.4C2.25273 10.6667 2.13333 10.5473 2.13333 10.4V5.60001ZM8 7.46668C7.70545 7.46668 7.46667 7.70546 7.46667 8.00001C7.46667 8.29456 7.70545 8.53334 8 8.53334H11.2C11.4945 8.53334 11.7333 8.29456 11.7333 8.00001C11.7333 7.70546 11.4945 7.46668 11.2 7.46668H8ZM7.46667 10.1333C7.46667 9.83879 7.70545 9.60001 8 9.60001H13.3333C13.6278 9.60001 13.8667 9.83879 13.8667 10.1333C13.8667 10.4279 13.6278 10.6667 13.3333 10.6667H8C7.70545 10.6667 7.46667 10.4279 7.46667 10.1333ZM8 5.33334C7.70545 5.33334 7.46667 5.57213 7.46667 5.86668C7.46667 6.16123 7.70545 6.40001 8 6.40001H12.2667C12.5612 6.40001 12.8 6.16123 12.8 5.86668C12.8 5.57213 12.5612 5.33334 12.2667 5.33334H8Z" fill="#1C2024"/>
</svg>
