<svg width="16" height="16" viewBox="0 0 16 16" fill="none" xmlns="http://www.w3.org/2000/svg">
<rect width="16" height="16" fill="white" fill-opacity="0.01"/>
<path d="M2.13333 5.33334H3.2V6.40001H2.13333V5.33334ZM4.26666 5.33334H5.33333V6.40001H4.26666V5.33334ZM6.4 5.33334H7.46666V6.40001H6.4V5.33334ZM8.53333 5.33334H9.6V6.40001H8.53333V5.33334ZM10.6667 5.33334H11.7333V6.40001H10.6667V5.33334ZM12.8 5.33334H13.8667V6.40001H12.8V5.33334ZM11.7333 7.46668H12.8V8.53334H11.7333V7.46668ZM12.8 9.60001H13.8667V10.6667H12.8V9.60001ZM9.6 7.46668H10.6667V8.53334H9.6V7.46668ZM7.46666 7.46668H8.53333V8.53334H7.46666V7.46668ZM5.33333 7.46668H6.4V8.53334H5.33333V7.46668ZM3.2 7.46668H4.26666V8.53334H3.2V7.46668ZM2.13333 9.60001H3.2V10.6667H2.13333V9.60001ZM4.26666 9.60001H11.7333V10.6667H4.26666V9.60001Z" fill="#1C2024"/>
</svg>
