<svg width="16" height="16" viewBox="0 0 16 16" fill="none" xmlns="http://www.w3.org/2000/svg">
<rect width="16" height="16" fill="white" fill-opacity="0.01"/>
<path fill-rule="evenodd" clip-rule="evenodd" d="M5.86664 0.533333C5.86664 0.238782 6.10542 0 6.39998 0H7.99998H9.59998C9.89452 0 10.1333 0.238782 10.1333 0.533333C10.1333 0.827885 9.89452 1.06667 9.59998 1.06667H8.53331V2.2605C9.70487 2.35103 10.7936 2.7373 11.7248 3.34477C11.7457 3.31574 11.7692 3.28802 11.7952 3.26193L12.8619 2.19526C13.1222 1.93491 13.5443 1.93491 13.8047 2.19526C14.0651 2.45562 14.0651 2.87772 13.8047 3.13807L12.7648 4.17794C14.0368 5.41787 14.8267 7.15002 14.8267 9.06664C14.8267 12.8369 11.7702 15.8933 7.99998 15.8933C4.2297 15.8933 1.17331 12.8369 1.17331 9.06664C1.17331 5.47585 3.94564 2.53259 7.46664 2.2605V1.06667H6.39998C6.10542 1.06667 5.86664 0.827885 5.86664 0.533333ZM2.23998 9.06664C2.23998 5.88548 4.81881 3.30665 7.99998 3.30665C11.1811 3.30665 13.76 5.88548 13.76 9.06664C13.76 12.2478 11.1811 14.8267 7.99998 14.8267C4.81881 14.8267 2.23998 12.2478 2.23998 9.06664ZM7.99998 9.06664V4.37331C5.40791 4.37331 3.30664 6.47458 3.30664 9.06664C3.30664 11.6587 5.40791 13.76 7.99998 13.76C9.296 13.76 10.4693 13.2347 11.3186 12.3853L7.99998 9.06664Z" fill="#1C2024"/>
</svg>
