<svg width="16" height="16" viewBox="0 0 16 16" fill="none" xmlns="http://www.w3.org/2000/svg">
<rect width="16" height="16" fill="white" fill-opacity="0.01"/>
<path fill-rule="evenodd" clip-rule="evenodd" d="M9.27645 0.0430443C9.5025 0.139774 9.63313 0.378514 9.59271 0.621051L8.62955 6.40001H13.3333C13.5353 6.40001 13.72 6.51414 13.8103 6.69484C13.9007 6.87552 13.8812 7.09173 13.7599 7.25334L7.35997 15.7867C7.21245 15.9834 6.94956 16.0537 6.7235 15.957C6.49744 15.8603 6.36681 15.6215 6.40723 15.379L7.37039 9.6H2.66666C2.46465 9.6 2.27998 9.48587 2.18963 9.30518C2.0993 9.1245 2.11878 8.90828 2.23999 8.74667L8.63997 0.213374C8.7875 0.0166672 9.05039 -0.0536855 9.27645 0.0430443ZM3.73332 8.53334H7.99997C8.15675 8.53334 8.30558 8.60231 8.40691 8.72194C8.50825 8.84156 8.55182 8.99971 8.52605 9.15435L7.81895 13.3969L12.2667 7.46668H7.99997C7.8432 7.46668 7.69437 7.3977 7.59302 7.27808C7.49169 7.15845 7.44812 7.00031 7.4739 6.84566L8.18099 2.60311L3.73332 8.53334Z" fill="#1C2024"/>
</svg>
