<svg width="16" height="16" viewBox="0 0 16 16" fill="none" xmlns="http://www.w3.org/2000/svg">
<rect width="16" height="16" fill="white" fill-opacity="0.01"/>
<path fill-rule="evenodd" clip-rule="evenodd" d="M9.0794 3.20578C9.80084 2.71568 10.7131 2.70608 11.3907 3.15114C11.5446 3.2522 11.7089 3.41259 12.1483 3.85194C12.5876 4.29128 12.7481 4.45562 12.8491 4.60951C13.2942 5.28721 13.2846 6.19939 12.7945 6.92083C12.6826 7.08549 12.5094 7.26199 12.054 7.71746L11.394 8.37743C11.1858 8.5857 11.1858 8.92339 11.394 9.13167C11.6023 9.33995 11.9401 9.33995 12.1483 9.13167L12.8082 8.4717L12.8541 8.42592C13.2483 8.03175 13.5006 7.77953 13.6768 7.52022C14.397 6.45999 14.4342 5.08003 13.7407 4.02399C13.5715 3.76643 13.325 3.52002 12.9502 3.1453L12.9025 3.09769L12.8549 3.05006C12.4802 2.67521 12.2338 2.42869 11.9762 2.25955C10.9202 1.56601 9.54024 1.6032 8.48001 2.32344C8.2207 2.49959 7.96847 2.75191 7.57429 3.14619L7.52853 3.19198L6.86856 3.85194C6.66028 4.06022 6.66028 4.39791 6.86856 4.60618C7.07684 4.81446 7.41453 4.81446 7.6228 4.60618L8.28277 3.94622C8.73824 3.49075 8.91474 3.31763 9.0794 3.20578ZM4.60582 7.62318C4.8141 7.4149 4.8141 7.0772 4.60582 6.86892C4.39753 6.66065 4.05985 6.66065 3.85157 6.86892L3.1916 7.52889L3.14583 7.57466C2.75154 7.96883 2.49923 8.22106 2.32307 8.48038C1.60283 9.54062 1.56565 10.9205 2.25919 11.9766C2.42833 12.2341 2.67484 12.4805 3.04971 12.8553L3.09732 12.9029L3.14493 12.9505C3.51965 13.3253 3.76606 13.572 4.02361 13.741C5.07967 14.4346 6.45961 14.3974 7.51985 13.6771C7.77916 13.501 8.03139 13.2486 8.42556 12.8544L8.47134 12.8086L9.13131 12.1487C9.33958 11.9404 9.33958 11.6027 9.13131 11.3945C8.92302 11.1861 8.58533 11.1861 8.37705 11.3945L7.71709 12.0544C7.26162 12.5099 7.08512 12.683 6.92047 12.7948C6.19902 13.2849 5.28685 13.2945 4.60914 12.8495C4.45526 12.7484 4.29092 12.588 3.85157 12.1487C3.41222 11.7093 3.25184 11.545 3.15077 11.391C2.70572 10.7134 2.71532 9.80121 3.20541 9.07976C3.31726 8.91511 3.49039 8.73861 3.94585 8.28314L4.60582 7.62318ZM10.2632 6.49129C10.4714 6.28302 10.4714 5.94532 10.2632 5.73704C10.0549 5.52876 9.7172 5.52876 9.50892 5.73704L5.73768 9.50828C5.52941 9.71656 5.52941 10.0542 5.73768 10.2625C5.94596 10.4708 6.28365 10.4708 6.49193 10.2625L10.2632 6.49129Z" fill="#1C2024"/>
</svg>
