<svg width="16" height="16" viewBox="0 0 16 16" fill="none" xmlns="http://www.w3.org/2000/svg">
<rect width="16" height="16" fill="white" fill-opacity="0.01"/>
<path fill-rule="evenodd" clip-rule="evenodd" d="M4.86856 4.26655C4.88984 4.26656 4.91142 4.26656 4.93329 4.26656H5.86663C6.16118 4.26656 6.39996 4.50534 6.39996 4.79989C6.39996 5.09444 6.16118 5.33322 5.86663 5.33322H4.93329C4.28916 5.33322 4.04194 5.33561 3.84641 5.37295C2.98973 5.53654 2.33793 6.17476 2.17343 6.96867C2.13608 7.14894 2.13329 7.37856 2.13329 7.99989C2.13329 8.62122 2.13608 8.85084 2.17343 9.03111C2.33793 9.82502 2.98973 10.4632 3.84641 10.6268C4.04194 10.6642 4.28916 10.6666 4.93329 10.6666H5.86663C6.16118 10.6666 6.39996 10.9053 6.39996 11.1999C6.39996 11.4944 6.16118 11.7332 5.86663 11.7332H4.93329C4.91142 11.7332 4.88984 11.7332 4.86856 11.7332C4.31103 11.7333 3.95426 11.7333 3.64635 11.6746C2.38735 11.4341 1.38529 10.4847 1.12895 9.24753C1.06644 8.94581 1.06651 8.59726 1.06661 8.06722C1.06662 8.0451 1.06662 8.02265 1.06662 7.99989C1.06662 7.97713 1.06662 7.95468 1.06661 7.93256C1.06651 7.40252 1.06644 7.05397 1.12895 6.75225C1.38529 5.51511 2.38735 4.56563 3.64635 4.32521C3.95426 4.26642 4.31103 4.26647 4.86856 4.26655ZM12.1535 5.37295C11.958 5.33561 11.7107 5.33322 11.0667 5.33322H10.1333C9.83873 5.33322 9.59996 5.09444 9.59996 4.79989C9.59996 4.50534 9.83873 4.26656 10.1333 4.26656H11.0667C11.0885 4.26656 11.1101 4.26656 11.1313 4.26655C11.6889 4.26647 12.0457 4.26642 12.3536 4.32521C13.6126 4.56563 14.6146 5.51511 14.8709 6.75225C14.9334 7.05397 14.9334 7.40251 14.9333 7.93255C14.9333 7.95467 14.9333 7.97712 14.9333 7.99989C14.9333 8.02266 14.9333 8.04511 14.9333 8.06723C14.9334 8.59726 14.9334 8.94581 14.8709 9.24753C14.6146 10.4847 13.6126 11.4341 12.3536 11.6746C12.0457 11.7333 11.6889 11.7333 11.1313 11.7332C11.1101 11.7332 11.0885 11.7332 11.0667 11.7332H10.1333C9.83873 11.7332 9.59996 11.4944 9.59996 11.1999C9.59996 10.9053 9.83873 10.6666 10.1333 10.6666H11.0667C11.7107 10.6666 11.958 10.6642 12.1535 10.6268C13.0101 10.4632 13.662 9.82502 13.8265 9.03111C13.8638 8.85084 13.8667 8.62122 13.8667 7.99989C13.8667 7.37856 13.8638 7.14894 13.8265 6.96867C13.662 6.17476 13.0101 5.53654 12.1535 5.37295Z" fill="#1C2024"/>
</svg>
