<svg width="16" height="16" viewBox="0 0 16 16" fill="none" xmlns="http://www.w3.org/2000/svg">
<rect width="16" height="16" fill="white" fill-opacity="0.01"/>
<path fill-rule="evenodd" clip-rule="evenodd" d="M4.93303 4.26667H4.86829C4.31077 4.26658 3.954 4.26653 3.64608 4.32532C2.3871 4.56574 1.38503 5.51522 1.1287 6.75236C1.06618 7.05408 1.06625 7.40264 1.06635 7.93267L1.06636 8L1.06635 8.06733C1.06625 8.59737 1.06618 8.94592 1.1287 9.24764C1.38503 10.4848 2.3871 11.4342 3.64608 11.6747C3.95401 11.7334 4.31078 11.7334 4.8683 11.7333H4.93303H5.86636C6.16091 11.7333 6.39969 11.4946 6.39969 11.2C6.39969 10.9055 6.16091 10.6667 5.86636 10.6667H4.93303C4.2889 10.6667 4.04168 10.6643 3.84616 10.6269C2.98947 10.4634 2.33768 9.82514 2.17318 9.03122C2.13582 8.85096 2.13303 8.62134 2.13303 8C2.13303 7.37868 2.13582 7.14906 2.17318 6.96878C2.33768 6.17487 2.98947 5.53665 3.84616 5.37306C4.04168 5.33572 4.2889 5.33334 4.93303 5.33334H5.86636C6.16091 5.33334 6.39969 5.09455 6.39969 4.8C6.39969 4.50545 6.16091 4.26667 5.86636 4.26667H4.93303ZM11.0663 5.33334C11.7105 5.33334 11.9578 5.33572 12.1533 5.37306C13.0099 5.53665 13.6618 6.17487 13.8262 6.96878C13.8636 7.14906 13.8663 7.37868 13.8663 8C13.8663 8.62134 13.8636 8.85096 13.8262 9.03122C13.6618 9.82514 13.0099 10.4634 12.1533 10.6269C11.9578 10.6643 11.7105 10.6667 11.0663 10.6667H10.133C9.83848 10.6667 9.59969 10.9055 9.59969 11.2C9.59969 11.4946 9.83848 11.7333 10.133 11.7333H11.0663H11.1311C11.6886 11.7334 12.0453 11.7334 12.3533 11.6747C13.6123 11.4342 14.6144 10.4848 14.8707 9.24764C14.9332 8.94592 14.9331 8.59738 14.933 8.06734V8V7.93266C14.9331 7.40264 14.9332 7.05408 14.8707 6.75236C14.6144 5.51522 13.6123 4.56574 12.3533 4.32532C12.0453 4.26653 11.6886 4.26658 11.1311 4.26667H11.0663H10.133C9.83848 4.26667 9.59969 4.50545 9.59969 4.8C9.59969 5.09455 9.83848 5.33334 10.133 5.33334H11.0663ZM5.33374 7.46666C5.03919 7.46666 4.80041 7.70544 4.80041 7.99999C4.80041 8.29454 5.03919 8.53332 5.33374 8.53332H10.6671C10.9616 8.53332 11.2004 8.29454 11.2004 7.99999C11.2004 7.70544 10.9616 7.46666 10.6671 7.46666H5.33374Z" fill="#1C2024"/>
</svg>
