<svg width="16" height="16" viewBox="0 0 16 16" fill="none" xmlns="http://www.w3.org/2000/svg">
<rect width="16" height="16" fill="white" fill-opacity="0.01"/>
<path fill-rule="evenodd" clip-rule="evenodd" d="M14.2438 2.51046C14.452 2.30218 14.452 1.9645 14.2438 1.75622C14.0355 1.54793 13.6978 1.54793 13.4895 1.75622L1.75621 13.4895C1.54792 13.6978 1.54792 14.0355 1.75621 14.2438C1.96449 14.4521 2.30217 14.4521 2.51045 14.2438L14.2438 2.51046ZM2.17317 9.03124C2.31891 9.73461 2.84712 10.3158 3.56145 10.5529L2.75021 11.3642C1.92899 10.937 1.32036 10.1727 1.12869 9.24766C1.06617 8.94594 1.06624 8.59738 1.06635 8.06735L1.06635 8.00002L1.06635 7.93269C1.06624 7.40265 1.06617 7.0541 1.12869 6.75238C1.38502 5.51524 2.38709 4.56576 3.64608 4.32534C3.95399 4.26655 4.31076 4.2666 4.86828 4.26669H4.93302H5.86635C6.1609 4.26669 6.39969 4.50547 6.39969 4.80002C6.39969 5.09457 6.1609 5.33335 5.86635 5.33335H4.93302C4.28889 5.33335 4.04167 5.33574 3.84615 5.37308C2.98946 5.53667 2.33767 6.17489 2.17317 6.9688C2.13581 7.14908 2.13302 7.3787 2.13302 8.00002C2.13302 8.62135 2.13581 8.85097 2.17317 9.03124ZM13.8262 6.9688C13.6805 6.26558 13.1524 5.68451 12.4384 5.44725L13.2496 4.63607C14.0706 5.06333 14.679 5.82745 14.8707 6.75238C14.9332 7.0541 14.9331 7.40265 14.933 7.93268V8.00002V8.06736C14.9331 8.5974 14.9332 8.94594 14.8707 9.24766C14.6144 10.4848 13.6123 11.4342 12.3533 11.6747C12.0453 11.7334 11.6886 11.7334 11.1311 11.7333H11.0663H10.133C9.83847 11.7333 9.59969 11.4946 9.59969 11.2C9.59969 10.9055 9.83847 10.6667 10.133 10.6667H11.0663C11.7105 10.6667 11.9578 10.6643 12.1533 10.627C13.0099 10.4634 13.6618 9.82516 13.8262 9.03124C13.8636 8.85097 13.8663 8.62135 13.8663 8.00002C13.8663 7.3787 13.8636 7.14908 13.8262 6.9688Z" fill="#1C2024"/>
</svg>
