<svg width="16" height="16" viewBox="0 0 16 16" fill="none" xmlns="http://www.w3.org/2000/svg">
<rect width="16" height="16" fill="white" fill-opacity="0.01"/>
<path fill-rule="evenodd" clip-rule="evenodd" d="M11.3907 3.15114C10.7131 2.70608 9.80084 2.71568 9.0794 3.20578C8.91474 3.31763 8.73824 3.49075 8.28277 3.94622L7.62281 4.60618C7.41453 4.81446 7.07684 4.81446 6.86857 4.60618C6.66028 4.39791 6.66028 4.06022 6.86857 3.85194L7.52853 3.19198C7.544 3.17651 7.55924 3.16124 7.57429 3.14619C7.96847 2.75191 8.2207 2.49959 8.48001 2.32344C9.54025 1.6032 10.9202 1.56601 11.9762 2.25955C12.2338 2.42869 12.4802 2.67521 12.8549 3.05006C12.8706 3.06571 12.8864 3.08159 12.9025 3.09769C12.9186 3.11379 12.9345 3.12966 12.9502 3.1453C13.325 3.52002 13.5715 3.76643 13.7407 4.02399C14.4342 5.08003 14.397 6.45999 13.6768 7.52022C13.5006 7.77953 13.2483 8.03175 12.8541 8.42592C12.839 8.44097 12.8237 8.45623 12.8082 8.4717L12.1483 9.13167C11.9401 9.33995 11.6023 9.33995 11.394 9.13167C11.1858 8.92339 11.1858 8.5857 11.394 8.37743L12.054 7.71746C12.5094 7.26199 12.6826 7.08549 12.7945 6.92083C13.2846 6.19939 13.2942 5.28721 12.8491 4.60951C12.7481 4.45562 12.5876 4.29128 12.1483 3.85194C11.7089 3.41259 11.5446 3.2522 11.3907 3.15114ZM4.60582 6.86892C4.8141 7.0772 4.8141 7.4149 4.60582 7.62318L3.94586 8.28314C3.49039 8.73861 3.31726 8.91511 3.20541 9.07976C2.71532 9.80121 2.70572 10.7134 3.15077 11.391C3.25184 11.545 3.41222 11.7093 3.85157 12.1487C4.29092 12.588 4.45526 12.7484 4.60914 12.8495C5.28685 13.2945 6.19902 13.2849 6.92047 12.7948C7.08512 12.683 7.26162 12.5099 7.71709 12.0544L8.37706 11.3945C8.58533 11.1861 8.92302 11.1861 9.13131 11.3945C9.33958 11.6027 9.33958 11.9404 9.13131 12.1487L8.47134 12.8086C8.45587 12.8241 8.44061 12.8394 8.42557 12.8544C8.03139 13.2486 7.77916 13.501 7.51985 13.6771C6.45962 14.3974 5.07967 14.4346 4.02362 13.741C3.76606 13.572 3.51965 13.3253 3.14493 12.9505C3.12929 12.9348 3.11342 12.919 3.09732 12.9029C3.08123 12.8868 3.06536 12.8709 3.04971 12.8553C2.67484 12.4805 2.42833 12.2341 2.25919 11.9766C1.56565 10.9205 1.60283 9.54062 2.32307 8.48038C2.49923 8.22106 2.75154 7.96883 3.14584 7.57466C3.16089 7.55961 3.17614 7.54436 3.19161 7.52889L3.85157 6.86892C4.05985 6.66065 4.39754 6.66065 4.60582 6.86892Z" fill="#1C2024"/>
</svg>
