<svg width="16" height="16" viewBox="0 0 16 16" fill="none" xmlns="http://www.w3.org/2000/svg">
<rect width="16" height="16" fill="white" fill-opacity="0.01"/>
<path fill-rule="evenodd" clip-rule="evenodd" d="M4.8002 0C5.09475 0 5.33353 0.238777 5.33353 0.533323V2.66661C5.33353 2.96116 5.09475 3.19994 4.8002 3.19994C4.50566 3.19994 4.26688 2.96116 4.26688 2.66661V0.533323C4.26688 0.238777 4.50566 0 4.8002 0ZM0.689527 0.689568C0.897804 0.481293 1.23549 0.481293 1.44376 0.689568L3.04372 2.28954C3.252 2.49781 3.252 2.83549 3.04372 3.04377C2.83546 3.25204 2.49777 3.25204 2.28949 3.04377L0.689529 1.4438C0.481252 1.23552 0.481252 0.897843 0.689527 0.689568ZM0.000305176 4.7999C0.000305176 4.50535 0.239082 4.26658 0.533628 4.26658H2.66691C2.96146 4.26658 3.20024 4.50535 3.20024 4.7999C3.20024 5.09445 2.96146 5.33323 2.66691 5.33323H0.533628C0.239082 5.33323 0.000305176 5.09445 0.000305176 4.7999ZM12.8001 11.1998C12.8001 10.9052 13.0388 10.6665 13.3334 10.6665H15.4666C15.7612 10.6665 16 10.9052 16 11.1998C16 11.4943 15.7612 11.7331 15.4666 11.7331H13.3334C13.0388 11.7331 12.8001 11.4943 12.8001 11.1998ZM11.2001 12.7998C11.4946 12.7998 11.7334 13.0385 11.7334 13.333V15.4663C11.7334 15.7609 11.4946 15.9997 11.2001 15.9997C10.9056 15.9997 10.6668 15.7609 10.6668 15.4663V13.333C10.6668 13.0385 10.9056 12.7998 11.2001 12.7998ZM12.9559 12.9559C13.1642 12.7477 13.5018 12.7477 13.7102 12.9559L15.3102 14.5559C15.5184 14.7643 15.5184 15.1019 15.3102 15.3102C15.1018 15.5184 14.7641 15.5184 14.5559 15.3102L12.9559 13.7102C12.7477 13.502 12.7477 13.1643 12.9559 12.9559ZM8.28241 3.94601C8.73787 3.49054 8.91437 3.31742 9.07902 3.20557C9.80045 2.71549 10.7126 2.70589 11.3903 3.15094C11.5442 3.252 11.7085 3.41238 12.1478 3.85172C12.5872 4.29106 12.7476 4.4554 12.8486 4.60928C13.2936 5.28697 13.2841 6.19913 12.794 6.92056C12.6821 7.08521 12.509 7.26171 12.0535 7.71716L11.3936 8.37711C11.1854 8.58539 11.1854 8.92307 11.3936 9.13135C11.6019 9.33962 11.9396 9.33962 12.1478 9.13135L12.8078 8.47139L12.8535 8.42563C13.2479 8.03147 13.5001 7.77923 13.6764 7.51993C14.3966 6.45971 14.4337 5.07979 13.7402 4.02377C13.5711 3.76622 13.3246 3.51981 12.9497 3.1451L12.9021 3.09749L12.8545 3.04987C12.4798 2.67501 12.2334 2.4285 11.9758 2.25937C10.9198 1.56585 9.53986 1.60303 8.47964 2.32325C8.22034 2.4994 7.96811 2.75171 7.57395 3.14598L7.52818 3.19177L6.86823 3.85172C6.65995 4.06 6.65995 4.39768 6.86823 4.60595C7.0765 4.81423 7.41418 4.81423 7.62245 4.60595L8.28241 3.94601ZM3.19135 7.52861L3.14557 7.57437C2.75129 7.96853 2.49899 8.22077 2.32283 8.48006C1.6026 9.54028 1.56542 10.9202 2.25894 11.9762C2.42808 12.2338 2.67458 12.4802 3.04943 12.8549L3.09707 12.9025L3.14467 12.9501C3.51937 13.3249 3.76579 13.5715 4.02334 13.7406C5.07937 14.4341 6.45929 14.397 7.51951 13.6767C7.77881 13.5006 8.03104 13.2483 8.42521 12.854L8.47097 12.8082L9.13092 12.1483C9.3392 11.9399 9.3392 11.6023 9.13092 11.394C8.92265 11.1858 8.58496 11.1858 8.37669 11.394L7.71674 12.054C7.26128 12.5094 7.08478 12.6826 6.92013 12.7945C6.1987 13.2845 5.28654 13.2941 4.60885 12.8491C4.45498 12.7479 4.29064 12.5876 3.8513 12.1483C3.41196 11.7089 3.25157 11.5446 3.15052 11.3907C2.70546 10.7131 2.71506 9.80088 3.20514 9.07945C3.317 8.91478 3.49012 8.73829 3.94558 8.28284L4.60553 7.62288C4.8138 7.4146 4.8138 7.07693 4.60553 6.86865C4.39726 6.66037 4.05957 6.66037 3.8513 6.86865L3.19135 7.52861Z" fill="#1C2024"/>
</svg>
