<svg width="16" height="16" viewBox="0 0 16 16" fill="none" xmlns="http://www.w3.org/2000/svg">
<rect width="16" height="16" fill="white" fill-opacity="0.01"/>
<path fill-rule="evenodd" clip-rule="evenodd" d="M9.6 3.87841C9.6 2.94447 9.85821 2.25292 10.2843 1.79865C10.7057 1.34935 11.3527 1.06667 12.2682 1.06667C13.2784 1.06667 13.9562 1.39255 14.3703 1.92678C14.7233 2.38199 14.9333 3.03267 14.9333 3.87547H16C16 2.86125 15.7468 1.96113 15.2133 1.27318C14.5482 0.415392 13.5193 0 12.2682 0C11.1247 0 10.1709 0.360396 9.50633 1.06891C8.84641 1.77245 8.53333 2.75344 8.53333 3.87841V6.4H1.06667C0.477563 6.4 0 6.87757 0 7.46667V13.8667C0 14.4558 0.477563 14.9333 1.06667 14.9333H10.6667C11.2558 14.9333 11.7333 14.4558 11.7333 13.8667V7.46667C11.7333 6.87757 11.2558 6.4 10.6667 6.4H9.6V3.87841ZM1.06667 7.46667H10.6667V13.8667H1.06667V7.46667Z" fill="#1C2024"/>
</svg>
