<svg width="16" height="16" viewBox="0 0 16 16" fill="none" xmlns="http://www.w3.org/2000/svg">
<rect width="16" height="16" fill="white" fill-opacity="0.01"/>
<path fill-rule="evenodd" clip-rule="evenodd" d="M7.99851 0C6.74741 0 5.71847 0.415392 5.05336 1.27318C4.51994 1.96113 4.26666 2.86125 4.26666 3.87547H5.33333C5.33333 3.03267 5.54337 2.38199 5.89632 1.92678C6.31056 1.39255 6.98829 1.06667 7.99851 1.06667C8.91395 1.06667 9.56092 1.34935 9.98236 1.79865C10.4085 2.25292 10.6667 2.94447 10.6667 3.87841V6.4H3.2C2.6109 6.4 2.13333 6.87757 2.13333 7.46667V13.8667C2.13333 14.4558 2.6109 14.9333 3.2 14.9333H12.8C13.3891 14.9333 13.8667 14.4558 13.8667 13.8667V7.46667C13.8667 6.87756 13.3891 6.4 12.8 6.4H11.7333V3.87841C11.7333 2.75344 11.4203 1.77245 10.7603 1.06891C10.0958 0.360396 9.14198 0 7.99851 0ZM3.2 7.46667H12.8V13.8667H3.2V7.46667Z" fill="#1C2024"/>
</svg>
