<svg width="16" height="16" viewBox="0 0 16 16" fill="none" xmlns="http://www.w3.org/2000/svg">
<rect width="16" height="16" fill="white" fill-opacity="0.01"/>
<path fill-rule="evenodd" clip-rule="evenodd" d="M14.8267 0.533311C14.8267 0.297669 14.6356 0.106644 14.4 0.106644C14.1644 0.106644 13.9733 0.297669 13.9733 0.533311V1.17331H13.3333C13.0977 1.17331 12.9067 1.36433 12.9067 1.59998C12.9067 1.83562 13.0977 2.02665 13.3333 2.02665H13.9733V2.66665C13.9733 2.90229 14.1644 3.09331 14.4 3.09331C14.6356 3.09331 14.8267 2.90229 14.8267 2.66665V2.02665H15.4667C15.7023 2.02665 15.8933 1.83562 15.8933 1.59998C15.8933 1.36433 15.7023 1.17331 15.4667 1.17331H14.8267V0.533311ZM12.6438 3.35618C12.8521 3.56446 12.8521 3.90215 12.6438 4.11043L11.5772 5.1771C11.3689 5.38538 11.0311 5.38538 10.8229 5.1771C10.6146 4.96882 10.6146 4.63114 10.8229 4.42285L11.8895 3.35619C12.0978 3.14791 12.4355 3.14791 12.6438 3.35618ZM10.5105 5.48952C10.7187 5.69779 10.7187 6.03549 10.5105 6.24377L3.04379 13.7104C2.83551 13.9187 2.49782 13.9187 2.28955 13.7104C2.08126 13.5022 2.08126 13.1645 2.28955 12.9562L9.75622 5.48952C9.9645 5.28124 10.3022 5.28124 10.5105 5.48952ZM14.4 5.43998C14.6356 5.43998 14.8267 5.631 14.8267 5.86665V6.50665H15.4667C15.7023 6.50665 15.8933 6.69767 15.8933 6.93331C15.8933 7.16895 15.7023 7.35998 15.4667 7.35998H14.8267V7.99998C14.8267 8.23562 14.6356 8.42665 14.4 8.42665C14.1644 8.42665 13.9733 8.23562 13.9733 7.99998V7.35998H13.3333C13.0977 7.35998 12.9067 7.16895 12.9067 6.93331C12.9067 6.69767 13.0977 6.50665 13.3333 6.50665H13.9733V5.86665C13.9733 5.631 14.1644 5.43998 14.4 5.43998ZM9.49335 0.533311C9.49335 0.297669 9.30233 0.106644 9.06669 0.106644C8.83104 0.106644 8.64002 0.297669 8.64002 0.533311V1.17331H8.00002C7.76437 1.17331 7.57335 1.36433 7.57335 1.59998C7.57335 1.83562 7.76437 2.02665 8.00002 2.02665H8.64002V2.66665C8.64002 2.90229 8.83104 3.09331 9.06669 3.09331C9.30233 3.09331 9.49335 2.90229 9.49335 2.66665V2.02665H10.1334C10.369 2.02665 10.56 1.83562 10.56 1.59998C10.56 1.36433 10.369 1.17331 10.1334 1.17331H9.49335V0.533311Z" fill="#1C2024"/>
</svg>
