<svg width="16" height="16" viewBox="0 0 16 16" fill="none" xmlns="http://www.w3.org/2000/svg">
<rect width="16" height="16" fill="white" fill-opacity="0.01"/>
<path fill-rule="evenodd" clip-rule="evenodd" d="M5.33333 1.60001C5.33333 1.30546 5.09455 1.06668 4.8 1.06668C4.50545 1.06668 4.26667 1.30546 4.26667 1.60001V7.46668C4.26667 7.48451 4.26754 7.50213 4.26925 7.5195C3.05076 7.76558 2.13333 8.84233 2.13333 10.1333C2.13333 11.4243 3.05076 12.5011 4.26925 12.7472C4.26754 12.7646 4.26667 12.7822 4.26667 12.8V14.4C4.26667 14.6945 4.50545 14.9333 4.8 14.9333C5.09455 14.9333 5.33333 14.6945 5.33333 14.4V12.8C5.33333 12.7822 5.33246 12.7646 5.33075 12.7472C6.54923 12.5011 7.46667 11.4243 7.46667 10.1333C7.46667 8.84233 6.54923 7.76558 5.33075 7.5195C5.33246 7.50213 5.33333 7.48451 5.33333 7.46668V1.60001ZM11.7333 1.60001C11.7333 1.30546 11.4945 1.06668 11.2 1.06668C10.9055 1.06668 10.6667 1.30546 10.6667 1.60001V3.20001C10.6667 3.21784 10.6675 3.23546 10.6692 3.25284C9.45077 3.49892 8.53333 4.57566 8.53333 5.86668C8.53333 7.1577 9.45077 8.23445 10.6692 8.48053C10.6675 8.4979 10.6667 8.51552 10.6667 8.53335V14.4C10.6667 14.6945 10.9055 14.9333 11.2 14.9333C11.4945 14.9333 11.7333 14.6945 11.7333 14.4V8.53335C11.7333 8.51552 11.7325 8.4979 11.7308 8.48053C12.9492 8.23445 13.8667 7.1577 13.8667 5.86668C13.8667 4.57566 12.9492 3.49892 11.7308 3.25284C11.7325 3.23546 11.7333 3.21784 11.7333 3.20001V1.60001ZM4.8 8.53335C3.91634 8.53335 3.2 9.24969 3.2 10.1333C3.2 11.017 3.91634 11.7333 4.8 11.7333C5.68366 11.7333 6.4 11.017 6.4 10.1333C6.4 9.24969 5.68366 8.53335 4.8 8.53335ZM9.6 5.86668C9.6 4.98302 10.3163 4.26668 11.2 4.26668C12.0836 4.26668 12.8 4.98302 12.8 5.86668C12.8 6.75034 12.0836 7.46668 11.2 7.46668C10.3163 7.46668 9.6 6.75034 9.6 5.86668Z" fill="#1C2024"/>
</svg>
