<svg width="16" height="16" viewBox="0 0 16 16" fill="none" xmlns="http://www.w3.org/2000/svg">
<rect width="16" height="16" fill="white" fill-opacity="0.01"/>
<path fill-rule="evenodd" clip-rule="evenodd" d="M4.26668 2.66668C4.26668 2.37213 4.50546 2.13335 4.80001 2.13335H11.2C11.4945 2.13335 11.7333 2.37213 11.7333 2.66668V13.3333C11.7333 13.6279 11.4945 13.8667 11.2 13.8667H4.80001C4.50546 13.8667 4.26668 13.6279 4.26668 13.3333V2.66668ZM4.80001 1.06668C3.91635 1.06668 3.20001 1.78302 3.20001 2.66668V13.3333C3.20001 14.217 3.91635 14.9333 4.80001 14.9333H11.2C12.0836 14.9333 12.8 14.217 12.8 13.3333V2.66668C12.8 1.78302 12.0836 1.06668 11.2 1.06668H4.80001ZM6.40001 12.4267C6.19383 12.4267 6.02668 12.5938 6.02668 12.8C6.02668 13.0062 6.19383 13.1733 6.40001 13.1733H9.60001C9.8062 13.1733 9.97335 13.0062 9.97335 12.8C9.97335 12.5938 9.8062 12.4267 9.60001 12.4267H6.40001Z" fill="#1C2024"/>
</svg>
