<svg width="16" height="16" viewBox="0 0 16 16" fill="none" xmlns="http://www.w3.org/2000/svg">
<rect width="16" height="16" fill="white" fill-opacity="0.01"/>
<path fill-rule="evenodd" clip-rule="evenodd" d="M3.09331 0.533296C3.09331 0.297654 2.90229 0.106628 2.66665 0.106628C2.431 0.106628 2.23998 0.297654 2.23998 0.533296V1.1733H1.59998C1.36433 1.1733 1.17331 1.36432 1.17331 1.59997C1.17331 1.8356 1.36433 2.02663 1.59998 2.02663H2.23998V2.66663C2.23998 2.90227 2.431 3.0933 2.66665 3.0933C2.90229 3.0933 3.09331 2.90227 3.09331 2.66663V2.02663H3.73331C3.96895 2.02663 4.15998 1.8356 4.15998 1.59997C4.15998 1.36432 3.96895 1.1733 3.73331 1.1733H3.09331V0.533296ZM6.29331 3.7333C6.29331 3.49765 6.10229 3.30663 5.86665 3.30663C5.631 3.30663 5.43998 3.49765 5.43998 3.7333V4.3733H4.79998C4.56433 4.3733 4.37331 4.56432 4.37331 4.79997C4.37331 5.0356 4.56433 5.22663 4.79998 5.22663H5.43998V5.86663C5.43998 6.10227 5.631 6.2933 5.86665 6.2933C6.10229 6.2933 6.29331 6.10227 6.29331 5.86663V5.22663H6.93331C7.16895 5.22663 7.35998 5.0356 7.35998 4.79997C7.35998 4.56432 7.16895 4.3733 6.93331 4.3733H6.29331V3.7333ZM2.02665 6.9333C2.02665 6.69765 1.83562 6.50663 1.59998 6.50663C1.36433 6.50663 1.17331 6.69765 1.17331 6.9333V7.5733H0.533311C0.297669 7.5733 0.106644 7.76432 0.106644 7.99997C0.106644 8.2356 0.297669 8.42663 0.533311 8.42663H1.17331V9.06663C1.17331 9.30227 1.36433 9.49329 1.59998 9.49329C1.83562 9.49329 2.02665 9.30227 2.02665 9.06663V8.42663H2.66665C2.90229 8.42663 3.09331 8.2356 3.09331 7.99997C3.09331 7.76432 2.90229 7.5733 2.66665 7.5733H2.02665V6.9333ZM9.11367 1.04728L8.79593 1.00435C8.56827 0.978842 8.43405 1.24319 8.56465 1.43139C8.71481 1.64776 8.85313 1.87297 8.97871 2.10607C9.51337 3.09849 9.81677 4.23393 9.81677 5.44022C9.81677 8.93013 7.2773 11.827 3.94546 12.3837C3.68785 12.4267 3.42387 12.4557 3.15742 12.47C2.92867 12.4821 2.80245 12.7504 2.96236 12.9143C3.03521 12.9891 3.10971 13.0622 3.18578 13.1336L3.26275 13.2048L3.54009 13.4448L3.74063 13.6034L3.86983 13.6995L4.06924 13.8391L4.25685 13.9616C4.38587 14.0428 4.51772 14.12 4.65234 14.1929L4.93329 14.3373L5.21123 14.4647L5.53426 14.595L5.79381 14.6865C5.93669 14.7336 6.08159 14.7764 6.22781 14.8144C6.3388 14.8432 6.45085 14.8694 6.56432 14.893C6.69859 14.9208 6.83427 14.9449 6.97114 14.9651L7.30924 15.0064L7.59397 15.0285C7.72946 15.0363 7.86599 15.0402 8.00344 15.0402C11.8915 15.0402 15.0434 11.8883 15.0434 8.00023C15.0434 7.73379 15.0286 7.4708 14.9998 7.21205L14.9605 6.91633C14.9237 6.67821 14.875 6.44403 14.815 6.21484C14.7427 5.93822 14.6541 5.66823 14.5503 5.40672L14.4298 5.1214L14.3474 4.94444L14.2684 4.78576C14.099 4.45623 13.9043 4.1418 13.6866 3.8445L13.5234 3.63041L13.3113 3.37526L13.1367 3.18251L13.0092 3.05013L12.8379 2.88261L12.601 2.66862L12.2587 2.39136L11.9982 2.20263L11.6866 1.99941L11.3436 1.80152L10.9945 1.62535L10.8734 1.56987L10.6185 1.46196L10.3231 1.35135L10.054 1.26356L9.70747 1.16787L9.42506 1.10384L9.11367 1.04728ZM11.0967 5.65357C11.0967 4.56093 10.8802 3.51816 10.4879 2.56643C12.5465 3.50927 13.9767 5.58785 13.9767 8.00023C13.9767 11.2992 11.3024 13.9735 8.00344 13.9735C7.07889 13.9735 6.2037 13.7638 5.42246 13.389C6.97803 12.9004 8.33153 11.9554 9.3261 10.711C9.47161 10.9103 9.70697 11.0397 9.97257 11.0397C10.4144 11.0397 10.7726 10.6815 10.7726 10.2397C10.7726 9.85872 10.5063 9.53997 10.1497 9.45936C10.2159 9.33508 10.279 9.20888 10.3388 9.08086C10.5425 9.20706 10.7827 9.27991 11.04 9.27991C11.7763 9.27991 12.3733 8.68295 12.3733 7.94658C12.3733 7.2104 11.7766 6.61358 11.0405 6.61325C11.0777 6.29852 11.0967 5.97827 11.0967 5.65357Z" fill="#1C2024"/>
</svg>
