<svg width="16" height="16" viewBox="0 0 16 16" fill="none" xmlns="http://www.w3.org/2000/svg">
<rect width="16" height="16" fill="white" fill-opacity="0.01"/>
<path fill-rule="evenodd" clip-rule="evenodd" d="M1.28328 1.11266C1.07179 1.01866 0.823822 1.07179 0.669407 1.24417C0.514992 1.41655 0.489372 1.66885 0.605983 1.86876L4.18255 8.00002L0.605983 14.1313C0.489372 14.3312 0.514992 14.5835 0.669407 14.7558C0.823822 14.9282 1.07179 14.9813 1.28328 14.8874L15.6833 8.48739C15.8758 8.40179 16 8.21079 16 8.00002C16 7.78926 15.8758 7.59826 15.6833 7.51266L1.28328 1.11266ZM5.16856 7.57335L2.35982 2.7584L14.1535 8.00002L2.35982 13.2416L5.16855 8.42669H9.59999C9.83564 8.42669 10.0267 8.23567 10.0267 8.00002C10.0267 7.76438 9.83564 7.57335 9.59999 7.57335H5.16856Z" fill="#1C2024"/>
</svg>
