<svg width="16" height="16" viewBox="0 0 16 16" fill="none" xmlns="http://www.w3.org/2000/svg">
<rect width="16" height="16" fill="white" fill-opacity="0.01"/>
<path fill-rule="evenodd" clip-rule="evenodd" d="M12.9562 1.22289C13.1645 1.01461 13.5022 1.01461 13.7104 1.22289L15.8437 3.35623C16.0521 3.5645 16.0521 3.90219 15.8437 4.11047L11.6383 8.31594C11.5572 8.39701 11.4636 8.46447 11.3611 8.51575L7.17183 10.6104C6.96649 10.7131 6.71852 10.6728 6.55619 10.5105C6.39387 10.3481 6.35362 10.1002 6.45629 9.89483L8.55091 5.70558C8.60219 5.60303 8.66965 5.50942 8.75072 5.42836L12.9562 1.22289ZM13.3333 2.35426L9.50497 6.18261L8.3975 8.39753L8.66913 8.66916L10.8841 7.56169L14.7124 3.73335L13.3333 2.35426ZM10.6666 2.13335L9.59998 3.20001H5.22667C4.76982 3.20001 4.45926 3.20043 4.21922 3.22004C3.9854 3.23914 3.86582 3.27377 3.78241 3.31627C3.5817 3.41854 3.41853 3.58172 3.31625 3.78242C3.27376 3.86584 3.23913 3.98541 3.22003 4.21924C3.20041 4.45928 3.2 4.76984 3.2 5.22668V11.84C3.2 12.2969 3.20041 12.6074 3.22003 12.8475C3.23913 13.0813 3.27376 13.2009 3.31625 13.2843C3.41853 13.485 3.5817 13.6481 3.78241 13.7504C3.86582 13.793 3.9854 13.8275 4.21922 13.8466C4.45926 13.8663 4.76982 13.8667 5.22667 13.8667H11.84C12.2969 13.8667 12.6074 13.8663 12.8475 13.8466C13.0813 13.8275 13.2009 13.793 13.2843 13.7504C13.485 13.6481 13.6481 13.485 13.7504 13.2843C13.793 13.2009 13.8275 13.0813 13.8466 12.8475C13.8662 12.6074 13.8667 12.2969 13.8667 11.84V7.46666L14.9333 6.39999V11.84V11.8621C14.9333 12.2913 14.9333 12.6457 14.9098 12.9343C14.8852 13.2341 14.8327 13.5097 14.7008 13.7685C14.4963 14.1699 14.1699 14.4963 13.7685 14.7008C13.5097 14.8328 13.2341 14.8852 12.9343 14.9098C12.6457 14.9333 12.2913 14.9333 11.8621 14.9333H11.84H5.22667H5.20463C4.77532 14.9333 4.42099 14.9333 4.13236 14.9098C3.83257 14.8852 3.557 14.8328 3.29815 14.7008C2.89675 14.4963 2.57038 14.1699 2.36585 13.7685C2.23396 13.5097 2.1814 13.2341 2.15691 12.9343C2.13332 12.6457 2.13332 12.2913 2.13333 11.8621V11.84V5.22668V5.20465C2.13332 4.77536 2.13332 4.42101 2.15691 4.13238C2.1814 3.83259 2.23396 3.55702 2.36585 3.29817C2.57038 2.89675 2.89675 2.57039 3.29815 2.36587C3.557 2.23398 3.83257 2.18141 4.13236 2.15692C4.42099 2.13334 4.77531 2.13334 5.20461 2.13335H5.22667H10.6666Z" fill="#1C2024"/>
</svg>
