<svg width="16" height="16" viewBox="0 0 16 16" fill="none" xmlns="http://www.w3.org/2000/svg">
<rect width="16" height="16" fill="white" fill-opacity="0.01"/>
<path fill-rule="evenodd" clip-rule="evenodd" d="M4.48 1.06668H4.4559C4.12733 1.06667 3.84392 1.06666 3.61183 1.08873C3.36614 1.11209 3.12347 1.16389 2.89733 1.30246C2.68205 1.43438 2.50104 1.6154 2.36911 1.83068C2.23054 2.05681 2.17874 2.29949 2.15538 2.54518C2.13331 2.77726 2.13332 3.06065 2.13333 3.38922V3.41335V12.5867V12.6108C2.13332 12.9394 2.13331 13.2227 2.15538 13.4548C2.17874 13.7005 2.23054 13.9432 2.36911 14.1693C2.50104 14.3847 2.68205 14.5657 2.89733 14.6976C3.12347 14.8362 3.36614 14.8879 3.61183 14.9113C3.84392 14.9333 4.12733 14.9333 4.4559 14.9333H4.48H11.52H11.5441C11.8726 14.9333 12.1561 14.9333 12.3882 14.9113C12.6338 14.8879 12.8765 14.8362 13.1026 14.6976C13.318 14.5657 13.499 14.3847 13.6309 14.1693C13.7695 13.9432 13.8212 13.7005 13.8446 13.4548C13.8667 13.2227 13.8667 12.9393 13.8667 12.6108V12.5867V3.41335V3.38925C13.8667 3.06067 13.8667 2.77727 13.8446 2.54518C13.8212 2.29949 13.7695 2.05681 13.6309 1.83068C13.499 1.6154 13.318 1.43438 13.1026 1.30246C12.8765 1.16389 12.6338 1.11209 12.3882 1.08873C12.1561 1.06666 11.8726 1.06667 11.5441 1.06668H11.52H4.48ZM3.45467 2.21194C3.48503 2.19333 3.54519 2.16654 3.7128 2.15061C3.88834 2.13391 4.12051 2.13335 4.48 2.13335H11.52C11.8795 2.13335 12.1117 2.13391 12.2873 2.15061C12.4548 2.16654 12.515 2.19333 12.5454 2.21194C12.6171 2.25592 12.6774 2.31625 12.7214 2.38801C12.7401 2.41838 12.7668 2.47854 12.7827 2.64615C12.7995 2.82169 12.8 3.05386 12.8 3.41335V12.5867C12.8 12.9461 12.7995 13.1784 12.7827 13.3539C12.7668 13.5215 12.7401 13.5817 12.7214 13.6121C12.6774 13.6837 12.6171 13.7441 12.5454 13.7881C12.515 13.8067 12.4548 13.8335 12.2873 13.8494C12.1117 13.8661 11.8795 13.8667 11.52 13.8667H4.48C4.12051 13.8667 3.88834 13.8661 3.7128 13.8494C3.54519 13.8335 3.48503 13.8067 3.45467 13.7881C3.3829 13.7441 3.32257 13.6837 3.27859 13.6121C3.25999 13.5817 3.23319 13.5215 3.21726 13.3539C3.20056 13.1784 3.2 12.9461 3.2 12.5867V3.41335C3.2 3.05386 3.20056 2.82169 3.21726 2.64615C3.23319 2.47854 3.25999 2.41838 3.27859 2.38801C3.32257 2.31625 3.3829 2.25592 3.45467 2.21194ZM5.33333 10.6667C5.03878 10.6667 4.8 10.9055 4.8 11.2C4.8 11.4945 5.03878 11.7333 5.33333 11.7333H8.53333C8.82788 11.7333 9.06667 11.4945 9.06667 11.2C9.06667 10.9055 8.82788 10.6667 8.53333 10.6667H5.33333ZM4.8 8.00001C4.8 7.70546 5.03878 7.46668 5.33333 7.46668H10.6667C10.9612 7.46668 11.2 7.70546 11.2 8.00001C11.2 8.29456 10.9612 8.53335 10.6667 8.53335H5.33333C5.03878 8.53335 4.8 8.29456 4.8 8.00001ZM5.33333 4.26668C5.03878 4.26668 4.8 4.50547 4.8 4.80001C4.8 5.09456 5.03878 5.33335 5.33333 5.33335H10.6667C10.9612 5.33335 11.2 5.09456 11.2 4.80001C11.2 4.50547 10.9612 4.26668 10.6667 4.26668H5.33333Z" fill="#1C2024"/>
</svg>
