<svg width="16" height="16" viewBox="0 0 16 16" fill="none" xmlns="http://www.w3.org/2000/svg">
<rect width="16" height="16" fill="white" fill-opacity="0.01"/>
<path fill-rule="evenodd" clip-rule="evenodd" d="M7.31048 4.11044L8.16379 3.25709C8.85131 2.5696 10.0572 2.09249 11.2555 1.92132C11.846 1.83697 12.4044 1.83172 12.8602 1.89998C13.332 1.97063 13.6211 2.10875 13.7563 2.2438C13.8913 2.37885 14.0294 2.66799 14.1001 3.1398C14.1683 3.59557 14.1631 4.154 14.0787 4.74453C13.9075 5.9428 13.4304 7.14866 12.7428 7.8362L8 12.5791L6.77712 11.3563C6.56883 11.1479 6.23114 11.1479 6.02287 11.3563C5.81459 11.5645 5.81459 11.9022 6.02287 12.1105L7.62288 13.7105C7.83116 13.9187 8.16885 13.9187 8.37713 13.7105L8.96079 13.1268L10.2093 15.2077C10.2938 15.3486 10.4385 15.4425 10.6015 15.4627C10.7645 15.4828 10.9277 15.4265 11.0437 15.3105L13.1771 13.1772C13.2958 13.0584 13.3517 12.8908 13.328 12.7246L12.8323 9.25523L13.4972 8.59044C14.4096 7.67794 14.9458 6.21711 15.1346 4.89538C15.2303 4.22591 15.2417 3.56102 15.155 2.98181C15.0706 2.41863 14.882 1.86113 14.5104 1.48953C14.1389 1.11795 13.5813 0.929409 13.0181 0.845069C12.4389 0.758329 11.7741 0.769741 11.1045 0.865374C9.78287 1.05418 8.32202 1.59039 7.40954 2.50284L6.74478 3.16765L3.27543 2.67203C3.10926 2.64829 2.94159 2.70417 2.82289 2.82288L0.689555 4.9562C0.573425 5.07234 0.517274 5.2355 0.537341 5.39849C0.557408 5.56149 0.651453 5.70616 0.792281 5.79067L2.87322 7.03922L2.28956 7.62287C2.18955 7.72289 2.13336 7.85855 2.13336 8C2.13336 8.14144 2.18955 8.2771 2.28956 8.37712L3.88958 9.97712C4.09785 10.1854 4.43554 10.1854 4.64382 9.97712C4.8521 9.76884 4.8521 9.43116 4.64382 9.22288L3.42094 8L4.11048 7.31045L7.31048 4.11044ZM10.7726 14.0732L9.73824 12.3493L11.8895 10.198L12.2344 12.6114L10.7726 14.0732ZM3.65068 6.26176L5.80198 4.11045L3.38857 3.76568L1.92681 5.22744L3.65068 6.26176ZM2.51047 11.0437C2.71875 10.8355 2.71875 10.4978 2.51047 10.2895C2.30219 10.0812 1.9645 10.0812 1.75622 10.2895L0.689555 11.3561C0.481274 11.5645 0.481274 11.9022 0.689555 12.1104C0.897834 12.3187 1.23553 12.3187 1.4438 12.1104L2.51047 11.0437ZM4.11049 12.6438C4.31877 12.4355 4.31878 12.0978 4.1105 11.8896C3.90223 11.6813 3.56454 11.6813 3.35625 11.8896L1.22289 14.0228C1.01461 14.2311 1.01461 14.5688 1.22289 14.7771C1.43116 14.9854 1.76885 14.9854 1.97713 14.7772L4.11049 12.6438ZM5.71047 14.2437C5.91875 14.0355 5.91875 13.6978 5.71047 13.4895C5.50219 13.2813 5.1645 13.2813 4.95622 13.4895L3.88955 14.5561C3.68128 14.7645 3.68128 15.1022 3.88955 15.3104C4.09783 15.5187 4.43553 15.5187 4.6438 15.3104L5.71047 14.2437ZM10.1333 7.19872C10.869 7.19872 11.4654 6.60233 11.4654 5.86665C11.4654 5.13097 10.869 4.53458 10.1333 4.53458C9.39762 4.53458 8.80123 5.13097 8.80123 5.86665C8.80123 6.60233 9.39762 7.19872 10.1333 7.19872Z" fill="#1C2024"/>
</svg>
