<svg width="16" height="16" viewBox="0 0 16 16" fill="none" xmlns="http://www.w3.org/2000/svg">
<rect width="16" height="16" fill="white" fill-opacity="0.01"/>
<path fill-rule="evenodd" clip-rule="evenodd" d="M0.533333 4.26666C0.238782 4.26666 0 4.50545 0 4.8V11.2C0 11.4945 0.238782 11.7333 0.533333 11.7333H15.4667C15.7612 11.7333 16 11.4945 16 11.2V4.8C16 4.50545 15.7612 4.26666 15.4667 4.26666H0.533333ZM1.06667 10.6667V5.33333H2.21333V8C2.21333 8.25036 2.4163 8.45333 2.66667 8.45333C2.91703 8.45333 3.12 8.25036 3.12 8V5.33333H4.34667V6.93333C4.34667 7.1837 4.54963 7.38666 4.8 7.38666C5.05037 7.38666 5.25333 7.1837 5.25333 6.93333V5.33333H6.48V6.93333C6.48 7.1837 6.68297 7.38666 6.93333 7.38666C7.1837 7.38666 7.38667 7.1837 7.38667 6.93333V5.33333H8.61333V8C8.61333 8.25036 8.8163 8.45333 9.06667 8.45333C9.31703 8.45333 9.52 8.25036 9.52 8V5.33333H10.7467V6.93333C10.7467 7.1837 10.9497 7.38666 11.2 7.38666C11.4503 7.38666 11.6533 7.1837 11.6533 6.93333V5.33333H12.88V6.93333C12.88 7.1837 13.083 7.38666 13.3333 7.38666C13.5837 7.38666 13.7867 7.1837 13.7867 6.93333V5.33333H14.9333V10.6667H1.06667Z" fill="#1C2024"/>
</svg>
