<svg width="16" height="16" viewBox="0 0 16 16" fill="none" xmlns="http://www.w3.org/2000/svg">
<rect width="16" height="16" fill="white" fill-opacity="0.01"/>
<path fill-rule="evenodd" clip-rule="evenodd" d="M0.533333 0C0.238782 0 0 0.238782 0 0.533333V15.4667C0 15.7612 0.238782 16 0.533333 16H4.8C5.09455 16 5.33333 15.7612 5.33333 15.4667V5.33333H15.4667C15.7612 5.33333 16 5.09455 16 4.8V0.533333C16 0.238782 15.7612 0 15.4667 0H0.533333ZM1.06667 4.34672V1.06667H4.34669L4.34672 4.34674L1.06667 4.34672ZM1.06666 5.25339L1.06667 14.9333H4.26667V13.7867H2.93335C2.68299 13.7867 2.48002 13.5838 2.48002 13.3333C2.48002 13.083 2.68299 12.88 2.93335 12.88H4.26667V11.6533H2.40002C2.14965 11.6533 1.94669 11.4503 1.94669 11.2C1.94669 10.9497 2.14965 10.7467 2.40002 10.7467H4.26667V9.52004L2.93335 9.52002C2.68299 9.52002 2.48002 9.31706 2.48002 9.06669C2.48003 8.81631 2.683 8.61335 2.93337 8.61335L4.26667 8.61338V7.38669L2.93332 7.38667C2.68295 7.38667 2.48 7.1837 2.48 6.93333C2.48 6.68297 2.68298 6.48 2.93334 6.48L4.26667 6.48002V5.25341L1.06666 5.25339ZM5.25339 4.26667H6.48V2.9334C6.48 2.68303 6.68297 2.48006 6.93333 2.48006C7.1837 2.48006 7.38667 2.68303 7.38667 2.9334V4.26667H8.61335V2.93339C8.61335 2.68302 8.81632 2.48005 9.06669 2.48005C9.31706 2.48005 9.52002 2.68302 9.52002 2.93339V4.26667H10.7468V2.40005C10.7468 2.14969 10.9497 1.94672 11.2001 1.94672C11.4505 1.94672 11.6534 2.14969 11.6534 2.40005V4.26667H12.8801V2.93339C12.8801 2.68302 13.0831 2.48005 13.3334 2.48005C13.5838 2.48005 13.7868 2.68302 13.7868 2.93339V4.26667H14.9333V1.06667H5.25336L5.25339 4.26667Z" fill="#1C2024"/>
</svg>
