<svg width="16" height="16" viewBox="0 0 16 16" fill="none" xmlns="http://www.w3.org/2000/svg">
<rect width="16" height="16" fill="white" fill-opacity="0.01"/>
<path fill-rule="evenodd" clip-rule="evenodd" d="M1.01331 4.78353C1.01331 5.69664 1.75354 6.43686 2.66665 6.43686C3.57976 6.43686 4.31998 5.69664 4.31998 4.78353C4.31998 3.87041 3.57976 3.1302 2.66665 3.1302C1.75354 3.1302 1.01331 3.87041 1.01331 4.78353ZM2.66665 7.39686C1.22334 7.39686 0.0533142 6.22683 0.0533142 4.78353C0.0533142 3.34022 1.22334 2.1702 2.66665 2.1702C4.10996 2.1702 5.27998 3.34022 5.27998 4.78353C5.27998 5.12868 5.21307 5.45822 5.0915 5.75985L6.11898 6.44708C6.11139 6.47101 6.1042 6.49509 6.09743 6.51935L5.93373 7.10599L5.55738 7.35759L4.49657 6.64925C4.02514 7.11169 3.37919 7.39686 2.66665 7.39686ZM1.01332 11.2C1.01332 10.2869 1.75354 9.54665 2.66665 9.54665C3.57976 9.54665 4.31998 10.2869 4.31998 11.2C4.31998 12.1131 3.57976 12.8533 2.66665 12.8533C1.75354 12.8533 1.01332 12.1131 1.01332 11.2ZM2.66665 8.58666C1.22334 8.58666 0.0533174 9.75668 0.0533174 11.2C0.0533174 12.6433 1.22334 13.8133 2.66665 13.8133C4.10996 13.8133 5.27998 12.6433 5.27998 11.2C5.27998 10.859 5.21468 10.5333 5.09592 10.2347L16 2.9412L14.9852 3.04787C13.5549 3.1982 12.1697 3.63622 10.9131 4.33559L7.63355 6.16069C7.3846 6.29924 7.20142 6.53163 7.12485 6.80605L6.85496 7.7732L4.50599 9.34355C4.03376 8.87565 3.38395 8.58666 2.66665 8.58666ZM7.62063 9.82924L7.63355 9.83655L10.9131 11.6617C12.1697 12.361 13.5549 12.7991 14.9852 12.9493L16 13.056L9.3981 8.64033L7.62063 9.82924Z" fill="#1C2024"/>
</svg>
