<svg width="16" height="16" viewBox="0 0 16 16" fill="none" xmlns="http://www.w3.org/2000/svg">
<rect width="16" height="16" fill="white" fill-opacity="0.01"/>
<path fill-rule="evenodd" clip-rule="evenodd" d="M6.40001 3.73335C6.40001 2.84969 7.11635 2.13335 8.00001 2.13335C8.88367 2.13335 9.60001 2.84969 9.60001 3.73335C9.60001 4.61701 8.88367 5.33335 8.00001 5.33335C7.11635 5.33335 6.40001 4.61701 6.40001 3.73335ZM8.53334 6.34667C9.75054 6.0996 10.6667 5.02346 10.6667 3.73335C10.6667 2.26059 9.47277 1.06668 8.00001 1.06668C6.52725 1.06668 5.33334 2.26059 5.33334 3.73335C5.33334 5.02346 6.24948 6.0996 7.46668 6.34667V14.4C7.46668 14.6945 7.70546 14.9333 8.00001 14.9333C8.29456 14.9333 8.53334 14.6945 8.53334 14.4V6.34667Z" fill="#1C2024"/>
</svg>
