<svg width="16" height="16" viewBox="0 0 16 16" fill="none" xmlns="http://www.w3.org/2000/svg">
<rect width="16" height="16" fill="white" fill-opacity="0.01"/>
<path fill-rule="evenodd" clip-rule="evenodd" d="M7.44472 1.33515L7.4224 1.38878L5.95906 4.90708C5.91298 5.01787 5.80878 5.09357 5.68918 5.10316L1.89088 5.40767L1.83297 5.41231L1.47933 5.44067L1.15849 5.46639C0.87476 5.48914 0.759713 5.84321 0.975884 6.02839L1.22033 6.23779L1.48977 6.46859L1.53389 6.50638L4.42779 8.98532C4.51892 9.06338 4.55872 9.18587 4.53087 9.30259L3.64674 13.0091L3.63326 13.0656L3.55095 13.4107L3.47626 13.7237C3.41022 14.0006 3.71142 14.2195 3.95433 14.0711L4.22902 13.9034L4.53178 13.7184L4.58136 13.6881L7.83323 11.7019C7.93563 11.6394 8.06443 11.6394 8.16683 11.7019L11.4187 13.6881L11.4683 13.7184L11.7711 13.9034L12.0458 14.0711C12.2886 14.2195 12.5899 14.0006 12.5238 13.7237L12.4491 13.4107L12.3668 13.0656L12.3533 13.0091L11.4692 9.30259C11.4414 9.18587 11.4812 9.06338 11.5723 8.98532L14.4661 6.50638L14.5103 6.46859L14.7797 6.23779L15.0242 6.02839C15.2403 5.84321 15.1253 5.48914 14.8416 5.46639L14.5208 5.44067L14.167 5.41231L14.1092 5.40767L10.3109 5.10316C10.1913 5.09357 10.0871 5.01787 10.041 4.90708L8.57766 1.38878L8.55535 1.33515L8.41911 1.00758L8.29549 0.710386C8.18618 0.447572 7.81388 0.447572 7.70457 0.710386L7.58096 1.00758L7.44472 1.33515ZM8.00004 2.77756L6.94394 5.31671C6.74425 5.79683 6.29274 6.12487 5.77441 6.16643L3.03319 6.38618L5.12171 8.17523C5.51662 8.51351 5.68908 9.04429 5.56843 9.55008L4.93036 12.2251L7.27723 10.7916C7.72098 10.5205 8.27909 10.5205 8.72284 10.7916L11.0697 12.2251L10.4316 9.55008C10.311 9.04429 10.4834 8.51351 10.8783 8.17523L12.9668 6.38618L10.2256 6.16643C9.70732 6.12487 9.25581 5.79683 9.05612 5.31671L8.00004 2.77756Z" fill="#1C2024"/>
</svg>
