<svg width="16" height="16" viewBox="0 0 16 16" fill="none" xmlns="http://www.w3.org/2000/svg">
<rect width="16" height="16" fill="white" fill-opacity="0.01"/>
<path d="M7.70456 0.710386C7.81387 0.447572 8.18617 0.447572 8.29548 0.710386L10.041 4.90708C10.0871 5.01787 10.1913 5.09357 10.3109 5.10316L14.8416 5.46639C15.1253 5.48914 15.2403 5.84321 15.0242 6.02839L11.5723 8.98532C11.4812 9.06338 11.4414 9.18587 11.4692 9.30259L12.5238 13.7237C12.5899 14.0006 12.2886 14.2195 12.0458 14.0711L8.16682 11.7019C8.06442 11.6394 7.93562 11.6394 7.83322 11.7019L3.95432 14.0711C3.71141 14.2195 3.41021 14.0006 3.47625 13.7237L4.53086 9.30259C4.55872 9.18587 4.51891 9.06338 4.42778 8.98532L0.975877 6.02839C0.759705 5.84321 0.874753 5.48914 1.15848 5.46639L5.68917 5.10316C5.80877 5.09357 5.91298 5.01787 5.95906 4.90708L7.70456 0.710386Z" fill="#1C2024"/>
</svg>
