<svg width="16" height="16" viewBox="0 0 16 16" fill="none" xmlns="http://www.w3.org/2000/svg">
<rect width="16" height="16" fill="white" fill-opacity="0.01"/>
<path fill-rule="evenodd" clip-rule="evenodd" d="M0.960022 8.00002C0.960022 4.11194 4.11194 0.960022 8.00002 0.960022C11.8881 0.960022 15.04 4.11194 15.04 8.00002C15.04 11.8881 11.8881 15.04 8.00002 15.04C4.11194 15.04 0.960022 11.8881 0.960022 8.00002ZM8.00002 1.92002C4.64214 1.92002 1.92002 4.64214 1.92002 8.00002C1.92002 11.3579 4.64214 14.08 8.00002 14.08C11.3579 14.08 14.08 11.3579 14.08 8.00002C14.08 4.64214 11.3579 1.92002 8.00002 1.92002ZM3.28004 8.00002C3.28004 5.39324 5.39325 3.28002 8.00004 3.28002C10.6068 3.28002 12.72 5.39324 12.72 8.00002C12.72 10.6068 10.6068 12.72 8.00004 12.72C5.39325 12.72 3.28004 10.6068 3.28004 8.00002ZM8.00004 4.18668C5.89399 4.18668 4.18671 5.89398 4.18671 8.00002C4.18671 10.106 5.894 11.8133 8.00004 11.8133C10.1061 11.8133 11.8133 10.106 11.8133 8.00002C11.8133 5.89398 10.1061 4.18668 8.00004 4.18668ZM8.00004 5.60002C6.67456 5.60002 5.60004 6.67455 5.60004 8.00002C5.60004 9.3255 6.67456 10.4 8.00004 10.4C9.32551 10.4 10.4 9.3255 10.4 8.00002C10.4 6.67453 9.32551 5.60002 8.00004 5.60002ZM6.45337 8.00002C6.45337 7.14582 7.14584 6.45335 8.00004 6.45335C8.85423 6.45335 9.5467 7.14582 9.5467 8.00002C9.5467 8.85421 8.85423 9.54668 8.00004 9.54668C7.14584 9.54668 6.45337 8.85421 6.45337 8.00002Z" fill="#1C2024"/>
</svg>
