<svg width="16" height="16" viewBox="0 0 16 16" fill="none" xmlns="http://www.w3.org/2000/svg">
<rect width="16" height="16" fill="white" fill-opacity="0.01"/>
<path fill-rule="evenodd" clip-rule="evenodd" d="M8.00001 2.1333C8.29456 2.1333 8.53335 2.37208 8.53335 2.66663V12.0457L11.8895 8.68951C12.0978 8.48123 12.4355 8.48123 12.6439 8.68951C12.8521 8.89779 12.8521 9.23548 12.6439 9.44375L8.37713 13.7105C8.27712 13.8104 8.14147 13.8666 8.00001 13.8666C7.85856 13.8666 7.72291 13.8104 7.6229 13.7105L3.35623 9.44375C3.14794 9.23548 3.14794 8.89779 3.35623 8.68951C3.56451 8.48123 3.90219 8.48123 4.11047 8.68951L7.46668 12.0457V2.66663C7.46668 2.37208 7.70547 2.1333 8.00001 2.1333Z" fill="#1C2024"/>
</svg>
