<svg width="16" height="16" viewBox="0 0 16 16" fill="none" xmlns="http://www.w3.org/2000/svg">
<rect width="16" height="16" fill="white" fill-opacity="0.01"/>
<path fill-rule="evenodd" clip-rule="evenodd" d="M3.88955 3.88949C3.68127 4.09777 3.68127 4.43546 3.88955 4.64373L10.9791 11.7333H6.40001C6.10546 11.7333 5.86667 11.9721 5.86667 12.2666C5.86667 12.5611 6.10546 12.8 6.40001 12.8H12.2667C12.4081 12.8 12.5438 12.7437 12.6438 12.6438C12.7438 12.5437 12.8 12.4081 12.8 12.2666V6.39995C12.8 6.1054 12.5612 5.86661 12.2667 5.86661C11.9722 5.86661 11.7333 6.1054 11.7333 6.39995V10.9791L4.64379 3.88948C4.43552 3.68121 4.09783 3.68121 3.88955 3.88949Z" fill="#1C2024"/>
</svg>
