<svg width="16" height="16" viewBox="0 0 16 16" fill="none" xmlns="http://www.w3.org/2000/svg">
<rect width="16" height="16" fill="white" fill-opacity="0.01"/>
<path fill-rule="evenodd" clip-rule="evenodd" d="M12.1105 12.1105C12.3187 11.9021 12.3187 11.5644 12.1105 11.3562L5.02091 4.26662H9.6C9.89455 4.26662 10.1333 4.02783 10.1333 3.73328C10.1333 3.43874 9.89455 3.19995 9.6 3.19995H3.73333C3.59188 3.19995 3.45622 3.25614 3.35621 3.35616C3.25619 3.45619 3.2 3.59183 3.2 3.73328V9.59996C3.2 9.89451 3.43878 10.1333 3.73333 10.1333C4.02788 10.1333 4.26666 9.89451 4.26666 9.59996V5.02087L11.3562 12.1105C11.5645 12.3187 11.9022 12.3187 12.1105 12.1105Z" fill="#1C2024"/>
</svg>
