<svg width="16" height="16" viewBox="0 0 16 16" fill="none" xmlns="http://www.w3.org/2000/svg">
<rect width="16" height="16" fill="white" fill-opacity="0.01"/>
<path fill-rule="evenodd" clip-rule="evenodd" d="M12.1105 3.88949C12.3187 4.09777 12.3187 4.43546 12.1105 4.64373L5.02093 11.7333H9.60001C9.89456 11.7333 10.1333 11.9721 10.1333 12.2666C10.1333 12.5611 9.89456 12.8 9.60001 12.8H3.73335C3.59189 12.8 3.45624 12.7437 3.35623 12.6438C3.2562 12.5437 3.20001 12.4081 3.20001 12.2666V6.39995C3.20001 6.1054 3.4388 5.86661 3.73335 5.86661C4.02789 5.86661 4.26668 6.1054 4.26668 6.39995V10.9791L11.3562 3.88948C11.5645 3.68121 11.9022 3.68121 12.1105 3.88949Z" fill="#1C2024"/>
</svg>
