<svg width="16" height="16" viewBox="0 0 16 16" fill="none" xmlns="http://www.w3.org/2000/svg">
<rect width="16" height="16" fill="white" fill-opacity="0.01"/>
<path fill-rule="evenodd" clip-rule="evenodd" d="M3.88955 12.1105C3.68127 11.9021 3.68127 11.5644 3.88955 11.3562L10.9791 4.26662H6.40001C6.10546 4.26662 5.86667 4.02783 5.86667 3.73328C5.86667 3.43874 6.10546 3.19995 6.40001 3.19995H12.2667C12.4081 3.19995 12.5438 3.25614 12.6438 3.35616C12.7438 3.45619 12.8 3.59183 12.8 3.73328V9.59996C12.8 9.89451 12.5612 10.1333 12.2667 10.1333C11.9722 10.1333 11.7333 9.89451 11.7333 9.59996V5.02087L4.64379 12.1105C4.43552 12.3187 4.09783 12.3187 3.88955 12.1105Z" fill="#1C2024"/>
</svg>
