<svg width="16" height="16" viewBox="0 0 16 16" fill="none" xmlns="http://www.w3.org/2000/svg">
<rect width="16" height="16" fill="white" fill-opacity="0.01"/>
<path fill-rule="evenodd" clip-rule="evenodd" d="M5.26057 5.79388C5.07312 5.98134 5.07312 6.28525 5.26057 6.47271C5.44803 6.66015 5.75194 6.66015 5.9394 6.47271L7.99998 4.41211L10.0606 6.47271C10.248 6.66015 10.5519 6.66015 10.7394 6.47271C10.9268 6.28525 10.9268 5.98134 10.7394 5.79388L8.3394 3.39388C8.24937 3.30387 8.12728 3.2533 7.99998 3.2533C7.87268 3.2533 7.75059 3.30387 7.66057 3.39388L5.26057 5.79388ZM10.7394 10.206C10.9268 10.0186 10.9268 9.71467 10.7394 9.52722C10.5519 9.33977 10.248 9.33977 10.0606 9.52722L7.99998 11.5878L5.9394 9.52722C5.75194 9.33977 5.44803 9.33977 5.26057 9.52722C5.07312 9.71467 5.07312 10.0186 5.26057 10.206L7.66057 12.6061C7.84803 12.7935 8.15194 12.7935 8.3394 12.6061L10.7394 10.206Z" fill="#1C2024"/>
</svg>
