<svg width="16" height="16" viewBox="0 0 16 16" fill="none" xmlns="http://www.w3.org/2000/svg">
<rect width="16" height="16" fill="white" fill-opacity="0.01"/>
<path fill-rule="evenodd" clip-rule="evenodd" d="M11.8895 7.31042C12.0978 7.51871 12.4355 7.51871 12.6438 7.31042C12.8521 7.10215 12.8521 6.76446 12.6438 6.55618L8.37712 2.28952C8.16884 2.08123 7.83116 2.08123 7.62288 2.28952L3.35621 6.55618C3.14792 6.76446 3.14792 7.10215 3.35621 7.31042C3.56449 7.51871 3.90218 7.51871 4.11045 7.31042L8 3.42089L11.8895 7.31042ZM11.8895 13.7105C12.0978 13.9187 12.4355 13.9187 12.6438 13.7105C12.8521 13.5022 12.8521 13.1645 12.6438 12.9561L8.37712 8.68952C8.16884 8.48123 7.83116 8.48123 7.62288 8.68952L3.35621 12.9561C3.14792 13.1645 3.14792 13.5022 3.35621 13.7105C3.56449 13.9187 3.90218 13.9187 4.11045 13.7105L8 9.82089L11.8895 13.7105Z" fill="#1C2024"/>
</svg>
