<svg width="16" height="16" viewBox="0 0 16 16" fill="none" xmlns="http://www.w3.org/2000/svg">
<rect width="16" height="16" fill="white" fill-opacity="0.01"/>
<path fill-rule="evenodd" clip-rule="evenodd" d="M4.11045 2.28952C3.90218 2.08123 3.56449 2.08123 3.35621 2.28952C3.14792 2.49779 3.14792 2.83548 3.35621 3.04376L7.62288 7.31042C7.83116 7.51871 8.16884 7.51871 8.37712 7.31042L12.6438 3.04376C12.8521 2.83548 12.8521 2.49779 12.6438 2.28952C12.4355 2.08123 12.0978 2.08123 11.8895 2.28952L8 6.17905L4.11045 2.28952ZM4.11045 8.68952C3.90218 8.48123 3.56449 8.48123 3.35621 8.68952C3.14792 8.89779 3.14792 9.23548 3.35621 9.44376L7.62288 13.7105C7.83116 13.9187 8.16884 13.9187 8.37712 13.7105L12.6438 9.44376C12.8521 9.23548 12.8521 8.89779 12.6438 8.68952C12.4355 8.48123 12.0978 8.48123 11.8895 8.68952L8 12.5791L4.11045 8.68952Z" fill="#1C2024"/>
</svg>
