<svg width="16" height="16" viewBox="0 0 16 16" fill="none" xmlns="http://www.w3.org/2000/svg">
<rect width="16" height="16" fill="white" fill-opacity="0.01"/>
<path fill-rule="evenodd" clip-rule="evenodd" d="M7.66006 1.79391C7.84752 1.60646 8.15143 1.60646 8.33889 1.79391L11.0056 4.46058C11.193 4.64803 11.193 4.95195 11.0056 5.13941C10.8181 5.32685 10.5142 5.32685 10.3267 5.13941L8.47948 3.29214V12.7078L10.3267 10.8606C10.5142 10.6732 10.8181 10.6732 11.0056 10.8606C11.193 11.048 11.193 11.3519 11.0056 11.5394L8.33889 14.2061C8.24887 14.2961 8.12678 14.3467 7.99948 14.3467C7.87217 14.3467 7.75008 14.2961 7.66006 14.2061L4.9934 11.5394C4.80595 11.3519 4.80595 11.048 4.9934 10.8606C5.18085 10.6732 5.48477 10.6732 5.67222 10.8606L7.51948 12.7078V3.29214L5.67222 5.13941C5.48477 5.32685 5.18085 5.32685 4.9934 5.13941C4.80595 4.95195 4.80595 4.64803 4.9934 4.46058L7.66006 1.79391Z" fill="#1C2024"/>
</svg>
