<svg width="16" height="16" viewBox="0 0 16 16" fill="none" xmlns="http://www.w3.org/2000/svg">
<rect width="16" height="16" fill="white" fill-opacity="0.01"/>
<path fill-rule="evenodd" clip-rule="evenodd" d="M8.3394 0.99386C8.15195 0.806409 7.84803 0.806409 7.66058 0.99386L5.79391 2.86053C5.60645 3.04798 5.60645 3.3519 5.79391 3.53935C5.98137 3.7268 6.28528 3.7268 6.47274 3.53935L7.46666 2.54542V5.86661C7.46666 6.16116 7.70544 6.39994 7.99999 6.39994C8.29454 6.39994 8.53332 6.16116 8.53332 5.86661V2.54542L9.52724 3.53935C9.7147 3.7268 10.0186 3.7268 10.2061 3.53935C10.3935 3.3519 10.3935 3.04798 10.2061 2.86053L8.3394 0.99386ZM8.53332 10.1333C8.53332 9.83873 8.29454 9.59994 7.99999 9.59994C7.70544 9.59994 7.46666 9.83873 7.46666 10.1333V13.4545L6.47274 12.4605C6.28528 12.2731 5.98137 12.2731 5.79391 12.4605C5.60645 12.648 5.60645 12.9518 5.79391 13.1394L7.66058 15.006C7.84803 15.1934 8.15195 15.1934 8.3394 15.006L10.2061 13.1394C10.3935 12.9518 10.3935 12.648 10.2061 12.4605C10.0186 12.2731 9.7147 12.2731 9.52724 12.4605L8.53332 13.4545V10.1333ZM9.59999 7.99994C9.59999 7.70539 9.83877 7.46661 10.1333 7.46661H13.4545L12.4606 6.47269C12.2732 6.28523 12.2732 5.98132 12.4606 5.79386C12.648 5.6064 12.9519 5.6064 13.1394 5.79386L15.0061 7.66053C15.1935 7.84798 15.1935 8.1519 15.0061 8.33935L13.1394 10.206C12.9519 10.3935 12.648 10.3935 12.4606 10.206C12.2732 10.0186 12.2732 9.71465 12.4606 9.52719L13.4545 8.53327H10.1333C9.83877 8.53327 9.59999 8.29449 9.59999 7.99994ZM3.5394 6.47269L2.54547 7.46661H5.86666C6.16121 7.46661 6.39999 7.70539 6.39999 7.99994C6.39999 8.29449 6.16121 8.53327 5.86666 8.53327H2.54547L3.5394 9.52719C3.72685 9.71465 3.72685 10.0186 3.5394 10.206C3.35195 10.3935 3.04803 10.3935 2.86058 10.206L0.99391 8.33935C0.806458 8.1519 0.806458 7.84798 0.99391 7.66053L2.86058 5.79386C3.04803 5.6064 3.35195 5.6064 3.5394 5.79386C3.72685 5.98132 3.72685 6.28523 3.5394 6.47269Z" fill="#1C2024"/>
</svg>
