<svg width="16" height="16" viewBox="0 0 16 16" fill="none" xmlns="http://www.w3.org/2000/svg">
<rect width="16" height="16" fill="white" fill-opacity="0.01"/>
<path fill-rule="evenodd" clip-rule="evenodd" d="M12.2667 3.2533C12.5317 3.2533 12.7467 3.4682 12.7467 3.7333V7.99996C12.7467 8.26506 12.5317 8.47996 12.2667 8.47996C12.0016 8.47996 11.7867 8.26506 11.7867 7.99996V4.89212L4.89214 11.7866H7.99999C8.26509 11.7866 8.47999 12.0016 8.47999 12.2666C8.47999 12.5317 8.26509 12.7466 7.99999 12.7466H3.73333C3.60602 12.7466 3.48393 12.6961 3.39391 12.6061C3.3039 12.516 3.25333 12.3939 3.25333 12.2666V7.99996C3.25333 7.73486 3.46823 7.51996 3.73333 7.51996C3.99843 7.51996 4.21333 7.73486 4.21333 7.99996V11.1078L11.1078 4.2133H7.99999C7.73489 4.2133 7.51999 3.99839 7.51999 3.7333C7.51999 3.4682 7.73489 3.2533 7.99999 3.2533H12.2667Z" fill="#1C2024"/>
</svg>
