<svg width="16" height="16" viewBox="0 0 16 16" fill="none" xmlns="http://www.w3.org/2000/svg">
<rect width="16" height="16" fill="white" fill-opacity="0.01"/>
<path fill-rule="evenodd" clip-rule="evenodd" d="M8 1.06665C8.17225 1.06665 8.33388 1.14983 8.434 1.28999L13.7674 8.75666C13.8834 8.91923 13.899 9.13306 13.8076 9.31069C13.7162 9.48834 13.5331 9.59998 13.3333 9.59998H10.6667V12.2667C10.6667 12.5612 10.4279 12.8 10.1333 12.8H5.86667C5.57212 12.8 5.33333 12.5612 5.33333 12.2667V9.59998H2.66667C2.46689 9.59998 2.28386 9.48834 2.19245 9.31069C2.10103 9.13306 2.11655 8.91923 2.23268 8.75666L7.56602 1.28999C7.66612 1.14983 7.82777 1.06665 8 1.06665ZM3.70304 8.53332H5.86667C6.16122 8.53332 6.4 8.7721 6.4 9.06665V11.7333H9.6V9.06665C9.6 8.7721 9.83878 8.53332 10.1333 8.53332H12.297L8 2.51756L3.70304 8.53332Z" fill="#1C2024"/>
</svg>
