<svg width="16" height="16" viewBox="0 0 16 16" fill="none" xmlns="http://www.w3.org/2000/svg">
<rect width="16" height="16" fill="white" fill-opacity="0.01"/>
<path fill-rule="evenodd" clip-rule="evenodd" d="M5.33333 3.73328C5.33333 3.43874 5.57211 3.19995 5.86666 3.19995H10.1333C10.4279 3.19995 10.6667 3.43874 10.6667 3.73328V6.39995H13.3333C13.5331 6.39995 13.7162 6.5116 13.8076 6.68924C13.899 6.86687 13.8834 7.08071 13.7674 7.24328L8.43399 14.7099C8.33387 14.8501 8.17224 14.9333 8 14.9333C7.82776 14.9333 7.66612 14.8501 7.56601 14.7099L2.23268 7.24328C2.11655 7.08071 2.10103 6.86687 2.19244 6.68924C2.28386 6.5116 2.46689 6.39995 2.66666 6.39995H5.33333V3.73328ZM6.4 4.26662V6.93328C6.4 7.22783 6.16121 7.46662 5.86666 7.46662H3.70304L8 13.4824L12.297 7.46662H10.1333C9.83878 7.46662 9.6 7.22783 9.6 6.93328V4.26662H6.4Z" fill="#1C2024"/>
</svg>
