<svg width="16" height="16" viewBox="0 0 16 16" fill="none" xmlns="http://www.w3.org/2000/svg">
<rect width="16" height="16" fill="white" fill-opacity="0.01"/>
<path fill-rule="evenodd" clip-rule="evenodd" d="M1.06668 7.99997C1.06668 8.17221 1.14986 8.33384 1.29002 8.43396L8.75669 13.7673C8.91926 13.8834 9.13309 13.899 9.31072 13.8075C9.48837 13.7161 9.60001 13.5331 9.60001 13.3333V10.6666H12.2667C12.5612 10.6666 12.8 10.4278 12.8 10.1333V5.86663C12.8 5.57208 12.5612 5.3333 12.2667 5.3333H9.60001V2.66663C9.60001 2.46686 9.48837 2.28383 9.31072 2.19241C9.13309 2.101 8.91926 2.11652 8.75669 2.23264L1.29002 7.56598C1.14986 7.66609 1.06668 7.82773 1.06668 7.99997ZM8.53335 3.70301V5.86663C8.53335 6.16118 8.77213 6.39997 9.06668 6.39997H11.7333V9.59997H9.06668C8.77213 9.59997 8.53335 9.83875 8.53335 10.1333V12.2969L2.51759 7.99997L8.53335 3.70301Z" fill="#1C2024"/>
</svg>
