<svg width="16" height="16" viewBox="0 0 16 16" fill="none" xmlns="http://www.w3.org/2000/svg">
<rect width="16" height="16" fill="white" fill-opacity="0.01"/>
<path fill-rule="evenodd" clip-rule="evenodd" d="M14.9333 7.99997C14.9333 8.17221 14.8501 8.33384 14.71 8.43396L7.24333 13.7673C7.08075 13.8834 6.86692 13.899 6.68929 13.8075C6.51165 13.7161 6.4 13.5331 6.4 13.3333V10.6666H3.73333C3.43878 10.6666 3.2 10.4278 3.2 10.1333V5.86663C3.2 5.57208 3.43878 5.3333 3.73333 5.3333H6.4V2.66663C6.4 2.46686 6.51165 2.28383 6.68929 2.19241C6.86692 2.101 7.08075 2.11652 7.24333 2.23264L14.71 7.56598C14.8501 7.66609 14.9333 7.82773 14.9333 7.99997ZM7.46666 3.70301V5.86663C7.46666 6.16118 7.22788 6.39997 6.93333 6.39997H4.26666V9.59997H6.93333C7.22788 9.59997 7.46666 9.83875 7.46666 10.1333V12.2969L13.4825 7.99997L7.46666 3.70301Z" fill="#1C2024"/>
</svg>
