<svg width="16" height="16" viewBox="0 0 16 16" fill="none" xmlns="http://www.w3.org/2000/svg">
<rect width="16" height="16" fill="white" fill-opacity="0.01"/>
<path fill-rule="evenodd" clip-rule="evenodd" d="M5.13933 4.99374C5.32679 5.18119 5.32679 5.48511 5.13933 5.67256L3.29208 7.51981H12.7077L10.8605 5.67256C10.6731 5.48511 10.6731 5.18119 10.8605 4.99374C11.048 4.80629 11.3519 4.80629 11.5393 4.99374L14.206 7.66041C14.3935 7.84785 14.3935 8.15178 14.206 8.33922L11.5393 11.0059C11.3519 11.1933 11.048 11.1933 10.8605 11.0059C10.6731 10.8185 10.6731 10.5145 10.8605 10.3271L12.7077 8.47981H3.29208L5.13933 10.3271C5.32679 10.5145 5.32679 10.8185 5.13933 11.0059C4.95189 11.1933 4.64796 11.1933 4.46052 11.0059L1.79385 8.33922C1.6064 8.15178 1.6064 7.84785 1.79385 7.66041L4.46052 4.99374C4.64796 4.80629 4.95189 4.80629 5.13933 4.99374Z" fill="#1C2024"/>
</svg>
