<svg width="16" height="16" viewBox="0 0 16 16" fill="none" xmlns="http://www.w3.org/2000/svg">
<rect width="16" height="16" fill="white" fill-opacity="0.01"/>
<path fill-rule="evenodd" clip-rule="evenodd" d="M0.935669 7.99983C0.935669 4.09831 4.09849 0.935486 8.00002 0.935486C11.9015 0.935486 15.0644 4.09831 15.0644 7.99983C15.0644 11.9013 11.9015 15.0642 8.00002 15.0642C4.09849 15.0642 0.935669 11.9013 0.935669 7.99983ZM8.00002 1.94881C4.65815 1.94881 1.94901 4.65796 1.94901 7.99983C1.94901 11.3417 4.65815 14.0509 8.00002 14.0509C11.3419 14.0509 14.0511 11.3417 14.0511 7.99983C14.0511 4.65796 11.3419 1.94881 8.00002 1.94881ZM7.59953 9.60001C7.54126 9.73584 6.75375 12.7565 6.75375 12.7565C6.67752 13.0411 6.38507 13.2099 6.10056 13.1337C5.81605 13.0574 5.64719 12.765 5.72344 12.4804C5.72344 12.4804 6.66304 9.4642 6.66304 8.82141V7.25439L4.57346 6.69449C4.28895 6.61826 4.12011 6.32582 4.19634 6.0413C4.27258 5.75678 4.56503 5.58794 4.84954 5.66418C4.84954 5.66418 6.61377 6.2642 7.30217 6.2642H8.69871C9.38711 6.2642 11.1503 5.66445 11.1503 5.66445C11.4349 5.58822 11.7272 5.75706 11.8035 6.04157C11.8798 6.3261 11.7109 6.61853 11.4263 6.69478L9.32971 7.25657V8.82141C9.32971 9.4642 10.2684 12.4769 10.2684 12.4769C10.3446 12.7615 10.1758 13.0539 9.89127 13.1301C9.60676 13.2064 9.31431 13.0376 9.23807 12.7531C9.23807 12.7531 8.44793 9.73584 8.39323 9.60001C8.34126 9.4642 8.16006 9.4642 8.16006 9.4642H7.83271C7.83271 9.4642 7.64793 9.4642 7.59953 9.60001ZM8.00045 5.46141C8.66319 5.46141 9.20045 4.92415 9.20045 4.26141C9.20045 3.59867 8.66319 3.06141 8.00045 3.06141C7.33771 3.06141 6.80045 3.59867 6.80045 4.26141C6.80045 4.92415 7.33771 5.46141 8.00045 5.46141Z" fill="#1C2024"/>
</svg>
