<svg width="16" height="16" viewBox="0 0 16 16" fill="none" xmlns="http://www.w3.org/2000/svg">
<rect width="16" height="16" fill="white" fill-opacity="0.01"/>
<path fill-rule="evenodd" clip-rule="evenodd" d="M3.2 3.20003H12.8V12.8H3.2V3.20003ZM2.13333 3.20003C2.13333 2.61092 2.6109 2.13336 3.2 2.13336H12.8C13.3891 2.13336 13.8667 2.61093 13.8667 3.20003V12.8C13.8667 13.3891 13.3891 13.8667 12.8 13.8667H3.2C2.61089 13.8667 2.13333 13.3891 2.13333 12.8V3.20003ZM11.0398 5.87848C11.2064 5.63562 11.1446 5.30362 10.9018 5.13696C10.6589 4.97028 10.3269 5.03204 10.1603 5.2749L7.08318 9.7585L5.54382 7.90284C5.35575 7.67614 5.01952 7.64482 4.79282 7.83287C4.56611 8.02094 4.53479 8.35717 4.72285 8.58387L6.71296 10.9829C6.81971 11.1116 6.98066 11.1827 7.1477 11.1752C7.31474 11.1675 7.46855 11.0821 7.56317 10.9441L11.0398 5.87848Z" fill="#1C2024"/>
</svg>
