<svg width="16" height="16" viewBox="0 0 16 16" fill="none" xmlns="http://www.w3.org/2000/svg">
<rect width="16" height="16" fill="white" fill-opacity="0.01"/>
<path fill-rule="evenodd" clip-rule="evenodd" d="M7.9999 0.935547C4.09837 0.935547 0.935547 4.09837 0.935547 7.9999C0.935547 11.9014 4.09837 15.0642 7.9999 15.0642C11.9014 15.0642 15.0642 11.9014 15.0642 7.9999C15.0642 4.09837 11.9014 0.935547 7.9999 0.935547ZM4.11486 3.36061C5.16598 2.47945 6.52098 1.94889 7.9999 1.94889C11.3418 1.94889 14.0509 4.65802 14.0509 7.9999C14.0509 9.4788 13.5203 10.8338 12.6391 11.8849L4.11486 3.36061ZM3.36061 4.11486C2.47945 5.16598 1.94889 6.52098 1.94889 7.9999C1.94889 11.3418 4.65802 14.0509 7.9999 14.0509C9.4788 14.0509 10.8338 13.5203 11.8849 12.6391L3.36061 4.11486Z" fill="#1C2024"/>
</svg>
