<svg width="16" height="16" viewBox="0 0 16 16" fill="none" xmlns="http://www.w3.org/2000/svg">
<rect width="16" height="16" fill="white" fill-opacity="0.01"/>
<path fill-rule="evenodd" clip-rule="evenodd" d="M10.613 7.99986C10.613 9.44305 9.44307 10.613 7.99988 10.613C6.5567 10.613 5.38677 9.44305 5.38677 7.99986C5.38677 6.55668 6.5567 5.38675 7.99988 5.38675C9.44307 5.38675 10.613 6.55668 10.613 7.99986ZM11.5874 8.53331C11.3294 10.2832 9.82148 11.6263 7.99988 11.6263C6.17828 11.6263 4.67037 10.2832 4.4124 8.53331H0.533333C0.238782 8.53331 0 8.29452 0 7.99997C0 7.70542 0.238782 7.46664 0.533333 7.46664H4.41236C4.67024 5.71661 6.1782 4.37341 7.99988 4.37341C9.82157 4.37341 11.3295 5.71661 11.5874 7.46664H15.4667C15.7612 7.46664 16 7.70542 16 7.99997C16 8.29452 15.7612 8.53331 15.4667 8.53331H11.5874Z" fill="#1C2024"/>
</svg>
