<svg width="16" height="16" viewBox="0 0 16 16" fill="none" xmlns="http://www.w3.org/2000/svg">
<rect width="16" height="16" fill="white" fill-opacity="0.01"/>
<path fill-rule="evenodd" clip-rule="evenodd" d="M0.935547 7.99984C0.935547 4.09831 4.09837 0.935486 7.9999 0.935486C11.9014 0.935486 15.0642 4.09831 15.0642 7.99984C15.0642 11.9013 11.9014 15.0642 7.9999 15.0642C4.09837 15.0642 0.935547 11.9013 0.935547 7.99984ZM7.9999 1.94881C4.65802 1.94881 1.94889 4.65795 1.94889 7.99984C1.94889 11.3417 4.65802 14.0509 7.9999 14.0509C11.3418 14.0509 14.0509 11.3417 14.0509 7.99984C14.0509 4.65795 11.3418 1.94881 7.9999 1.94881ZM10.5105 5.48951C10.7187 5.69778 10.7187 6.03548 10.5105 6.24376L8.75427 7.99996L10.5105 9.75617C10.7187 9.96445 10.7187 10.3021 10.5105 10.5104C10.3022 10.7187 9.96451 10.7187 9.75623 10.5104L8.00002 8.75421L6.24382 10.5104C6.03554 10.7187 5.69784 10.7187 5.48957 10.5104C5.28129 10.3021 5.28129 9.96445 5.48957 9.75617L7.24578 7.99996L5.48957 6.24376C5.28129 6.03548 5.28129 5.69778 5.48957 5.48951C5.69784 5.28123 6.03554 5.28123 6.24382 5.48951L8.00002 7.24572L9.75623 5.48951C9.96451 5.28123 10.3022 5.28123 10.5105 5.48951Z" fill="#1C2024"/>
</svg>
