<svg width="16" height="16" viewBox="0 0 16 16" fill="none" xmlns="http://www.w3.org/2000/svg">
<rect width="16" height="16" fill="white" fill-opacity="0.01"/>
<path fill-rule="evenodd" clip-rule="evenodd" d="M12.567 4.30032C12.8066 4.0608 12.8066 3.67246 12.567 3.43294C12.3276 3.19342 11.9392 3.19342 11.6997 3.43294L8.00006 7.13258L4.30042 3.43294C4.06089 3.19342 3.67255 3.19342 3.43303 3.43294C3.19351 3.67246 3.19351 4.0608 3.43303 4.30032L7.13268 7.99997L3.43303 11.6996C3.19351 11.9392 3.19351 12.3274 3.43303 12.567C3.67255 12.8065 4.06089 12.8065 4.30042 12.567L8.00006 8.86735L11.6997 12.567C11.9392 12.8065 12.3276 12.8065 12.567 12.567C12.8066 12.3274 12.8066 11.9392 12.567 11.6996L8.86744 7.99997L12.567 4.30032Z" fill="#1C2024"/>
</svg>
