<svg width="16" height="16" viewBox="0 0 16 16" fill="none" xmlns="http://www.w3.org/2000/svg">
<rect width="16" height="16" fill="white" fill-opacity="0.01"/>
<path fill-rule="evenodd" clip-rule="evenodd" d="M3.86666 7.99999C3.86666 8.66273 3.3294 9.19999 2.66666 9.19999C2.00392 9.19999 1.46666 8.66273 1.46666 7.99999C1.46666 7.33725 2.00392 6.79999 2.66666 6.79999C3.3294 6.79999 3.86666 7.33725 3.86666 7.99999ZM9.19999 7.99999C9.19999 8.66273 8.66273 9.19999 7.99999 9.19999C7.33725 9.19999 6.79999 8.66273 6.79999 7.99999C6.79999 7.33725 7.33725 6.79999 7.99999 6.79999C8.66273 6.79999 9.19999 7.33725 9.19999 7.99999ZM13.3333 9.19999C13.996 9.19999 14.5333 8.66273 14.5333 7.99999C14.5333 7.33725 13.996 6.79999 13.3333 6.79999C12.6706 6.79999 12.1333 7.33725 12.1333 7.99999C12.1333 8.66273 12.6706 9.19999 13.3333 9.19999Z" fill="#1C2024"/>
</svg>
