<svg width="16" height="16" viewBox="0 0 16 16" fill="none" xmlns="http://www.w3.org/2000/svg">
<rect width="16" height="16" fill="white" fill-opacity="0.01"/>
<path fill-rule="evenodd" clip-rule="evenodd" d="M8.00005 1.12C8.26515 1.12 8.48005 1.3349 8.48005 1.6V8.9745L10.8607 6.59391C11.0481 6.40646 11.352 6.40646 11.5394 6.59391C11.7269 6.78137 11.7269 7.08529 11.5394 7.27274L8.33947 10.4727C8.15201 10.6602 7.84809 10.6602 7.66064 10.4727L4.46064 7.27274C4.27318 7.08529 4.27318 6.78137 4.46064 6.59391C4.64809 6.40646 4.95201 6.40646 5.13947 6.59391L7.52005 8.9745V1.6C7.52005 1.3349 7.73495 1.12 8.00005 1.12ZM2.66666 10.6667C2.96121 10.6667 3.2 10.9055 3.2 11.2V12.8C3.2 13.3908 3.67536 13.8667 4.26277 13.8667H11.7346C12.3231 13.8667 12.8 13.3897 12.8 12.8V11.2C12.8 10.9055 13.0388 10.6667 13.3333 10.6667C13.6278 10.6667 13.8667 10.9055 13.8667 11.2V12.8C13.8667 13.9777 12.9133 14.9333 11.7346 14.9333H4.26277C3.08287 14.9333 2.13333 13.9765 2.13333 12.8V11.2C2.13333 10.9055 2.37212 10.6667 2.66666 10.6667Z" fill="#1C2024"/>
</svg>
