<svg width="16" height="16" viewBox="0 0 16 16" fill="none" xmlns="http://www.w3.org/2000/svg">
<rect width="16" height="16" fill="white" fill-opacity="0.01"/>
<path d="M4.8 3.30667C5.15347 3.30667 5.44 3.02013 5.44 2.66667C5.44 2.31321 5.15347 2.02667 4.8 2.02667C4.44654 2.02667 4.16 2.31321 4.16 2.66667C4.16 3.02013 4.44654 3.30667 4.8 3.30667Z" fill="#1C2024"/>
<path d="M4.8 5.43997C5.15347 5.43997 5.44 5.15344 5.44 4.79997C5.44 4.44651 5.15347 4.15997 4.8 4.15997C4.44654 4.15997 4.16 4.44651 4.16 4.79997C4.16 5.15344 4.44654 5.43997 4.8 5.43997Z" fill="#1C2024"/>
<path d="M4.8 7.57224C5.15347 7.57224 5.44 7.2857 5.44 6.93224C5.44 6.57877 5.15347 6.29224 4.8 6.29224C4.44654 6.29224 4.16 6.57877 4.16 6.93224C4.16 7.2857 4.44654 7.57224 4.8 7.57224Z" fill="#1C2024"/>
<path d="M4.8 9.7056C5.15347 9.7056 5.44 9.41906 5.44 9.0656C5.44 8.71214 5.15347 8.4256 4.8 8.4256C4.44654 8.4256 4.16 8.71214 4.16 9.0656C4.16 9.41906 4.44654 9.7056 4.8 9.7056Z" fill="#1C2024"/>
<path d="M4.8 11.8379C5.15347 11.8379 5.44 11.5513 5.44 11.1979C5.44 10.8444 5.15347 10.5579 4.8 10.5579C4.44654 10.5579 4.16 10.8444 4.16 11.1979C4.16 11.5513 4.44654 11.8379 4.8 11.8379Z" fill="#1C2024"/>
<path d="M4.8 13.9712C5.15347 13.9712 5.44 13.6847 5.44 13.3312C5.44 12.9778 5.15347 12.6912 4.8 12.6912C4.44654 12.6912 4.16 12.9778 4.16 13.3312C4.16 13.6847 4.44654 13.9712 4.8 13.9712Z" fill="#1C2024"/>
<path d="M6.93333 3.30667C7.2868 3.30667 7.57333 3.02013 7.57333 2.66667C7.57333 2.31321 7.2868 2.02667 6.93333 2.02667C6.57987 2.02667 6.29333 2.31321 6.29333 2.66667C6.29333 3.02013 6.57987 3.30667 6.93333 3.30667Z" fill="#1C2024"/>
<path d="M6.93333 5.43997C7.2868 5.43997 7.57333 5.15344 7.57333 4.79997C7.57333 4.44651 7.2868 4.15997 6.93333 4.15997C6.57987 4.15997 6.29333 4.44651 6.29333 4.79997C6.29333 5.15344 6.57987 5.43997 6.93333 5.43997Z" fill="#1C2024"/>
<path d="M6.93333 7.57224C7.2868 7.57224 7.57333 7.2857 7.57333 6.93224C7.57333 6.57877 7.2868 6.29224 6.93333 6.29224C6.57987 6.29224 6.29333 6.57877 6.29333 6.93224C6.29333 7.2857 6.57987 7.57224 6.93333 7.57224Z" fill="#1C2024"/>
<path d="M6.93333 9.7056C7.2868 9.7056 7.57333 9.41906 7.57333 9.0656C7.57333 8.71214 7.2868 8.4256 6.93333 8.4256C6.57987 8.4256 6.29333 8.71214 6.29333 9.0656C6.29333 9.41906 6.57987 9.7056 6.93333 9.7056Z" fill="#1C2024"/>
<path d="M6.93333 11.8379C7.2868 11.8379 7.57333 11.5513 7.57333 11.1979C7.57333 10.8444 7.2868 10.5579 6.93333 10.5579C6.57987 10.5579 6.29333 10.8444 6.29333 11.1979C6.29333 11.5513 6.57987 11.8379 6.93333 11.8379Z" fill="#1C2024"/>
<path d="M6.93333 13.9712C7.2868 13.9712 7.57333 13.6847 7.57333 13.3312C7.57333 12.9778 7.2868 12.6912 6.93333 12.6912C6.57987 12.6912 6.29333 12.9778 6.29333 13.3312C6.29333 13.6847 6.57987 13.9712 6.93333 13.9712Z" fill="#1C2024"/>
<path d="M9.0656 3.30667C9.41906 3.30667 9.7056 3.02013 9.7056 2.66667C9.7056 2.31321 9.41906 2.02667 9.0656 2.02667C8.71214 2.02667 8.4256 2.31321 8.4256 2.66667C8.4256 3.02013 8.71214 3.30667 9.0656 3.30667Z" fill="#1C2024"/>
<path d="M9.0656 5.43997C9.41906 5.43997 9.7056 5.15344 9.7056 4.79997C9.7056 4.44651 9.41906 4.15997 9.0656 4.15997C8.71214 4.15997 8.4256 4.44651 8.4256 4.79997C8.4256 5.15344 8.71214 5.43997 9.0656 5.43997Z" fill="#1C2024"/>
<path d="M9.0656 7.57224C9.41906 7.57224 9.7056 7.2857 9.7056 6.93224C9.7056 6.57877 9.41906 6.29224 9.0656 6.29224C8.71214 6.29224 8.4256 6.57877 8.4256 6.93224C8.4256 7.2857 8.71214 7.57224 9.0656 7.57224Z" fill="#1C2024"/>
<path d="M9.0656 9.7056C9.41906 9.7056 9.7056 9.41906 9.7056 9.0656C9.7056 8.71214 9.41906 8.4256 9.0656 8.4256C8.71214 8.4256 8.4256 8.71214 8.4256 9.0656C8.4256 9.41906 8.71214 9.7056 9.0656 9.7056Z" fill="#1C2024"/>
<path d="M9.0656 11.8379C9.41906 11.8379 9.7056 11.5513 9.7056 11.1979C9.7056 10.8444 9.41906 10.5579 9.0656 10.5579C8.71214 10.5579 8.4256 10.8444 8.4256 11.1979C8.4256 11.5513 8.71214 11.8379 9.0656 11.8379Z" fill="#1C2024"/>
<path d="M9.0656 13.9712C9.41906 13.9712 9.7056 13.6847 9.7056 13.3312C9.7056 12.9778 9.41906 12.6912 9.0656 12.6912C8.71214 12.6912 8.4256 12.9778 8.4256 13.3312C8.4256 13.6847 8.71214 13.9712 9.0656 13.9712Z" fill="#1C2024"/>
<path d="M11.1989 3.30667C11.5524 3.30667 11.8389 3.02013 11.8389 2.66667C11.8389 2.31321 11.5524 2.02667 11.1989 2.02667C10.8455 2.02667 10.5589 2.31321 10.5589 2.66667C10.5589 3.02013 10.8455 3.30667 11.1989 3.30667Z" fill="#1C2024"/>
<path d="M11.1989 5.43997C11.5524 5.43997 11.8389 5.15344 11.8389 4.79997C11.8389 4.44651 11.5524 4.15997 11.1989 4.15997C10.8455 4.15997 10.5589 4.44651 10.5589 4.79997C10.5589 5.15344 10.8455 5.43997 11.1989 5.43997Z" fill="#1C2024"/>
<path d="M11.1989 7.57224C11.5524 7.57224 11.8389 7.2857 11.8389 6.93224C11.8389 6.57877 11.5524 6.29224 11.1989 6.29224C10.8455 6.29224 10.5589 6.57877 10.5589 6.93224C10.5589 7.2857 10.8455 7.57224 11.1989 7.57224Z" fill="#1C2024"/>
<path d="M11.1989 9.7056C11.5524 9.7056 11.8389 9.41906 11.8389 9.0656C11.8389 8.71214 11.5524 8.4256 11.1989 8.4256C10.8455 8.4256 10.5589 8.71214 10.5589 9.0656C10.5589 9.41906 10.8455 9.7056 11.1989 9.7056Z" fill="#1C2024"/>
<path d="M11.1989 11.8379C11.5524 11.8379 11.8389 11.5513 11.8389 11.1979C11.8389 10.8444 11.5524 10.5579 11.1989 10.5579C10.8455 10.5579 10.5589 10.8444 10.5589 11.1979C10.5589 11.5513 10.8455 11.8379 11.1989 11.8379Z" fill="#1C2024"/>
<path d="M11.1989 13.9712C11.5524 13.9712 11.8389 13.6847 11.8389 13.3312C11.8389 12.9778 11.5524 12.6912 11.1989 12.6912C10.8455 12.6912 10.5589 12.9778 10.5589 13.3312C10.5589 13.6847 10.8455 13.9712 11.1989 13.9712Z" fill="#1C2024"/>
</svg>
