<svg width="16" height="16" viewBox="0 0 16 16" fill="none" xmlns="http://www.w3.org/2000/svg">
<rect width="16" height="16" fill="white" fill-opacity="0.01"/>
<path fill-rule="evenodd" clip-rule="evenodd" d="M2.66664 4.37329C2.43099 4.37329 2.23997 4.56431 2.23997 4.79996C2.23997 5.0356 2.43099 5.22662 2.66664 5.22662H13.3333C13.569 5.22662 13.76 5.0356 13.76 4.79996C13.76 4.56431 13.569 4.37329 13.3333 4.37329H2.66664ZM2.66664 6.50662C2.43099 6.50662 2.23997 6.69764 2.23997 6.93329C2.23997 7.16893 2.43099 7.35996 2.66664 7.35996H13.3333C13.569 7.35996 13.76 7.16893 13.76 6.93329C13.76 6.69764 13.569 6.50662 13.3333 6.50662H2.66664ZM2.23997 9.06662C2.23997 8.83098 2.43099 8.63996 2.66664 8.63996H13.3333C13.569 8.63996 13.76 8.83098 13.76 9.06662C13.76 9.30226 13.569 9.49329 13.3333 9.49329H2.66664C2.43099 9.49329 2.23997 9.30226 2.23997 9.06662ZM2.66664 10.7733C2.43099 10.7733 2.23997 10.9644 2.23997 11.2C2.23997 11.4356 2.43099 11.6266 2.66664 11.6266H13.3333C13.569 11.6266 13.76 11.4356 13.76 11.2C13.76 10.9644 13.569 10.7733 13.3333 10.7733H2.66664Z" fill="#1C2024"/>
</svg>
