<svg width="16" height="16" viewBox="0 0 16 16" fill="none" xmlns="http://www.w3.org/2000/svg">
<rect width="16" height="16" fill="white" fill-opacity="0.01"/>
<path fill-rule="evenodd" clip-rule="evenodd" d="M4.37332 13.3334C4.37332 13.569 4.56434 13.76 4.79999 13.76C5.03563 13.76 5.22666 13.569 5.22666 13.3334V2.66672C5.22666 2.43108 5.03563 2.24006 4.79999 2.24006C4.56434 2.24006 4.37332 2.43108 4.37332 2.66672V13.3334ZM6.50665 13.3334C6.50665 13.569 6.69767 13.76 6.93332 13.76C7.16896 13.76 7.35999 13.569 7.35999 13.3334V2.66672C7.35999 2.43108 7.16896 2.24006 6.93332 2.24006C6.69767 2.24006 6.50665 2.43108 6.50665 2.66672V13.3334ZM9.06666 13.76C8.83101 13.76 8.63999 13.569 8.63999 13.3334V2.66672C8.63999 2.43108 8.83101 2.24005 9.06666 2.24005C9.30229 2.24005 9.49332 2.43108 9.49332 2.66672V13.3334C9.49332 13.569 9.30229 13.76 9.06666 13.76ZM10.7733 13.3334C10.7733 13.569 10.9644 13.76 11.2 13.76C11.4356 13.76 11.6267 13.569 11.6267 13.3334V2.66672C11.6267 2.43108 11.4356 2.24005 11.2 2.24005C10.9644 2.24005 10.7733 2.43108 10.7733 2.66672V13.3334Z" fill="#1C2024"/>
</svg>
