<svg width="16" height="16" viewBox="0 0 16 16" fill="none" xmlns="http://www.w3.org/2000/svg">
<rect width="16" height="16" fill="white" fill-opacity="0.01"/>
<path fill-rule="evenodd" clip-rule="evenodd" d="M5.86667 4.93333C6.52941 4.93333 7.06667 4.39607 7.06667 3.73333C7.06667 3.07058 6.52941 2.53333 5.86667 2.53333C5.20392 2.53333 4.66667 3.07058 4.66667 3.73333C4.66667 4.39607 5.20392 4.93333 5.86667 4.93333ZM10.1333 4.93333C10.7961 4.93333 11.3333 4.39607 11.3333 3.73333C11.3333 3.07058 10.7961 2.53333 10.1333 2.53333C9.47059 2.53333 8.93333 3.07058 8.93333 3.73333C8.93333 4.39607 9.47059 4.93333 10.1333 4.93333ZM11.3333 7.99999C11.3333 8.66273 10.7961 9.19999 10.1333 9.19999C9.47059 9.19999 8.93333 8.66273 8.93333 7.99999C8.93333 7.33725 9.47059 6.79999 10.1333 6.79999C10.7961 6.79999 11.3333 7.33725 11.3333 7.99999ZM5.86667 9.19999C6.52941 9.19999 7.06667 8.66273 7.06667 7.99999C7.06667 7.33725 6.52941 6.79999 5.86667 6.79999C5.20392 6.79999 4.66667 7.33725 4.66667 7.99999C4.66667 8.66273 5.20392 9.19999 5.86667 9.19999ZM11.3333 12.2667C11.3333 12.9294 10.7961 13.4667 10.1333 13.4667C9.47059 13.4667 8.93333 12.9294 8.93333 12.2667C8.93333 11.6039 9.47059 11.0667 10.1333 11.0667C10.7961 11.0667 11.3333 11.6039 11.3333 12.2667ZM5.86667 13.4667C6.52941 13.4667 7.06667 12.9294 7.06667 12.2667C7.06667 11.6039 6.52941 11.0667 5.86667 11.0667C5.20392 11.0667 4.66667 11.6039 4.66667 12.2667C4.66667 12.9294 5.20392 13.4667 5.86667 13.4667Z" fill="#1C2024"/>
</svg>
