<svg width="16" height="16" viewBox="0 0 16 16" fill="none" xmlns="http://www.w3.org/2000/svg">
<rect width="16" height="16" fill="white" fill-opacity="0.01"/>
<path fill-rule="evenodd" clip-rule="evenodd" d="M2.13333 2.6667C2.13333 2.37215 2.37212 2.13336 2.66666 2.13336H5.86666C6.16121 2.13336 6.4 2.37215 6.4 2.6667C6.4 2.96124 6.16121 3.20003 5.86666 3.20003H3.2V5.8667C3.2 6.16124 2.96121 6.40003 2.66666 6.40003C2.37212 6.40003 2.13333 6.16124 2.13333 5.8667V2.6667ZM9.6 2.6667C9.6 2.37215 9.83878 2.13336 10.1333 2.13336H13.3333C13.6278 2.13336 13.8667 2.37215 13.8667 2.6667V5.8667C13.8667 6.16124 13.6278 6.40003 13.3333 6.40003C13.0388 6.40003 12.8 6.16124 12.8 5.8667V3.20003H10.1333C9.83878 3.20003 9.6 2.96124 9.6 2.6667ZM2.66666 9.60003C2.96121 9.60003 3.2 9.83881 3.2 10.1334V12.8H5.86666C6.16121 12.8 6.4 13.0389 6.4 13.3334C6.4 13.6279 6.16121 13.8667 5.86666 13.8667H2.66666C2.37212 13.8667 2.13333 13.6279 2.13333 13.3334V10.1334C2.13333 9.83881 2.37212 9.60003 2.66666 9.60003ZM13.3333 9.60003C13.6278 9.60003 13.8667 9.83881 13.8667 10.1334V13.3334C13.8667 13.6279 13.6278 13.8667 13.3333 13.8667H10.1333C9.83878 13.8667 9.6 13.6279 9.6 13.3334C9.6 13.0389 9.83878 12.8 10.1333 12.8H12.8V10.1334C12.8 9.83881 13.0388 9.60003 13.3333 9.60003Z" fill="#1C2024"/>
</svg>
