<svg width="16" height="16" viewBox="0 0 16 16" fill="none" xmlns="http://www.w3.org/2000/svg">
<rect width="16" height="16" fill="white" fill-opacity="0.01"/>
<path fill-rule="evenodd" clip-rule="evenodd" d="M5.86666 2.13336C6.16121 2.13336 6.4 2.37215 6.4 2.6667V5.8667C6.4 6.16124 6.16121 6.40003 5.86666 6.40003H2.66666C2.37212 6.40003 2.13333 6.16124 2.13333 5.8667C2.13333 5.57215 2.37212 5.33336 2.66666 5.33336H5.33333V2.6667C5.33333 2.37215 5.57212 2.13336 5.86666 2.13336ZM10.1333 2.13336C10.4279 2.13336 10.6667 2.37215 10.6667 2.6667V5.33336H13.3333C13.6278 5.33336 13.8667 5.57215 13.8667 5.8667C13.8667 6.16124 13.6278 6.40003 13.3333 6.40003H10.1333C9.83878 6.40003 9.6 6.16124 9.6 5.8667V2.6667C9.6 2.37215 9.83878 2.13336 10.1333 2.13336ZM2.13333 10.1334C2.13333 9.83881 2.37212 9.60003 2.66666 9.60003H5.86666C6.16121 9.60003 6.4 9.83881 6.4 10.1334V13.3334C6.4 13.6279 6.16121 13.8667 5.86666 13.8667C5.57212 13.8667 5.33333 13.6279 5.33333 13.3334V10.6667H2.66666C2.37212 10.6667 2.13333 10.4279 2.13333 10.1334ZM9.6 10.1334C9.6 9.83881 9.83878 9.60003 10.1333 9.60003H13.3333C13.6278 9.60003 13.8667 9.83881 13.8667 10.1334C13.8667 10.4279 13.6278 10.6667 13.3333 10.6667H10.6667V13.3334C10.6667 13.6279 10.4279 13.8667 10.1333 13.8667C9.83878 13.8667 9.6 13.6279 9.6 13.3334V10.1334Z" fill="#1C2024"/>
</svg>
