<svg width="16" height="16" viewBox="0 0 16 16" fill="none" xmlns="http://www.w3.org/2000/svg">
<rect width="16" height="16" fill="white" fill-opacity="0.01"/>
<path fill-rule="evenodd" clip-rule="evenodd" d="M7.9999 0.935364C4.09837 0.935364 0.935547 4.09819 0.935547 7.99971C0.935547 11.9012 4.09837 15.0641 7.9999 15.0641C11.9014 15.0641 15.0642 11.9012 15.0642 7.99971C15.0642 4.09819 11.9014 0.935364 7.9999 0.935364ZM7.4667 1.97186C4.37455 2.24183 1.94887 4.83751 1.94887 7.99971C1.94887 11.1619 4.37455 13.7576 7.4667 14.0275V1.97186ZM8.53336 14.0275C11.6254 13.7575 14.0509 11.1618 14.0509 7.99971C14.0509 4.8376 11.6254 2.24199 8.53336 1.97189V14.0275Z" fill="#1C2024"/>
</svg>
