<svg width="16" height="16" viewBox="0 0 16 16" fill="none" xmlns="http://www.w3.org/2000/svg">
<rect width="16" height="16" fill="white" fill-opacity="0.01"/>
<path fill-rule="evenodd" clip-rule="evenodd" d="M7.9999 0.935364C4.09837 0.935364 0.935547 4.09819 0.935547 7.99971C0.935547 11.9012 4.09837 15.0641 7.9999 15.0641C11.9014 15.0641 15.0642 11.9012 15.0642 7.99971C15.0642 4.09819 11.9014 0.935364 7.9999 0.935364ZM1.94887 7.99971C1.94887 4.65784 4.65802 1.9487 7.9999 1.9487C11.3418 1.9487 14.0509 4.65784 14.0509 7.99971C14.0509 11.3416 11.3418 14.0508 7.9999 14.0508C4.65802 14.0508 1.94887 11.3416 1.94887 7.99971ZM4.80003 7.46668C4.50548 7.46668 4.2667 7.70546 4.2667 8.00001C4.2667 8.29456 4.50548 8.53335 4.80003 8.53335H11.2C11.4946 8.53335 11.7333 8.29456 11.7333 8.00001C11.7333 7.70546 11.4946 7.46668 11.2 7.46668H4.80003Z" fill="#1C2024"/>
</svg>
