<svg width="16" height="16" viewBox="0 0 16 16" fill="none" xmlns="http://www.w3.org/2000/svg">
<rect width="16" height="16" fill="white" fill-opacity="0.01"/>
<path fill-rule="evenodd" clip-rule="evenodd" d="M8.53333 2.93336C8.53333 2.63881 8.29454 2.40002 7.99999 2.40002C7.70544 2.40002 7.46666 2.63881 7.46666 2.93336V7.46669H2.93333C2.63878 7.46669 2.39999 7.70547 2.39999 8.00002C2.39999 8.29457 2.63878 8.53336 2.93333 8.53336H7.46666V13.0667C7.46666 13.3612 7.70544 13.6 7.99999 13.6C8.29454 13.6 8.53333 13.3612 8.53333 13.0667V8.53336H13.0667C13.3612 8.53336 13.6 8.29457 13.6 8.00002C13.6 7.70547 13.3612 7.46669 13.0667 7.46669H8.53333V2.93336Z" fill="#1C2024"/>
</svg>
