<svg width="16" height="16" viewBox="0 0 16 16" fill="none" xmlns="http://www.w3.org/2000/svg">
<rect width="16" height="16" fill="white" fill-opacity="0.01"/>
<path fill-rule="evenodd" clip-rule="evenodd" d="M0.935547 7.99971C0.935547 4.09819 4.09837 0.935364 7.9999 0.935364C11.9014 0.935364 15.0642 4.09819 15.0642 7.99971C15.0642 11.9012 11.9014 15.0641 7.9999 15.0641C4.09837 15.0641 0.935547 11.9012 0.935547 7.99971ZM7.9999 1.9487C4.65802 1.9487 1.94889 4.65784 1.94889 7.99971C1.94889 11.3416 4.65802 14.0508 7.9999 14.0508C11.3418 14.0508 14.0509 11.3416 14.0509 7.99971C14.0509 4.65784 11.3418 1.9487 7.9999 1.9487ZM8.79993 11.2C8.79993 11.6418 8.44175 12 7.99992 12C7.55809 12 7.19992 11.6418 7.19992 11.2C7.19992 10.7582 7.55809 10.4 7.99992 10.4C8.44175 10.4 8.79993 10.7582 8.79993 11.2ZM6.45337 6.66668C6.45337 5.9436 7.07745 5.25335 8.00003 5.25335C8.92262 5.25335 9.5467 5.9436 9.5467 6.66668C9.5467 7.1906 9.25869 7.45827 8.7621 7.75995C8.70668 7.79362 8.64275 7.83074 8.57437 7.87046C8.37895 7.98394 8.14707 8.11862 7.97279 8.2544C7.71428 8.45582 7.41336 8.78079 7.41336 9.28001C7.41338 9.60402 7.67603 9.86668 8.00004 9.86668C8.32256 9.86668 8.5843 9.60642 8.58669 9.28446L8.58726 9.28353C8.59652 9.26892 8.62393 9.23452 8.69395 9.17996C8.80221 9.09561 8.92275 9.02575 9.08338 8.93266C9.16712 8.88413 9.26182 8.82925 9.3713 8.76274C9.94138 8.41642 10.72 7.84409 10.72 6.66668C10.72 5.25643 9.53078 4.08001 8.00003 4.08001C6.46929 4.08001 5.28003 5.25643 5.28003 6.66668C5.28003 6.99069 5.5427 7.25335 5.8667 7.25335C6.19071 7.25335 6.45337 6.99069 6.45337 6.66668Z" fill="#1C2024"/>
</svg>
