<svg width="16" height="16" viewBox="0 0 16 16" fill="none" xmlns="http://www.w3.org/2000/svg">
<rect width="16" height="16" fill="white" fill-opacity="0.01"/>
<path fill-rule="evenodd" clip-rule="evenodd" d="M5.41339 4.37337C5.41339 3.10513 6.67442 2.05338 8.00006 2.05338C9.32569 2.05338 10.5867 3.10513 10.5867 4.37337C10.5867 5.54521 9.99234 6.09535 9.19311 6.80413L9.16008 6.83342C8.3678 7.53568 7.38672 8.40531 7.38672 10.1334C7.38672 10.4721 7.66131 10.7467 8.00006 10.7467C8.33879 10.7467 8.61339 10.4721 8.61339 10.1334C8.61339 8.97621 9.20475 8.43334 10.007 7.7219L10.0292 7.70221C10.8262 6.99554 11.8133 6.1203 11.8133 4.37337C11.8133 2.26944 9.83327 0.826721 8.00006 0.826721C6.16683 0.826721 4.18672 2.26944 4.18672 4.37337C4.18672 4.71211 4.46132 4.98671 4.80006 4.98671C5.13879 4.98671 5.41339 4.71211 5.41339 4.37337ZM8.00006 14.248C8.51552 14.248 8.93339 13.8301 8.93339 13.3147C8.93339 12.7992 8.51552 12.3814 8.00006 12.3814C7.48459 12.3814 7.06672 12.7992 7.06672 13.3147C7.06672 13.8301 7.48459 14.248 8.00006 14.248Z" fill="#1C2024"/>
</svg>
