<svg width="16" height="16" viewBox="0 0 16 16" fill="none" xmlns="http://www.w3.org/2000/svg">
<rect width="16" height="16" fill="white" fill-opacity="0.01"/>
<path fill-rule="evenodd" clip-rule="evenodd" d="M1.97332 7.99995C1.97332 4.97553 4.33045 1.97329 7.99998 1.97329C10.9635 1.97329 12.4283 4.1668 13.0525 5.33331H11.2C10.9055 5.33331 10.6667 5.57209 10.6667 5.86664C10.6667 6.16119 10.9055 6.39997 11.2 6.39997H14.4C14.6945 6.39997 14.9333 6.16119 14.9333 5.86664V2.66664C14.9333 2.37209 14.6945 2.13331 14.4 2.13331C14.1055 2.13331 13.8667 2.37209 13.8667 2.66664V4.6007C13.1152 3.27599 11.377 0.906616 7.99998 0.906616C3.66631 0.906616 0.906647 4.46437 0.906647 7.99995C0.906647 11.5355 3.66631 15.0933 7.99998 15.0933C10.0734 15.0933 11.7997 14.2728 13.0288 13.0223C13.6869 12.3526 14.2009 11.5616 14.5513 10.7101C14.6634 10.4377 14.5334 10.126 14.2611 10.0139C13.9887 9.9018 13.677 10.0317 13.5649 10.3041C13.2654 11.032 12.8268 11.7061 12.2681 12.2745C11.2315 13.3294 9.77605 14.0266 7.99998 14.0266C4.33045 14.0266 1.97332 11.0244 1.97332 7.99995Z" fill="#1C2024"/>
</svg>
