<svg width="16" height="16" viewBox="0 0 16 16" fill="none" xmlns="http://www.w3.org/2000/svg">
<rect width="16" height="16" fill="white" fill-opacity="0.01"/>
<path fill-rule="evenodd" clip-rule="evenodd" d="M5.33333 8.00005C5.33333 8.88369 4.61699 9.60004 3.73333 9.60004C2.84968 9.60004 2.13333 8.88369 2.13333 8.00005C2.13333 7.11639 2.84968 6.40004 3.73333 6.40004C4.61699 6.40004 5.33333 7.11639 5.33333 8.00005ZM6.09401 9.24149C5.64741 10.089 4.75785 10.6667 3.73333 10.6667C2.26058 10.6667 1.06667 9.4728 1.06667 8.00005C1.06667 6.52728 2.26058 5.33338 3.73333 5.33338C4.75785 5.33338 5.64741 5.91113 6.09401 6.75858L9.71119 4.49784C9.63886 4.25567 9.6 3.99906 9.6 3.73338C9.6 2.26062 10.7939 1.06671 12.2667 1.06671C13.7394 1.06671 14.9333 2.26062 14.9333 3.73338C14.9333 5.20614 13.7394 6.40004 12.2667 6.40004C11.4043 6.40004 10.6375 5.99067 10.15 5.35564L6.38432 7.70922C6.39469 7.80473 6.4 7.90176 6.4 8.00005C6.4 8.09832 6.39469 8.19534 6.38432 8.29086L10.15 10.6444C10.6375 10.0094 11.4043 9.60004 12.2667 9.60004C13.7394 9.60004 14.9333 10.7939 14.9333 12.2667C14.9333 13.7394 13.7394 14.9333 12.2667 14.9333C10.7939 14.9333 9.6 13.7394 9.6 12.2667C9.6 12.001 9.63886 11.7444 9.7112 11.5022L6.09401 9.24149ZM12.2667 5.33338C13.1503 5.33338 13.8667 4.61704 13.8667 3.73338C13.8667 2.84972 13.1503 2.13338 12.2667 2.13338C11.383 2.13338 10.6667 2.84972 10.6667 3.73338C10.6667 4.61704 11.383 5.33338 12.2667 5.33338ZM13.8667 12.2667C13.8667 13.1504 13.1503 13.8667 12.2667 13.8667C11.383 13.8667 10.6667 13.1504 10.6667 12.2667C10.6667 11.3831 11.383 10.6667 12.2667 10.6667C13.1503 10.6667 13.8667 11.3831 13.8667 12.2667Z" fill="#1C2024"/>
</svg>
