<svg width="16" height="16" viewBox="0 0 16 16" fill="none" xmlns="http://www.w3.org/2000/svg">
<rect width="16" height="16" fill="white" fill-opacity="0.01"/>
<path fill-rule="evenodd" clip-rule="evenodd" d="M3.73333 5.33341C3.43878 5.33341 3.2 5.57219 3.2 5.86674V12.2668C3.2 12.5613 3.43878 12.8001 3.73333 12.8001H12.2667C12.5612 12.8001 12.8 12.5613 12.8 12.2668V5.86674C12.8 5.57219 12.5612 5.33341 12.2667 5.33341H10.9333C10.6388 5.33341 10.4 5.09463 10.4 4.80008C10.4 4.50553 10.6388 4.26674 10.9333 4.26674H12.2667C13.1503 4.26674 13.8667 4.98308 13.8667 5.86674V12.2668C13.8667 13.1504 13.1503 13.8668 12.2667 13.8668H3.73333C2.84967 13.8668 2.13333 13.1504 2.13333 12.2668V5.86674C2.13333 4.98308 2.84967 4.26674 3.73333 4.26674H5.06666C5.36121 4.26674 5.6 4.50553 5.6 4.80008C5.6 5.09463 5.36121 5.33341 5.06666 5.33341H3.73333ZM7.46666 1.74551L5.93941 3.27276C5.75196 3.4602 5.44804 3.4602 5.26058 3.27276C5.07314 3.0853 5.07314 2.78139 5.26058 2.59393L7.66058 0.193935C7.7506 0.103916 7.87269 0.0533447 8 0.0533447C8.12731 0.0533447 8.2494 0.103916 8.33941 0.193935L10.7394 2.59393C10.9268 2.78139 10.9268 3.0853 10.7394 3.27276C10.552 3.4602 10.248 3.4602 10.0606 3.27276L8.53333 1.74551V9.06668C8.53333 9.36123 8.29455 9.60001 8 9.60001C7.70545 9.60001 7.46666 9.36123 7.46666 9.06668V1.74551Z" fill="#1C2024"/>
</svg>
