<svg width="16" height="16" viewBox="0 0 16 16" fill="none" xmlns="http://www.w3.org/2000/svg">
<rect width="16" height="16" fill="white" fill-opacity="0.01"/>
<path fill-rule="evenodd" clip-rule="evenodd" d="M8.33947 1.2607C8.15201 1.07326 7.8481 1.07326 7.66064 1.2607L4.46064 4.4607C4.27318 4.64816 4.27318 4.95207 4.46064 5.13953C4.6481 5.32697 4.95201 5.32697 5.13947 5.13953L7.52005 2.75894V10.1333C7.52005 10.3984 7.73495 10.6133 8.00005 10.6133C8.26515 10.6133 8.48005 10.3984 8.48005 10.1333V2.75894L10.8607 5.13953C11.0481 5.32697 11.352 5.32697 11.5394 5.13953C11.7269 4.95207 11.7269 4.64816 11.5394 4.4607L8.33947 1.2607ZM2.66667 10.6667C2.96122 10.6667 3.2 10.9054 3.2 11.2V12.8C3.2 13.3907 3.67536 13.8667 4.26277 13.8667H11.7346C12.3231 13.8667 12.8 13.3897 12.8 12.8V11.2C12.8 10.9054 13.0388 10.6667 13.3333 10.6667C13.6278 10.6667 13.8667 10.9054 13.8667 11.2V12.8C13.8667 13.9776 12.9133 14.9334 11.7346 14.9334H4.26277C3.08287 14.9334 2.13333 13.9766 2.13333 12.8V11.2C2.13333 10.9054 2.37212 10.6667 2.66667 10.6667Z" fill="#1C2024"/>
</svg>
