<svg width="16" height="16" viewBox="0 0 16 16" fill="none" xmlns="http://www.w3.org/2000/svg">
<rect width="16" height="16" fill="white" fill-opacity="0.01"/>
<path fill-rule="evenodd" clip-rule="evenodd" d="M14.9333 2.75957L1.97507 13.8667H14.4C14.6945 13.8667 14.9333 13.6278 14.9333 13.3333V2.75957ZM0.813738 14.7271L0.880422 14.8049L0.911698 14.7781C1.12018 14.8776 1.35359 14.9333 1.6 14.9333H14.4C15.2836 14.9333 16 14.2169 16 13.3333V2.66665C16 2.06877 15.6721 1.54748 15.1862 1.27285L15.1196 1.19505L15.0883 1.22185C14.8798 1.12235 14.6464 1.06665 14.4 1.06665H1.6C0.716345 1.06665 0 1.78299 0 2.66665V13.3333C0 13.9312 0.327931 14.4525 0.813738 14.7271ZM1.06667 13.2404L14.025 2.13332H1.6C1.30545 2.13332 1.06667 2.3721 1.06667 2.66665V13.2404Z" fill="#1C2024"/>
</svg>
