<svg width="16" height="16" viewBox="0 0 16 16" fill="none" xmlns="http://www.w3.org/2000/svg">
<rect width="16" height="16" fill="white" fill-opacity="0.01"/>
<path fill-rule="evenodd" clip-rule="evenodd" d="M8.53333 2.13332H14.4C14.6945 2.13332 14.9333 2.3721 14.9333 2.66665V13.3333C14.9333 13.6278 14.6945 13.8667 14.4 13.8667H8.53333V2.13332ZM7.46667 2.13332H1.6C1.30545 2.13332 1.06667 2.3721 1.06667 2.66665V13.3333C1.06667 13.6278 1.30545 13.8667 1.6 13.8667H7.46667V2.13332ZM0 2.66665C0 1.78299 0.716345 1.06665 1.6 1.06665H14.4C15.2836 1.06665 16 1.78299 16 2.66665V13.3333C16 14.2169 15.2836 14.9333 14.4 14.9333H1.6C0.716345 14.9333 0 14.2169 0 13.3333V2.66665Z" fill="#1C2024"/>
</svg>
