<svg width="16" height="16" viewBox="0 0 16 16" fill="none" xmlns="http://www.w3.org/2000/svg">
<rect width="16" height="16" fill="white" fill-opacity="0.01"/>
<path fill-rule="evenodd" clip-rule="evenodd" d="M11.2 1.8667C11.4247 1.8667 11.6254 2.00765 11.7016 2.21912L14.9016 11.0933C15.0016 11.3705 14.8579 11.6761 14.5809 11.776C14.3038 11.8758 13.9982 11.7323 13.8982 11.4551L12.8509 8.55046H9.54908L8.50165 11.4551C8.40174 11.7323 8.09612 11.8758 7.81903 11.776C7.54194 11.6761 7.39832 11.3705 7.49823 11.0933L10.6982 2.21912C10.7745 2.00765 10.9751 1.8667 11.2 1.8667ZM11.2 3.97229L12.5238 7.6438H9.87601L11.2 3.97229ZM2.66611 2.23997C2.90175 2.23997 3.09278 2.431 3.09278 2.66664V10.1699L4.49774 8.76494C4.66436 8.59831 4.93452 8.59831 5.10114 8.76494C5.26777 8.93156 5.26777 9.20171 5.10114 9.36833L2.96781 11.5017C2.8878 11.5817 2.77926 11.6267 2.66611 11.6267C2.55295 11.6267 2.44443 11.5817 2.36441 11.5017L0.231078 9.36833C0.0644536 9.20171 0.0644536 8.93156 0.231078 8.76494C0.397701 8.59831 0.667851 8.59831 0.834475 8.76494L2.23945 10.1699V2.66664C2.23945 2.431 2.43046 2.23997 2.66611 2.23997ZM0.106624 14.4001C0.106624 14.1644 0.297649 13.9734 0.53329 13.9734H15.4667C15.7023 13.9734 15.8933 14.1644 15.8933 14.4001C15.8933 14.6357 15.7023 14.8268 15.4667 14.8268H0.53329C0.297649 14.8268 0.106624 14.6357 0.106624 14.4001Z" fill="#1C2024"/>
</svg>
