<svg width="16" height="16" viewBox="0 0 16 16" fill="none" xmlns="http://www.w3.org/2000/svg">
<rect width="16" height="16" fill="white" fill-opacity="0.01"/>
<path fill-rule="evenodd" clip-rule="evenodd" d="M6.05326 3.73354C6.05326 3.46844 6.26816 3.25354 6.53326 3.25354H11.3332C11.5984 3.25354 11.8132 3.46844 11.8132 3.73354C11.8132 3.99864 11.5984 4.21354 11.3332 4.21354H9.60625L7.71295 11.7867H9.46658C9.73167 11.7867 9.94658 12.0016 9.94658 12.2667C9.94658 12.5319 9.73167 12.7467 9.46658 12.7467H4.66658C4.40149 12.7467 4.18658 12.5319 4.18658 12.2667C4.18658 12.0016 4.40149 11.7867 4.66658 11.7867H6.39356L8.28686 4.21354H6.53326C6.26816 4.21354 6.05326 3.99864 6.05326 3.73354Z" fill="#1C2024"/>
</svg>
