<svg width="16" height="16" viewBox="0 0 16 16" fill="none" xmlns="http://www.w3.org/2000/svg">
<rect width="16" height="16" fill="white" fill-opacity="0.01"/>
<path fill-rule="evenodd" clip-rule="evenodd" d="M5.11993 3.73354C5.11993 3.46844 5.33484 3.25354 5.59993 3.25354H10.3999C10.665 3.25354 10.8799 3.46844 10.8799 3.73354C10.8799 3.99864 10.665 4.21354 10.3999 4.21354H8.63993V11.7867H10.3999C10.665 11.7867 10.8799 12.0016 10.8799 12.2667C10.8799 12.5319 10.665 12.7467 10.3999 12.7467H5.59994C5.33485 12.7467 5.11994 12.5319 5.11994 12.2667C5.11994 12.0016 5.33485 11.7867 5.59994 11.7867H7.35993V4.21354H5.59993C5.33484 4.21354 5.11993 3.99864 5.11993 3.73354Z" fill="#1C2024"/>
</svg>
