<svg width="16" height="16" viewBox="0 0 16 16" fill="none" xmlns="http://www.w3.org/2000/svg">
<rect width="16" height="16" fill="white" fill-opacity="0.01"/>
<path d="M2.66666 4.79997C2.66666 3.30542 3.83877 2.1333 5.33332 2.1333H13.3323C13.6269 2.1333 13.8667 2.37208 13.8667 2.66663C13.8667 2.96118 13.6278 3.19997 13.3333 3.19997H9.27193L8.96542 4.11152C8.73459 4.79732 8.42027 5.73007 8.08629 6.71777C8.00275 6.96483 7.91794 7.21547 7.83286 7.46663H9.06666C9.36121 7.46663 9.59999 7.70542 9.59999 7.99997C9.59999 8.29452 9.36121 8.5333 9.06666 8.5333H7.471C7.00505 9.90443 6.5753 11.1587 6.35518 11.7745C6.01201 12.7345 5.55425 13.318 4.97856 13.6296C4.4409 13.9207 3.8843 13.9203 3.50269 13.92H3.46666C3.14265 13.92 2.87999 13.6572 2.87999 13.3333C2.87999 13.0092 3.14265 12.7466 3.46666 12.7466C3.8846 12.7466 4.16372 12.7365 4.41998 12.5978C4.65538 12.4704 4.96566 12.1758 5.2503 11.3795C5.4474 10.8281 5.81732 9.75073 6.23167 8.5333H4.79999C4.50544 8.5333 4.26666 8.29452 4.26666 7.99997C4.26666 7.70542 4.50544 7.46663 4.79999 7.46663H6.59398C6.72134 7.09101 6.8494 6.71275 6.97478 6.34193C7.30852 5.3549 7.62268 4.4227 7.85339 3.73723L8.03404 3.19997H5.33332C4.42787 3.19997 3.73332 3.89452 3.73332 4.79997C3.73332 5.09452 3.49454 5.3333 3.19999 5.3333C2.90544 5.3333 2.66666 5.09452 2.66666 4.79997Z" fill="#1C2024"/>
</svg>
