<svg width="16" height="16" viewBox="0 0 16 16" fill="none" xmlns="http://www.w3.org/2000/svg">
<rect width="16" height="16" fill="white" fill-opacity="0.01"/>
<path fill-rule="evenodd" clip-rule="evenodd" d="M1.1071 10.6462C0.997094 10.3022 1.19043 10.0024 1.49338 9.86532C1.79635 9.72827 2.23427 9.74309 2.42209 10.0846C3.04419 11.2157 3.88905 11.4434 4.78576 11.4434C5.89569 11.4434 6.71636 10.9456 6.71636 10.0846C6.71636 9.39171 6.30602 9.02847 5.19609 8.6854L4.43597 8.44996C2.82152 7.94545 2.01431 7.13823 2.01431 5.81978C2.01431 4.05062 3.49422 2.8667 5.59298 2.8667C7.37848 2.8667 8.50569 3.55775 9.00088 4.59806C9.14226 4.89506 9.14788 5.2405 8.77647 5.53725C8.40505 5.834 8.02508 5.70456 7.71549 5.37432C6.90363 4.50833 6.39514 4.31969 5.60644 4.31969C4.41579 4.31969 3.78346 4.94529 3.78346 5.63142C3.78346 6.25701 4.22743 6.64717 5.27682 6.97006L6.05713 7.21222C7.71193 7.71674 8.50569 8.49031 8.50569 9.78187C8.50569 11.4905 7.14015 12.8964 4.75886 12.8964C3.05719 12.8964 1.49338 11.854 1.1071 10.6462ZM12.639 9.36521C11.3717 8.95516 10.8426 8.38525 10.8426 7.45395C10.8426 6.25855 11.9078 5.38285 13.4537 5.38285C14.7782 5.38285 15.6404 6.00905 15.9763 7.07694C16.0473 7.30242 15.9566 7.44543 15.7307 7.51907C15.5087 7.59147 15.2721 7.57309 15.1872 7.35588C14.8646 6.53094 14.2421 6.14735 13.4398 6.14735C12.4231 6.14735 11.7477 6.6686 11.7477 7.3775C11.7477 7.9474 12.1028 8.2671 13.0638 8.57985L13.6905 8.78141C14.9995 9.20536 15.5217 9.74746 15.5217 10.6857C15.5217 11.9437 14.3797 12.8472 12.7922 12.8472C11.3535 12.8472 10.3002 12.033 10.0478 11.0252C9.9897 10.7934 10.0394 10.6973 10.3471 10.626C10.6548 10.5547 10.7428 10.5592 10.8496 10.8127C11.1525 11.5322 11.8966 12.0827 12.8339 12.0827C13.8575 12.0827 14.5956 11.4989 14.5956 10.7343C14.5956 10.1714 14.2892 9.90731 13.2657 9.57371L12.639 9.36521Z" fill="#1C2024"/>
</svg>
