<svg width="16" height="16" viewBox="0 0 16 16" fill="none" xmlns="http://www.w3.org/2000/svg">
<rect width="16" height="16" fill="white" fill-opacity="0.01"/>
<path fill-rule="evenodd" clip-rule="evenodd" d="M2.96781 2.36484C2.8878 2.28483 2.77926 2.23987 2.66611 2.23987C2.55295 2.23987 2.44443 2.28483 2.36441 2.36484L0.231078 4.49817C0.0644538 4.6648 0.0644538 4.93495 0.231078 5.10157C0.397702 5.2682 0.667852 5.2682 0.834475 5.10157L2.23945 3.6966V12.3031L0.834475 10.8982C0.667851 10.7316 0.397701 10.7316 0.231078 10.8982C0.0644536 11.0648 0.0644536 11.3349 0.231078 11.5016L2.36441 13.6349C2.44443 13.7149 2.55295 13.7599 2.66611 13.7599C2.77926 13.7599 2.88779 13.7149 2.96781 13.6349L5.10114 11.5016C5.26777 11.3349 5.26777 11.0648 5.10114 10.8982C4.93452 10.7316 4.66436 10.7316 4.49774 10.8982L3.09278 12.3031V3.6966L4.49774 5.10157C4.66436 5.2682 4.93452 5.2682 5.10114 5.10157C5.26777 4.93495 5.26777 4.6648 5.10114 4.49817L2.96781 2.36484ZM11.2 2.93327C11.4247 2.93327 11.6254 3.07421 11.7016 3.28568L14.9016 12.1599C15.0016 12.437 14.8579 12.7426 14.5809 12.8425C14.3038 12.9425 13.9982 12.7988 13.8982 12.5218L12.8509 9.61703H9.54909L8.50168 12.5218C8.40176 12.7988 8.09613 12.9425 7.81904 12.8425C7.54195 12.7426 7.39834 12.437 7.49825 12.1599L10.6982 3.28568C10.7745 3.07421 10.9751 2.93327 11.2 2.93327ZM11.2 5.03885L12.5239 8.71036H9.87603L11.2 5.03885Z" fill="#1C2024"/>
</svg>
