<svg width="16" height="16" viewBox="0 0 16 16" fill="none" xmlns="http://www.w3.org/2000/svg">
<rect width="16" height="16" fill="white" fill-opacity="0.01"/>
<path d="M5.44539 12.8C5.02192 12.8 4.71851 12.7061 4.53516 12.5184C4.35616 12.3262 4.26667 12.0229 4.26667 11.6082V4.39177C4.26667 3.9683 4.35835 3.66489 4.5417 3.48153C4.72942 3.29381 5.03065 3.19995 5.44539 3.19995C6.8559 3.19995 8.8063 3.19995 9.63042 3.19995C10.8131 3.19995 11.7908 4.24692 11.7908 5.53019C11.7908 6.49063 11.3106 7.27307 10.3502 7.71837C11.5901 7.94503 12.2854 9.20301 12.2854 10.1133C12.2854 11.2133 11.7229 12.8 9.89583 12.8C9.36258 12.8 6.85468 12.8 5.44539 12.8ZM8.9375 8.53692H6.18667V11.3397H8.9375C9.49333 11.3397 10.2716 10.7958 10.2716 9.91864C10.2716 9.04148 9.49333 8.53692 8.9375 8.53692ZM6.18667 4.66025V7.14211H8.725C9.10833 7.14211 9.89583 6.7833 9.89583 5.86664C9.89583 4.94997 9.04583 4.66025 8.725 4.66025H6.18667Z" fill="#1C2024"/>
</svg>
