<svg width="16" height="16" viewBox="0 0 16 16" fill="none" xmlns="http://www.w3.org/2000/svg">
<rect width="16" height="16" fill="white" fill-opacity="0.01"/>
<path fill-rule="evenodd" clip-rule="evenodd" d="M9.33795 2.18689C9.07285 2.18689 8.85795 2.40179 8.85795 2.66689C8.85795 2.93199 9.07285 3.14689 9.33795 3.14689H10.6133V7.52005H5.38664V3.14689H6.67128C6.93638 3.14689 7.15128 2.93199 7.15128 2.66689C7.15128 2.40179 6.93638 2.18689 6.67128 2.18689H2.93795C2.67285 2.18689 2.45795 2.40179 2.45795 2.66689C2.45795 2.93199 2.67285 3.14689 2.93795 3.14689H4.21331V12.8536H2.93795C2.67285 12.8536 2.45795 13.0685 2.45795 13.3336C2.45795 13.5986 2.67285 13.8136 2.93795 13.8136H6.67128C6.93638 13.8136 7.15128 13.5986 7.15128 13.3336C7.15128 13.0685 6.93638 12.8536 6.67128 12.8536H5.38664V8.48005H10.6133V12.8536H9.33795C9.07285 12.8536 8.85795 13.0685 8.85795 13.3336C8.85795 13.5986 9.07285 13.8136 9.33795 13.8136H13.0713C13.3363 13.8136 13.5513 13.5986 13.5513 13.3336C13.5513 13.0685 13.3363 12.8536 13.0713 12.8536H11.7867V3.14689H13.0713C13.3363 3.14689 13.5513 2.93199 13.5513 2.66689C13.5513 2.40179 13.3363 2.18689 13.0713 2.18689H9.33795Z" fill="#1C2024"/>
</svg>
