<svg width="16" height="16" viewBox="0 0 16 16" fill="none" xmlns="http://www.w3.org/2000/svg">
<rect width="16" height="16" fill="white" fill-opacity="0.01"/>
<path fill-rule="evenodd" clip-rule="evenodd" d="M12.0421 2.93335C12.2628 2.93313 12.4609 3.06883 12.5403 3.27472L15.9642 12.1494C16.0701 12.4242 15.9333 12.7329 15.6585 12.839C15.3837 12.945 15.075 12.8081 14.969 12.5333L13.8477 9.62708H10.2518L9.13783 12.5323C9.03238 12.8073 8.72395 12.9448 8.44892 12.8394C8.17389 12.7339 8.03643 12.4254 8.14188 12.1504L11.5447 3.27574C11.6237 3.06969 11.8214 2.93357 12.0421 2.93335ZM12.0443 4.95238L13.4979 8.72041H10.5994L12.0443 4.95238ZM3.09221 5.55418C1.34206 5.55418 0.00976562 7.13142 0.00976562 9.18372C0.00976562 11.3426 1.44873 12.8132 3.09221 12.8132C3.9695 12.8132 4.87934 12.4472 5.49789 11.7567V12.2987C5.49789 12.5638 5.71279 12.7787 5.97789 12.7787C6.24299 12.7787 6.45789 12.5638 6.45789 12.2987V6.10135C6.45789 5.83625 6.24299 5.62135 5.97789 5.62135C5.71279 5.62135 5.49789 5.83625 5.49789 6.10135V6.63806C4.91246 5.97436 4.04518 5.55418 3.09221 5.55418ZM5.49789 10.4515V7.78876C5.08153 7.01976 4.2042 6.46142 3.29253 6.46142C2.24944 6.46142 1.10403 7.43021 1.10403 9.18354C1.10403 10.8302 2.14277 11.9056 3.29253 11.9056C4.23478 11.9056 5.09008 11.1949 5.49789 10.4515Z" fill="#1C2024"/>
</svg>
