<svg width="16" height="16" viewBox="0 0 16 16" fill="none" xmlns="http://www.w3.org/2000/svg">
<rect width="16" height="16" fill="white" fill-opacity="0.01"/>
<path fill-rule="evenodd" clip-rule="evenodd" d="M4.85647 1.06665C5.06982 1.06665 5.26264 1.1938 5.34667 1.38989L8.54514 8.85316C8.66117 9.12389 8.53575 9.43742 8.26501 9.55346C7.99428 9.66948 7.68074 9.54406 7.56471 9.27333L6.52388 6.84466H3.18905L2.14822 9.27333C2.03219 9.54406 1.71865 9.66948 1.44792 9.55346C1.17718 9.43742 1.05177 9.12389 1.16779 8.85316L4.36626 1.38989C4.45029 1.1938 4.64311 1.06665 4.85647 1.06665ZM4.85647 2.95393L6.13533 5.93799H3.57761L4.85647 2.95393ZM11.7933 9.6023C12.0125 9.6023 12.2094 9.4681 12.2896 9.26404L15.2249 1.79521C15.3326 1.52106 15.1977 1.21148 14.9235 1.10375C14.6494 0.996014 14.3398 1.13091 14.2321 1.40505L11.7933 7.61083L9.35439 1.40505C9.24665 1.13091 8.93707 0.996014 8.66294 1.10375C8.3888 1.21148 8.2539 1.52106 8.36163 1.79521L11.2969 9.26404C11.3771 9.4681 11.574 9.6023 11.7933 9.6023ZM15.9506 13.3332C15.9506 13.4464 15.9056 13.5549 15.8256 13.635L13.6923 15.7683C13.5257 15.9349 13.2556 15.9349 13.0889 15.7683C12.9222 15.6016 12.9222 15.3315 13.0889 15.1649L14.4939 13.7599H1.62067L3.02564 15.1649C3.19226 15.3315 3.19226 15.6016 3.02564 15.7683C2.85902 15.9349 2.58886 15.9349 2.42224 15.7683L0.288907 13.635C0.208891 13.5549 0.16394 13.4464 0.16394 13.3332C0.16394 13.2201 0.208891 13.1116 0.288907 13.0316L2.42224 10.8983C2.58886 10.7316 2.85902 10.7316 3.02564 10.8983C3.19226 11.0649 3.19226 11.3349 3.02564 11.5017L1.62067 12.9066H14.4939L13.0889 11.5017C12.9222 11.3349 12.9222 11.0649 13.0889 10.8983C13.2556 10.7316 13.5257 10.7316 13.6923 10.8983L15.8256 13.0316C15.9056 13.1116 15.9506 13.2201 15.9506 13.3332Z" fill="#1C2024"/>
</svg>
