<svg width="16" height="16" viewBox="0 0 16 16" fill="none" xmlns="http://www.w3.org/2000/svg">
<rect width="16" height="16" fill="white" fill-opacity="0.01"/>
<path fill-rule="evenodd" clip-rule="evenodd" d="M3.93578 2.93335C4.15645 2.93313 4.35447 3.06883 4.43391 3.27472L7.85773 12.1494C7.96376 12.4242 7.82692 12.7329 7.55211 12.839C7.2773 12.945 6.96858 12.8081 6.86256 12.5333L5.74133 9.62708H2.14542L1.03146 12.5323C0.926003 12.8073 0.617562 12.9448 0.342534 12.8394C0.0675071 12.7339 -0.0699588 12.4254 0.0354959 12.1504L3.43834 3.27574C3.51734 3.06969 3.71509 2.93357 3.93578 2.93335ZM3.93786 4.95238L5.39155 8.72041H2.49306L3.93786 4.95238ZM11.6255 5.55418C9.87539 5.55418 8.54309 7.13142 8.54309 9.18372C8.54309 11.3426 9.98206 12.8132 11.6255 12.8132C12.5028 12.8132 13.4127 12.4472 14.0313 11.7567V12.2987C14.0313 12.5638 14.2461 12.7787 14.5113 12.7787C14.7763 12.7787 14.9913 12.5638 14.9913 12.2987V6.10135C14.9913 5.83625 14.7763 5.62135 14.5113 5.62135C14.2461 5.62135 14.0313 5.83625 14.0313 6.10135V6.63806C13.4458 5.97436 12.5786 5.55418 11.6255 5.55418ZM14.0313 10.4515V7.78876C13.6148 7.01976 12.7375 6.46142 11.8259 6.46142C10.7827 6.46142 9.63737 7.43021 9.63737 9.18354C9.63737 10.8302 10.6761 11.9056 11.8259 11.9056C12.7681 11.9056 13.6234 11.1949 14.0313 10.4515Z" fill="#1C2024"/>
</svg>
