<svg width="16" height="16" viewBox="0 0 16 16" fill="none" xmlns="http://www.w3.org/2000/svg">
<rect width="16" height="16" fill="white" fill-opacity="0.01"/>
<path fill-rule="evenodd" clip-rule="evenodd" d="M3.86719 2.93335C4.09043 2.93335 4.29004 3.07238 4.36744 3.28177L7.64783 12.156C7.74997 12.4322 7.60878 12.739 7.33251 12.8412C7.05623 12.9433 6.74947 12.8021 6.64733 12.5258L5.57212 9.61712H2.16226L1.08704 12.5258C0.984913 12.8021 0.678153 12.9433 0.401873 12.8412C0.125593 12.739 -0.015585 12.4322 0.0865433 12.156L3.36694 3.28177C3.44435 3.07238 3.64395 2.93335 3.86719 2.93335ZM3.86719 5.00489L5.23696 8.71045H2.49741L3.86719 5.00489ZM12.13 2.93335C12.3532 2.93335 12.5528 3.07238 12.6302 3.28177L15.9106 12.156C16.0128 12.4322 15.8716 12.739 15.5953 12.8412C15.319 12.9433 15.0123 12.8021 14.9101 12.5258L13.8349 9.61712H10.425L9.34983 12.5258C9.24769 12.8021 8.94093 12.9433 8.66466 12.8412C8.38838 12.739 8.24719 12.4322 8.34933 12.156L11.6298 3.28177C11.7071 3.07238 11.9068 2.93335 12.13 2.93335ZM12.13 5.00489L13.4997 8.71045H10.7602L12.13 5.00489Z" fill="#1C2024"/>
</svg>
