<svg width="16" height="16" viewBox="0 0 16 16" fill="none" xmlns="http://www.w3.org/2000/svg">
<rect width="16" height="16" fill="white" fill-opacity="0.01"/>
<path fill-rule="evenodd" clip-rule="evenodd" d="M3.94558 5.5542C2.19544 5.5542 0.863144 7.13144 0.863144 9.18374C0.863144 11.3426 2.30211 12.8133 3.94558 12.8133C4.82267 12.8133 5.73228 12.4473 6.35082 11.7572V12.2987C6.35082 12.5638 6.56572 12.7787 6.83082 12.7787C7.09592 12.7787 7.31082 12.5638 7.31082 12.2987V6.10138C7.31082 5.83629 7.09592 5.62138 6.83082 5.62138C6.56572 5.62138 6.35082 5.83629 6.35082 6.10138V6.63757C5.76539 5.97417 4.89832 5.5542 3.94558 5.5542ZM6.35082 10.4523V7.78795C5.93428 7.01938 5.05725 6.46144 4.14591 6.46144C3.10282 6.46144 1.95741 7.43023 1.95741 9.18355C1.95741 10.8302 2.99614 11.9056 4.14591 11.9056C5.08782 11.9056 5.94283 11.1954 6.35082 10.4523ZM11.5189 5.5542C9.76877 5.5542 8.43647 7.13144 8.43647 9.18374C8.43647 11.3426 9.87544 12.8133 11.5189 12.8133C12.3963 12.8133 13.306 12.4472 13.9246 11.7566V12.2987C13.9246 12.5638 14.1395 12.7787 14.4046 12.7787C14.6698 12.7787 14.8846 12.5638 14.8846 12.2987V6.10137C14.8846 5.83627 14.6698 5.62137 14.4046 5.62137C14.1395 5.62137 13.9246 5.83627 13.9246 6.10137V6.63809C13.3392 5.97438 12.4719 5.5542 11.5189 5.5542ZM13.9246 10.4515V7.78879C13.5083 7.01979 12.6309 6.46144 11.7192 6.46144C10.6762 6.46144 9.53074 7.43023 9.53074 9.18355C9.53074 10.8302 10.5695 11.9056 11.7192 11.9056C12.6615 11.9056 13.5168 11.1949 13.9246 10.4515Z" fill="#1C2024"/>
</svg>
