<svg width="16" height="16" viewBox="0 0 16 16" fill="none" xmlns="http://www.w3.org/2000/svg">
<rect width="16" height="16" fill="white" fill-opacity="0.01"/>
<path fill-rule="evenodd" clip-rule="evenodd" d="M4.03449 2.36495C3.95448 2.28494 3.84594 2.23999 3.73279 2.23999C3.61963 2.23999 3.51111 2.28494 3.43108 2.36495L1.29775 4.49828C1.13114 4.66491 1.13114 4.93506 1.29775 5.10169C1.46437 5.26831 1.73453 5.26831 1.90115 5.10169L3.30612 3.69672V12.3033L1.90115 10.8983C1.73453 10.7316 1.46437 10.7316 1.29775 10.8983C1.13113 11.0649 1.13113 11.3351 1.29775 11.5017L3.43108 13.635C3.51111 13.715 3.61963 13.76 3.73279 13.76C3.84594 13.76 3.95447 13.715 4.03449 13.635L6.16782 11.5017C6.33444 11.3351 6.33444 11.0649 6.16782 10.8983C6.0012 10.7316 5.73104 10.7316 5.56442 10.8983L4.15946 12.3033V3.69672L5.56442 5.10169C5.73104 5.26831 6.0012 5.26831 6.16782 5.10169C6.33444 4.93506 6.33444 4.66491 6.16782 4.49828L4.03449 2.36495ZM9.06665 4.26665C8.77209 4.26665 8.53331 4.50542 8.53331 4.79998C8.53331 5.09453 8.77209 5.33331 9.06665 5.33331H15.4667C15.7612 5.33331 16 5.09453 16 4.79998C16 4.50542 15.7612 4.26665 15.4667 4.26665H9.06665ZM8.53331 7.99998C8.53331 7.70542 8.77209 7.46665 9.06665 7.46665H15.4667C15.7612 7.46665 16 7.70542 16 7.99998C16 8.29453 15.7612 8.53331 15.4667 8.53331H9.06665C8.77209 8.53331 8.53331 8.29453 8.53331 7.99998ZM9.06665 10.6666C8.77209 10.6666 8.53331 10.9054 8.53331 11.2C8.53331 11.4945 8.77209 11.7333 9.06665 11.7333H15.4667C15.7612 11.7333 16 11.4945 16 11.2C16 10.9054 15.7612 10.6666 15.4667 10.6666H9.06665Z" fill="#1C2024"/>
</svg>
