<svg width="16" height="16" viewBox="0 0 16 16" fill="none" xmlns="http://www.w3.org/2000/svg">
<rect width="16" height="16" fill="white" fill-opacity="0.01"/>
<path fill-rule="evenodd" clip-rule="evenodd" d="M3.73317 1.17334C3.49754 1.17334 3.30651 1.36436 3.30651 1.60001C3.30651 1.83564 3.49754 2.02667 3.73317 2.02667H12.2666C12.5022 2.02667 12.6932 1.83564 12.6932 1.60001C12.6932 1.36436 12.5022 1.17334 12.2666 1.17334H3.73317ZM5.33328 4.53334C5.33328 4.23879 5.0945 4.00001 4.79995 4.00001C4.5054 4.00001 4.26661 4.23879 4.26661 4.53334V10.1867C4.26661 12.2485 5.93808 13.92 7.99995 13.92C10.0618 13.92 11.7333 12.2485 11.7333 10.1867V4.53334C11.7333 4.23879 11.4945 4.00001 11.2 4.00001C10.9054 4.00001 10.6666 4.23879 10.6666 4.53334V10.1867C10.6666 11.6594 9.4727 12.8533 7.99995 12.8533C6.52719 12.8533 5.33328 11.6594 5.33328 10.1867V4.53334Z" fill="#1C2024"/>
</svg>
