<svg width="16" height="16" viewBox="0 0 16 16" fill="none" xmlns="http://www.w3.org/2000/svg">
<rect width="16" height="16" fill="white" fill-opacity="0.01"/>
<path fill-rule="evenodd" clip-rule="evenodd" d="M3.2 5.86663C3.2 8.51517 5.32447 9.59997 7.46667 9.59997V13.3333C7.46667 13.6278 7.70545 13.8666 8 13.8666C8.29455 13.8666 8.53333 13.6278 8.53333 13.3333V9.59997V3.30663H9.6V13.3333C9.6 13.6278 9.83879 13.8666 10.1333 13.8666C10.4279 13.8666 10.6667 13.6278 10.6667 13.3333V3.30663H12.2667C12.5907 3.30663 12.8533 3.04398 12.8533 2.71997C12.8533 2.39596 12.5907 2.1333 12.2667 2.1333H10.1333H8.53333H8H7.46667C5.32447 2.1333 3.2 3.2181 3.2 5.86663Z" fill="#1C2024"/>
</svg>
