<svg width="16" height="16" viewBox="0 0 16 16" fill="none" xmlns="http://www.w3.org/2000/svg">
<rect width="16" height="16" fill="white" fill-opacity="0.01"/>
<path fill-rule="evenodd" clip-rule="evenodd" d="M5.33336 3.46668C5.33336 3.17213 5.09458 2.93335 4.80003 2.93335C4.50548 2.93335 4.26669 3.17213 4.26669 3.46668V7.57338H2.66664C2.43099 7.57338 2.23997 7.76441 2.23997 8.00005C2.23997 8.23569 2.43099 8.42671 2.66664 8.42671H4.26669V9.12002C4.26669 11.1819 5.93816 12.8533 8.00003 12.8533C10.0619 12.8533 11.7333 11.1819 11.7333 9.12002V8.42671H13.3333C13.569 8.42671 13.76 8.23569 13.76 8.00005C13.76 7.76441 13.569 7.57338 13.3333 7.57338H11.7333V3.46668C11.7333 3.17213 11.4946 2.93335 11.2 2.93335C10.9055 2.93335 10.6667 3.17213 10.6667 3.46668V7.57338H5.33336V3.46668ZM5.33336 8.42671V9.12002C5.33336 10.5928 6.52727 11.7867 8.00003 11.7867C9.47279 11.7867 10.6667 10.5928 10.6667 9.12002V8.42671H5.33336Z" fill="#1C2024"/>
</svg>
