<svg width="16" height="16" viewBox="0 0 16 16" fill="none" xmlns="http://www.w3.org/2000/svg">
<rect width="16" height="16" fill="white" fill-opacity="0.01"/>
<path fill-rule="evenodd" clip-rule="evenodd" d="M4.15946 5.86672C4.15946 5.63108 3.96843 5.44006 3.73279 5.44006C3.49714 5.44006 3.30612 5.63108 3.30612 5.86672V13.37L1.90115 11.965C1.73453 11.7984 1.46437 11.7984 1.29775 11.965C1.13112 12.1317 1.13112 12.4018 1.29775 12.5685L3.43108 14.7018C3.5111 14.7818 3.61963 14.8267 3.73279 14.8267C3.84594 14.8267 3.95447 14.7818 4.03449 14.7018L6.16782 12.5685C6.33444 12.4018 6.33444 12.1317 6.16782 11.965C6.00119 11.7984 5.73104 11.7984 5.56442 11.965L4.15946 13.37V5.86672ZM9.06665 13.8667C8.77209 13.8667 8.53331 13.628 8.53331 13.3334C8.53331 13.0389 8.77209 12.8 9.06665 12.8H15.4667C15.7612 12.8 16 13.0389 16 13.3334C16 13.628 15.7612 13.8667 15.4667 13.8667H9.06665ZM9.06665 10.6667C8.77209 10.6667 8.53331 10.4279 8.53331 10.1334C8.53331 9.83884 8.77209 9.60005 9.06665 9.60005H15.4667C15.7612 9.60005 16 9.83884 16 10.1334C16 10.4279 15.7612 10.6667 15.4667 10.6667H9.06665ZM8.53331 6.93339C8.53331 7.22795 8.77209 7.46672 9.06665 7.46672H15.4667C15.7612 7.46672 16 7.22795 16 6.93339C16 6.63884 15.7612 6.40005 15.4667 6.40005H9.06665C8.77209 6.40005 8.53331 6.63884 8.53331 6.93339Z" fill="#1C2024"/>
</svg>
