<svg width="16" height="16" viewBox="0 0 16 16" fill="none" xmlns="http://www.w3.org/2000/svg">
<rect width="16" height="16" fill="white" fill-opacity="0.01"/>
<path fill-rule="evenodd" clip-rule="evenodd" d="M4.15946 10.1333C4.15946 10.369 3.96843 10.56 3.73279 10.56C3.49714 10.56 3.30612 10.369 3.30612 10.1333V2.63007L1.90115 4.03504C1.73453 4.20166 1.46437 4.20166 1.29775 4.03504C1.13113 3.86841 1.13113 3.59826 1.29775 3.43163L3.43108 1.2983C3.51111 1.21829 3.61963 1.17334 3.73279 1.17334C3.84594 1.17334 3.95448 1.21829 4.03449 1.2983L6.16782 3.43163C6.33444 3.59826 6.33444 3.86841 6.16782 4.03504C6.0012 4.20166 5.73104 4.20166 5.56442 4.03504L4.15946 2.63007V10.1333ZM9.06665 2.13334C8.77209 2.13334 8.53331 2.37211 8.53331 2.66667C8.53331 2.96122 8.77209 3.20001 9.06665 3.20001H15.4667C15.7612 3.20001 16 2.96122 16 2.66667C16 2.37211 15.7612 2.13334 15.4667 2.13334H9.06665ZM9.06665 5.33334C8.77209 5.33334 8.53331 5.57211 8.53331 5.86667C8.53331 6.16122 8.77209 6.40001 9.06665 6.40001H15.4667C15.7612 6.40001 16 6.16122 16 5.86667C16 5.57211 15.7612 5.33334 15.4667 5.33334H9.06665ZM8.53331 9.06667C8.53331 8.77211 8.77209 8.53334 9.06665 8.53334H15.4667C15.7612 8.53334 16 8.77211 16 9.06667C16 9.36122 15.7612 9.60001 15.4667 9.60001H9.06665C8.77209 9.60001 8.53331 9.36122 8.53331 9.06667Z" fill="#1C2024"/>
</svg>
