<svg width="16" height="16" viewBox="0 0 16 16" fill="none" xmlns="http://www.w3.org/2000/svg">
<rect width="16" height="16" fill="white" fill-opacity="0.01"/>
<path fill-rule="evenodd" clip-rule="evenodd" d="M3.7328 15.8933C3.96843 15.8933 4.15946 15.7023 4.15946 15.4666V11.1634L5.56442 12.5684C5.73104 12.735 6.0012 12.735 6.16782 12.5684C6.33445 12.4018 6.33445 12.1316 6.16782 11.965L4.03449 9.83165C3.95448 9.75163 3.84595 9.70667 3.7328 9.70667C3.61963 9.70667 3.51111 9.75163 3.43109 9.83165L1.29776 11.965C1.13113 12.1316 1.13113 12.4018 1.29776 12.5684C1.46438 12.735 1.73454 12.735 1.90116 12.5684L3.30613 11.1634V15.4666C3.30613 15.7023 3.49715 15.8933 3.7328 15.8933ZM8.53331 11.2C8.53331 11.4946 8.77209 11.7333 9.06665 11.7333H15.4667C15.7612 11.7333 16 11.4946 16 11.2C16 10.9055 15.7612 10.6667 15.4667 10.6667H9.06665C8.77209 10.6667 8.53331 10.9055 8.53331 11.2ZM8.53331 8.00001C8.53331 8.29457 8.77209 8.53334 9.06665 8.53334H15.4667C15.7612 8.53334 16 8.29457 16 8.00001C16 7.70546 15.7612 7.46668 15.4667 7.46668H9.06665C8.77209 7.46668 8.53331 7.70546 8.53331 8.00001ZM9.06665 5.33335C8.77209 5.33335 8.53331 5.09457 8.53331 4.80001C8.53331 4.50546 8.77209 4.26668 9.06665 4.26668H15.4667C15.7612 4.26668 16 4.50546 16 4.80001C16 5.09457 15.7612 5.33335 15.4667 5.33335H9.06665ZM4.15946 0.533356C4.15946 0.297714 3.96843 0.106689 3.7328 0.106689C3.49715 0.106689 3.30613 0.297714 3.30613 0.533356V4.83662L1.90116 3.43165C1.73454 3.26503 1.46438 3.26503 1.29776 3.43165C1.13113 3.59828 1.13113 3.86843 1.29776 4.03505L3.43109 6.16838C3.51111 6.24839 3.61963 6.29334 3.7328 6.29334C3.84595 6.29334 3.95448 6.24839 4.03449 6.16838L6.16782 4.03505C6.33445 3.86843 6.33445 3.59828 6.16782 3.43165C6.0012 3.26503 5.73104 3.26503 5.56442 3.43165L4.15946 4.83662V0.533356Z" fill="#1C2024"/>
</svg>
