<svg width="16" height="16" viewBox="0 0 16 16" fill="none" xmlns="http://www.w3.org/2000/svg">
<rect width="16" height="16" fill="white" fill-opacity="0.01"/>
<path fill-rule="evenodd" clip-rule="evenodd" d="M2.13333 4.80006C2.13333 4.50551 2.37212 4.26672 2.66666 4.26672H13.3333C13.6278 4.26672 13.8667 4.50551 13.8667 4.80006C13.8667 5.09461 13.6278 5.33339 13.3333 5.33339H2.66666C2.37212 5.33339 2.13333 5.09461 2.13333 4.80006ZM2.13333 8.00006C2.13333 7.70551 2.37212 7.46672 2.66666 7.46672H8C8.29455 7.46672 8.53333 7.70551 8.53333 8.00006C8.53333 8.29461 8.29455 8.53339 8 8.53339H2.66666C2.37212 8.53339 2.13333 8.29461 2.13333 8.00006ZM2.13333 11.2001C2.13333 10.9056 2.37212 10.6667 2.66666 10.6667H11.2C11.4945 10.6667 11.7333 10.9056 11.7333 11.2001C11.7333 11.4946 11.4945 11.7334 11.2 11.7334H2.66666C2.37212 11.7334 2.13333 11.4946 2.13333 11.2001Z" fill="#1C2024"/>
</svg>
