<svg width="16" height="16" viewBox="0 0 16 16" fill="none" xmlns="http://www.w3.org/2000/svg">
<rect width="16" height="16" fill="white" fill-opacity="0.01"/>
<path fill-rule="evenodd" clip-rule="evenodd" d="M2.13333 4.80006C2.13333 4.50551 2.37212 4.26672 2.66666 4.26672H13.3333C13.6278 4.26672 13.8667 4.50551 13.8667 4.80006C13.8667 5.09461 13.6278 5.33339 13.3333 5.33339H2.66666C2.37212 5.33339 2.13333 5.09461 2.13333 4.80006ZM7.46666 8.00006C7.46666 7.70551 7.70545 7.46672 8 7.46672H13.3333C13.6278 7.46672 13.8667 7.70551 13.8667 8.00006C13.8667 8.29461 13.6278 8.53339 13.3333 8.53339H8C7.70545 8.53339 7.46666 8.29461 7.46666 8.00006ZM4.26666 11.2001C4.26666 10.9056 4.50545 10.6667 4.8 10.6667H13.3333C13.6278 10.6667 13.8667 10.9056 13.8667 11.2001C13.8667 11.4946 13.6278 11.7334 13.3333 11.7334H4.8C4.50545 11.7334 4.26666 11.4946 4.26666 11.2001Z" fill="#1C2024"/>
</svg>
