<svg width="16" height="16" viewBox="0 0 16 16" fill="none" xmlns="http://www.w3.org/2000/svg">
<rect width="16" height="16" fill="white" fill-opacity="0.01"/>
<path fill-rule="evenodd" clip-rule="evenodd" d="M14.2438 2.51043C14.4521 2.30215 14.4521 1.96447 14.2438 1.75619C14.0355 1.5479 13.6978 1.5479 13.4895 1.75619L12.7244 2.5214C12.7103 2.47727 12.6901 2.4359 12.6648 2.39832C12.5785 2.27064 12.4324 2.1867 12.2668 2.1867H3.7334C3.51904 2.1867 3.3375 2.32721 3.27586 2.52115C3.26127 2.56707 3.2534 2.61597 3.2534 2.66672V4.79999C3.2534 5.06509 3.4683 5.27999 3.7334 5.27999C3.99849 5.27999 4.2134 5.06509 4.2134 4.79999V3.1467H7.41341V7.83234L1.75622 13.4895C1.54793 13.6978 1.54793 14.0355 1.75622 14.2438C1.9645 14.452 2.30218 14.452 2.51046 14.2438L7.41341 9.34083V12.8534H6.13804C5.87294 12.8534 5.65804 13.0682 5.65804 13.3334C5.65804 13.5985 5.87294 13.8134 6.13804 13.8134H9.87137C10.1365 13.8134 10.3514 13.5985 10.3514 13.3334C10.3514 13.0682 10.1365 12.8534 9.87137 12.8534H8.58674V8.1675L14.2438 2.51043ZM8.58674 6.65901L11.7868 3.459V3.1467H8.58674V6.65901Z" fill="#1C2024"/>
</svg>
