<svg width="16" height="16" viewBox="0 0 16 16" fill="none" xmlns="http://www.w3.org/2000/svg">
<rect width="16" height="16" fill="white" fill-opacity="0.01"/>
<path fill-rule="evenodd" clip-rule="evenodd" d="M2.13333 4.80006C2.13333 4.50551 2.37212 4.26672 2.66666 4.26672H13.3333C13.6278 4.26672 13.8667 4.50551 13.8667 4.80006C13.8667 5.09461 13.6278 5.33339 13.3333 5.33339H2.66666C2.37212 5.33339 2.13333 5.09461 2.13333 4.80006ZM4.26666 8.00006C4.26666 7.70551 4.50545 7.46672 4.8 7.46672H11.2C11.4945 7.46672 11.7333 7.70551 11.7333 8.00006C11.7333 8.29461 11.4945 8.53339 11.2 8.53339H4.8C4.50545 8.53339 4.26666 8.29461 4.26666 8.00006ZM3.2 11.2001C3.2 10.9056 3.43878 10.6667 3.73333 10.6667H12.2667C12.5612 10.6667 12.8 10.9056 12.8 11.2001C12.8 11.4946 12.5612 11.7334 12.2667 11.7334H3.73333C3.43878 11.7334 3.2 11.4946 3.2 11.2001Z" fill="#1C2024"/>
</svg>
