<svg width="16" height="16" viewBox="0 0 16 16" fill="none" xmlns="http://www.w3.org/2000/svg">
<rect width="16" height="16" fill="white" fill-opacity="0.01"/>
<path fill-rule="evenodd" clip-rule="evenodd" d="M4.21327 3.14665V4.79994C4.21327 5.06503 3.99835 5.27994 3.73327 5.27994C3.46817 5.27994 3.25327 5.06503 3.25327 4.79994V2.66667C3.25327 2.61591 3.26114 2.56701 3.27573 2.5211C3.33737 2.32716 3.51891 2.18665 3.73327 2.18665H12.2666C12.4323 2.18665 12.5784 2.27059 12.6646 2.39827C12.7164 2.47488 12.7466 2.56723 12.7466 2.66665V4.79994C12.7466 5.06503 12.5317 5.27994 12.2666 5.27994C12.0015 5.27994 11.7866 5.06503 11.7866 4.79994V3.14665H8.5866V12.8533H9.87124C10.1363 12.8533 10.3512 13.0682 10.3512 13.3333C10.3512 13.5985 10.1363 13.8133 9.87124 13.8133H6.13791C5.87281 13.8133 5.65791 13.5985 5.65791 13.3333C5.65791 13.0682 5.87281 12.8533 6.13791 12.8533H7.41327V3.14665H4.21327Z" fill="#1C2024"/>
</svg>
