<svg width="16" height="16" viewBox="0 0 16 16" fill="none" xmlns="http://www.w3.org/2000/svg">
<rect width="16" height="16" fill="white" fill-opacity="0.01"/>
<path fill-rule="evenodd" clip-rule="evenodd" d="M5.33335 2.93336C5.33335 2.63881 5.09456 2.40002 4.80001 2.40002C4.50546 2.40002 4.26668 2.63881 4.26668 2.93336V8.58669C4.26668 10.6486 5.93816 12.32 8.00001 12.32C10.0619 12.32 11.7333 10.6486 11.7333 8.58669V2.93336C11.7333 2.63881 11.4946 2.40002 11.2 2.40002C10.9055 2.40002 10.6667 2.63881 10.6667 2.93336V8.58669C10.6667 10.0594 9.47277 11.2534 8.00001 11.2534C6.52726 11.2534 5.33335 10.0594 5.33335 8.58669V2.93336ZM3.73331 13.9735C3.49767 13.9735 3.30665 14.1644 3.30665 14.4001C3.30665 14.6358 3.49767 14.8268 3.73331 14.8268H12.2667C12.5023 14.8268 12.6933 14.6358 12.6933 14.4001C12.6933 14.1644 12.5023 13.9735 12.2667 13.9735H3.73331Z" fill="#1C2024"/>
</svg>
